<?xml version="1.0" encoding="UTF-8"?>
<svg width="149px" height="150px" viewBox="0 0 149 150" version="1.1" xmlns="http://www.w3.org/2000/svg" xmlns:xlink="http://www.w3.org/1999/xlink">
    <title>1-no-poverty</title>
    <g id="SDGs" stroke="none" stroke-width="1" fill="none" fill-rule="evenodd">
        <g id="1-no-poverty" transform="translate(0.000000, 0.989540)">
            <path d="M0.826754,0 L147.266003,0 C147.724023,0 148.092753,0.36873 148.092753,0.82675 L148.092753,147.50782 C148.092753,147.96584 147.724023,148.33457 147.266003,148.33457 L0.826754,148.33457 C0.368732,148.33457 0,147.96584 0,147.50782 L0,0.82675 C0,0.36873 0.368732,0 0.826754,0 Z" id="rect8528-7" fill="#EB1C2D"></path>
            <g id="text6065" transform="translate(42.276346, 13.133330)" fill="#FFFFFF" fill-rule="nonzero">
                <polygon id="path1875" points="4.573333 12.61866 1.792 5.02133 1.792 12.61866 0 12.61866 0 0.112 1.698666 0.112 4.461333 7.69066 4.461333 0.112 6.253333 0.112 6.253333 12.61866"></polygon>
                <path d="M8.183791,1.288 C8.47001367,0.889773333 8.83090267,0.57866 9.266458,0.35466 C9.714458,0.11822 10.1749023,2.84217094e-14 10.647791,2.84217094e-14 C11.1082357,2.84217094e-14 11.5375677,0.0933333333 11.935787,0.28 C12.3464537,0.466666667 12.688677,0.721776667 12.962457,1.04533 C13.236237,1.36888333 13.4229037,1.70488333 13.522457,2.05333 C13.6220103,2.38933 13.671787,2.75644 13.671787,3.15466 L13.671787,9.52 C13.671787,9.89333333 13.6344537,10.22311 13.559787,10.50933 C13.497587,10.79555 13.3482537,11.1128833 13.111787,11.46133 C12.887787,11.8097767 12.5580103,12.1084433 12.122457,12.35733 C11.6993463,12.6062167 11.2264577,12.73066 10.703791,12.73066 C10.4051243,12.73066 10.1189023,12.6933267 9.845125,12.61866 C9.571347,12.5315533 9.31623567,12.4195533 9.079791,12.28266 C8.843347,12.1457733 8.63179167,11.99022 8.445125,11.816 C8.27090233,11.6417733 8.13401333,11.4613267 8.034458,11.27466 C7.84779133,10.8888867 7.73579133,10.5777767 7.698458,10.34133 C7.66112467,10.1048833 7.642458,9.83110667 7.642458,9.52 L7.642458,3.15466 C7.642458,2.78132667 7.67979133,2.45155 7.754458,2.16533 C7.84156933,1.86666333 7.98468033,1.57422 8.183791,1.288 L8.183791,1.288 Z M11.655791,2.27733 C11.419347,1.92888333 11.0957917,1.75466 10.685125,1.75466 C10.473569,1.75466 10.2620133,1.81688333 10.050458,1.94133 C9.85134667,2.05333 9.70823567,2.18399667 9.621125,2.33333 C9.54645833,2.48266333 9.49668033,2.63199667 9.471791,2.78133 C9.44690433,2.93066333 9.434461,3.05510667 9.434461,3.15466 L9.434461,9.52 C9.434461,9.5822 9.434461,9.65064333 9.434461,9.72533 C9.434461,9.78753 9.44068433,9.85597333 9.453131,9.93066 C9.46557767,10.0551067 9.565133,10.26044 9.751797,10.54666 C9.93846367,10.8079933 10.249575,10.93866 10.685131,10.93866 C10.909131,10.93866 11.108242,10.8888833 11.282464,10.78933 C11.4691307,10.67733 11.5997973,10.5528867 11.674464,10.416 C11.7615767,10.2666667 11.8175763,10.1297767 11.842463,10.00533 C11.8673297,9.88088333 11.879763,9.71910667 11.879763,9.52 L11.879763,3.15466 C11.879763,2.90577333 11.8673297,2.73155333 11.842463,2.632 C11.8299963,2.53244 11.7677743,2.41421667 11.655797,2.27733 L11.655791,2.27733 Z" id="path1877"></path>
                <path d="M0,29.86564 L0,17.35897 L2.930666,17.35897 L2.967996,17.35897 C3.34132867,17.35897 3.695995,17.43986 4.031995,17.60164 C4.367995,17.7509733 4.66666167,17.9500833 4.927995,18.19897 C5.18932833,18.4478633 5.39466167,18.7340867 5.543995,19.05764 C5.705773,19.3687533 5.79288433,19.69231 5.805329,20.02831 L5.805329,21.83897 L5.805329,22.02564 C5.805329,22.4363067 5.72444,22.8220833 5.562662,23.18297 C5.41332867,23.5314167 5.20799533,23.8363067 4.946662,24.09764 C4.68532867,24.35897 4.37421767,24.5643067 4.013329,24.71364 C3.66488433,24.8629733 3.291551,24.93764 2.893329,24.93764 L2.725329,24.93764 L1.791996,24.93764 L1.791996,29.86564 L0,29.86564 Z M3.789333,22.88431 C3.901333,22.77231 3.96977733,22.6540867 3.994666,22.52964 C4.03199933,22.4051933 4.050666,22.2496367 4.050666,22.06297 L4.050666,20.21497 C4.050666,19.86653 3.94488833,19.58031 3.733333,19.35631 C3.521777,19.1198633 3.23555467,19.00164 2.874666,19.00164 L1.792,19.00164 L1.792,23.23897 L2.725333,23.23897 C2.97422167,23.23897 3.17333267,23.2203033 3.322666,23.18297 C3.484444,23.13317 3.63999967,23.0336167 3.789333,22.88431 Z" id="path1879"></path>
                <path d="M7.907619,18.53497 C8.19384167,18.13675 8.55473067,17.82564 8.990286,17.60164 C9.438286,17.3651933 9.89873033,17.24697 10.371619,17.24697 C10.8320637,17.24697 11.261397,17.3403033 11.659619,17.52697 C12.0702843,17.7136367 12.412507,17.96875 12.686287,18.29231 C12.960067,18.6158633 13.1467337,18.9518633 13.246287,19.30031 C13.3458403,19.63631 13.395617,20.00342 13.395617,20.40164 L13.395617,26.76697 C13.395617,27.1403033 13.3582837,27.4700833 13.283617,27.75631 C13.221417,28.04253 13.0720837,28.3598633 12.835617,28.70831 C12.611617,29.05675 12.2818403,29.3554167 11.846287,29.60431 C11.423175,29.8531967 10.9502857,29.97764 10.427619,29.97764 C10.1289523,29.97764 9.84273033,29.9403067 9.568953,29.86564 C9.295175,29.7785267 9.04006367,29.6665267 8.803619,29.52964 C8.567175,29.3927533 8.35561967,29.2371967 8.168953,29.06297 C7.99473033,28.88875 7.85784133,28.7083067 7.758286,28.52164 C7.57161933,28.13586 7.45961933,27.82475 7.422286,27.58831 C7.38495267,27.3518633 7.366286,27.0780833 7.366286,26.76697 L7.366286,20.40164 C7.366286,20.0283067 7.40361933,19.69853 7.478286,19.41231 C7.56539733,19.1136433 7.70850833,18.8211967 7.907619,18.53497 L7.907619,18.53497 Z M11.379619,19.52431 C11.1431743,19.1758633 10.819619,19.00164 10.408953,19.00164 C10.197397,19.00164 9.98584133,19.0638633 9.774286,19.18831 C9.57517467,19.30031 9.43206367,19.4309767 9.344953,19.58031 C9.27028633,19.7296433 9.22050833,19.8789767 9.195619,20.02831 C9.17073233,20.1776433 9.158289,20.3020867 9.158289,20.40164 L9.158289,26.76697 C9.158289,26.82917 9.158289,26.8976167 9.158289,26.97231 C9.158289,27.03451 9.16451233,27.1029533 9.176959,27.17764 C9.18940567,27.3020867 9.288961,27.50742 9.475625,27.79364 C9.66229167,28.0549733 9.973403,28.18564 10.408959,28.18564 C10.632959,28.18564 10.83207,28.1358633 11.006292,28.03631 C11.1929587,27.92431 11.3236253,27.7998633 11.398292,27.66297 C11.4854027,27.5136367 11.5414027,27.37675 11.566292,27.25231 C11.5911787,27.1278633 11.603622,26.9660833 11.603622,26.76697 L11.603622,20.40164 C11.603622,20.1527533 11.5911787,19.97853 11.566292,19.87897 C11.5538453,19.7794167 11.491623,19.6611967 11.379625,19.52431 L11.379619,19.52431 Z" id="path1881"></path>
                <polygon id="path1883" points="16.888327 29.86564 14.330997 17.35897 16.197657 17.35897 17.653657 26.03897 19.128327 17.35897 21.032327 17.35897 18.418997 29.86564"></polygon>
                <polygon id="path1885" points="27.474077 28.07364 27.474077 29.86564 22.116747 29.86564 22.116747 17.35897 27.474077 17.35897 27.474077 19.00164 23.890077 19.00164 23.890077 22.69764 27.026077 22.69764 27.026077 24.39631 23.890077 24.39631 23.890077 28.07364"></polygon>
                <path d="M28.320677,29.86564 L28.320677,17.35897 L31.456677,17.35897 C32.2780103,17.35897 32.968677,17.6451933 33.528677,18.21764 C34.1011237,18.7900867 34.387347,19.4931967 34.387347,20.32697 L34.387347,21.48431 C34.387347,22.6416433 33.8957903,23.5251967 32.912677,24.13497 L34.816677,29.86564 L32.912677,29.86564 L31.232677,24.50831 L30.112677,24.50831 L30.112677,29.86564 L28.320677,29.86564 Z M32.296677,22.52964 C32.408677,22.3927533 32.4833437,22.2371967 32.520677,22.06297 C32.570477,21.88875 32.595377,21.6958633 32.595377,21.48431 L32.595377,20.32697 C32.595377,19.9411967 32.489597,19.6300867 32.278037,19.39364 C32.0664837,19.1447533 31.767817,19.02031 31.382037,19.02031 L30.112707,19.02031 L30.112707,22.92164 L31.363377,22.92164 C31.7367103,22.92164 32.0478203,22.7909733 32.296707,22.52964 L32.296677,22.52964 Z" id="path1887"></path>
                <polygon id="path1889" points="36.940457 29.86564 36.940457 19.02031 34.831127 19.02031 34.831127 17.35897 40.860457 17.35897 40.860457 19.02031 38.713797 19.02031 38.713797 29.86564"></polygon>
                <polygon id="path1891" points="43.483417 29.86564 43.483417 24.48964 41.056747 17.35897 42.923417 17.35897 44.379417 22.24964 45.854087 17.35897 47.739417 17.35897 45.256747 24.48964 45.256747 29.86564"></polygon>
            </g>
            <g id="text6075" transform="translate(16.937281, 12.502940)" fill="#FFFFFF" fill-rule="nonzero">
                <polygon id="path1894" points="4.288 29.92667 4.288 4.46667 1.42108547e-14 7.68267 1.42108547e-14 3.12667 4.288 0 8.531334 0 8.531334 29.92667"></polygon>
            </g>
            <path d="M31.98235,70.90254 C31.98235,73.1770703 30.1384753,75.02094 27.863945,75.02094 C25.5894144,75.02094 23.745539,73.1770706 23.745539,70.90254 C23.745539,69.8102701 24.1794395,68.7627363 24.9517906,67.9903844 C25.7241417,67.2180325 26.7716751,66.78413 27.863945,66.78413 C28.9562148,66.78413 30.0037479,67.2180329 30.7760988,67.9903848 C31.5484497,68.7627366 31.98235,69.8102702 31.98235,70.90254 Z" id="path6660" fill="#FFFFFF"></path>
            <path d="M66.858343,73.18257 C66.858343,75.4571022 65.0144652,77.30097 62.739933,77.30097 C60.4654047,77.30097 58.621533,75.4570983 58.621533,73.18257 C58.621533,70.9080378 60.4654008,69.06416 62.739933,69.06416 C63.8322036,69.06416 64.879738,69.498061 65.65209,70.270413 C66.424442,71.042765 66.858343,72.0902994 66.858343,73.18257 Z" id="path6660-6" fill="#FFFFFF"></path>
            <path d="M89.954613,73.18257 C89.954613,75.4571022 88.1107352,77.30097 85.836203,77.30097 C83.5616747,77.30097 81.717803,75.4570983 81.717803,73.18257 C81.717803,70.9080378 83.5616708,69.06416 85.836203,69.06416 C86.9284736,69.06416 87.976008,69.498061 88.74836,70.270413 C89.520712,71.042765 89.954613,72.0902994 89.954613,73.18257 L89.954613,73.18257 Z" id="path6660-1" fill="#FFFFFF"></path>
            <path d="M122.302143,70.99757 C122.302143,73.2720983 120.458271,75.11597 118.183743,75.11597 C115.909211,75.11597 114.065333,73.2721022 114.065333,70.99757 C114.065333,69.9052994 114.499234,68.857765 115.271586,68.085413 C116.043938,67.313061 117.091472,66.87916 118.183743,66.87916 C120.458275,66.87916 122.302143,68.7230378 122.302143,70.99757 L122.302143,70.99757 Z" id="path6660-7" fill="#FFFFFF"></path>
            <path d="M47.695649,91.62129 C47.695649,93.4409145 46.2205485,94.91601 44.400924,94.91601 C42.5812999,94.91601 41.1062,93.4409141 41.1062,91.62129 C41.1062,90.7474739 41.4533196,89.9094465 42.0712003,89.2915646 C42.6890811,88.6736827 43.5271079,88.32656 44.400924,88.32656 C45.2747403,88.32656 46.1127673,88.6736823 46.7306483,89.2915642 C47.3485293,89.9094461 47.695649,90.7474737 47.695649,91.62129 L47.695649,91.62129 Z" id="path6660-2" fill="#FFFFFF"></path>
            <path d="M106.028303,91.62129 C106.028303,92.4951054 105.681179,93.3331312 105.063297,93.9510111 C104.445415,94.568891 103.607388,94.91601 102.733573,94.91601 C100.91395,94.91601 99.438853,93.4409126 99.438853,91.62129 C99.438853,90.7474746 99.785972,89.9094478 100.403852,89.291566 C101.021732,88.6736842 101.859758,88.32656 102.733573,88.32656 C103.60739,88.32656 104.445418,88.6736804 105.063301,89.2915625 C105.681183,89.9094445 106.028303,90.7474728 106.028303,91.62129 L106.028303,91.62129 Z" id="path6660-2-9" fill="#FFFFFF"></path>
            <path d="M117.360053,96.15152 L117.360053,113.00531 C117.360053,115.889 113.114933,115.90192 113.114933,113.00531 L113.114933,83.47951 C113.114933,82.41192 111.657643,82.32386 111.657643,83.47951 L111.657643,93.42704 C111.657643,95.78017 108.553003,95.87895 108.553003,93.42704 L108.553003,81.32526 C108.553003,78.84802 110.427883,76.69998 113.178293,76.69998 L123.189183,76.69998 C125.939593,76.69998 127.814473,78.84802 127.814473,81.32526 L127.814473,93.42704 C127.814473,95.87895 124.709833,95.78017 124.709833,93.42704 L124.709833,83.47951 C124.709833,82.32386 123.252543,82.41192 123.252543,83.47951 L123.252543,113.00531 C123.252543,115.90192 119.007423,115.889 119.007423,113.00531 L119.007423,96.15152 C119.007423,95.21854 117.360053,95.18699 117.360053,96.15152 L117.360053,96.15152 Z" id="path6858" fill="#FFFFFF"></path>
            <path d="M22.721748,76.70021 C19.971338,76.70021 18.096748,78.84797 18.096748,81.32521 L18.096748,93.42677 C18.096748,94.25828 18.454886,94.78954 18.926826,95.04591 L15.182685,113.76466 C14.963085,114.86267 16.431918,115.1026 16.626045,114.0381 L20.069404,95.15528 C20.681755,94.9662 21.200264,94.38738 21.200264,93.42677 L21.200264,83.4795 C21.200264,82.32385 22.657295,82.41191 22.657295,83.4795 L22.657295,113.00489 C22.657295,115.9015 26.903389,115.88858 26.903389,113.00489 L26.903389,96.15138 C26.903389,95.18685 28.549873,95.2184 28.549873,96.15138 L28.549873,113.00489 C28.549873,115.88858 32.795967,115.9015 32.795967,113.00489 L32.795967,83.4795 C32.795967,82.41191 34.252998,82.32385 34.252998,83.4795 L34.252998,93.42677 C34.252998,95.7799 37.356514,95.87868 37.356514,93.42677 L37.356514,81.32521 C37.356514,78.84797 35.481924,76.70021 32.731514,76.70021 L22.721748,76.70021 Z" id="path6853" fill="#FFFFFF"></path>
            <path d="M62.010693,101.18758 L62.010693,113.11923 C62.010693,116.07407 57.887293,116.02542 57.887293,113.11923 L57.887293,101.18758 L53.935281,101.18758 L58.414223,85.29171 C58.616663,84.57324 57.436243,84.04082 57.140803,84.98433 L54.418303,93.67876 C53.774527,95.73469 51.014472,95.00519 51.739719,92.62489 L55.164793,81.38361 C55.555933,80.09988 56.865203,79.10023 58.282493,79.10023 L67.023333,79.10023 C68.440623,79.10023 69.749893,80.09988 70.141033,81.38361 L73.566103,92.62489 C74.291353,95.00519 71.531293,95.73469 70.887523,93.67876 L68.165023,84.98433 C67.869583,84.04082 66.689163,84.57324 66.891603,85.29171 L71.370543,101.18758 L67.418533,101.18758 L67.418533,113.11923 C67.418533,116.02542 63.295123,116.07407 63.295123,113.11923 L63.295123,101.18758 L62.010693,101.18758 Z" id="path6660-7-6-5-9-4" fill="#FFFFFF"></path>
            <path d="M85.236043,101.18758 L85.236043,113.11923 C85.236043,116.07407 81.112643,116.02542 81.112643,113.11923 L81.112643,101.18758 L77.160633,101.18758 L81.639573,85.29171 C81.842013,84.57324 80.661593,84.04082 80.366153,84.98433 L77.643653,93.67876 C76.999883,95.73469 74.239823,95.00519 74.965073,92.62489 L78.390143,81.38361 C78.781283,80.09988 80.090553,79.10023 81.507843,79.10023 L90.248683,79.10023 C91.665973,79.10023 92.975243,80.09988 93.366383,81.38361 L96.791453,92.62489 C97.516703,95.00519 94.756643,95.73469 94.112873,93.67876 L91.390373,84.98433 C91.094933,84.04082 89.914513,84.57324 90.116953,85.29171 L94.595893,101.18758 L90.643883,101.18758 L90.643883,113.11923 C90.643883,116.02542 86.520473,116.07407 86.520473,113.11923 L86.520473,101.18758 L85.236043,101.18758 Z" id="path6813" fill="#FFFFFF"></path>
            <path d="M103.525843,108.43292 L103.525843,113.39489 C103.525843,115.50198 106.423993,115.76567 106.423993,113.39489 L106.423993,101.56081 C106.423993,100.93359 107.096033,100.91498 107.324173,101.51691 L108.842173,105.52203 C109.359153,106.88604 110.948933,106.30523 110.379063,104.90727 L107.368083,97.52099 C107.106873,96.8802 106.468943,96.35734 105.611633,96.35734 L99.976213,96.35734 C99.118903,96.35734 98.480973,96.8802 98.219763,97.52099 L95.208783,104.90727 C94.638913,106.30523 96.228693,106.88604 96.745673,105.52203 L98.263673,101.51691 C98.491813,100.91498 99.163853,100.93359 99.163853,101.56081 L99.163853,113.39489 C99.163853,115.76567 102.062003,115.50198 102.062003,113.39489 L102.062003,108.43292 C102.062003,107.55279 103.525843,107.49027 103.525843,108.43292 L103.525843,108.43292 Z" id="path6833" fill="#FFFFFF"></path>
            <path d="M43.804704,108.73464 L43.804704,113.80377 C43.804704,115.62472 41.15316,115.93222 41.15316,113.80377 L41.15316,108.22773 L39.320475,108.22773 L40.9192,102.41772 C41.194038,101.41892 40.98282,100.39938 40.490274,99.53222 L37.72175,94.65806 C36.891935,93.19712 38.911343,92.38379 39.554435,93.41027 L41.582086,96.64672 C41.881779,97.12504 42.253644,97.07564 42.712892,97.07564 L46.493396,97.07564 C46.952644,97.07564 47.324509,97.12504 47.624202,96.64672 L49.651853,93.41027 C50.294945,92.38379 52.314353,93.19712 51.484538,94.65806 L48.716014,99.53222 C48.223465,100.39938 48.01225,101.41892 48.287088,102.41772 L49.885813,108.22773 L48.053128,108.22773 L48.053128,113.80377 C48.053128,115.93222 45.401584,115.62472 45.401584,113.80377 L45.401584,108.73464 C45.401584,107.58924 43.804704,107.62077 43.804704,108.73464 L43.804704,108.73464 Z" id="path6660-7-6-5-9-4-3-7-8" fill="#FFFFFF"></path>
        </g>
    </g>
</svg>