<?xml version="1.0" encoding="UTF-8"?>
<svg width="150px" height="150px" viewBox="0 0 150 150" version="1.1" xmlns="http://www.w3.org/2000/svg" xmlns:xlink="http://www.w3.org/1999/xlink">
    <title>10-reduced-inequalities</title>
    <g id="SDGs" stroke="none" stroke-width="1" fill="none" fill-rule="evenodd">
        <g id="10-reduced-inequalities" transform="translate(0.920903, 0.783310)">
            <path d="M0.82676,0 L147.26601,0 C147.72403,0 148.09276,0.36873 148.09276,0.82676 L148.09276,147.50783 C148.09276,147.96585 147.72403,148.33458 147.26601,148.33458 L0.82676,148.33458 C0.36873,148.33458 0,147.96585 0,147.50783 L0,0.82676 C0,0.36873 0.36873,0 0.82676,0 Z" id="rect8528-63-2-4-3-6-0" fill="#E11484"></path>
            <g id="text6065-3-2-9-6-6-5-0-0-8" transform="translate(47.806680, 12.615470)" fill="#FFFFFF" fill-rule="nonzero">
                <path d="M1.13686838e-13,12.61866 L1.13686838e-13,0.112 L3.136,0.112 C3.95733333,0.112 4.648,0.39822 5.208,0.97066 C5.78044,1.54310667 6.06666,2.24622 6.06666,3.08 L6.06666,4.23733 C6.06666,5.39466333 5.57510667,6.27822 4.592,6.888 L6.496,12.61866 L4.592,12.61866 L2.912,7.26133 L1.792,7.26133 L1.792,12.61866 L1.13686838e-13,12.61866 Z M3.976,5.28266 C4.088,5.14577333 4.16266667,4.99022 4.2,4.816 C4.2498,4.64177333 4.2747,4.44888333 4.2747,4.23733 L4.2747,3.08 C4.2747,2.69422 4.16892333,2.38310667 3.95737,2.14666 C3.74581667,1.89777333 3.44715,1.77333 3.06137,1.77333 L1.79204,1.77333 L1.79204,5.67466 L3.0427,5.67466 C3.41603333,5.67466 3.72714667,5.54399333 3.97604,5.28266 L3.976,5.28266 Z" id="path2273"></path>
                <polygon id="path2275" points="12.62175 10.82666 12.62175 12.61866 7.26441 12.61866 7.26441 0.112 12.62175 0.112 12.62175 1.75466 9.03775 1.75466 9.03775 5.45066 12.17375 5.45066 12.17375 7.14933 9.03775 7.14933 9.03775 10.82666"></polygon>
                <path d="M16.31619,0.112 C17.1250833,0.112 17.81575,0.39822 18.38819,0.97066 C18.9730833,1.53066 19.26553,2.21510667 19.26553,3.024 L19.26553,9.52 C19.26553,10.4408867 18.98553,11.1875533 18.42553,11.76 C17.86553,12.33244 17.14375,12.61866 16.26019,12.61866 L13.47886,12.61866 L13.47886,0.112 L16.31619,0.112 Z M17.49219,9.52 L17.49219,3.024 C17.49219,2.67555333 17.3615233,2.38310667 17.10019,2.14666 C16.8513033,1.91022 16.5464167,1.792 16.18553,1.792 L15.25219,1.792 L15.25219,10.95733 L16.12953,10.95733 C17.03797,10.95733 17.49219,10.47822 17.49219,9.52 L17.49219,9.52 Z" id="path2277"></path>
                <path d="M26.47553,11.312 C26.20175,11.7351067 25.8470833,12.0773267 25.41153,12.33866 C24.9884167,12.5999933 24.5155267,12.73066 23.99286,12.73066 C23.7315267,12.73066 23.4701933,12.6933267 23.20886,12.61866 C22.9599733,12.5439933 22.72353,12.45066 22.49953,12.33866 C22.27553,12.21422 22.0764167,12.0773333 21.90219,11.928 C21.72797,11.76622 21.5973033,11.59822 21.51019,11.424 C21.3235233,11.0755533 21.19908,10.7706633 21.13686,10.50933 C21.08706,10.2479967 21.06216,9.96799667 21.06216,9.66933 L21.06216,0.112 L22.85416,0.112 L22.85416,9.66933 C22.85416,9.75644333 22.85416,9.83733333 22.85416,9.912 C22.8666267,9.9742 22.87906,10.03642 22.89146,10.09866 C22.9039267,10.19822 22.99726,10.3724433 23.17146,10.62133 C23.3332333,10.84533 23.6132333,10.95733 24.01146,10.95733 C24.3723467,10.95733 24.6399,10.8266633 24.81412,10.56533 C25.0007867,10.29155 25.09412,9.99288333 25.09412,9.66933 L25.09412,0.112 L26.88612,0.112 L26.88612,9.66933 C26.88612,9.96799667 26.85502,10.25422 26.79282,10.528 C26.73062,10.8017733 26.6248433,11.0631067 26.47549,11.312 L26.47553,11.312 Z" id="path2279"></path>
                <path d="M34.10346,9.464 C34.10346,9.86222 34.07856,10.20444 34.02876,10.49066 C33.9914267,10.7768867 33.86698,11.088 33.65542,11.424 C33.54342,11.59822 33.40031,11.76622 33.22609,11.928 C33.06431,12.0773333 32.8776433,12.21422 32.66609,12.33866 C32.4669767,12.45066 32.2492,12.5439933 32.01276,12.61866 C31.7763133,12.6933267 31.54609,12.73066 31.32209,12.73066 C30.76209,12.73066 30.2518667,12.61244 29.79142,12.376 C29.34342,12.1395533 29.0136433,11.8408867 28.80209,11.48 C28.5905367,11.1191067 28.4536467,10.7831067 28.39142,10.472 C28.34162,10.1608867 28.31672,9.82488667 28.31672,9.464 L28.31672,3.024 C28.31672,2.67555333 28.34782,2.36444 28.41002,2.09066 C28.4846867,1.80444 28.63402,1.49955333 28.85802,1.176 C29.08202,0.85244 29.3993533,0.57866 29.81002,0.35466 C30.2206867,0.11822 30.65002,0 31.09802,0 C31.9566867,0 32.6722433,0.28622 33.24469,0.85866 C33.81713,1.41866 34.10335,2.14044 34.10335,3.024 L34.10335,3.696 L32.33002,3.696 L32.33002,3.024 C32.33002,2.67555333 32.2304633,2.38310667 32.03135,2.14666 C31.8446833,1.91022 31.5646833,1.792 31.19135,1.792 C30.84291,1.792 30.5691333,1.91022 30.37002,2.14666 C30.1833533,2.38310667 30.09002,2.67555333 30.09002,3.024 L30.09002,9.94933 C30.1148867,10.1359967 30.2019967,10.3475533 30.35135,10.584 C30.5255767,10.8328867 30.8118,10.95733 31.21002,10.95733 C31.6331333,10.95733 31.9131333,10.84533 32.05002,10.62133 C32.1869067,10.39733 32.2677967,10.2355533 32.29269,10.136 C32.3175567,10.024 32.32999,9.87466667 32.32999,9.688 L32.32999,9.05333 L34.10332,9.05333 L34.10346,9.464 Z" id="path2281"></path>
                <polygon id="path2283" points="40.8236 10.82666 40.8236 12.61866 35.46626 12.61866 35.46626 0.112 40.8236 0.112 40.8236 1.75466 37.2396 1.75466 37.2396 5.45066 40.3756 5.45066 40.3756 7.14933 37.2396 7.14933 37.2396 10.82666"></polygon>
                <path d="M44.51804,0.112 C45.3269333,0.112 46.0176,0.39822 46.59004,0.97066 C47.1749333,1.53066 47.46738,2.21510667 47.46738,3.024 L47.46738,9.52 C47.46738,10.4408867 47.18738,11.1875533 46.62738,11.76 C46.06738,12.33244 45.3456,12.61866 44.46204,12.61866 L41.68071,12.61866 L41.68071,0.112 L44.51804,0.112 Z M45.69404,9.52 L45.69404,3.024 C45.69404,2.67555333 45.5633733,2.38310667 45.30204,2.14666 C45.0531533,1.91022 44.7482667,1.792 44.38738,1.792 L43.45404,1.792 L43.45404,10.95733 L44.33138,10.95733 C45.23982,10.95733 45.69404,10.47822 45.69404,9.52 L45.69404,9.52 Z" id="path2285"></path>
                <polygon id="path2287" points="0.26037 29.86564 0.26037 17.35897 2.03371 17.35897 2.03371 29.86564"></polygon>
                <polygon id="path2289" points="8.06904 29.86564 5.28771 22.26831 5.28771 29.86564 3.49571 29.86564 3.49571 17.35897 5.19437 17.35897 7.95704 24.93764 7.95704 17.35897 9.74904 17.35897 9.74904 29.86564"></polygon>
                <polygon id="path2291" points="16.21018 28.07364 16.21018 29.86564 10.85285 29.86564 10.85285 17.35897 16.21018 17.35897 16.21018 19.00164 12.62618 19.00164 12.62618 22.69764 15.76218 22.69764 15.76218 24.39631 12.62618 24.39631 12.62618 28.07364"></polygon>
                <path d="M17.52511,28.89497 C17.2388833,28.5838633 17.0459933,28.2540867 16.94644,27.90564 C16.8593267,27.5571933 16.81577,27.1465267 16.81577,26.67364 L16.81577,20.45764 C16.81577,19.5491933 17.1019933,18.7900833 17.67444,18.18031 C18.2593267,17.5580833 18.99355,17.24697 19.87711,17.24697 C20.67355,17.24697 21.37666,17.5394167 21.98644,18.12431 C22.5837733,18.7091967 22.88244,19.4060833 22.88244,20.21497 L22.88244,26.67364 C22.88244,27.0345267 22.8637733,27.3020833 22.82644,27.47631 C22.8015733,27.65053 22.7517967,27.82475 22.67711,27.99897 L23.85311,28.98831 L22.86377,30.18297 L21.74377,29.28697 C21.1962167,29.73497 20.5366633,29.95897 19.76511,29.95897 C19.3544433,29.95897 18.9437767,29.8594167 18.53311,29.66031 C18.1348833,29.4611967 17.7988833,29.2060833 17.52511,28.89497 Z M20.49311,26.20697 L21.09044,26.67364 L21.09044,20.45764 C21.09044,20.05942 20.97844,19.72342 20.75444,19.44964 C20.53044,19.16342 20.21933,19.02031 19.82111,19.02031 C19.5722167,19.02031 19.3544367,19.08253 19.16777,19.20697 C18.9811033,19.3314167 18.8442167,19.48075 18.75711,19.65497 C18.6824433,19.8291967 18.6388867,19.9660867 18.62644,20.06564 C18.6139733,20.1527533 18.60774,20.28342 18.60774,20.45764 L18.60774,26.67364 L18.60774,26.80431 C18.60774,27.1651967 18.7072967,27.48875 18.90641,27.77497 C19.1179633,28.04875 19.44152,28.1918633 19.87708,28.20431 C20.00152,28.20431 20.1508533,28.1669767 20.32508,28.09231 L19.50374,27.40164 L20.49311,26.20697 Z" id="path2293"></path>
                <path d="M29.71389,28.55897 C29.44011,28.9820833 29.0854433,29.3243067 28.64989,29.58564 C28.2267767,29.8469733 27.7538867,29.97764 27.23122,29.97764 C26.9698867,29.97764 26.7085533,29.9403067 26.44722,29.86564 C26.1983333,29.7909733 25.96189,29.69764 25.73789,29.58564 C25.51389,29.4611933 25.31478,29.3243033 25.14056,29.17497 C24.9663333,29.0131967 24.8356667,28.8451967 24.74856,28.67097 C24.5618933,28.32253 24.4374467,28.0176433 24.37522,27.75631 C24.32542,27.4949767 24.30052,27.2149767 24.30052,26.91631 L24.30052,17.35897 L26.09252,17.35897 L26.09252,26.91631 C26.09252,27.0034167 26.09252,27.0843033 26.09252,27.15897 C26.1049867,27.22117 26.11742,27.2833933 26.12982,27.34564 C26.1422867,27.4451933 26.23562,27.6194167 26.40982,27.86831 C26.5716,28.09231 26.8516,28.20431 27.24982,28.20431 C27.6107067,28.20431 27.8782633,28.0736433 28.05249,27.81231 C28.2391567,27.53853 28.33249,27.2398633 28.33249,26.91631 L28.33249,17.35897 L30.12449,17.35897 L30.12449,26.91631 C30.12449,27.2149767 30.09339,27.5011967 30.03119,27.77497 C29.96899,28.04875 29.8632133,28.3100833 29.71386,28.55897 L29.71389,28.55897 Z" id="path2295"></path>
                <path d="M30.83601,29.86564 L33.63601,17.35897 L35.18535,17.35897 L37.98535,29.86564 L36.06268,29.86564 L35.55868,27.17764 L33.24401,27.17764 L32.72135,29.86564 L30.83601,29.86564 Z M33.56135,25.51631 L35.24135,25.51631 L34.40135,20.96164 L33.56135,25.51631 Z" id="path2297"></path>
                <polygon id="path2299" points="44.25472 29.86564 38.91605 29.86564 38.91605 17.35897 40.70805 17.35897 40.70805 28.07364 44.25472 28.07364"></polygon>
                <polygon id="path2301" points="44.63888 29.86564 44.63888 17.35897 46.41222 17.35897 46.41222 29.86564"></polygon>
                <polygon id="path2303" points="49.67411 29.86564 49.67411 19.02031 47.56478 19.02031 47.56478 17.35897 53.59411 17.35897 53.59411 19.02031 51.44745 19.02031 51.44745 29.86564"></polygon>
                <polygon id="path2305" points="54.17104 29.86564 54.17104 17.35897 55.94437 17.35897 55.94437 29.86564"></polygon>
                <polygon id="path2307" points="62.82413 28.07364 62.82413 29.86564 57.4668 29.86564 57.4668 17.35897 62.82413 17.35897 62.82413 19.00164 59.24013 19.00164 59.24013 22.69764 62.37613 22.69764 62.37613 24.39631 59.24013 24.39631 59.24013 28.07364"></polygon>
                <path d="M65.06701,26.74831 C65.06701,26.87275 65.06701,26.9785267 65.06701,27.06564 C65.06701,27.1527533 65.0732433,27.22742 65.08571,27.28964 C65.1105767,27.4140867 65.20391,27.59453 65.36571,27.83097 C65.5399367,28.0798633 65.85105,28.20431 66.29905,28.20431 C66.5479367,28.20431 66.7781567,28.15453 66.98971,28.05497 C67.20127,27.94297 67.3568267,27.79986 67.45638,27.62564 C67.5310467,27.4887533 67.5746033,27.3580867 67.58705,27.23364 C67.6119167,27.1091933 67.62435,26.9971933 67.62435,26.89764 L67.62435,26.72964 L67.62435,25.85231 L67.62435,25.68431 C67.62435,25.41053 67.5745733,25.1989733 67.47502,25.04964 C67.37546,24.88786 67.15146,24.7074167 66.80302,24.50831 C66.5665733,24.3838633 66.14346,24.20964 65.53368,23.98564 C64.9239067,23.76164 64.4136867,23.4069733 64.00302,22.92164 C63.5923533,22.4363067 63.38702,21.77675 63.38702,20.94297 L63.38702,20.38297 C63.38702,19.5243033 63.67324,18.7900833 64.24568,18.18031 C64.8305733,17.5580833 65.5399067,17.24697 66.37368,17.24697 C67.2447933,17.24697 67.9665733,17.55186 68.53902,18.16164 C69.1239067,18.77142 69.41635,19.5118633 69.41635,20.38297 L69.41635,20.94297 L67.62435,20.94297 L67.62435,20.38297 C67.62435,20.2958633 67.6181167,20.2149767 67.60565,20.14031 C67.60565,20.0656433 67.5994167,19.9971967 67.58695,19.93497 C67.5744833,19.87277 67.5433833,19.7981033 67.49365,19.71097 C67.44385,19.6238633 67.3754067,19.5180867 67.28832,19.39364 C67.1141,19.1447533 66.8216567,19.02031 66.41099,19.02031 C66.0500967,19.02031 65.75143,19.1509767 65.51499,19.41231 C65.29099,19.6736433 65.17899,19.9971967 65.17899,20.38297 L65.17899,20.94297 L65.17899,21.11097 C65.17899,21.3598633 65.2163233,21.5589767 65.29099,21.70831 C65.3780967,21.8451967 65.5772067,22.00075 65.88832,22.17497 C65.9878733,22.22477 66.1372067,22.2932167 66.33632,22.38031 C66.5478733,22.4549767 66.8029833,22.54831 67.10165,22.66031 C67.6989833,22.8594167 68.2340967,23.2140833 68.70699,23.72431 C69.1798767,24.23453 69.41635,24.90653 69.41635,25.74031 L69.41635,26.74831 C69.41635,27.1838633 69.3727633,27.5509733 69.28565,27.84964 C69.2109833,28.1483067 68.9558733,28.5838633 68.52032,29.15631 C68.0847667,29.7038633 67.3567667,29.97764 66.33632,29.97764 C65.2536533,29.97764 64.4696533,29.6291967 63.98432,28.93231 C63.4989867,28.2229767 63.25632,27.4949767 63.25632,26.74831 L63.25632,26.30031 L65.06699,26.30031 L65.06701,26.74831 Z" id="path2309"></path>
            </g>
            <g id="text6075-0-6-9-2-5-9-0-9-4" transform="translate(10.287020, 12.058910)" fill="#FFFFFF" fill-rule="nonzero">
                <polygon id="path2312" points="4.288 30.19466 4.288 4.73466 0 7.95066 0 3.39466 4.288 0.268 8.53133 0.268 8.53133 30.19466"></polygon>
                <path d="M18.90725,30.28403 C15.75081,29.71822 13.9194767,27.8719967 13.41325,24.74533 L13.41325,5.494 C13.8003633,3.14155333 14.8276967,1.56333 16.49525,0.75933 C17.59703,0.25311 18.7434767,0 19.93459,0 C20.67903,0 21.45325,0.0893333333 22.25725,0.268 C23.32925,0.923106667 24.1928067,1.62288333 24.84792,2.36733 C25.5030333,3.08199667 25.9497,4.12422 26.18792,5.494 L26.18792,24.656 C25.7710333,27.57422 24.22259,29.43533 21.54259,30.23933 L20.69392,30.23933 C20.5450333,30.26913 19.9494767,30.28403 18.90725,30.28403 L18.90725,30.28403 Z M19.35392,25.996 C20.66414,25.996 21.4979167,25.4004433 21.85525,24.20933 L21.85525,6.164 C21.6765833,5.59822 21.48303,5.13666333 21.27459,4.77933 C20.7683633,4.39221667 20.27703,4.19866 19.80059,4.19866 C19.2943633,4.19866 18.8774733,4.39221667 18.54992,4.77933 C18.2223667,5.13666333 17.9692567,5.59822 17.79059,6.164 L17.79059,24.12 C17.9692567,25.0431067 18.4903667,25.66844 19.35392,25.996 Z" id="path2314"></path>
            </g>
            <path d="M60.48834,79.8205 L60.48834,89.23261 L88.69538,89.23261 L88.69538,79.8205 L60.48834,79.8205 Z M60.48834,97.24042 L60.48834,106.80292 L88.69538,106.80292 L88.69538,97.24042 L60.48834,97.24042 Z M74.56256,54.29901 L60.55084,68.31073 L88.57428,68.31073 L74.56256,54.29901 Z M49.75006,79.11151 L35.76764,93.09394 L49.75006,107.07636 L49.75006,79.11151 Z M99.43366,79.17011 L99.43366,106.93573 L113.31647,93.05292 L99.43366,79.17011 Z M60.81061,118.1369 L74.52155,131.84784 L88.23249,118.1369 L60.81061,118.1369 Z" id="rect7477-8-0" fill="#FFFFFF"></path>
        </g>
    </g>
</svg>