<?xml version="1.0" encoding="UTF-8"?>
<svg width="149px" height="150px" viewBox="0 0 149 150" version="1.1" xmlns="http://www.w3.org/2000/svg" xmlns:xlink="http://www.w3.org/1999/xlink">
    <title>11-sustainable-cities-and-communities</title>
    <g id="SDGs" stroke="none" stroke-width="1" fill="none" fill-rule="evenodd">
        <g id="11-sustainable-cities-and-communities" transform="translate(0.894543, 0.783310)">
            <path d="M0.82675,0 L147.266,0 C147.72402,0 148.09275,0.36873 148.09275,0.82676 L148.09275,147.50783 C148.09275,147.96585 147.72402,148.33458 147.266,148.33458 L0.82675,148.33458 C0.36873,148.33458 0,147.96585 0,147.50783 L0,0.82676 C0,0.36873 0.36873,0 0.82675,0 Z" id="rect8528-63-2-4-3-6" fill="#F99D26"></path>
            <g id="text6065-3-2-9-6-6-5-0-0-8-8" transform="translate(40.846880, 12.615470)" fill="#FFFFFF" fill-rule="nonzero">
                <path d="M1.81069,9.50133 C1.81069,9.62577667 1.81069,9.73155333 1.81069,9.81866 C1.81069,9.90577333 1.81692333,9.98044 1.82939,10.04266 C1.85425667,10.1671067 1.94759,10.3475533 2.10939,10.584 C2.28361667,10.8328867 2.59473,10.95733 3.04273,10.95733 C3.29161667,10.95733 3.52183667,10.9075533 3.73339,10.808 C3.94495,10.696 4.10050667,10.5528867 4.20006,10.37866 C4.27472667,10.2417733 4.31828333,10.1111067 4.33073,9.98666 C4.35559667,9.86222 4.36803,9.75022 4.36803,9.65066 L4.36803,9.48266 L4.36803,8.60533 L4.36803,8.43733 C4.36803,8.16355 4.31825333,7.95199333 4.2187,7.80266 C4.11914,7.64088667 3.89514,7.46044333 3.5467,7.26133 C3.31025333,7.13688333 2.88714,6.96266 2.27736,6.73866 C1.66758667,6.51466 1.15736667,6.15999333 0.7467,5.67466 C0.336033333,5.18932667 0.1307,4.52977333 0.1307,3.696 L0.1307,3.136 C0.1307,2.27733333 0.41692,1.54311 0.98936,0.93333 C1.57425333,0.31111 2.28358667,0 3.11736,0 C3.98847333,0 4.71025333,0.304886667 5.2827,0.91466 C5.86758667,1.52444 6.16003,2.26488667 6.16003,3.136 L6.16003,3.696 L4.36803,3.696 L4.36803,3.136 C4.36803,3.04888667 4.36179667,2.96799667 4.34933,2.89333 C4.34933,2.81866333 4.34309667,2.75022 4.33063,2.688 C4.31816333,2.6258 4.28706333,2.55113333 4.23733,2.464 C4.18753,2.37688667 4.11908667,2.27110667 4.032,2.14666 C3.85778,1.89777333 3.56533667,1.77333 3.15467,1.77333 C2.79377667,1.77333 2.49511,1.90399667 2.25867,2.16533 C2.03467,2.42666333 1.92267,2.75022 1.92267,3.136 L1.92267,3.696 L1.92267,3.864 C1.92267,4.11288667 1.96000333,4.31199667 2.03467,4.46133 C2.12177667,4.59821667 2.32088667,4.75377333 2.632,4.928 C2.73155333,4.9778 2.88088667,5.04624333 3.08,5.13333 C3.29155333,5.20799667 3.54666333,5.30133 3.84533,5.41333 C4.44266333,5.61244333 4.97777667,5.96711 5.45067,6.47733 C5.92355667,6.98755 6.16003,7.65955 6.16003,8.49333 L6.16003,9.50133 C6.16003,9.93688333 6.11644333,10.3039933 6.02933,10.60266 C5.95466333,10.9013267 5.69955333,11.3368833 5.264,11.90933 C4.82844667,12.4568833 4.10044667,12.73066 3.08,12.73066 C1.99733333,12.73066 1.21333333,12.3822167 0.728,11.68533 C0.242666667,10.9759967 1.13686838e-13,10.2479967 1.13686838e-13,9.50133 L1.13686838e-13,9.05333 L1.81067,9.05333 L1.81069,9.50133 Z" id="path2318"></path>
                <path d="M12.79133,11.312 C12.5175567,11.7351067 12.16289,12.0773267 11.72733,12.33866 C11.3042233,12.5999933 10.8313367,12.73066 10.30867,12.73066 C10.0473367,12.73066 9.78600333,12.6933267 9.52467,12.61866 C9.27577667,12.5439933 9.03933,12.45066 8.81533,12.33866 C8.59133,12.21422 8.39222,12.0773333 8.218,11.928 C8.04378,11.76622 7.91311333,11.59822 7.826,11.424 C7.63933333,11.0755533 7.51489,10.7706633 7.45267,10.50933 C7.40287,10.2479967 7.37797,9.96799667 7.37797,9.66933 L7.37797,0.112 L9.16997,0.112 L9.16997,9.66933 C9.16997,9.75644333 9.16997,9.83733333 9.16997,9.912 C9.18243667,9.9742 9.19487,10.03642 9.20727,10.09866 C9.21973667,10.19822 9.31307,10.3724433 9.48727,10.62133 C9.64905,10.84533 9.92905,10.95733 10.32727,10.95733 C10.6881633,10.95733 10.95572,10.8266633 11.12994,10.56533 C11.3166067,10.29155 11.40994,9.99288333 11.40994,9.66933 L11.40994,0.112 L13.20194,0.112 L13.20194,9.66933 C13.20194,9.96799667 13.17084,10.25422 13.10864,10.528 C13.04644,10.8017733 12.94066,11.0631067 12.7913,11.312 L12.79133,11.312 Z" id="path2320"></path>
                <path d="M15.82823,9.50133 C15.82823,9.62577667 15.82823,9.73155333 15.82823,9.81866 C15.82823,9.90577333 15.8344633,9.98044 15.84693,10.04266 C15.8717967,10.1671067 15.96513,10.3475533 16.12693,10.584 C16.3011567,10.8328867 16.61227,10.95733 17.06027,10.95733 C17.3091567,10.95733 17.5393767,10.9075533 17.75093,10.808 C17.96249,10.696 18.1180467,10.5528867 18.2176,10.37866 C18.2922667,10.2417733 18.3358233,10.1111067 18.34827,9.98666 C18.3731367,9.86222 18.38557,9.75022 18.38557,9.65066 L18.38557,9.48266 L18.38557,8.60533 L18.38557,8.43733 C18.38557,8.16355 18.3357933,7.95199333 18.23624,7.80266 C18.13668,7.64088667 17.91268,7.46044333 17.56424,7.26133 C17.3277933,7.13688333 16.90468,6.96266 16.2949,6.73866 C15.6851267,6.51466 15.1749067,6.15999333 14.76424,5.67466 C14.3535733,5.18932667 14.14824,4.52977333 14.14824,3.696 L14.14824,3.136 C14.14824,2.27733333 14.43446,1.54311 15.0069,0.93333 C15.5917933,0.31111 16.3011267,0 17.1349,0 C18.0060133,0 18.7277933,0.304886667 19.30024,0.91466 C19.8851267,1.52444 20.17757,2.26488667 20.17757,3.136 L20.17757,3.696 L18.38557,3.696 L18.38557,3.136 C18.38557,3.04888667 18.3793367,2.96799667 18.36687,2.89333 C18.36687,2.81866333 18.3606367,2.75022 18.34817,2.688 C18.3357033,2.6258 18.3046033,2.55113333 18.25487,2.464 C18.20507,2.37688667 18.1366267,2.27110667 18.04954,2.14666 C17.87532,1.89777333 17.5828767,1.77333 17.17221,1.77333 C16.8113167,1.77333 16.51265,1.90399667 16.27621,2.16533 C16.05221,2.42666333 15.94021,2.75022 15.94021,3.136 L15.94021,3.696 L15.94021,3.864 C15.94021,4.11288667 15.9775433,4.31199667 16.05221,4.46133 C16.1393167,4.59821667 16.3384267,4.75377333 16.64954,4.928 C16.7490933,4.9778 16.8984267,5.04624333 17.09754,5.13333 C17.3090933,5.20799667 17.5642033,5.30133 17.86287,5.41333 C18.4602033,5.61244333 18.9953167,5.96711 19.46821,6.47733 C19.9410967,6.98755 20.17757,7.65955 20.17757,8.49333 L20.17757,9.50133 C20.17757,9.93688333 20.1339833,10.3039933 20.04687,10.60266 C19.9722033,10.9013267 19.7170933,11.3368833 19.28154,11.90933 C18.8459867,12.4568833 18.1179867,12.73066 17.09754,12.73066 C16.0148733,12.73066 15.2308733,12.3822167 14.74554,11.68533 C14.2602067,10.9759967 14.01754,10.2479967 14.01754,9.50133 L14.01754,9.05333 L15.82821,9.05333 L15.82823,9.50133 Z" id="path2322"></path>
                <polygon id="path2324" points="22.59116 12.61866 22.59116 1.77333 20.48183 1.77333 20.48183 0.112 26.51116 0.112 26.51116 1.77333 24.3645 1.77333 24.3645 12.61866"></polygon>
                <path d="M25.59224,12.61866 L28.39224,0.112 L29.94158,0.112 L32.74158,12.61866 L30.81891,12.61866 L30.31491,9.93066 L28.00024,9.93066 L27.47758,12.61866 L25.59224,12.61866 Z M28.31758,8.26933 L29.99758,8.26933 L29.15758,3.71466 L28.31758,8.26933 Z" id="path2326"></path>
                <polygon id="path2328" points="33.65362 12.61866 33.65362 0.112 35.42695 0.112 35.42695 12.61866"></polygon>
                <polygon id="path2330" points="41.34143 12.61866 38.5601 5.02133 38.5601 12.61866 36.7681 12.61866 36.7681 0.112 38.46676 0.112 41.22943 7.69066 41.22943 0.112 43.02143 0.112 43.02143 12.61866"></polygon>
                <path d="M43.29409,12.61866 L46.09409,0.112 L47.64343,0.112 L50.44343,12.61866 L48.52076,12.61866 L48.01676,9.93066 L45.70209,9.93066 L45.17943,12.61866 L43.29409,12.61866 Z M46.01943,8.26933 L47.69943,8.26933 L46.85943,3.71466 L46.01943,8.26933 Z" id="path2332"></path>
                <path d="M54.06309,0.112 C54.44887,0.112 54.80976,0.192886667 55.14576,0.35466 C55.5190933,0.528886667 55.89865,0.808886667 56.28443,1.19466 C56.6950967,1.59288667 56.90043,2.21511 56.90043,3.06133 L56.90043,4.01333 C56.90043,4.97155 56.5208733,5.64355 55.76176,6.02933 C56.5208733,6.47733 56.90043,7.17422 56.90043,8.12 L56.90043,9.576 C56.90043,10.4595533 56.6142067,11.1875533 56.04176,11.76 C55.48176,12.33244 54.7599833,12.61866 53.87643,12.61866 L51.11376,12.61866 L51.11376,0.112 L54.06309,0.112 Z M55.12709,3.82666 L55.12709,3.06133 C55.12709,2.67555 55.01509,2.37066 54.79109,2.14666 C54.56709,1.91022 54.2684233,1.792 53.89509,1.792 L52.88709,1.792 L52.88709,5.24533 L53.95109,5.24533 C54.3617567,5.24533 54.6604233,5.12088667 54.84709,4.872 C55.0337567,4.61066667 55.12709,4.26222 55.12709,3.82666 L55.12709,3.82666 Z M55.12709,9.576 L55.12709,8.12 C55.12709,7.72177333 55.01509,7.41066 54.79109,7.18666 C54.5795367,6.95022 54.28087,6.832 53.89509,6.832 L52.88709,6.832 L52.88709,10.84533 L53.91376,10.84533 C54.2746467,10.84533 54.56709,10.7271067 54.79109,10.49066 C55.01509,10.2417733 55.12709,9.93688667 55.12709,9.576 L55.12709,9.576 Z" id="path2334"></path>
                <polygon id="path2336" points="63.17199 12.61866 57.83332 12.61866 57.83332 0.112 59.62532 0.112 59.62532 10.82666 63.17199 10.82666"></polygon>
                <polygon id="path2338" points="69.03434 10.82666 69.03434 12.61866 63.677 12.61866 63.677 0.112 69.03434 0.112 69.03434 1.75466 65.45034 1.75466 65.45034 5.45066 68.58634 5.45066 68.58634 7.14933 65.45034 7.14933 65.45034 10.82666"></polygon>
                <path d="M77.13143,9.464 C77.13143,9.86222 77.10653,10.20444 77.05673,10.49066 C77.0193967,10.7768867 76.89495,11.088 76.68339,11.424 C76.57139,11.59822 76.42828,11.76622 76.25406,11.928 C76.09228,12.0773333 75.9056133,12.21422 75.69406,12.33866 C75.4949467,12.45066 75.27717,12.5439933 75.04073,12.61866 C74.8042833,12.6933267 74.57406,12.73066 74.35006,12.73066 C73.79006,12.73066 73.2798367,12.61244 72.81939,12.376 C72.37139,12.1395533 72.0416133,11.8408867 71.83006,11.48 C71.6185067,11.1191067 71.4816167,10.7831067 71.41939,10.472 C71.36959,10.1608867 71.34469,9.82488667 71.34469,9.464 L71.34469,3.024 C71.34469,2.67555333 71.37579,2.36444 71.43799,2.09066 C71.5126567,1.80444 71.66199,1.49955333 71.88599,1.176 C72.10999,0.85244 72.4273233,0.57866 72.83799,0.35466 C73.2486567,0.11822 73.67799,5.68434189e-14 74.12599,5.68434189e-14 C74.9846567,5.68434189e-14 75.7002133,0.28622 76.27266,0.85866 C76.8451,1.41866 77.13132,2.14044 77.13132,3.024 L77.13132,3.696 L75.35799,3.696 L75.35799,3.024 C75.35799,2.67555333 75.2584333,2.38310667 75.05932,2.14666 C74.8726533,1.91022 74.5926533,1.792 74.21932,1.792 C73.87088,1.792 73.5971033,1.91022 73.39799,2.14666 C73.2113233,2.38310667 73.11799,2.67555333 73.11799,3.024 L73.11799,9.94933 C73.1428567,10.1359967 73.2299667,10.3475533 73.37932,10.584 C73.5535467,10.8328867 73.83977,10.95733 74.23799,10.95733 C74.6611033,10.95733 74.9411033,10.84533 75.07799,10.62133 C75.2148767,10.39733 75.2957667,10.2355533 75.32066,10.136 C75.3455267,10.024 75.35796,9.87466667 75.35796,9.688 L75.35796,9.05333 L77.13129,9.05333 L77.13143,9.464 Z" id="path2340"></path>
                <polygon id="path2342" points="78.1921 12.61866 78.1921 0.112 79.96544 0.112 79.96544 12.61866"></polygon>
                <polygon id="path2344" points="82.86477 12.61866 82.86477 1.77333 80.75543 1.77333 80.75543 0.112 86.78477 0.112 86.78477 1.77333 84.6381 1.77333 84.6381 12.61866"></polygon>
                <polygon id="path2346" points="87.54297 12.61866 87.54297 0.112 89.3163 0.112 89.3163 12.61866"></polygon>
                <polygon id="path2348" points="95.65222 10.82666 95.65222 12.61866 90.29489 12.61866 90.29489 0.112 95.65222 0.112 95.65222 1.75466 92.06822 1.75466 92.06822 5.45066 95.20422 5.45066 95.20422 7.14933 92.06822 7.14933 92.06822 10.82666"></polygon>
                <path d="M98.01595,9.50133 C98.01595,9.62577667 98.01595,9.73155333 98.01595,9.81866 C98.01595,9.90577333 98.0221833,9.98044 98.03465,10.04266 C98.0595167,10.1671067 98.15285,10.3475533 98.31465,10.584 C98.48887,10.8328867 98.79998,10.95733 99.24798,10.95733 C99.4968667,10.95733 99.72709,10.9075533 99.93865,10.808 C100.150203,10.696 100.305757,10.5528867 100.40531,10.37866 C100.479977,10.2417733 100.523533,10.1111067 100.53598,9.98666 C100.560847,9.86222 100.57328,9.75022 100.57328,9.65066 L100.57328,9.48266 L100.57328,8.60533 L100.57328,8.43733 C100.57328,8.16355 100.523503,7.95199333 100.42395,7.80266 C100.324397,7.64088667 100.100397,7.46044333 99.75195,7.26133 C99.5155033,7.13688333 99.0923933,6.96266 98.48262,6.73866 C97.87284,6.51466 97.3626167,6.15999333 96.95195,5.67466 C96.5412833,5.18932667 96.33595,4.52977333 96.33595,3.696 L96.33595,3.136 C96.33595,2.27733333 96.6221733,1.54311 97.19462,0.93333 C97.7795067,0.31111 98.48884,0 99.32262,0 C100.193727,0 100.915503,0.304886667 101.48795,0.91466 C102.072837,1.52444 102.36528,2.26488667 102.36528,3.136 L102.36528,3.696 L100.57328,3.696 L100.57328,3.136 C100.57328,3.04888667 100.567047,2.96799667 100.55458,2.89333 C100.55458,2.81866333 100.548347,2.75022 100.53588,2.688 C100.523413,2.6258 100.492313,2.55113333 100.44258,2.464 C100.39278,2.37688667 100.324333,2.27110667 100.23724,2.14666 C100.06302,1.89777333 99.7705767,1.77333 99.35991,1.77333 C98.9990233,1.77333 98.7003567,1.90399667 98.46391,2.16533 C98.23991,2.42666333 98.12791,2.75022 98.12791,3.136 L98.12791,3.696 L98.12791,3.864 C98.12791,4.11288667 98.1652433,4.31199667 98.23991,4.46133 C98.3270233,4.59821667 98.5261333,4.75377333 98.83724,4.928 C98.9368,4.9778 99.0861333,5.04624333 99.28524,5.13333 C99.4968,5.20799667 99.7519133,5.30133 100.05058,5.41333 C100.647913,5.61244333 101.183023,5.96711 101.65591,6.47733 C102.128797,6.98755 102.36528,7.65955 102.36528,8.49333 L102.36528,9.50133 C102.36528,9.93688333 102.321687,10.3039933 102.23458,10.60266 C102.159913,10.9013267 101.9048,11.3368833 101.46924,11.90933 C101.033687,12.4568833 100.305687,12.73066 99.28524,12.73066 C98.2025733,12.73066 97.4185733,12.3822167 96.93324,11.68533 C96.4479067,10.9759967 96.20524,10.2479967 96.20524,9.50133 L96.20524,9.05333 L98.01591,9.05333 L98.01595,9.50133 Z" id="path2350"></path>
                <path d="M0.01677,29.86564 L2.81677,17.35897 L4.36611,17.35897 L7.16611,29.86564 L5.24344,29.86564 L4.73944,27.17764 L2.42477,27.17764 L1.90211,29.86564 L0.01677,29.86564 Z M2.74211,25.51631 L4.42211,25.51631 L3.58211,20.96164 L2.74211,25.51631 Z" id="path2352"></path>
                <polygon id="path2354" points="12.40977 29.86564 9.62844 22.26831 9.62844 29.86564 7.83644 29.86564 7.83644 17.35897 9.5351 17.35897 12.29777 24.93764 12.29777 17.35897 14.08977 17.35897 14.08977 29.86564"></polygon>
                <path d="M18.03091,17.35897 C18.8398033,17.35897 19.53047,17.6451933 20.10291,18.21764 C20.6878033,18.77764 20.98025,19.4620833 20.98025,20.27097 L20.98025,26.76697 C20.98025,27.6878633 20.70025,28.43453 20.14025,29.00697 C19.58025,29.5794167 18.85847,29.86564 17.97491,29.86564 L15.19358,29.86564 L15.19358,17.35897 L18.03091,17.35897 Z M19.20691,26.76697 L19.20691,20.27097 C19.20691,19.92253 19.0762433,19.6300867 18.81491,19.39364 C18.5660233,19.1571933 18.2611367,19.03897 17.90025,19.03897 L16.96691,19.03897 L16.96691,28.20431 L17.84425,28.20431 C18.75269,28.20431 19.20691,27.7251967 19.20691,26.76697 L19.20691,26.76697 Z" id="path2356"></path>
                <path d="M29.83562,26.71097 C29.83562,27.1091967 29.81072,27.45142 29.76092,27.73764 C29.7235867,28.02386 29.5991433,28.33497 29.38759,28.67097 C29.27559,28.8451967 29.13248,29.0131967 28.95826,29.17497 C28.79648,29.3243033 28.6098133,29.4611933 28.39826,29.58564 C28.1991467,29.69764 27.9813667,29.7909733 27.74492,29.86564 C27.50848,29.9403067 27.27826,29.97764 27.05426,29.97764 C26.49426,29.97764 25.9840367,29.8594167 25.52359,29.62297 C25.07559,29.38653 24.7458133,29.0878633 24.53426,28.72697 C24.3227,28.3660833 24.18581,28.0300833 24.12359,27.71897 C24.07379,27.4078633 24.04889,27.0718633 24.04889,26.71097 L24.04889,20.27097 C24.04889,19.92253 24.07999,19.61142 24.14219,19.33764 C24.2168567,19.05142 24.36619,18.74653 24.59019,18.42297 C24.81419,18.0994167 25.1315233,17.82564 25.54219,17.60164 C25.9528567,17.3651933 26.38219,17.24697 26.83019,17.24697 C27.6888567,17.24697 28.40441,17.5331933 28.97685,18.10564 C29.5492967,18.66564 29.83552,19.3874167 29.83552,20.27097 L29.83552,20.94297 L28.06219,20.94297 L28.06219,20.27097 C28.06219,19.92253 27.9626333,19.6300867 27.76352,19.39364 C27.5768533,19.1571933 27.2968533,19.03897 26.92352,19.03897 C26.5750733,19.03897 26.3012967,19.1571933 26.10219,19.39364 C25.9155233,19.6300867 25.82219,19.92253 25.82219,20.27097 L25.82219,27.19631 C25.8470567,27.3829767 25.9341667,27.59453 26.08352,27.83097 C26.25774,28.0798633 26.5439633,28.20431 26.94219,28.20431 C27.3652967,28.20431 27.6452967,28.09231 27.78219,27.86831 C27.9190767,27.64431 27.9999633,27.48253 28.02485,27.38297 C28.0497167,27.27097 28.06215,27.1216367 28.06215,26.93497 L28.06215,26.30031 L29.83548,26.30031 L29.83562,26.71097 Z" id="path2358"></path>
                <path d="M31.54866,18.53497 C31.83488,18.13675 32.19577,17.82564 32.63133,17.60164 C33.07933,17.3651933 33.5397733,17.24697 34.01266,17.24697 C34.4731067,17.24697 34.90244,17.3403033 35.30066,17.52697 C35.7113267,17.7136367 36.05355,17.96875 36.32733,18.29231 C36.6011033,18.6158633 36.78777,18.9518633 36.88733,19.30031 C36.9868833,19.63631 37.03666,20.00342 37.03666,20.40164 L37.03666,26.76697 C37.03666,27.1403033 36.9993267,27.4700833 36.92466,27.75631 C36.86246,28.04253 36.7131267,28.3598633 36.47666,28.70831 C36.25266,29.05675 35.9228833,29.3554167 35.48733,29.60431 C35.0642167,29.8531967 34.5913267,29.97764 34.06866,29.97764 C33.7699933,29.97764 33.48377,29.9403067 33.20999,29.86564 C32.9362167,29.7785267 32.6811067,29.6665267 32.44466,29.52964 C32.2082133,29.3927533 31.9966567,29.2371967 31.80999,29.06297 C31.63577,28.88875 31.4988833,28.7083067 31.39933,28.52164 C31.2126633,28.13586 31.1006633,27.82475 31.06333,27.58831 C31.0259967,27.3518633 31.00733,27.0780833 31.00733,26.76697 L31.00733,20.40164 C31.00733,20.0283067 31.0446633,19.69853 31.11933,19.41231 C31.2064367,19.1136433 31.3495467,18.8211967 31.54866,18.53497 L31.54866,18.53497 Z M35.02066,19.52431 C34.7842133,19.1758633 34.4606567,19.00164 34.04999,19.00164 C33.8384367,19.00164 33.6268833,19.0638633 33.41533,19.18831 C33.2162167,19.30031 33.0731033,19.4309767 32.98599,19.58031 C32.9113233,19.7296433 32.8615467,19.8789767 32.83666,20.02831 C32.8117933,20.1776433 32.79936,20.3020867 32.79936,20.40164 L32.79936,26.76697 C32.79936,26.82917 32.79936,26.8976167 32.79936,26.97231 C32.79936,27.03451 32.8055933,27.1029533 32.81806,27.17764 C32.8305267,27.3020867 32.9300833,27.50742 33.11673,27.79364 C33.3033967,28.0549733 33.6145067,28.18564 34.05006,28.18564 C34.27406,28.18564 34.4731733,28.1358633 34.6474,28.03631 C34.8340667,27.92431 34.9647333,27.7998633 35.0394,27.66297 C35.1265067,27.5136367 35.1825067,27.37675 35.2074,27.25231 C35.2322667,27.1278633 35.2447,26.9660833 35.2447,26.76697 L35.2447,20.40164 C35.2447,20.1527533 35.2322667,19.97853 35.2074,19.87897 C35.1949333,19.7794167 35.13271,19.6611967 35.02073,19.52431 L35.02066,19.52431 Z" id="path2360"></path>
                <polygon id="path2362" points="43.99634 29.86564 43.99634 22.24964 42.20434 27.58831 41.30834 27.58831 39.53501 22.24964 39.53501 29.86564 37.74301 29.86564 37.74301 17.35897 39.42301 17.35897 41.79368 24.02297 44.12701 17.35897 45.76968 17.35897 45.76968 29.86564"></polygon>
                <polygon id="path2364" points="52.74093 29.86564 52.74093 22.24964 50.94893 27.58831 50.05293 27.58831 48.27959 22.24964 48.27959 29.86564 46.48759 29.86564 46.48759 17.35897 48.16759 17.35897 50.53826 24.02297 52.87159 17.35897 54.51426 17.35897 54.51426 29.86564"></polygon>
                <path d="M61.24978,28.55897 C60.976,28.9820833 60.6213333,29.3243067 60.18578,29.58564 C59.7626667,29.8469733 59.2897767,29.97764 58.76711,29.97764 C58.5057767,29.97764 58.2444433,29.9403067 57.98311,29.86564 C57.7342233,29.7909733 57.49778,29.69764 57.27378,29.58564 C57.04978,29.4611933 56.8506667,29.3243033 56.67644,29.17497 C56.50222,29.0131967 56.3715533,28.8451967 56.28444,28.67097 C56.0977733,28.32253 55.97333,28.0176433 55.91111,27.75631 C55.86131,27.4949767 55.83641,27.2149767 55.83641,26.91631 L55.83641,17.35897 L57.62841,17.35897 L57.62841,26.91631 C57.62841,27.0034167 57.62841,27.0843033 57.62841,27.15897 C57.6408767,27.22117 57.65331,27.2833933 57.66571,27.34564 C57.6781767,27.4451933 57.77151,27.6194167 57.94571,27.86831 C58.1074833,28.09231 58.3874833,28.20431 58.78571,28.20431 C59.1465967,28.20431 59.41415,28.0736433 59.58837,27.81231 C59.7750367,27.53853 59.86837,27.2398633 59.86837,26.91631 L59.86837,17.35897 L61.66037,17.35897 L61.66037,26.91631 C61.66037,27.2149767 61.62927,27.5011967 61.56707,27.77497 C61.50487,28.04875 61.3990933,28.3100833 61.24974,28.55897 L61.24978,28.55897 Z" id="path2366"></path>
                <polygon id="path2368" points="67.29296 29.86564 64.51163 22.26831 64.51163 29.86564 62.71963 29.86564 62.71963 17.35897 64.4183 17.35897 67.18096 24.93764 67.18096 17.35897 68.97296 17.35897 68.97296 29.86564"></polygon>
                <polygon id="path2370" points="69.95592 29.86564 69.95592 17.35897 71.72925 17.35897 71.72925 29.86564"></polygon>
                <polygon id="path2372" points="74.99115 29.86564 74.99115 19.02031 72.88181 19.02031 72.88181 17.35897 78.91115 17.35897 78.91115 19.02031 76.76448 19.02031 76.76448 29.86564"></polygon>
                <polygon id="path2374" points="79.3068 29.86564 79.3068 17.35897 81.08013 17.35897 81.08013 29.86564"></polygon>
                <polygon id="path2376" points="87.53689 28.07364 87.53689 29.86564 82.17956 29.86564 82.17956 17.35897 87.53689 17.35897 87.53689 19.00164 83.95289 19.00164 83.95289 22.69764 87.08889 22.69764 87.08889 24.39631 83.95289 24.39631 83.95289 28.07364"></polygon>
                <path d="M89.65892,26.74831 C89.65892,26.87275 89.65892,26.9785267 89.65892,27.06564 C89.65892,27.1527533 89.6651533,27.22742 89.67762,27.28964 C89.7024867,27.4140867 89.79582,27.59453 89.95762,27.83097 C90.1318467,28.0798633 90.44296,28.20431 90.89096,28.20431 C91.1398467,28.20431 91.3700667,28.15453 91.58162,28.05497 C91.79318,27.94297 91.9487367,27.79986 92.04829,27.62564 C92.1229567,27.4887533 92.1665133,27.3580867 92.17896,27.23364 C92.2038267,27.1091933 92.21626,26.9971933 92.21626,26.89764 L92.21626,26.72964 L92.21626,25.85231 L92.21626,25.68431 C92.21626,25.41053 92.1664833,25.1989733 92.06693,25.04964 C91.96737,24.88786 91.74337,24.7074167 91.39493,24.50831 C91.1584833,24.3838633 90.73537,24.20964 90.12559,23.98564 C89.5158167,23.76164 89.0055967,23.4069733 88.59493,22.92164 C88.1842633,22.4363067 87.97893,21.77675 87.97893,20.94297 L87.97893,20.38297 C87.97893,19.5243033 88.26515,18.7900833 88.83759,18.18031 C89.4224833,17.5580833 90.1318167,17.24697 90.96559,17.24697 C91.8367033,17.24697 92.5584833,17.55186 93.13093,18.16164 C93.7158167,18.77142 94.00826,19.5118633 94.00826,20.38297 L94.00826,20.94297 L92.21626,20.94297 L92.21626,20.38297 C92.21626,20.2958633 92.2100267,20.2149767 92.19756,20.14031 C92.19756,20.0656433 92.1913267,19.9971967 92.17886,19.93497 C92.1663933,19.87277 92.1352933,19.7981033 92.08556,19.71097 C92.03576,19.6238633 91.9673167,19.5180867 91.88023,19.39364 C91.70601,19.1447533 91.4135667,19.02031 91.0029,19.02031 C90.6420067,19.02031 90.34334,19.1509767 90.1069,19.41231 C89.8829,19.6736433 89.7709,19.9971967 89.7709,20.38297 L89.7709,20.94297 L89.7709,21.11097 C89.7709,21.3598633 89.8082333,21.5589767 89.8829,21.70831 C89.9700067,21.8451967 90.1691167,22.00075 90.48023,22.17497 C90.5797833,22.22477 90.7291167,22.2932167 90.92823,22.38031 C91.1397833,22.4549767 91.3948933,22.54831 91.69356,22.66031 C92.2908933,22.8594167 92.8260067,23.2140833 93.2989,23.72431 C93.7717867,24.23453 94.00826,24.90653 94.00826,25.74031 L94.00826,26.74831 C94.00826,27.1838633 93.9646733,27.5509733 93.87756,27.84964 C93.8028933,28.1483067 93.5477833,28.5838633 93.11223,29.15631 C92.6766767,29.7038633 91.9486767,29.97764 90.92823,29.97764 C89.8455633,29.97764 89.0615633,29.6291967 88.57623,28.93231 C88.0908967,28.2229767 87.84823,27.4949767 87.84823,26.74831 L87.84823,26.30031 L89.6589,26.30031 L89.65892,26.74831 Z" id="path2378"></path>
            </g>
            <g id="text6075-0-6-9-2-5-9-0-9-4-2" transform="translate(10.561730, 12.326910)" fill="#FFFFFF" fill-rule="nonzero">
                <polygon id="path2381" points="4.288 29.92666 4.288 4.46666 0 7.68266 0 3.12666 4.288 0 8.53134 0 8.53134 29.92666"></polygon>
                <polygon id="path2383" points="15.6346 29.92666 15.6346 4.46666 11.3466 7.68266 11.3466 3.12666 15.6346 0 19.87794 0 19.87794 29.92666"></polygon>
            </g>
            <path d="M37.54308,97.78696 L48.03024,111.55925 C48.4202,112.07137 48.31387,112.67734 47.48054,112.67734 L26.0947,112.67734 C25.26137,112.67734 25.15504,112.07137 25.545,111.55925 L36.03216,97.78696 C36.54012,97.11987 37.04207,97.129 37.54308,97.78696 Z M103.20134,102.95938 L124.40455,102.95938 C124.90116,102.95938 125.30096,103.35918 125.30096,103.85579 L125.30096,107.61193 C125.30096,108.10854 124.90116,108.50834 124.40455,108.50834 L103.20134,108.50834 C102.70473,108.50834 102.30493,108.10854 102.30493,107.61193 L102.30493,103.85579 C102.30493,103.35918 102.70473,102.95938 103.20134,102.95938 Z M103.2022,110.03144 C102.70559,110.03144 102.30572,110.43131 102.30572,110.92792 L102.30572,132.5119 C102.30572,133.00852 102.70559,133.40839 103.2022,133.40839 L124.40533,133.40839 C124.90194,133.40839 125.30181,133.00852 125.30181,132.5119 L125.30181,110.92792 C125.30181,110.43131 124.90194,110.03144 124.40533,110.03144 L103.2022,110.03144 Z M106.30572,113.28925 L111.72369,113.28925 C112.2203,113.28925 112.62017,113.68912 112.62017,114.18573 L112.62017,116.69745 C112.62017,117.19406 112.2203,117.59394 111.72369,117.59394 L106.30572,117.59394 C105.80911,117.59394 105.41119,117.19406 105.41119,116.69745 L105.41119,114.18573 C105.41119,113.68912 105.80911,113.28925 106.30572,113.28925 Z M116.26666,113.28925 L121.68267,113.28925 C122.17928,113.28925 122.57916,113.68912 122.57916,114.18573 L122.57916,116.69745 C122.57916,117.19406 122.17928,117.59394 121.68267,117.59394 L116.26666,117.59394 C115.77005,117.59394 115.37017,117.19406 115.37017,116.69745 L115.37017,114.18573 C115.37017,113.68912 115.77005,113.28925 116.26666,113.28925 Z M106.30572,120.66034 L111.72369,120.66034 C112.2203,120.66034 112.62017,121.06022 112.62017,121.55683 L112.62017,124.06659 C112.62017,124.5632 112.2203,124.96308 111.72369,124.96308 L106.30572,124.96308 C105.80911,124.96308 105.41119,124.5632 105.41119,124.06659 L105.41119,121.55683 C105.41119,121.06022 105.80911,120.66034 106.30572,120.66034 L106.30572,120.66034 Z M116.26666,120.66034 L121.68267,120.66034 C122.17928,120.66034 122.57916,121.06022 122.57916,121.55683 L122.57916,124.06659 C122.57916,124.5632 122.17928,124.96308 121.68267,124.96308 L116.26666,124.96308 C115.77005,124.96308 115.37017,124.5632 115.37017,124.06659 L115.37017,121.55683 C115.37017,121.06022 115.77005,120.66034 116.26666,120.66034 L116.26666,120.66034 Z M52.23931,58.33808 C51.7427,58.33808 51.34283,58.73795 51.34283,59.23456 L51.34283,132.5119 C51.34283,133.00852 51.7427,133.40839 52.23931,133.40839 L72.94439,133.40839 C73.441,133.40839 73.84088,133.00852 73.84088,132.5119 L73.84088,59.23456 C73.84088,58.73795 73.441,58.33808 72.94439,58.33808 L52.23931,58.33808 Z M56.28424,68.59003 L59.44635,68.59003 C59.94296,68.59003 60.34283,68.98989 60.34283,69.48651 L60.34283,73.29901 C60.34283,73.79562 59.94296,74.1955 59.44635,74.1955 L56.28424,74.1955 C55.78763,74.1955 55.38775,73.79562 55.38775,73.29901 L55.38775,69.48651 C55.38775,68.98989 55.78763,68.59003 56.28424,68.59003 L56.28424,68.59003 Z M65.94635,68.59003 L69.10846,68.59003 C69.60507,68.59003 70.00494,68.98989 70.00494,69.48651 L70.00494,73.29901 C70.00494,73.79562 69.60507,74.1955 69.10846,74.1955 L65.94635,74.1955 C65.44974,74.1955 65.04986,73.79562 65.04986,73.29901 L65.04986,69.48651 C65.04986,68.98989 65.44974,68.59003 65.94635,68.59003 L65.94635,68.59003 Z M56.28424,81.27753 L59.44635,81.27753 C59.94296,81.27753 60.34283,81.6774 60.34283,82.17401 L60.34283,85.98651 C60.34283,86.48312 59.94296,86.883 59.44635,86.883 L56.28424,86.883 C55.78763,86.883 55.38775,86.48312 55.38775,85.98651 L55.38775,82.17401 C55.38775,81.6774 55.78763,81.27753 56.28424,81.27753 L56.28424,81.27753 Z M65.94635,81.27753 L69.10846,81.27753 C69.60507,81.27753 70.00494,81.6774 70.00494,82.17401 L70.00494,85.98651 C70.00494,86.48312 69.60507,86.883 69.10846,86.883 L65.94635,86.883 C65.44974,86.883 65.04986,86.48312 65.04986,85.98651 L65.04986,82.17401 C65.04986,81.6774 65.44974,81.27753 65.94635,81.27753 L65.94635,81.27753 Z M56.28424,93.96503 L59.44635,93.96503 C59.94296,93.96503 60.34283,94.3649 60.34283,94.86151 L60.34283,98.67401 C60.34283,99.17062 59.94296,99.5705 59.44635,99.5705 L56.28424,99.5705 C55.78763,99.5705 55.38775,99.17062 55.38775,98.67401 L55.38775,94.86151 C55.38775,94.3649 55.78763,93.96503 56.28424,93.96503 L56.28424,93.96503 Z M65.94635,93.96503 L69.10846,93.96503 C69.60507,93.96503 70.00494,94.3649 70.00494,94.86151 L70.00494,98.67401 C70.00494,99.17062 69.60507,99.5705 69.10846,99.5705 L65.94635,99.5705 C65.44974,99.5705 65.04986,99.17062 65.04986,98.67401 L65.04986,94.86151 C65.04986,94.3649 65.44974,93.96503 65.94635,93.96503 L65.94635,93.96503 Z M56.28424,106.65253 L59.44635,106.65253 C59.94296,106.65253 60.34283,107.0524 60.34283,107.54901 L60.34283,111.36151 C60.34283,111.85812 59.94296,112.258 59.44635,112.258 L56.28424,112.258 C55.78763,112.258 55.38775,111.85812 55.38775,111.36151 L55.38775,107.54901 C55.38775,107.0524 55.78763,106.65253 56.28424,106.65253 L56.28424,106.65253 Z M65.94635,106.65253 L69.10846,106.65253 C69.60507,106.65253 70.00494,107.0524 70.00494,107.54901 L70.00494,111.36151 C70.00494,111.85812 69.60507,112.258 69.10846,112.258 L65.94635,112.258 C65.44974,112.258 65.04986,111.85812 65.04986,111.36151 L65.04986,107.54901 C65.04986,107.0524 65.44974,106.65253 65.94635,106.65253 L65.94635,106.65253 Z M56.28424,119.34003 L59.44635,119.34003 C59.94296,119.34003 60.34283,119.7399 60.34283,120.23651 L60.34283,124.05097 C60.34283,124.54758 59.94296,124.94745 59.44635,124.94745 L56.28424,124.94745 C55.78763,124.94745 55.38775,124.54758 55.38775,124.05097 L55.38775,120.23651 C55.38775,119.7399 55.78763,119.34003 56.28424,119.34003 Z M65.94635,119.34003 L69.10846,119.34003 C69.60507,119.34003 70.00494,119.7399 70.00494,120.23651 L70.00494,124.05097 C70.00494,124.54758 69.60507,124.94745 69.10846,124.94745 L65.94635,124.94745 C65.44974,124.94745 65.04986,124.54758 65.04986,124.05097 L65.04986,120.23651 C65.04986,119.7399 65.44974,119.34003 65.94635,119.34003 Z M77.37213,100.41394 L77.37213,132.5119 C77.37213,133.00852 77.772,133.40839 78.26861,133.40839 L98.67486,133.40839 C99.17147,133.40839 99.57135,133.00852 99.57135,132.5119 L99.57135,73.17792 C99.57135,72.68131 98.91453,71.99443 98.12742,72.99127 L78.15706,98.28281 C77.47573,99.14569 77.37213,99.40874 77.37213,100.41394 L77.37213,100.41394 Z M96.50885,80.3361166 C96.8718,80.33412 96.93267,81.20389 96.93267,81.57636 L96.93267,86.97675 C96.93267,87.47336 96.5328,87.87323 96.03619,87.87323 L91.86431,87.87323 C91.33303,87.87323 90.42785,87.64758 90.96783,86.97675 L96.03619,80.67987 C96.23324,80.43507 96.38786,80.33678 96.50885,80.3361166 Z M90.62017,90.93964 L96.03619,90.93964 C96.5328,90.93964 96.93267,91.3395 96.93267,91.83612 L96.93267,94.34589 C96.93267,94.8425 96.5328,95.24237 96.03619,95.24237 L90.62017,95.24237 C90.12356,95.24237 89.72369,94.8425 89.72369,94.34589 L89.72369,91.83612 C89.72369,91.3395 90.12356,90.93964 90.62017,90.93964 Z M86.52838,92.92206 C86.88456,92.84836 86.97174,93.66211 86.97174,94.23065 L86.97174,101.91815 C86.97174,102.41476 86.57187,102.81464 86.07525,102.81464 L80.94049,102.81464 C80.44388,102.81464 79.69108,102.42046 80.044,101.91815 L86.07525,93.33417 C86.26027,93.07084 86.40965,92.94662 86.52838,92.92206 L86.52838,92.92206 Z M90.62017,98.28729 L96.03619,98.28729 C96.5328,98.28729 96.93267,98.68717 96.93267,99.18378 L96.93267,101.6955 C96.93267,102.19211 96.5328,102.59198 96.03619,102.59198 L90.62017,102.59198 C90.12356,102.59198 89.72369,102.19211 89.72369,101.6955 L89.72369,99.18378 C89.72369,98.68717 90.12356,98.28729 90.62017,98.28729 L90.62017,98.28729 Z M80.94049,105.65839 L86.07525,105.65839 C86.57186,105.65839 86.97174,106.05826 86.97174,106.55487 L86.97174,109.06659 C86.97174,109.56321 86.57186,109.96308 86.07525,109.96308 L80.94049,109.96308 C80.44388,109.96308 80.044,109.56321 80.044,109.06659 L80.044,106.55487 C80.044,106.05826 80.44388,105.65839 80.94049,105.65839 L80.94049,105.65839 Z M90.62017,105.65839 L96.03619,105.65839 C96.5328,105.65839 96.93267,106.05826 96.93267,106.55487 L96.93267,109.06659 C96.93267,109.5632 96.5328,109.96308 96.03619,109.96308 L90.62017,109.96308 C90.12356,109.96308 89.72369,109.5632 89.72369,109.06659 L89.72369,106.55487 C89.72369,106.05826 90.12356,105.65839 90.62017,105.65839 L90.62017,105.65839 Z M80.94049,113.28925 L86.07525,113.28925 C86.57186,113.28925 86.97174,113.68912 86.97174,114.18573 L86.97174,116.69745 C86.97174,117.19406 86.57186,117.59394 86.07525,117.59394 L80.94049,117.59394 C80.44388,117.59394 80.044,117.19406 80.044,116.69745 L80.044,114.18573 C80.044,113.68912 80.44388,113.28925 80.94049,113.28925 L80.94049,113.28925 Z M90.62017,113.28925 L96.03619,113.28925 C96.5328,113.28925 96.93267,113.68912 96.93267,114.18573 L96.93267,116.69745 C96.93267,117.19406 96.5328,117.59394 96.03619,117.59394 L90.62017,117.59394 C90.12356,117.59394 89.72369,117.19406 89.72369,116.69745 L89.72369,114.18573 C89.72369,113.68912 90.12356,113.28925 90.62017,113.28925 L90.62017,113.28925 Z M80.94049,120.66034 L86.07525,120.66034 C86.57186,120.66034 86.97174,121.06022 86.97174,121.55683 L86.97174,124.06659 C86.97174,124.5632 86.57186,124.96308 86.07525,124.96308 L80.94049,124.96308 C80.44388,124.96308 80.044,124.5632 80.044,124.06659 L80.044,121.55683 C80.044,121.06022 80.44388,120.66034 80.94049,120.66034 Z M90.62017,120.66034 L96.03619,120.66034 C96.5328,120.66034 96.93267,121.06022 96.93267,121.55683 L96.93267,124.06659 C96.93267,124.5632 96.5328,124.96308 96.03619,124.96308 L90.62017,124.96308 C90.12356,124.96308 89.72369,124.5632 89.72369,124.06659 L89.72369,121.55683 C89.72369,121.06022 90.12356,120.66034 90.62017,120.66034 Z M25.81158,114.71308 C25.31497,114.71308 24.9151,115.11295 24.9151,115.60956 L24.9151,132.5119 C24.9151,133.00852 25.31497,133.40839 25.81158,133.40839 L33.04986,133.40839 C33.04786,133.37509 33.03986,133.34279 33.03986,133.30879 L33.03986,123.46895 C33.03986,122.69645 33.66189,122.07441 34.43439,122.07441 L38.99103,122.07441 C39.76352,122.07441 40.38556,122.69645 40.38556,123.46895 L40.38556,133.30879 C40.38556,133.34269 40.37856,133.37509 40.37556,133.40839 L47.21345,133.40839 C47.71007,133.40839 48.10994,133.00852 48.10994,132.5119 L48.10994,115.60956 C48.10994,115.11295 47.71007,114.71308 47.21345,114.71308 L25.81158,114.71308 Z" id="path7902-0" fill="#FFFFFF" fill-rule="nonzero"></path>
        </g>
    </g>
</svg>