<?xml version="1.0" encoding="UTF-8"?>
<svg width="149px" height="150px" viewBox="0 0 149 150" version="1.1" xmlns="http://www.w3.org/2000/svg" xmlns:xlink="http://www.w3.org/1999/xlink">
    <title>12-responsible-consumption-and-production</title>
    <g id="SDGs" stroke="none" stroke-width="1" fill="none" fill-rule="evenodd">
        <g id="12-responsible-consumption-and-production" transform="translate(0.868173, 0.783310)">
            <path d="M0.82675,0 L147.26605,0 C147.72405,0 148.09275,0.36873 148.09275,0.82676 L148.09275,147.50783 C148.09275,147.96585 147.72405,148.33458 147.26605,148.33458 L0.82675,148.33458 C0.36873,148.33458 0,147.96585 0,147.50783 L0,0.82676 C0,0.36873 0.36873,0 0.82675,0 Z" id="rect8528-63-2-4-3" fill="#CF8D2A"></path>
            <g id="text6065-3-2-9-6-6-5-0-0-8-8-8" transform="translate(46.978770, 12.615470)" fill="#FFFFFF" fill-rule="nonzero">
                <path d="M0.67696,12.61866 L0.67696,0.112 L3.81296,0.112 C4.63429333,0.112 5.32496,0.39822 5.88496,0.97066 C6.45740667,1.54310667 6.74363,2.24622 6.74363,3.08 L6.74363,4.23733 C6.74363,5.39466333 6.25207333,6.27822 5.26896,6.888 L7.17296,12.61866 L5.26896,12.61866 L3.58896,7.26133 L2.46896,7.26133 L2.46896,12.61866 L0.67696,12.61866 Z M4.65296,5.28266 C4.76496,5.14577333 4.83962667,4.99022 4.87696,4.816 C4.92676,4.64177333 4.95166,4.44888333 4.95166,4.23733 L4.95166,3.08 C4.95166,2.69422 4.84588333,2.38310667 4.63433,2.14666 C4.42277,1.89777333 4.12410333,1.77333 3.73833,1.77333 L2.46899,1.77333 L2.46899,5.67466 L3.71966,5.67466 C4.09299333,5.67466 4.40410333,5.54399333 4.65299,5.28266 L4.65296,5.28266 Z" id="path2386"></path>
                <polygon id="path2388" points="13.01302 10.82666 13.01302 12.61866 7.65568 12.61866 7.65568 0.112 13.01302 0.112 13.01302 1.75466 9.42902 1.75466 9.42902 5.45066 12.56502 5.45066 12.56502 7.14933 9.42902 7.14933 9.42902 10.82666"></polygon>
                <path d="M15.04099,9.50133 C15.04099,9.62577667 15.04099,9.73155333 15.04099,9.81866 C15.04099,9.90577333 15.0472233,9.98044 15.05969,10.04266 C15.0845567,10.1671067 15.17789,10.3475533 15.33969,10.584 C15.51391,10.8328867 15.82502,10.95733 16.27302,10.95733 C16.5219067,10.95733 16.75213,10.9075533 16.96369,10.808 C17.1752433,10.696 17.3307967,10.5528867 17.43035,10.37866 C17.5050167,10.2417733 17.5485733,10.1111067 17.56102,9.98666 C17.5858867,9.86222 17.59832,9.75022 17.59832,9.65066 L17.59832,9.48266 L17.59832,8.60533 L17.59832,8.43733 C17.59832,8.16355 17.5485433,7.95199333 17.44899,7.80266 C17.3494367,7.64088667 17.1254367,7.46044333 16.77699,7.26133 C16.5405433,7.13688333 16.1174333,6.96266 15.50766,6.73866 C14.89788,6.51466 14.3876567,6.15999333 13.97699,5.67466 C13.5663233,5.18932667 13.36099,4.52977333 13.36099,3.696 L13.36099,3.136 C13.36099,2.27733333 13.6472133,1.54311 14.21966,0.93333 C14.8045467,0.31111 15.51388,0 16.34766,0 C17.2187667,0 17.9405433,0.304886667 18.51299,0.91466 C19.0978767,1.52444 19.39032,2.26488667 19.39032,3.136 L19.39032,3.696 L17.59832,3.696 L17.59832,3.136 C17.59832,3.04888667 17.5920867,2.96799667 17.57962,2.89333 C17.57962,2.81866333 17.5733867,2.75022 17.56092,2.688 C17.5484533,2.6258 17.5173533,2.55113333 17.46762,2.464 C17.41782,2.37688667 17.3493733,2.27110667 17.26228,2.14666 C17.08806,1.89777333 16.7956167,1.77333 16.38495,1.77333 C16.0240633,1.77333 15.7253967,1.90399667 15.48895,2.16533 C15.26495,2.42666333 15.15295,2.75022 15.15295,3.136 L15.15295,3.696 L15.15295,3.864 C15.15295,4.11288667 15.1902833,4.31199667 15.26495,4.46133 C15.3520633,4.59821667 15.5511733,4.75377333 15.86228,4.928 C15.96184,4.9778 16.1111733,5.04624333 16.31028,5.13333 C16.52184,5.20799667 16.7769533,5.30133 17.07562,5.41333 C17.6729533,5.61244333 18.2080633,5.96711 18.68095,6.47733 C19.1538367,6.98755 19.39032,7.65955 19.39032,8.49333 L19.39032,9.50133 C19.39032,9.93688333 19.3467267,10.3039933 19.25962,10.60266 C19.1849533,10.9013267 18.92984,11.3368833 18.49428,11.90933 C18.0587267,12.4568833 17.3307267,12.73066 16.31028,12.73066 C15.2276133,12.73066 14.4436133,12.3822167 13.95828,11.68533 C13.4729467,10.9759967 13.23028,10.2479967 13.23028,9.50133 L13.23028,9.05333 L15.04095,9.05333 L15.04099,9.50133 Z" id="path2390"></path>
                <path d="M20.20175,12.61866 L20.20175,0.112 L23.13242,0.112 L23.16972,0.112 C23.5430533,0.112 23.89772,0.192886667 24.23372,0.35466 C24.56972,0.503993333 24.8683867,0.703106667 25.12972,0.952 C25.3910533,1.20088667 25.5963867,1.48710667 25.74572,1.81066 C25.9075,2.12177333 25.9946133,2.44533 26.00706,2.78133 L26.00706,4.592 L26.00706,4.77866 C26.00706,5.18932667 25.92617,5.57510667 25.76439,5.936 C25.6150567,6.28444 25.4097233,6.58932667 25.14839,6.85066 C24.8870567,7.112 24.5759467,7.31732667 24.21506,7.46666 C23.8666133,7.61599333 23.49328,7.69066 23.09506,7.69066 L22.92706,7.69066 L21.99372,7.69066 L21.99372,12.61866 L20.20175,12.61866 Z M23.99109,5.63733 C24.10309,5.52533 24.1715333,5.40710667 24.19642,5.28266 C24.2337533,5.15822 24.25242,5.00266667 24.25242,4.816 L24.25242,2.968 C24.25242,2.61955333 24.1466433,2.33333 23.93509,2.10933 C23.72353,1.87288333 23.4373067,1.75466 23.07642,1.75466 L21.99375,1.75466 L21.99375,5.992 L22.92709,5.992 C23.1759767,5.992 23.3750867,5.97333333 23.52442,5.936 C23.6862,5.8862 23.8417567,5.78664333 23.99109,5.63733 L23.99109,5.63733 Z" id="path2392"></path>
                <path d="M27.42897,1.288 C27.71519,0.889773333 28.0760767,0.57866 28.51163,0.35466 C28.95963,0.11822 29.4200733,1.13686838e-13 29.89296,1.13686838e-13 C30.3534067,1.13686838e-13 30.78274,0.0933333333 31.18096,0.28 C31.5916267,0.466666667 31.93385,0.721776667 32.20763,1.04533 C32.48141,1.36888333 32.6680767,1.70488333 32.76763,2.05333 C32.8671833,2.38933 32.91696,2.75644 32.91696,3.15466 L32.91696,9.52 C32.91696,9.89333333 32.8796267,10.22311 32.80496,10.50933 C32.74276,10.79555 32.5934267,11.1128833 32.35696,11.46133 C32.13296,11.8097767 31.8031833,12.1084433 31.36763,12.35733 C30.9445167,12.6062167 30.4716267,12.73066 29.94896,12.73066 C29.6502933,12.73066 29.3640733,12.6933267 29.0903,12.61866 C28.81652,12.5315533 28.56141,12.4195533 28.32497,12.28266 C28.0885233,12.1457733 27.8769667,11.99022 27.6903,11.816 C27.51608,11.6417733 27.37919,11.4613267 27.27963,11.27466 C27.0929633,10.8888867 26.9809633,10.5777767 26.94363,10.34133 C26.9062967,10.1048833 26.88763,9.83110667 26.88763,9.52 L26.88763,3.15466 C26.88763,2.78132667 26.9249633,2.45155 26.99963,2.16533 C27.0867433,1.86666333 27.2298567,1.57422 27.42897,1.288 Z M30.90096,2.27733 C30.66452,1.92888333 30.3409667,1.75466 29.9303,1.75466 C29.71874,1.75466 29.5071833,1.81688333 29.29563,1.94133 C29.0965167,2.05333 28.9534067,2.18399667 28.8663,2.33333 C28.7916333,2.48266333 28.7418567,2.63199667 28.71697,2.78133 C28.6921033,2.93066333 28.67967,3.05510667 28.67967,3.15466 L28.67967,9.52 C28.67967,9.5822 28.67967,9.65064333 28.67967,9.72533 C28.67967,9.78753 28.6859033,9.85597333 28.69837,9.93066 C28.7108367,10.0551067 28.81039,10.26044 28.99703,10.54666 C29.1836967,10.8079933 29.49481,10.93866 29.93037,10.93866 C30.15437,10.93866 30.35348,10.8888833 30.5277,10.78933 C30.7143667,10.67733 30.8450333,10.5528867 30.9197,10.416 C31.0068133,10.2666667 31.0628133,10.1297767 31.0877,10.00533 C31.1125667,9.88088333 31.125,9.71910667 31.125,9.52 L31.125,3.15466 C31.125,2.90577333 31.1125667,2.73155333 31.0877,2.632 C31.0752333,2.53244 31.01301,2.41421667 30.90103,2.27733 L30.90096,2.27733 Z" id="path2394"></path>
                <polygon id="path2396" points="38.7716 12.61866 35.99026 5.02133 35.99026 12.61866 34.19826 12.61866 34.19826 0.112 35.89693 0.112 38.6596 7.69066 38.6596 0.112 40.4516 0.112 40.4516 12.61866"></polygon>
                <path d="M42.7867,9.50133 C42.7867,9.62577667 42.7867,9.73155333 42.7867,9.81866 C42.7867,9.90577333 42.7929333,9.98044 42.8054,10.04266 C42.8302667,10.1671067 42.9236,10.3475533 43.0854,10.584 C43.2596267,10.8328867 43.57074,10.95733 44.01874,10.95733 C44.2676267,10.95733 44.4978467,10.9075533 44.7094,10.808 C44.92096,10.696 45.0765167,10.5528867 45.17607,10.37866 C45.2507367,10.2417733 45.2942933,10.1111067 45.30674,9.98666 C45.3316067,9.86222 45.34404,9.75022 45.34404,9.65066 L45.34404,9.48266 L45.34404,8.60533 L45.34404,8.43733 C45.34404,8.16355 45.2942633,7.95199333 45.19471,7.80266 C45.09515,7.64088667 44.87115,7.46044333 44.52271,7.26133 C44.2862633,7.13688333 43.86315,6.96266 43.25337,6.73866 C42.6435967,6.51466 42.1333767,6.15999333 41.72271,5.67466 C41.3120433,5.18932667 41.10671,4.52977333 41.10671,3.696 L41.10671,3.136 C41.10671,2.27733333 41.39293,1.54311 41.96537,0.93333 C42.5502633,0.31111 43.2595967,0 44.09337,0 C44.9644833,0 45.6862633,0.304886667 46.25871,0.91466 C46.8435967,1.52444 47.13604,2.26488667 47.13604,3.136 L47.13604,3.696 L45.34404,3.696 L45.34404,3.136 C45.34404,3.04888667 45.3378067,2.96799667 45.32534,2.89333 C45.32534,2.81866333 45.3191067,2.75022 45.30664,2.688 C45.2941733,2.6258 45.2630733,2.55113333 45.21334,2.464 C45.16354,2.37688667 45.0950967,2.27110667 45.00801,2.14666 C44.83379,1.89777333 44.5413467,1.77333 44.13068,1.77333 C43.7697867,1.77333 43.47112,1.90399667 43.23468,2.16533 C43.01068,2.42666333 42.89868,2.75022 42.89868,3.136 L42.89868,3.696 L42.89868,3.864 C42.89868,4.11288667 42.9360133,4.31199667 43.01068,4.46133 C43.0977867,4.59821667 43.2968967,4.75377333 43.60801,4.928 C43.7075633,4.9778 43.8568967,5.04624333 44.05601,5.13333 C44.2675633,5.20799667 44.5226733,5.30133 44.82134,5.41333 C45.4186733,5.61244333 45.9537867,5.96711 46.42668,6.47733 C46.8995667,6.98755 47.13604,7.65955 47.13604,8.49333 L47.13604,9.50133 C47.13604,9.93688333 47.0924533,10.3039933 47.00534,10.60266 C46.9306733,10.9013267 46.6755633,11.3368833 46.24001,11.90933 C45.8044567,12.4568833 45.0764567,12.73066 44.05601,12.73066 C42.9733433,12.73066 42.1893433,12.3822167 41.70401,11.68533 C41.2186767,10.9759967 40.97601,10.2479967 40.97601,9.50133 L40.97601,9.05333 L42.78668,9.05333 L42.7867,9.50133 Z" id="path2398"></path>
                <polygon id="path2400" points="48.11837 12.61866 48.11837 0.112 49.8917 0.112 49.8917 12.61866"></polygon>
                <path d="M54.1028,0.112 C54.48858,0.112 54.84947,0.192886667 55.18547,0.35466 C55.5588033,0.528886667 55.9383567,0.808886667 56.32413,1.19466 C56.7347967,1.59288667 56.94013,2.21511 56.94013,3.06133 L56.94013,4.01333 C56.94013,4.97155 56.5605767,5.64355 55.80147,6.02933 C56.5605767,6.47733 56.94013,7.17422 56.94013,8.12 L56.94013,9.576 C56.94013,10.4595533 56.65391,11.1875533 56.08147,11.76 C55.52147,12.33244 54.79969,12.61866 53.91613,12.61866 L51.15347,12.61866 L51.15347,0.112 L54.1028,0.112 Z M55.1668,3.82666 L55.1668,3.06133 C55.1668,2.67555 55.0548,2.37066 54.8308,2.14666 C54.6068,1.91022 54.3081333,1.792 53.9348,1.792 L52.9268,1.792 L52.9268,5.24533 L53.9908,5.24533 C54.4014667,5.24533 54.7001333,5.12088667 54.8868,4.872 C55.0734667,4.61066667 55.1668,4.26222 55.1668,3.82666 L55.1668,3.82666 Z M55.1668,9.576 L55.1668,8.12 C55.1668,7.72177333 55.0548,7.41066 54.8308,7.18666 C54.6192467,6.95022 54.32058,6.832 53.9348,6.832 L52.9268,6.832 L52.9268,10.84533 L53.95347,10.84533 C54.3143567,10.84533 54.6068,10.7271067 54.8308,10.49066 C55.0548,10.2417733 55.1668,9.93688667 55.1668,9.576 L55.1668,9.576 Z" id="path2402"></path>
                <polygon id="path2404" points="63.2031 12.61866 57.86444 12.61866 57.86444 0.112 59.65644 0.112 59.65644 10.82666 63.2031 10.82666"></polygon>
                <polygon id="path2406" points="69.05687 10.82666 69.05687 12.61866 63.69953 12.61866 63.69953 0.112 69.05687 0.112 69.05687 1.75466 65.47287 1.75466 65.47287 5.45066 68.60887 5.45066 68.60887 7.14933 65.47287 7.14933 65.47287 10.82666"></polygon>
                <path d="M6.3703,26.71097 C6.3703,27.1091967 6.3454,27.45142 6.2956,27.73764 C6.25826667,28.02386 6.13382333,28.33497 5.92227,28.67097 C5.81027,28.8451967 5.66715667,29.0131967 5.49293,29.17497 C5.33115667,29.3243033 5.14449,29.4611933 4.93293,29.58564 C4.73382333,29.69764 4.51604667,29.7909733 4.2796,29.86564 C4.04315333,29.9403067 3.81293,29.97764 3.58893,29.97764 C3.02893,29.97764 2.51871,29.8594167 2.05827,29.62297 C1.61027,29.38653 1.28049,29.0878633 1.06893,28.72697 C0.857376667,28.3660833 0.72049,28.0300833 0.65827,27.71897 C0.60847,27.4078633 0.58357,27.0718633 0.58357,26.71097 L0.58357,20.27097 C0.58357,19.92253 0.61467,19.61142 0.67687,19.33764 C0.751536667,19.05142 0.90087,18.74653 1.12487,18.42297 C1.34887,18.0994167 1.66620333,17.82564 2.07687,17.60164 C2.48753667,17.3651933 2.91687,17.24697 3.36487,17.24697 C4.22353667,17.24697 4.93909333,17.5331933 5.51154,18.10564 C6.08398667,18.66564 6.37021,19.3874167 6.37021,20.27097 L6.37021,20.94297 L4.59687,20.94297 L4.59687,20.27097 C4.59687,19.92253 4.49731667,19.6300867 4.29821,19.39364 C4.11154333,19.1571933 3.83154333,19.03897 3.45821,19.03897 C3.10976333,19.03897 2.83598333,19.1571933 2.63687,19.39364 C2.45020333,19.6300867 2.35687,19.92253 2.35687,20.27097 L2.35687,27.19631 C2.38173667,27.3829767 2.46885,27.59453 2.61821,27.83097 C2.79243,28.0798633 3.07865,28.20431 3.47687,28.20431 C3.89998333,28.20431 4.17998333,28.09231 4.31687,27.86831 C4.45376333,27.64431 4.53465333,27.48253 4.55954,27.38297 C4.58440667,27.27097 4.59684,27.1216367 4.59684,26.93497 L4.59684,26.30031 L6.37018,26.30031 L6.3703,26.71097 Z" id="path2408"></path>
                <path d="M8.32505,18.53497 C8.61127,18.13675 8.97215667,17.82564 9.40771,17.60164 C9.85571,17.3651933 10.3161567,17.24697 10.78905,17.24697 C11.24949,17.24697 11.6788233,17.3403033 12.07705,17.52697 C12.4877167,17.7136367 12.8299367,17.96875 13.10371,18.29231 C13.37749,18.6158633 13.5641567,18.9518633 13.66371,19.30031 C13.76327,19.63631 13.81305,20.00342 13.81305,20.40164 L13.81305,26.76697 C13.81305,27.1403033 13.7757167,27.4700833 13.70105,27.75631 C13.63885,28.04253 13.4895167,28.3598633 13.25305,28.70831 C13.02905,29.05675 12.69927,29.3554167 12.26371,29.60431 C11.8406033,29.8531967 11.3677167,29.97764 10.84505,29.97764 C10.5463833,29.97764 10.26016,29.9403067 9.98638,29.86564 C9.7126,29.7785267 9.45749,29.6665267 9.22105,29.52964 C8.98460333,29.3927533 8.77304667,29.2371967 8.58638,29.06297 C8.41216,28.88875 8.27527,28.7083067 8.17571,28.52164 C7.98904333,28.13586 7.87704333,27.82475 7.83971,27.58831 C7.80237667,27.3518633 7.78371,27.0780833 7.78371,26.76697 L7.78371,20.40164 C7.78371,20.0283067 7.82104333,19.69853 7.89571,19.41231 C7.98282333,19.1136433 8.12593667,18.8211967 8.32505,18.53497 L8.32505,18.53497 Z M11.79705,19.52431 C11.5606033,19.1758633 11.2370467,19.00164 10.82638,19.00164 C10.6148267,19.00164 10.40327,19.0638633 10.19171,19.18831 C9.99260333,19.30031 9.84949333,19.4309767 9.76238,19.58031 C9.68771333,19.7296433 9.63793667,19.8789767 9.61305,20.02831 C9.58818333,20.1776433 9.57575,20.3020867 9.57575,20.40164 L9.57575,26.76697 C9.57575,26.82917 9.57575,26.8976167 9.57575,26.97231 C9.57575,27.03451 9.58198333,27.1029533 9.59445,27.17764 C9.60691667,27.3020867 9.70647333,27.50742 9.89312,27.79364 C10.0797867,28.0549733 10.3908967,28.18564 10.82645,28.18564 C11.05045,28.18564 11.24956,28.1358633 11.42378,28.03631 C11.6104467,27.92431 11.7411133,27.7998633 11.81578,27.66297 C11.9028933,27.5136367 11.9588933,27.37675 11.98378,27.25231 C12.0086467,27.1278633 12.02108,26.9660833 12.02108,26.76697 L12.02108,20.40164 C12.02108,20.1527533 12.0086467,19.97853 11.98378,19.87897 C11.9713133,19.7794167 11.9090933,19.6611967 11.79712,19.52431 L11.79705,19.52431 Z" id="path2410"></path>
                <polygon id="path2412" points="19.58222 29.86564 16.80089 22.26831 16.80089 29.86564 15.00889 29.86564 15.00889 17.35897 16.70756 17.35897 19.47022 24.93764 19.47022 17.35897 21.26222 17.35897 21.26222 29.86564"></polygon>
                <path d="M23.51186,26.74831 C23.51186,26.87275 23.51186,26.9785267 23.51186,27.06564 C23.51186,27.1527533 23.5180933,27.22742 23.53056,27.28964 C23.5554267,27.4140867 23.64876,27.59453 23.81056,27.83097 C23.98478,28.0798633 24.29589,28.20431 24.74389,28.20431 C24.9927833,28.20431 25.2230067,28.15453 25.43456,28.05497 C25.6461133,27.94297 25.80167,27.79986 25.90123,27.62564 C25.9758967,27.4887533 26.01945,27.3580867 26.03189,27.23364 C26.0567567,27.1091933 26.06919,26.9971933 26.06919,26.89764 L26.06919,26.72964 L26.06919,25.85231 L26.06919,25.68431 C26.06919,25.41053 26.01941,25.1989733 25.91985,25.04964 C25.8202967,24.88786 25.5962967,24.7074167 25.24785,24.50831 C25.01141,24.3838633 24.5883,24.20964 23.97852,23.98564 C23.36874,23.76164 22.8585167,23.4069733 22.44785,22.92164 C22.0371833,22.4363067 21.83185,21.77675 21.83185,20.94297 L21.83185,20.38297 C21.83185,19.5243033 22.1180733,18.7900833 22.69052,18.18031 C23.2754067,17.5580833 23.98474,17.24697 24.81852,17.24697 C25.6896333,17.24697 26.41141,17.55186 26.98385,18.16164 C27.5687433,18.77142 27.86119,19.5118633 27.86119,20.38297 L27.86119,20.94297 L26.06919,20.94297 L26.06919,20.38297 C26.06919,20.2958633 26.0629567,20.2149767 26.05049,20.14031 C26.05049,20.0656433 26.0442567,19.9971967 26.03179,19.93497 C26.0193233,19.87277 25.9882233,19.7981033 25.93849,19.71097 C25.88869,19.6238633 25.8202467,19.5180867 25.73316,19.39364 C25.5589333,19.1447533 25.2664867,19.02031 24.85582,19.02031 C24.4949333,19.02031 24.1962667,19.1509767 23.95982,19.41231 C23.73582,19.6736433 23.62382,19.9971967 23.62382,20.38297 L23.62382,20.94297 L23.62382,21.11097 C23.62382,21.3598633 23.6611533,21.5589767 23.73582,21.70831 C23.8229333,21.8451967 24.0220467,22.00075 24.33316,22.17497 C24.4327133,22.22477 24.5820467,22.2932167 24.78116,22.38031 C24.9927133,22.4549767 25.2478233,22.54831 25.54649,22.66031 C26.1438233,22.8594167 26.6789333,23.2140833 27.15182,23.72431 C27.6247133,24.23453 27.86119,24.90653 27.86119,25.74031 L27.86119,26.74831 C27.86119,27.1838633 27.8176033,27.5509733 27.73049,27.84964 C27.6558233,28.1483067 27.4007133,28.5838633 26.96516,29.15631 C26.5296,29.7038633 25.8016,29.97764 24.78116,29.97764 C23.6984933,29.97764 22.9144933,29.6291967 22.42916,28.93231 C21.9438267,28.2229767 21.70116,27.4949767 21.70116,26.74831 L21.70116,26.30031 L23.51182,26.30031 L23.51186,26.74831 Z" id="path2414"></path>
                <path d="M34.08596,28.55897 C33.81218,28.9820833 33.4575133,29.3243067 33.02196,29.58564 C32.5988467,29.8469733 32.1259567,29.97764 31.60329,29.97764 C31.3419567,29.97764 31.0806233,29.9403067 30.81929,29.86564 C30.5704033,29.7909733 30.33396,29.69764 30.10996,29.58564 C29.88596,29.4611933 29.68685,29.3243033 29.51263,29.17497 C29.3384033,29.0131967 29.2077367,28.8451967 29.12063,28.67097 C28.9339633,28.32253 28.8095167,28.0176433 28.74729,27.75631 C28.69749,27.4949767 28.67259,27.2149767 28.67259,26.91631 L28.67259,17.35897 L30.46459,17.35897 L30.46459,26.91631 C30.46459,27.0034167 30.46459,27.0843033 30.46459,27.15897 C30.4770567,27.22117 30.48949,27.2833933 30.50189,27.34564 C30.5143567,27.4451933 30.60769,27.6194167 30.78189,27.86831 C30.94367,28.09231 31.22367,28.20431 31.62189,28.20431 C31.9827767,28.20431 32.2503333,28.0736433 32.42456,27.81231 C32.6112267,27.53853 32.70456,27.2398633 32.70456,26.91631 L32.70456,17.35897 L34.49656,17.35897 L34.49656,26.91631 C34.49656,27.2149767 34.46546,27.5011967 34.40326,27.77497 C34.34106,28.04875 34.2352833,28.3100833 34.08593,28.55897 L34.08596,28.55897 Z" id="path2416"></path>
                <polygon id="path2418" points="41.37327 29.86564 41.37327 22.24964 39.58127 27.58831 38.68527 27.58831 36.91194 22.24964 36.91194 29.86564 35.11994 29.86564 35.11994 17.35897 36.79994 17.35897 39.17061 24.02297 41.50394 17.35897 43.14661 17.35897 43.14661 29.86564"></polygon>
                <path d="M44.38941,29.86564 L44.38941,17.35897 L47.32007,17.35897 L47.35737,17.35897 C47.7307033,17.35897 48.08537,17.43986 48.42137,17.60164 C48.75737,17.7509733 49.0560367,17.9500833 49.31737,18.19897 C49.5787033,18.4478633 49.7840367,18.7340867 49.93337,19.05764 C50.0951433,19.3687533 50.1822533,19.69231 50.1947,20.02831 L50.1947,21.83897 L50.1947,22.02564 C50.1947,22.4363067 50.11381,22.8220833 49.95203,23.18297 C49.8026967,23.5314167 49.5973633,23.8363067 49.33603,24.09764 C49.0746967,24.35897 48.7635867,24.5643067 48.4027,24.71364 C48.0542533,24.8629733 47.68092,24.93764 47.2827,24.93764 L47.1147,24.93764 L46.18137,24.93764 L46.18137,29.86564 L44.38941,29.86564 Z M48.17874,22.88431 C48.29074,22.77231 48.3591833,22.6540867 48.38407,22.52964 C48.4214033,22.4051933 48.44007,22.2496367 48.44007,22.06297 L48.44007,20.21497 C48.44007,19.86653 48.3342933,19.58031 48.12274,19.35631 C47.9111867,19.1198633 47.6249633,19.00164 47.26407,19.00164 L46.18141,19.00164 L46.18141,23.23897 L47.11474,23.23897 C47.3636267,23.23897 47.5627367,23.2203033 47.71207,23.18297 C47.87385,23.13317 48.0294067,23.0336167 48.17874,22.88431 L48.17874,22.88431 Z" id="path2420"></path>
                <polygon id="path2422" points="52.64329 29.86564 52.64329 19.02031 50.53395 19.02031 50.53395 17.35897 56.56329 17.35897 56.56329 19.02031 54.41662 19.02031 54.41662 29.86564"></polygon>
                <polygon id="path2424" points="57.20671 29.86564 57.20671 17.35897 58.98005 17.35897 58.98005 29.86564"></polygon>
                <path d="M60.82338,18.53497 C61.1096067,18.13675 61.4704967,17.82564 61.90605,17.60164 C62.35405,17.3651933 62.8144933,17.24697 63.28738,17.24697 C63.7478267,17.24697 64.17716,17.3403033 64.57538,17.52697 C64.9860467,17.7136367 65.32827,17.96875 65.60205,18.29231 C65.87583,18.6158633 66.0624967,18.9518633 66.16205,19.30031 C66.2616033,19.63631 66.31138,20.00342 66.31138,20.40164 L66.31138,26.76697 C66.31138,27.1403033 66.2740467,27.4700833 66.19938,27.75631 C66.13718,28.04253 65.9878467,28.3598633 65.75138,28.70831 C65.52738,29.05675 65.1976033,29.3554167 64.76205,29.60431 C64.3389367,29.8531967 63.8660467,29.97764 63.34338,29.97764 C63.0447133,29.97764 62.7584933,29.9403067 62.48472,29.86564 C62.21094,29.7785267 61.9558267,29.6665267 61.71938,29.52964 C61.48294,29.3927533 61.2713867,29.2371967 61.08472,29.06297 C60.9104933,28.88875 60.7736033,28.7083067 60.67405,28.52164 C60.4873833,28.13586 60.3753833,27.82475 60.33805,27.58831 C60.3007167,27.3518633 60.28205,27.0780833 60.28205,26.76697 L60.28205,20.40164 C60.28205,20.0283067 60.3193833,19.69853 60.39405,19.41231 C60.4811633,19.1136433 60.6242733,18.8211967 60.82338,18.53497 L60.82338,18.53497 Z M64.29538,19.52431 C64.05894,19.1758633 63.7353867,19.00164 63.32472,19.00164 C63.11316,19.00164 62.9016033,19.0638633 62.69005,19.18831 C62.4909367,19.30031 62.3478267,19.4309767 62.26072,19.58031 C62.1860533,19.7296433 62.1362733,19.8789767 62.11138,20.02831 C62.0865133,20.1776433 62.07408,20.3020867 62.07408,20.40164 L62.07408,26.76697 C62.07408,26.82917 62.07408,26.8976167 62.07408,26.97231 C62.07408,27.03451 62.0803133,27.1029533 62.09278,27.17764 C62.1052467,27.3020867 62.2048,27.50742 62.39144,27.79364 C62.5781067,28.0549733 62.88922,28.18564 63.32478,28.18564 C63.54878,28.18564 63.74789,28.1358633 63.92211,28.03631 C64.1087767,27.92431 64.2394433,27.7998633 64.31411,27.66297 C64.4012233,27.5136367 64.4572233,27.37675 64.48211,27.25231 C64.5069767,27.1278633 64.51941,26.9660833 64.51941,26.76697 L64.51941,20.40164 C64.51941,20.1527533 64.5069767,19.97853 64.48211,19.87897 C64.4696433,19.7794167 64.40742,19.6611967 64.29544,19.52431 L64.29538,19.52431 Z" id="path2426"></path>
                <polygon id="path2428" points="72.25148 29.86564 69.47014 22.26831 69.47014 29.86564 67.67814 29.86564 67.67814 17.35897 69.37681 17.35897 72.13948 24.93764 72.13948 17.35897 73.93148 17.35897 73.93148 29.86564"></polygon>
                <path d="M0,47.11262 L2.8,34.60595 L4.34933,34.60595 L7.14933,47.11262 L5.22667,47.11262 L4.72267,44.42462 L2.408,44.42462 L1.88533,47.11262 L0,47.11262 Z M2.72533,42.76328 L4.40533,42.76328 L3.56533,38.20862 L2.72533,42.76328 Z" id="path2430"></path>
                <polygon id="path2432" points="12.54925 47.11262 9.76792 39.51528 9.76792 47.11262 7.97592 47.11262 7.97592 34.60595 9.67459 34.60595 12.43725 42.18462 12.43725 34.60595 14.22925 34.60595 14.22925 47.11262"></polygon>
                <path d="M18.07635,34.60595 C18.8852367,34.60595 19.5759033,34.8921733 20.14835,35.46462 C20.7332367,36.02462 21.02568,36.7090633 21.02568,37.51795 L21.02568,44.01395 C21.02568,44.9348367 20.74568,45.6815033 20.18568,46.25395 C19.62568,46.8263967 18.9039033,47.11262 18.02035,47.11262 L15.23902,47.11262 L15.23902,34.60595 L18.07635,34.60595 Z M19.25235,44.01395 L19.25235,37.51795 C19.25235,37.1695033 19.1216833,36.87706 18.86035,36.64062 C18.6114633,36.4041733 18.3065733,36.28595 17.94568,36.28595 L17.01235,36.28595 L17.01235,45.45128 L17.88968,45.45128 C18.7981267,45.45128 19.25235,44.97217 19.25235,44.01395 L19.25235,44.01395 Z" id="path2434"></path>
                <path d="M24.00363,47.11262 L24.00363,34.60595 L26.9343,34.60595 L26.9716,34.60595 C27.3449333,34.60595 27.6996,34.68684 28.0356,34.84862 C28.3716,34.9979533 28.6702667,35.1970633 28.9316,35.44595 C29.1929333,35.6948367 29.3982667,35.98106 29.5476,36.30462 C29.70938,36.6157267 29.7964933,36.93928 29.80894,37.27528 L29.80894,39.08595 L29.80894,39.27262 C29.80894,39.6832867 29.72805,40.0690633 29.56627,40.42995 C29.4169367,40.7783967 29.2116033,41.0832867 28.95027,41.34462 C28.6889367,41.60595 28.3778267,41.8112867 28.01694,41.96062 C27.6684933,42.1099533 27.29516,42.18462 26.89694,42.18462 L26.72894,42.18462 L25.7956,42.18462 L25.7956,47.11262 L24.00363,47.11262 Z M27.79297,40.13128 C27.90497,40.01928 27.9734133,39.90106 27.9983,39.77662 C28.0356333,39.6521733 28.0543,39.4966167 28.0543,39.30995 L28.0543,37.46195 C28.0543,37.1135033 27.9485233,36.82728 27.73697,36.60328 C27.52541,36.36684 27.2391867,36.24862 26.8783,36.24862 L25.79563,36.24862 L25.79563,40.48595 L26.72897,40.48595 C26.9778567,40.48595 27.1769667,40.4672833 27.3263,40.42995 C27.48808,40.38015 27.6436367,40.2805933 27.79297,40.13128 L27.79297,40.13128 Z" id="path2436"></path>
                <path d="M30.88697,47.11262 L30.88697,34.60595 L34.02297,34.60595 C34.8443033,34.60595 35.53497,34.8921733 36.09497,35.46462 C36.6674167,36.03706 36.95364,36.74017 36.95364,37.57395 L36.95364,38.73128 C36.95364,39.8886133 36.4620833,40.77217 35.47897,41.38195 L37.38297,47.11262 L35.47897,47.11262 L33.79897,41.75528 L32.67897,41.75528 L32.67897,47.11262 L30.88697,47.11262 Z M34.86297,39.77662 C34.97497,39.6397267 35.0496367,39.48417 35.08697,39.30995 C35.13677,39.13573 35.16167,38.94284 35.16167,38.73128 L35.16167,37.57395 C35.16167,37.18817 35.05589,36.87706 34.84433,36.64062 C34.6327767,36.3917267 34.33411,36.26728 33.94833,36.26728 L32.679,36.26728 L32.679,40.16862 L33.92967,40.16862 C34.3030033,40.16862 34.6141133,40.0379533 34.863,39.77662 L34.86297,39.77662 Z" id="path2438"></path>
                <path d="M38.27636,35.78195 C38.56258,35.38373 38.9234667,35.07262 39.35902,34.84862 C39.80702,34.6121733 40.2674667,34.49395 40.74036,34.49395 C41.2008,34.49395 41.6301333,34.5872833 42.02836,34.77395 C42.4390267,34.9606167 42.7812467,35.2157267 43.05502,35.53928 C43.3288,35.86284 43.5154667,36.19884 43.61502,36.54728 C43.71458,36.88328 43.76436,37.2503933 43.76436,37.64862 L43.76436,44.01395 C43.76436,44.3872833 43.7270267,44.71706 43.65236,45.00328 C43.59016,45.2895067 43.4408267,45.60684 43.20436,45.95528 C42.98036,46.3037267 42.65058,46.6023933 42.21502,46.85128 C41.7919133,47.1001733 41.3190267,47.22462 40.79636,47.22462 C40.4976933,47.22462 40.21147,47.1872867 39.93769,47.11262 C39.66391,47.0255067 39.4088,46.9135067 39.17236,46.77662 C38.9359133,46.6397267 38.7243567,46.48417 38.53769,46.30995 C38.36347,46.13573 38.22658,45.9552867 38.12702,45.76862 C37.9403533,45.38284 37.8283533,45.0717267 37.79102,44.83528 C37.7536867,44.59884 37.73502,44.3250633 37.73502,44.01395 L37.73502,37.64862 C37.73502,37.2752867 37.7723533,36.9455067 37.84702,36.65928 C37.9341333,36.3606133 38.0772467,36.06817 38.27636,35.78195 L38.27636,35.78195 Z M41.74836,36.77128 C41.5119133,36.42284 41.1883567,36.24862 40.77769,36.24862 C40.5661367,36.24862 40.35458,36.31084 40.14302,36.43528 C39.9439133,36.54728 39.8008033,36.6779467 39.71369,36.82728 C39.6390233,36.9766133 39.5892467,37.1259467 39.56436,37.27528 C39.5394933,37.4246133 39.52706,37.54906 39.52706,37.64862 L39.52706,44.01395 C39.52706,44.07615 39.52706,44.1445933 39.52706,44.21928 C39.52706,44.28148 39.5332933,44.3499267 39.54576,44.42462 C39.5582267,44.54906 39.6577833,44.7543933 39.84443,45.04062 C40.0310967,45.3019533 40.3422067,45.43262 40.77776,45.43262 C41.00176,45.43262 41.20087,45.38284 41.37509,45.28328 C41.5617567,45.17128 41.6924233,45.0468367 41.76709,44.90995 C41.8542033,44.7606167 41.9102033,44.6237267 41.93509,44.49928 C41.9599567,44.37484 41.97239,44.2130633 41.97239,44.01395 L41.97239,37.64862 C41.97239,37.3997267 41.9599567,37.2255033 41.93509,37.12595 C41.9226233,37.0263967 41.8604033,36.9081733 41.74843,36.77128 L41.74836,36.77128 Z" id="path2440"></path>
                <path d="M47.79753,34.60595 C48.6064233,34.60595 49.29709,34.8921733 49.86953,35.46462 C50.4544233,36.02462 50.74687,36.7090633 50.74687,37.51795 L50.74687,44.01395 C50.74687,44.9348367 50.46687,45.6815033 49.90687,46.25395 C49.34687,46.8263967 48.62509,47.11262 47.74153,47.11262 L44.9602,47.11262 L44.9602,34.60595 L47.79753,34.60595 Z M48.97353,44.01395 L48.97353,37.51795 C48.97353,37.1695033 48.8428633,36.87706 48.58153,36.64062 C48.3326433,36.4041733 48.0277567,36.28595 47.66687,36.28595 L46.73353,36.28595 L46.73353,45.45128 L47.61087,45.45128 C48.51931,45.45128 48.97353,44.97217 48.97353,44.01395 L48.97353,44.01395 Z" id="path2442"></path>
                <path d="M57.61504,45.80595 C57.34126,46.2290633 56.9865933,46.5712867 56.55104,46.83262 C56.1279267,47.0939533 55.6550367,47.22462 55.13237,47.22462 C54.8710367,47.22462 54.6097033,47.1872867 54.34837,47.11262 C54.0994833,47.0379533 53.86304,46.94462 53.63904,46.83262 C53.41504,46.7081733 53.2159267,46.5712833 53.0417,46.42195 C52.86748,46.26017 52.7368133,46.09217 52.6497,45.91795 C52.4630333,45.5695033 52.33859,45.2646133 52.27637,45.00328 C52.22657,44.7419467 52.20167,44.4619467 52.20167,44.16328 L52.20167,34.60595 L53.99367,34.60595 L53.99367,44.16328 C53.99367,44.2503933 53.99367,44.3312833 53.99367,44.40595 C54.0061367,44.46815 54.01857,44.5303733 54.03097,44.59262 C54.0434367,44.6921733 54.13677,44.8663933 54.31097,45.11528 C54.4727433,45.33928 54.7527433,45.45128 55.15097,45.45128 C55.5118567,45.45128 55.77941,45.3206133 55.95363,45.05928 C56.1402967,44.7855067 56.23363,44.48684 56.23363,44.16328 L56.23363,34.60595 L58.02563,34.60595 L58.02563,44.16328 C58.02563,44.4619467 57.99453,44.74817 57.93233,45.02195 C57.87013,45.29573 57.7643533,45.5570633 57.615,45.80595 L57.61504,45.80595 Z" id="path2444"></path>
                <path d="M65.17825,43.95795 C65.17825,44.35617 65.15335,44.6983933 65.10355,44.98462 C65.0662167,45.27084 64.94177,45.58195 64.73021,45.91795 C64.61821,46.09217 64.4751,46.26017 64.30088,46.42195 C64.1391,46.5712833 63.9524333,46.7081733 63.74088,46.83262 C63.5417667,46.94462 63.32399,47.0379533 63.08755,47.11262 C62.8511033,47.1872867 62.62088,47.22462 62.39688,47.22462 C61.83688,47.22462 61.3266567,47.1063967 60.86621,46.86995 C60.41821,46.6335033 60.0884333,46.3348367 59.87688,45.97395 C59.6653267,45.6130633 59.5284367,45.2770633 59.46621,44.96595 C59.41641,44.6548367 59.39151,44.3188367 59.39151,43.95795 L59.39151,37.51795 C59.39151,37.1695033 59.42261,36.8583933 59.48481,36.58462 C59.5594767,36.2983933 59.70881,35.9935033 59.93281,35.66995 C60.15681,35.3463967 60.4741433,35.07262 60.88481,34.84862 C61.2954767,34.6121733 61.72481,34.49395 62.17281,34.49395 C63.0314767,34.49395 63.7470333,34.7801733 64.31948,35.35262 C64.89192,35.91262 65.17814,36.6343967 65.17814,37.51795 L65.17814,38.18995 L63.40481,38.18995 L63.40481,37.51795 C63.40481,37.1695033 63.3052533,36.87706 63.10614,36.64062 C62.9194733,36.4041733 62.6394733,36.28595 62.26614,36.28595 C61.9177,36.28595 61.6439233,36.4041733 61.44481,36.64062 C61.2581433,36.87706 61.16481,37.1695033 61.16481,37.51795 L61.16481,44.44328 C61.1896767,44.6299467 61.2767867,44.8415033 61.42614,45.07795 C61.6003667,45.3268367 61.88659,45.45128 62.28481,45.45128 C62.7079233,45.45128 62.9879233,45.33928 63.12481,45.11528 C63.2616967,44.89128 63.3425867,44.7295033 63.36748,44.62995 C63.3923467,44.51795 63.40478,44.3686167 63.40478,44.18195 L63.40478,43.54728 L65.17811,43.54728 L65.17825,43.95795 Z" id="path2446"></path>
                <polygon id="path2448" points="67.56147 47.11262 67.56147 36.26728 65.45214 36.26728 65.45214 34.60595 71.48147 34.60595 71.48147 36.26728 69.3348 36.26728 69.3348 47.11262"></polygon>
                <polygon id="path2450" points="72.21036 47.11262 72.21036 34.60595 73.98369 34.60595 73.98369 47.11262"></polygon>
                <path d="M75.65611,35.78195 C75.94233,35.38373 76.30322,35.07262 76.73878,34.84862 C77.18678,34.6121733 77.6472233,34.49395 78.12011,34.49395 C78.5805567,34.49395 79.00989,34.5872833 79.40811,34.77395 C79.8187767,34.9606167 80.161,35.2157267 80.43478,35.53928 C80.7085533,35.86284 80.89522,36.19884 80.99478,36.54728 C81.0943333,36.88328 81.14411,37.2503933 81.14411,37.64862 L81.14411,44.01395 C81.14411,44.3872833 81.1067767,44.71706 81.03211,45.00328 C80.96991,45.2895067 80.8205767,45.60684 80.58411,45.95528 C80.36011,46.3037267 80.0303333,46.6023933 79.59478,46.85128 C79.1716667,47.1001733 78.6987767,47.22462 78.17611,47.22462 C77.8774433,47.22462 77.59122,47.1872867 77.31744,47.11262 C77.0436667,47.0255067 76.7885567,46.9135067 76.55211,46.77662 C76.3156633,46.6397267 76.1041067,46.48417 75.91744,46.30995 C75.74322,46.13573 75.6063333,45.9552867 75.50678,45.76862 C75.3201133,45.38284 75.2081133,45.0717267 75.17078,44.83528 C75.1334467,44.59884 75.11478,44.3250633 75.11478,44.01395 L75.11478,37.64862 C75.11478,37.2752867 75.1521133,36.9455067 75.22678,36.65928 C75.3138867,36.3606133 75.4569967,36.06817 75.65611,35.78195 L75.65611,35.78195 Z M79.12811,36.77128 C78.8916633,36.42284 78.5681067,36.24862 78.15744,36.24862 C77.9458867,36.24862 77.7343333,36.31084 77.52278,36.43528 C77.3236667,36.54728 77.1805533,36.6779467 77.09344,36.82728 C77.0187733,36.9766133 76.9689967,37.1259467 76.94411,37.27528 C76.9192433,37.4246133 76.90681,37.54906 76.90681,37.64862 L76.90681,44.01395 C76.90681,44.07615 76.90681,44.1445933 76.90681,44.21928 C76.90681,44.28148 76.9130433,44.3499267 76.92551,44.42462 C76.9379767,44.54906 77.0375333,44.7543933 77.22418,45.04062 C77.4108467,45.3019533 77.7219567,45.43262 78.15751,45.43262 C78.38151,45.43262 78.5806233,45.38284 78.75485,45.28328 C78.9415167,45.17128 79.0721833,45.0468367 79.14685,44.90995 C79.2339567,44.7606167 79.2899567,44.6237267 79.31485,44.49928 C79.3397167,44.37484 79.35215,44.2130633 79.35215,44.01395 L79.35215,37.64862 C79.35215,37.3997267 79.3397167,37.2255033 79.31485,37.12595 C79.3023833,37.0263967 79.24016,36.9081733 79.12818,36.77128 L79.12811,36.77128 Z" id="path2452"></path>
                <polygon id="path2454" points="86.91329 47.11262 84.13196 39.51528 84.13196 47.11262 82.33996 47.11262 82.33996 34.60595 84.03862 34.60595 86.80129 42.18462 86.80129 34.60595 88.59328 34.60595 88.59328 47.11262"></polygon>
            </g>
            <g id="text6075-0-6-9-2-5-9-0-9-4-2-8" transform="translate(11.007350, 12.058910)" fill="#FFFFFF" fill-rule="nonzero">
                <polygon id="path2457" points="4.288 30.19466 4.288 4.73466 0 7.95066 0 3.39466 4.288 0.268 8.53134 0.268 8.53134 30.19466"></polygon>
                <path d="M24.84738,30.19466 L12.11738,30.19466 L12.11738,26.264 L20.06805,10.80933 C20.4253833,10.0946633 20.60405,9.36510667 20.60405,8.62066 L20.60405,6.38733 C20.60405,5.79177667 20.3956067,5.28555333 19.97872,4.86866 C19.5618267,4.42199333 19.0556033,4.19866 18.46005,4.19866 C17.92405,4.19866 17.4327167,4.39221667 16.98605,4.77933 C16.5691633,5.16644333 16.36072,5.64288667 16.36072,6.20866 L16.36072,8.844 L12.02805,8.844 L12.02805,6.7 C12.02805,5.53866667 12.4598267,4.12422 13.32338,2.45666 C14.2167133,0.818886667 16.00338,5.68434189e-14 18.68338,5.68434189e-14 C20.3807133,5.68434189e-14 21.8249367,0.64022 23.01605,1.92066 C24.2369367,3.23088667 24.84738,4.71977667 24.84738,6.38733 L24.84738,9.112 C24.84738,10.3328867 24.5198267,11.5537733 23.86472,12.77466 L17.16472,25.95133 L24.84738,25.95133 L24.84738,30.19466 Z" id="path2459"></path>
            </g>
            <path d="M68.58135,101.32572 L55.36504,105.71627 C54.781,105.9105 54.62583,106.6639 55.08559,107.07311 L65.49452,116.32318 C65.95438,116.73203 66.68437,116.4904 66.80949,115.88793 L69.61688,102.24731 C69.74187,101.64381 69.16627,101.13154 68.58135,101.32572 L68.58135,101.32572 Z M97.18365,71.87519 C86.45754,71.87519 79.49917,79.59097 76.07235,83.60404 C76.07235,83.60404 78.69497,89.03747 80.16217,89.84589 C80.16217,89.84589 86.98216,78.77558 97.18365,78.77558 C100.78123,78.77558 104.75095,79.95456 107.71295,82.60956 C110.67495,85.26456 112.89068,89.39068 112.89068,96.31269 C112.89068,100.47699 111.51857,104.53702 109.1524,107.4162 C106.78624,110.29538 103.57492,112.09394 99.11529,112.09394 C94.30791,112.09394 90.49854,110.71681 86.83404,107.78534 C83.16955,104.85387 79.70544,100.23745 76.37115,93.8537 C74.66013,90.57782 71.8996,85.27165 67.57818,80.65448 C63.25677,76.03731 57.09636,72.01581 49.1524,72.01581 C43.83076,72.01581 38.29534,73.67143 34.06061,77.64667 C29.82587,81.62191 27.14575,87.82338 27.1091617,95.9455 C27.04843,109.57569 37.39798,118.77948 49.22272,118.77948 C57.73326,118.77948 63.45904,113.52948 63.45904,113.52948 L58.83404,108.40839 C58.83404,108.40839 54.90795,111.87909 49.22272,111.87909 C40.74643,111.87909 33.96166,106.30471 34.00787,95.97675 C34.03777,89.2961 36.04396,85.24936 38.78326,82.67792 C41.52257,80.10648 45.25005,78.9162 49.1524,78.9162 C54.82239,78.9162 59.03693,81.62536 62.54107,85.36933 C66.04522,89.11329 68.55899,93.80012 70.25592,97.04901 C73.85928,103.94792 77.78045,109.37779 82.5235,113.17206 C87.26654,116.96633 92.88839,118.99433 99.11529,118.99433 C105.56161,118.99433 110.9622,116.08059 114.48248,111.79706 C118.00276,107.51353 119.79107,101.95868 119.79107,96.31269 C119.79107,87.82604 116.76611,81.45955 112.31842,77.47284 C107.87073,73.48613 102.26051,71.87519 97.18365,71.87519 L97.18365,71.87519 Z" id="path8194" fill="#FFFFFF"></path>
        </g>
    </g>
</svg>