<?xml version="1.0" encoding="UTF-8"?>
<svg width="149px" height="149px" viewBox="0 0 149 149" version="1.1" xmlns="http://www.w3.org/2000/svg" xmlns:xlink="http://www.w3.org/1999/xlink">
    <title>13-climate-action</title>
    <g id="SDGs" stroke="none" stroke-width="1" fill="none" fill-rule="evenodd">
        <g id="13-climate-action" transform="translate(0.000000, 0.094900)">
            <path d="M0.826754,0 L147.266003,0 C147.724023,0 148.092753,0.36873 148.092753,0.82675 L148.092753,147.50782 C148.092753,147.96584 147.724023,148.33458 147.266003,148.33458 L0.826754,148.33458 C0.368732,148.33458 0,147.96584 0,147.50782 L0,0.82675 C0,0.36873 0.368732,0 0.826754,0 Z" id="rect8528-63-2-4-3-6-0-4-3-6-3" fill="#48773E"></path>
            <g id="text6065-3-2-9-6-6-5-5" transform="translate(45.385099, 12.921550)" fill="#FFFFFF" fill-rule="nonzero">
                <path d="M6.541209,9.464 C6.541209,9.86222667 6.516319,10.20445 6.466539,10.49067 C6.42920567,10.77689 6.30476133,11.088 6.093206,11.424 C5.981206,11.5982267 5.838095,11.7662267 5.663873,11.928 C5.502095,12.0773333 5.31542833,12.2142233 5.103873,12.33867 C4.90476167,12.45067 4.686984,12.5440033 4.45054,12.61867 C4.21409533,12.6933367 3.983873,12.73067 3.759873,12.73067 C3.199873,12.73067 2.68965067,12.6124467 2.229206,12.376 C1.781206,12.13956 1.45142833,11.8408933 1.239873,11.48 C1.02831767,11.1191133 0.891428667,10.7831133 0.829206,10.472 C0.779426,10.1608933 0.754536,9.82489333 0.754536,9.464 L0.754536,3.024 C0.754536,2.67556 0.785646,2.36445 0.847866,2.09067 C0.922532667,1.80445 1.071866,1.49956 1.295866,1.176 C1.519866,0.852446667 1.83719933,0.57867 2.247866,0.35467 C2.65853267,0.118223333 3.087866,0 3.535866,0 C4.39453267,0 5.110088,0.286223333 5.682532,0.85867 C6.25497667,1.41867 6.541209,2.14044667 6.541209,3.024 L6.541209,3.696 L4.767866,3.696 L4.767866,3.024 C4.767866,2.67556 4.66831033,2.38311667 4.469199,2.14667 C4.28253233,1.91022333 4.00253233,1.792 3.629199,1.792 C3.280755,1.792 3.00697733,1.91022333 2.807866,2.14667 C2.62119933,2.38311667 2.527866,2.67556 2.527866,3.024 L2.527866,9.94934 C2.55275267,10.1360067 2.63986367,10.34756 2.789199,10.584 C2.96342167,10.8328933 3.249644,10.95734 3.647866,10.95734 C4.07097733,10.95734 4.35097733,10.84534 4.487866,10.62134 C4.62475467,10.39734 4.70564333,10.23556 4.730532,10.136 C4.75541867,10.024 4.767862,9.87466667 4.767862,9.688 L4.767862,9.05334 L6.541209,9.05334 L6.541209,9.464 Z" id="path2462"></path>
                <polygon id="path2464" points="13.143524 12.61867 7.804859 12.61867 7.804859 0.112 9.596864 0.112 9.596864 10.82667 13.143524 10.82667"></polygon>
                <polygon id="path2466" points="13.554504 12.61867 13.554504 0.112 15.327834 0.112 15.327834 12.61867"></polygon>
                <polygon id="path2468" points="23.142024 12.61867 23.142024 5.00267 21.350024 10.34134 20.454024 10.34134 18.680694 5.00267 18.680694 12.61867 16.888694 12.61867 16.888694 0.112 18.568694 0.112 20.939364 6.776 23.272694 0.112 24.915364 0.112 24.915364 12.61867"></polygon>
                <path d="M25.248894,12.61867 L28.048894,0.112 L29.598224,0.112 L32.398224,12.61867 L30.475554,12.61867 L29.971554,9.93067 L27.656894,9.93067 L27.134224,12.61867 L25.248894,12.61867 Z M27.974224,8.26934 L29.654224,8.26934 L28.814224,3.71467 L27.974224,8.26934 Z" id="path2470"></path>
                <polygon id="path2472" points="34.021214 12.61867 34.021214 1.77334 31.911884 1.77334 31.911884 0.112 37.941214 0.112 37.941214 1.77334 35.794544 1.77334 35.794544 12.61867"></polygon>
                <polygon id="path2474" points="44.155614 10.82667 44.155614 12.61867 38.798284 12.61867 38.798284 0.112 44.155614 0.112 44.155614 1.75467 40.571614 1.75467 40.571614 5.45067 43.707614 5.45067 43.707614 7.14934 40.571614 7.14934 40.571614 10.82667"></polygon>
                <path d="M0,29.86565 L2.8,17.35898 L4.349333,17.35898 L7.149333,29.86565 L5.226666,29.86565 L4.722666,27.17765 L2.408,27.17765 L1.885333,29.86565 L0,29.86565 Z M2.725333,25.51631 L4.405333,25.51631 L3.565333,20.96165 L2.725333,25.51631 Z" id="path2476"></path>
                <path d="M13.736044,26.71098 C13.736044,27.1092 13.711144,27.4514233 13.661344,27.73765 C13.6240107,28.02387 13.4995673,28.33498 13.288014,28.67098 C13.176014,28.8452 13.0329007,29.0132 12.858674,29.17498 C12.6969007,29.3243133 12.510234,29.4612033 12.298674,29.58565 C12.0995673,29.69765 11.8817907,29.7909833 11.645344,29.86565 C11.4088973,29.9403167 11.178674,29.97765 10.954674,29.97765 C10.394674,29.97765 9.884454,29.8594267 9.424014,29.62298 C8.976014,29.3865333 8.646235,29.0878667 8.434677,28.72698 C8.22312167,28.3660933 8.086233,28.0300933 8.024011,27.71898 C7.974231,27.4078667 7.949341,27.0718667 7.949341,26.71098 L7.949341,20.27098 C7.949341,19.9225333 7.980451,19.6114233 8.042671,19.33765 C8.11733767,19.0514233 8.266671,18.7465333 8.490671,18.42298 C8.714669,18.0994267 9.03200133,17.82565 9.442668,17.60165 C9.85333467,17.3652033 10.282668,17.24698 10.730668,17.24698 C11.5893347,17.24698 12.3048913,17.5332033 12.877338,18.10565 C13.4497847,18.66565 13.736044,19.3874267 13.736044,20.27098 L13.736044,20.94298 L11.962668,20.94298 L11.962668,20.27098 C11.962668,19.9225333 11.8631147,19.63009 11.664008,19.39365 C11.4773413,19.1572033 11.1973413,19.03898 10.824008,19.03898 C10.4755613,19.03898 10.2017813,19.1572033 10.002668,19.39365 C9.81600133,19.63009 9.722668,19.9225333 9.722668,20.27098 L9.722668,27.19631 C9.74753467,27.3829767 9.834648,27.5945333 9.984008,27.83098 C10.158228,28.0798667 10.444448,28.20431 10.842668,28.20431 C11.2657813,28.20431 11.5457813,28.09231 11.682668,27.86831 C11.8195613,27.64431 11.9004513,27.4825333 11.925338,27.38298 C11.9502047,27.27098 11.962638,27.1216467 11.962638,26.93498 L11.962638,26.30031 L13.735978,26.30031 L13.736044,26.71098 Z" id="path2478"></path>
                <polygon id="path2480" points="16.717454 29.86565 16.717454 19.02031 14.608124 19.02031 14.608124 17.35898 20.637454 17.35898 20.637454 19.02031 18.490794 19.02031 18.490794 29.86565"></polygon>
                <polygon id="path2482" points="21.537254 29.86565 21.537254 17.35898 23.310584 17.35898 23.310584 29.86565"></polygon>
                <path d="M25.239384,18.53498 C25.525604,18.13676 25.886494,17.82565 26.322054,17.60165 C26.770054,17.3652033 27.2304973,17.24698 27.703384,17.24698 C28.1638307,17.24698 28.593164,17.3403133 28.991384,17.52698 C29.4020507,17.7136467 29.744274,17.9687567 30.018054,18.29231 C30.2918273,18.61587 30.478494,18.95187 30.578054,19.30031 C30.6776073,19.63631 30.727384,20.0034233 30.727384,20.40165 L30.727384,26.76698 C30.727384,27.1403133 30.6900507,27.47009 30.615384,27.75631 C30.553184,28.0425367 30.4038507,28.35987 30.167384,28.70831 C29.943384,29.0567567 29.6136073,29.3554233 29.178054,29.60431 C28.7549407,29.8532033 28.2820507,29.97765 27.759384,29.97765 C27.4607173,29.97765 27.174494,29.9403167 26.900714,29.86565 C26.6269407,29.7785367 26.3718307,29.6665367 26.135384,29.52965 C25.8989373,29.3927567 25.6873807,29.2372 25.500714,29.06298 C25.326494,28.88876 25.1896073,28.7083167 25.090054,28.52165 C24.9033873,28.13587 24.7913873,27.8247567 24.754054,27.58831 C24.7167207,27.35187 24.698054,27.0780933 24.698054,26.76698 L24.698054,20.40165 C24.698054,20.0283167 24.7353873,19.6985367 24.810054,19.41231 C24.8971607,19.1136433 25.0402707,18.8212 25.239384,18.53498 L25.239384,18.53498 Z M28.711384,19.52431 C28.4749373,19.17587 28.1513807,19.00165 27.740714,19.00165 C27.5291607,19.00165 27.3176073,19.06387 27.106054,19.18831 C26.9069407,19.30031 26.7638273,19.4309767 26.676714,19.58031 C26.6020473,19.7296433 26.5522707,19.8789767 26.527384,20.02831 C26.5025173,20.1776433 26.490084,20.30209 26.490084,20.40165 L26.490084,26.76698 C26.490084,26.82918 26.490084,26.8976233 26.490084,26.97231 C26.490084,27.03451 26.4963173,27.1029567 26.508784,27.17765 C26.5212507,27.30209 26.6208073,27.5074233 26.807454,27.79365 C26.9941207,28.0549833 27.3052307,28.18565 27.740784,28.18565 C27.964784,28.18565 28.1638973,28.13587 28.338124,28.03631 C28.5247907,27.92431 28.6554573,27.7998667 28.730124,27.66298 C28.8172307,27.5136467 28.8732307,27.3767567 28.898124,27.25231 C28.9229907,27.12787 28.935424,26.9660933 28.935424,26.76698 L28.935424,20.40165 C28.935424,20.1527567 28.9229907,19.9785333 28.898124,19.87898 C28.8856573,19.7794267 28.823434,19.6612033 28.711454,19.52431 L28.711384,19.52431 Z" id="path2484"></path>
                <polygon id="path2486" points="36.838394 29.86565 34.057054 22.26831 34.057054 29.86565 32.265054 29.86565 32.265054 17.35898 33.963724 17.35898 36.726394 24.93765 36.726394 17.35898 38.518394 17.35898 38.518394 29.86565"></polygon>
            </g>
            <g id="text6075-0-6-9-2-5-9-1" transform="translate(10.218154, 12.748230)" fill="#FFFFFF" fill-rule="nonzero">
                <polygon id="path2489" points="4.288 30.1947 4.288 4.7347 0 7.9507 0 3.3947 4.288 0.26803 8.531333 0.26803 8.531333 30.1947"></polygon>
                <path d="M24.59525,23.31603 L24.59525,23.85203 C24.59525,24.0604767 24.580356,24.2987 24.550576,24.5667 C24.550576,24.80492 24.5059093,25.1622533 24.416576,25.6387 C23.9996867,27.0680333 23.2105753,28.2293667 22.049242,29.1227 C20.9176867,30.0160333 19.5925757,30.4627 18.073909,30.4627 C16.8827977,30.4627 15.751242,30.1053667 14.679242,29.3907 C13.607242,28.6462533 12.922353,27.9166967 12.624575,27.20203 C12.4459083,26.8149233 12.2970197,26.47248 12.177909,26.1747 C12.0885757,25.87692 12.014131,25.59403 11.954575,25.32603 C11.8950217,25.05803 11.850355,24.7751433 11.820575,24.47737 C11.820575,24.14981 11.820575,23.7626967 11.820575,23.31603 L11.820575,21.57403 L16.108575,21.57403 L16.108575,24.0307 C16.1681283,24.4178133 16.3319063,24.84959 16.599909,25.32603 C16.8976863,25.86203 17.4336863,26.13003 18.207909,26.13003 C18.982131,26.13003 19.5330197,25.86203 19.860575,25.32603 C20.188131,24.79003 20.351909,24.12003 20.351909,23.31603 L20.351909,18.71537 C20.322129,18.14959 20.2030177,17.71781 19.994575,17.42003 C19.8159083,17.1222567 19.592575,16.9138133 19.324575,16.7947 C19.056575,16.6458133 18.7736863,16.57137 18.475909,16.57137 C18.178131,16.54157 17.910131,16.52667 17.671909,16.52667 L16.912579,16.52667 L16.912579,12.73 L17.671913,12.73 C19.4585797,12.73 20.351913,11.8962233 20.351913,10.22867 L20.351913,6.65534 C20.351913,6.29800667 20.3221363,6.00022667 20.262583,5.762 C20.262583,5.67266667 20.2179163,5.53866667 20.128583,5.36 C20.0392497,5.18133333 19.9052497,5.00266667 19.726583,4.824 C19.5776943,4.64533333 19.384139,4.49644667 19.145917,4.37734 C18.9076943,4.25822667 18.6248053,4.19867 18.29725,4.19867 C17.5528053,4.19867 17.0019163,4.43689333 16.644583,4.91334 C16.2872497,5.36000667 16.108583,5.94067333 16.108583,6.65534 L16.108583,8.844 L11.820575,8.844 L11.820575,6.65534 C11.820575,4.77934 12.4310277,3.20111667 13.651917,1.92067 C14.8430277,0.640223333 16.391472,0 18.29725,0 C19.339472,0 20.3370277,0.268 21.289917,0.804 C22.2725837,1.34 22.9872503,1.96533333 23.433917,2.68 C23.9103617,3.39466667 24.2230283,4.06466667 24.371917,4.69 C24.5208057,5.31533333 24.59525,5.97044667 24.59525,6.65534 L24.59525,10.13934 C24.59525,12.0748933 23.7465833,13.5488933 22.04925,14.56134 C23.0021393,15.2462267 23.6572507,15.9311133 24.014584,16.616 C24.4016947,17.2711133 24.59525,18.1644467 24.59525,19.296 L24.59525,23.31603 Z" id="path2491"></path>
            </g>
            <path d="M76.774483,66.00891 C55.190513,65.80754 33.463009,75.65183 20.813545,94.24719 C45.34584,130.31091 104.023513,133.46295 129.579173,94.24719 C117.200643,75.25206 97.050333,66.19808 76.774483,66.00891 Z M75.532293,71.4053886 C76.679113,71.4053886 77.803883,71.47151 78.307683,71.60461 C78.746353,71.72023 79.554273,71.88879 80.102603,71.97766 C81.317403,72.17454 83.104693,72.71079 83.821353,73.09485 C84.112433,73.25086 84.501813,73.38 84.684643,73.38 C84.867473,73.38 85.151003,73.51433 85.315503,73.67883 C85.480003,73.84333 85.787593,73.97766 85.999093,73.97766 C86.210593,73.97766 86.383853,74.06836 86.383853,74.18078 C86.383853,74.29317 86.610693,74.47193 86.887763,74.57727 C87.164823,74.68261 87.501653,74.86309 87.635813,74.97766 C87.770003,75.09221 88.356303,75.53513 88.940503,75.96203 C89.992743,76.73096 92.764713,79.27201 92.764713,79.46789 C92.764713,79.52389 93.212483,80.1393 93.760813,80.83703 C94.309143,81.53476 94.758853,82.19904 94.758853,82.3136 C94.758853,82.42818 94.869823,82.64357 95.006903,82.79016 C95.767953,83.60399 97.350653,87.75906 97.350653,88.94446 C97.350653,90.31922 96.162283,90.77078 95.286203,89.72961 C94.000383,88.2015 92.760623,89.872 93.879953,91.62414 C94.077493,91.93337 94.080893,92.09059 93.897533,92.32922 C93.595643,92.72216 92.062843,93.51867 91.606513,93.51867 C91.064873,93.51867 90.239853,94.60568 90.094793,95.51281 C89.945053,96.44924 90.231623,97.73999 90.670963,98.10461 C90.947893,98.33444 91.102783,99.29992 90.862373,99.29992 C90.702613,99.29992 89.585463,98.48613 88.831123,97.81946 C88.236853,97.29427 87.927203,96.76216 87.077213,94.8136 C86.933693,94.4846 86.765513,93.98498 86.704173,93.70227 C86.509363,92.80443 85.701993,92.12219 84.835033,92.12219 C83.625883,92.12219 83.311013,92.47522 83.280343,93.86633 C83.262143,94.68806 83.136363,95.21764 82.874093,95.57727 C82.419833,96.20017 82.374563,96.20776 81.836983,95.76086 C80.881393,94.96649 80.508083,94.71399 80.286203,94.71399 C80.157433,94.71399 79.940303,94.57965 79.803783,94.41516 C79.667263,94.25065 79.320443,94.11108 79.032293,94.10461 C77.992653,94.08121 76.747983,93.2771 76.268623,92.31946 C76.022123,91.82702 75.818583,91.33322 75.817453,91.2218 C75.815453,91.04359 73.995983,89.72961 73.751043,89.72961 C73.699243,89.72961 73.190523,89.42163 72.620183,89.04602 C71.440863,88.26934 71.030343,88.30623 71.030343,89.1886 C71.030343,89.69398 71.308683,90.0695 72.612373,91.32336 C74.352003,92.99651 74.691163,93.68433 74.098703,94.33899 C73.754243,94.71962 72.599033,95.31164 72.200263,95.31164 C72.102663,95.31164 71.353463,94.6325 70.536203,93.80188 C69.408083,92.6553 68.940753,92.3075 68.594793,92.35656 C68.260563,92.40396 68.121313,92.57326 68.073313,92.99328 C68.037313,93.30822 68.105363,93.66216 68.223703,93.78039 C68.341943,93.89864 68.438543,94.15426 68.438543,94.3468 C68.438543,94.97776 70.151613,97.10656 70.659243,97.10656 C70.752043,97.10656 71.058253,97.30587 71.338933,97.54992 C72.011783,98.13496 71.864233,98.70199 70.747143,99.83508 C69.911173,100.68303 69.887173,100.74332 69.780343,102.30188 C69.720143,103.18089 69.582753,104.00866 69.475653,104.14172 C69.368563,104.27479 69.224383,104.65452 69.153393,104.98352 C69.082393,105.31252 68.758183,105.88569 68.432683,106.25696 C68.092433,106.64506 67.840893,107.15753 67.840893,107.46399 C67.840893,107.75718 67.708933,108.17104 67.547923,108.38391 C67.386923,108.59679 67.250643,108.87944 67.247143,109.01086 C67.239143,109.31782 66.363953,110.26672 66.088933,110.26672 C65.973573,110.26672 65.844963,110.36781 65.803783,110.49133 C65.762483,110.61492 65.278243,110.75872 64.727603,110.81164 C63.820203,110.89884 63.696473,110.86079 63.391673,110.39563 L63.391673,110.39367 C63.164973,110.0477 63.053783,109.46599 63.053783,108.60852 C63.053783,107.53403 62.977263,107.24633 62.551823,106.75696 C62.274823,106.43832 62.004213,105.97635 61.952213,105.72961 C61.900213,105.48286 61.809773,105.05006 61.751043,104.76867 C61.678943,104.42336 61.420393,104.16465 60.954173,103.96985 C60.574243,103.81111 60.262763,103.60035 60.262763,103.5011 C60.262763,103.4019 59.899853,102.94144 59.456123,102.47961 C58.679063,101.67084 58.615003,101.64482 57.725653,101.76672 C57.217823,101.83632 56.654853,102.02856 56.473703,102.1925 C56.292553,102.35643 55.837173,102.48817 55.461983,102.48547 C54.882933,102.48147 54.726913,102.37359 54.430733,101.77844 C54.238813,101.3928 54.081123,100.90557 54.081123,100.69446 C54.081123,100.48336 53.95452,100.01552 53.799873,99.65539 C53.432375,98.79959 53.074281,96.47215 52.95417,94.16516 C52.8604,92.36415 52.872519,92.2982 53.469795,91.4132 C53.806326,90.91456 54.081123,90.4288 54.081123,90.33313 C54.081123,90.13365 55.476233,89.61768 55.776433,89.70617 C55.886103,89.73857 56.483513,89.84605 57.102603,89.94641 C57.721693,90.04674 58.482893,90.26361 58.795963,90.42688 C59.109023,90.59017 59.500613,90.7274 59.665103,90.73156 C59.829603,90.73556 60.137783,90.86937 60.350653,91.03039 C60.563533,91.19139 60.939853,91.32336 61.186593,91.32336 C61.433323,91.32336 61.682633,91.40237 61.741283,91.49719 C61.799883,91.59209 62.179623,91.72242 62.585033,91.7882 C63.875313,91.99759 65.637143,90.90211 65.643623,89.88586 C65.647623,89.12799 64.941513,88.53235 64.038153,88.53235 C63.627573,88.53235 63.192333,88.40046 63.053783,88.23352 C62.917253,88.06901 62.487503,87.93469 62.096743,87.93469 C61.652473,87.93469 61.221383,87.77901 60.946353,87.52063 C60.363783,86.97334 58.864373,86.89618 58.323313,87.38586 C58.111653,87.5774 57.738743,87.73547 57.495183,87.73547 C57.251623,87.73547 56.810853,87.85866 56.514713,88.00891 C56.218583,88.15918 55.543673,88.34402 55.014713,88.42102 L54.051826,88.56164 L54.116283,87.99914 C54.173783,87.49711 54.278713,87.42296 55.079173,87.31164 C56.827853,87.06843 57.764603,86.6673 57.836983,86.13196 C57.894583,85.70599 58.104063,85.46272 59.167063,84.58703 C59.276723,84.49663 59.846903,84.26549 60.434643,84.07336 C61.433753,83.74675 61.587673,83.74596 62.792063,84.04797 C64.356853,84.44041 65.067423,84.31069 65.936593,83.47766 C66.297293,83.13194 66.828013,82.64752 67.116283,82.40149 C67.718933,81.88715 67.758113,81.70054 67.338933,81.35266 C66.835573,80.93491 65.654273,81.2568 64.979563,81.99524 C64.464213,82.55926 64.253823,82.6475 63.467843,82.63586 C62.371833,82.61966 60.908243,82.01622 60.749093,81.51477 C60.466363,80.62398 62.061493,79.85903 64.569403,79.68274 C65.641753,79.60734 66.615013,79.46936 66.731513,79.37414 C67.025523,79.13382 69.637483,78.87457 69.626043,79.08703 C69.621043,79.18213 69.239363,79.44628 68.778393,79.67297 C68.037613,80.03726 67.940503,80.16412 67.940503,80.76672 C67.940503,81.26548 68.036463,81.46796 68.299873,81.51867 C68.721763,81.59997 70.270753,80.91251 71.135813,80.26086 C71.468333,80.01036 71.909563,79.77162 72.116283,79.73156 C72.323013,79.69146 72.579613,79.3964 72.686593,79.07531 C72.861803,78.5494 72.815503,78.43167 72.206123,77.89367 C71.256913,77.05563 70.834603,76.36866 70.833073,75.6593 C70.830073,74.40974 70.558943,74.28869 67.506903,74.16125 C65.990093,74.09795 64.939593,74.02988 65.172923,74.01086 C65.406243,73.99196 65.710223,73.84137 65.846743,73.67688 C65.983273,73.51238 66.245783,73.37805 66.430733,73.37805 C66.615673,73.37805 66.940513,73.24609 67.153393,73.08508 C67.366273,72.92407 67.706483,72.78975 67.909243,72.78625 C68.112003,72.78225 68.561733,72.64851 68.907293,72.48742 C69.252873,72.32632 70.028743,72.10655 70.631903,71.99914 C71.235063,71.89173 72.132553,71.71322 72.626043,71.60266 C73.217653,71.47013 74.385473,71.4053886 75.532293,71.4053886 Z M59.608463,77.96399 C60.334103,77.96399 60.211933,78.82914 59.397533,79.45031 C58.640453,80.02777 57.870183,80.12377 57.870183,79.64172 C57.870183,79.14857 59.097363,77.96399 59.608463,77.96399 Z M57.766673,81.77649 C57.876603,81.76756 57.985303,81.76938 58.090893,81.7843 C58.525323,81.8457 58.433693,81.98092 57.104563,83.24914 C55.531473,84.75012 55.279793,84.923 55.2744793,84.51086 C55.273483,84.36464 55.475083,83.83469 55.723703,83.33313 C56.155093,82.46287 56.997113,81.83895 57.766673,81.77649 Z M97.196353,91.7511 C97.299823,91.77607 97.438623,91.88857 97.618233,92.08703 C98.076343,92.59324 98.115403,97.505 97.661203,97.505 C97.503173,97.505 97.303813,97.39208 97.217843,97.255 C96.323203,95.82844 96.074683,94.16015 96.645573,93.40539 C96.806583,93.19251 96.940923,92.72667 96.944403,92.37024 C96.948783,91.91159 97.023923,91.70946 97.196353,91.7511 Z M80.700263,96.50891 C80.864763,96.50891 80.999093,96.54393 80.999093,96.58703 C80.999093,96.63013 80.864763,96.71726 80.700263,96.78039 C80.535763,96.84359 80.401433,96.80661 80.401433,96.70031 C80.401433,96.5941 80.535763,96.50891 80.700263,96.50891 Z M93.249093,98.80383 C93.314533,98.79402 93.389953,98.80128 93.467843,98.83117 C93.628203,98.89267 93.708203,99.02207 93.647533,99.12024 C93.518283,99.32938 93.282853,99.35323 93.102603,99.17297 C92.943373,99.01373 93.052753,98.83327 93.249093,98.80383 Z M72.325263,100.29602 C72.543423,100.29602 72.405033,101.22823 72.102603,101.79211 C71.926133,102.12111 71.709743,102.61364 71.622143,102.88781 C71.501133,103.26663 71.459383,103.11261 71.446353,102.24133 C71.432953,101.34551 71.515663,101.00605 71.827213,100.69446 C72.046533,100.47512 72.270433,100.29602 72.325263,100.29602 Z M95.667063,100.33117 C95.894543,100.36189 96.075993,100.63964 96.270573,101.20031 C96.509813,101.88966 96.504203,102.08009 96.229563,102.6886 C95.659263,103.95191 95.135733,104.9739 94.747143,105.58117 C94.536623,105.91017 94.279073,106.37131 94.174873,106.60656 C94.070673,106.84179 93.912653,107.06569 93.823313,107.10461 C93.733913,107.14351 93.401533,107.5565 93.085033,108.02258 C92.768533,108.48866 92.433683,108.87024 92.338933,108.87024 C92.244233,108.87024 92.165103,109.00456 92.165103,109.16906 C92.165103,109.33355 92.009373,109.477 91.817453,109.48742 C89.768563,109.59866 89.392773,109.55924 89.303783,109.21985 C89.191683,108.79224 88.512543,108.76299 88.106513,109.16906 C87.942013,109.33355 87.576013,109.46789 87.294013,109.46789 C86.865003,109.46789 86.782293,109.37797 86.782293,108.9093 C86.782293,108.60127 86.650333,108.17491 86.489323,107.96203 C86.312763,107.7286 86.194323,107.11685 86.1904249,106.42297 C86.183493,105.19274 86.648433,104.19297 87.604563,103.38586 C88.056423,103.00444 90.571313,102.08294 91.141673,102.08899 C91.836963,102.09599 94.579763,101.04361 95.194403,100.5343 C95.376893,100.38308 95.530573,100.31274 95.667063,100.33117 Z M87.692453,111.88391 C87.983793,111.90503 88.189273,112.00218 88.260813,112.1886 C88.330013,112.36879 88.363033,112.52648 88.333073,112.5382 C88.303073,112.55 88.097323,112.6745 87.878003,112.81555 C87.658663,112.95663 87.234253,113.17801 86.932683,113.30774 C86.631093,113.43747 86.383853,113.60583 86.383853,113.68274 C86.383853,113.75954 86.121293,113.88167 85.799873,113.95227 C85.478453,114.02287 85.108273,114.20889 84.977603,114.36633 C84.846923,114.52378 84.610503,114.65344 84.452213,114.65344 C84.293933,114.65344 83.967133,114.7616 83.727603,114.89563 C83.198363,115.19178 81.965183,115.56475 80.102603,115.98938 C78.560443,116.34095 72.982493,116.53827 72.327213,116.26477 L72.325263,116.26477 C72.105943,116.17327 71.434283,116.03229 70.831123,115.95031 C69.647473,115.78943 69.443253,115.6259 69.4385369,114.84094 C69.435543,114.28539 70.542123,113.05774 71.045963,113.05774 C71.208253,113.05774 71.541313,112.91677 71.786203,112.74524 C72.634323,112.15122 77.012873,112.55262 78.672923,113.3761 C78.983403,113.5301 79.414053,113.65539 79.629953,113.65539 C79.845833,113.65539 80.265453,113.779 80.561593,113.92883 C81.253273,114.27882 82.405133,114.46356 82.815503,114.29016 C82.991363,114.21586 83.552343,113.80208 84.063543,113.37219 C85.172533,112.43961 86.818423,111.82056 87.692453,111.88391 Z" id="path8205-2" fill="#FFFFFF" fill-rule="nonzero"></path>
        </g>
    </g>
</svg>