<?xml version="1.0" encoding="UTF-8"?>
<svg width="150px" height="149px" viewBox="0 0 150 149" version="1.1" xmlns="http://www.w3.org/2000/svg" xmlns:xlink="http://www.w3.org/1999/xlink">
    <title>14-life-below-water</title>
    <g id="SDGs" stroke="none" stroke-width="1" fill="none" fill-rule="evenodd">
        <g id="14-life-below-water" transform="translate(0.973653, 0.094900)">
            <path d="M0.82676,0 L147.26601,0 C147.72403,0 148.09276,0.36873 148.09276,0.82675 L148.09276,147.50782 C148.09276,147.96584 147.72403,148.33458 147.26601,148.33458 L0.82676,148.33458 C0.36873,148.33458 0,147.96584 0,147.50782 L0,0.82675 C0,0.36873 0.36873,0 0.82676,0 Z" id="rect8528-63-2-4-3-6-0-4-3-6-3-7" fill="#007DBC"></path>
            <g id="text6065-3-2-9-6-6-5-5-2" transform="translate(48.363750, 13.033550)" fill="#FFFFFF" fill-rule="nonzero">
                <polygon id="path2494" points="5.35733 12.50667 0.01867 12.50667 0.01867 0 1.81067 0 1.81067 10.71467 5.35733 10.71467"></polygon>
                <polygon id="path2496" points="5.93922 12.50667 5.93922 0 7.71255 0 7.71255 12.50667"></polygon>
                <polygon id="path2498" points="9.23069 12.50667 9.23069 0 14.56935 0 14.56935 1.68 11.00402 1.68 11.00402 5.432 14.12135 5.432 14.12135 7.112 11.00402 7.112 11.00402 12.50667"></polygon>
                <polygon id="path2500" points="20.53862 10.71467 20.53862 12.50667 15.18128 12.50667 15.18128 0 20.53862 0 20.53862 1.64267 16.95462 1.64267 16.95462 5.33867 20.09062 5.33867 20.09062 7.03734 16.95462 7.03734 16.95462 10.71467"></polygon>
                <path d="M2.94933,17.24698 C3.33511,17.24698 3.696,17.32787 4.032,17.48965 C4.40533333,17.66387 4.78489,17.94387 5.17067,18.32965 C5.58133667,18.72787 5.78667,19.35009 5.78667,20.19631 L5.78667,21.14831 C5.78667,22.1065367 5.40711333,22.7785367 4.648,23.16431 C5.40711333,23.61231 5.78667,24.3092 5.78667,25.25498 L5.78667,26.71098 C5.78667,27.5945333 5.50044667,28.3225333 4.928,28.89498 C4.368,29.4674267 3.64622333,29.75365 2.76267,29.75365 L0,29.75365 L0,17.24698 L2.94933,17.24698 Z M4.01333,20.96165 L4.01333,20.19631 C4.01333,19.8105367 3.90133,19.50565 3.67733,19.28165 C3.45333,19.0452033 3.15466333,18.92698 2.78133,18.92698 L1.77333,18.92698 L1.77333,22.38031 L2.83733,22.38031 C3.24799667,22.38031 3.54666333,22.2558667 3.73333,22.00698 C3.91999667,21.7456467 4.01333,21.3972033 4.01333,20.96165 L4.01333,20.96165 Z M4.01333,26.71098 L4.01333,25.25498 C4.01333,24.85676 3.90133,24.54565 3.67733,24.32165 C3.46577667,24.0852033 3.16711,23.96698 2.78133,23.96698 L1.77333,23.96698 L1.77333,27.98031 L2.8,27.98031 C3.16088667,27.98031 3.45333,27.86209 3.67733,27.62565 C3.90133,27.3767567 4.01333,27.0718667 4.01333,26.71098 Z" id="path2502"></path>
                <polygon id="path2504" points="12.90421 27.96165 12.90421 29.75365 7.54688 29.75365 7.54688 17.24698 12.90421 17.24698 12.90421 18.88965 9.32021 18.88965 9.32021 22.58565 12.45621 22.58565 12.45621 24.28431 9.32021 24.28431 9.32021 27.96165"></polygon>
                <polygon id="path2506" points="18.96418 29.75365 13.62552 29.75365 13.62552 17.24698 15.41752 17.24698 15.41752 27.96165 18.96418 27.96165"></polygon>
                <path d="M19.70036,18.42298 C19.9865867,18.02476 20.3474767,17.71365 20.78303,17.48965 C21.23103,17.2532033 21.6914733,17.13498 22.16436,17.13498 C22.6248067,17.13498 23.05414,17.2283133 23.45236,17.41498 C23.8630267,17.6016467 24.20525,17.8567567 24.47903,18.18031 C24.75281,18.50387 24.9394767,18.83987 25.03903,19.18831 C25.1385833,19.52431 25.18836,19.8914233 25.18836,20.28965 L25.18836,26.65498 C25.18836,27.0283133 25.1510267,27.35809 25.07636,27.64431 C25.01416,27.9305367 24.8648267,28.24787 24.62836,28.59631 C24.40436,28.9447567 24.0745833,29.2434233 23.63903,29.49231 C23.2159167,29.7412033 22.7430267,29.86565 22.22036,29.86565 C21.9216933,29.86565 21.6354733,29.8283167 21.3617,29.75365 C21.08792,29.6665367 20.8328067,29.5545367 20.59636,29.41765 C20.35992,29.2807567 20.1483667,29.1252 19.9617,28.95098 C19.7874733,28.77676 19.6505833,28.5963167 19.55103,28.40965 C19.3643633,28.02387 19.2523633,27.7127567 19.21503,27.47631 C19.1776967,27.23987 19.15903,26.9660933 19.15903,26.65498 L19.15903,20.28965 C19.15903,19.9163167 19.1963633,19.5865367 19.27103,19.30031 C19.3581433,19.0016433 19.5012533,18.7092 19.70036,18.42298 L19.70036,18.42298 Z M23.17236,19.41231 C22.93592,19.06387 22.6123667,18.88965 22.2017,18.88965 C21.99014,18.88965 21.7785833,18.95187 21.56703,19.07631 C21.3679167,19.18831 21.2248067,19.3189767 21.1377,19.46831 C21.0630333,19.6176433 21.0132533,19.7669767 20.98836,19.91631 C20.9634933,20.0656433 20.95106,20.19009 20.95106,20.28965 L20.95106,26.65498 C20.95106,26.71718 20.95106,26.7856233 20.95106,26.86031 C20.95106,26.92251 20.9572933,26.9909567 20.96976,27.06565 C20.9822267,27.19009 21.08178,27.3954233 21.26842,27.68165 C21.4550867,27.9429833 21.7662,28.07365 22.20176,28.07365 C22.42576,28.07365 22.62487,28.02387 22.79909,27.92431 C22.9857567,27.81231 23.1164233,27.6878667 23.19109,27.55098 C23.2782033,27.4016467 23.3342033,27.2647567 23.35909,27.14031 C23.3839567,27.01587 23.39639,26.8540933 23.39639,26.65498 L23.39639,20.28965 C23.39639,20.0407567 23.3839567,19.8665333 23.35909,19.76698 C23.3466233,19.6674267 23.2844,19.5492033 23.17242,19.41231 L23.17236,19.41231 Z" id="path2508"></path>
                <polygon id="path2510" points="32.50774 29.75365 31.03307 22.13765 29.59574 29.75365 27.93441 29.75365 26.12374 17.24698 28.02774 17.24698 28.92374 24.80698 30.36107 17.24698 31.68641 17.24698 33.16107 24.80698 34.05707 17.24698 35.94241 17.24698 34.18774 29.75365"></polygon>
                <polygon id="path2512" points="44.65509 29.75365 43.18042 22.13765 41.74309 29.75365 40.08176 29.75365 38.27109 17.24698 40.17509 17.24698 41.07109 24.80698 42.50842 17.24698 43.83376 17.24698 45.30842 24.80698 46.20442 17.24698 48.08976 17.24698 46.33509 29.75365"></polygon>
                <path d="M47.69106,29.75365 L50.49106,17.24698 L52.04039,17.24698 L54.84039,29.75365 L52.91772,29.75365 L52.41372,27.06565 L50.09906,27.06565 L49.57639,29.75365 L47.69106,29.75365 Z M50.41639,25.40431 L52.09639,25.40431 L51.25639,20.84965 L50.41639,25.40431 Z" id="path2514"></path>
                <polygon id="path2516" points="56.3352 29.75365 56.3352 18.90831 54.22586 18.90831 54.22586 17.24698 60.2552 17.24698 60.2552 18.90831 58.10853 18.90831 58.10853 29.75365"></polygon>
                <polygon id="path2518" points="66.59778 27.96165 66.59778 29.75365 61.24045 29.75365 61.24045 17.24698 66.59778 17.24698 66.59778 18.88965 63.01378 18.88965 63.01378 22.58565 66.14978 22.58565 66.14978 24.28431 63.01378 24.28431 63.01378 27.96165"></polygon>
                <path d="M67.28176,29.75365 L67.28176,17.24698 L70.41776,17.24698 C71.2390933,17.24698 71.92976,17.5332033 72.48976,18.10565 C73.0622,18.67809 73.34842,19.3812 73.34842,20.21498 L73.34842,21.37231 C73.34842,22.5296433 72.8568667,23.4132 71.87376,24.02298 L73.77776,29.75365 L71.87376,29.75365 L70.19376,24.39631 L69.07376,24.39631 L69.07376,29.75365 L67.28176,29.75365 Z M71.25776,22.41765 C71.36976,22.2807567 71.4444267,22.1252 71.48176,21.95098 C71.53156,21.77676 71.55646,21.58387 71.55646,21.37231 L71.55646,20.21498 C71.55646,19.8292 71.4506833,19.51809 71.23913,19.28165 C71.0275767,19.0327567 70.72891,18.90831 70.34313,18.90831 L69.0738,18.90831 L69.0738,22.80965 L70.32446,22.80965 C70.6977933,22.80965 71.0089067,22.6789833 71.2578,22.41765 L71.25776,22.41765 Z" id="path2520"></path>
            </g>
            <g id="text6075-0-6-9-2-5-9-1-4" transform="translate(10.364810, 13.016260)" fill="#FFFFFF" fill-rule="nonzero">
                <polygon id="path2523" points="4.288 29.92667 4.288 4.46667 0 7.68267 0 3.12667 4.288 0 8.53133 0 8.53133 29.92667"></polygon>
                <polygon id="path2525" points="19.84507 29.92667 19.84507 25.37067 11.31374 25.37067 11.31374 21.35067 17.52241 0 22.03374 0 15.64641 21.35067 19.84507 21.35067 19.84507 12.81934 24.13307 12.81934 24.13307 21.35067 26.23241 21.35067 26.23241 25.37067 24.13307 25.37067 24.13307 29.92667"></polygon>
            </g>
            <path d="M82.69145,91.04992 C72.58931,91.28472 62.68459,96.62017 52.85552,103.9093 C48.52781,96.47579 42.82113,91.1869 33.73247,91.1593 C42.41909,104.09009 40.67535,115.60753 33.73247,126.41906 C42.82113,126.39146 48.52781,121.10257 52.85552,113.66906 C72.51367,128.24732 92.47365,135.00774 113.71099,108.79016 C103.09232,95.68137 92.7936,90.81512 82.69145,91.04992 Z M92.4727,101.24914 C93.7579391,101.248889 94.9906101,101.759337 95.8994114,102.668139 C96.8082126,103.57694 97.3186608,104.809611 97.3184101,106.09485 C97.3178497,108.770513 95.1483626,110.939122 92.4727,110.9386 C89.7978028,110.93804 87.6295102,108.769747 87.6289499,106.09485 C87.6284279,103.419187 89.7970374,101.2497 92.4727,101.24914 L92.4727,101.24914 Z M112.96471,74.178 L113.31332,78.16205 C105.77247,83.35061 100.17176,81.28919 95.1361,77.11624 C88.91331,81.70755 82.06124,83.07376 73.72184,76.81743 C67.56781,80.58496 61.26755,83.87289 51.85938,76.96684 C46.94973,80.79614 42.02296,84.56812 34.13037,78.41105 L33.93117,74.2278 C41.18362,78.47491 46.88988,76.05316 52.30759,71.73777 C59.49548,76.6017 66.59952,78.02803 73.52264,72.03658 C81.55202,79.39839 88.29701,76.25156 94.8871,71.83737 C99.71579,74.92949 104.16392,78.89283 112.96471,74.178 L112.96471,74.178 Z M112.96471,61.92705 L113.31332,65.9111 C105.77247,71.09966 100.17176,69.03824 95.1361,64.86529 C88.91331,69.4566 82.06124,70.82281 73.72184,64.56648 C67.56781,68.33401 61.26755,71.62194 51.85938,64.71589 C46.94973,68.54519 42.02296,72.31717 34.13037,66.1601 L33.93117,61.97685 C41.18362,66.22396 46.88988,63.80221 52.30759,59.48682 C59.49548,64.35075 66.59952,65.77708 73.52264,59.78563 C81.55202,67.14744 88.29701,64.00061 94.8871,59.58642 C99.71579,62.67854 104.16392,66.64188 112.96471,61.92705 L112.96471,61.92705 Z" id="path8226-6-0" fill="#FFFFFF" fill-rule="nonzero"></path>
        </g>
    </g>
</svg>