<?xml version="1.0" encoding="UTF-8"?>
<svg width="150px" height="149px" viewBox="0 0 150 149" version="1.1" xmlns="http://www.w3.org/2000/svg" xmlns:xlink="http://www.w3.org/1999/xlink">
    <title>15-life-on-land</title>
    <g id="SDGs" stroke="none" stroke-width="1" fill="none" fill-rule="evenodd">
        <g id="15-life-on-land" transform="translate(0.947273, 0.094900)">
            <path d="M0.82675,0 L147.266,0 C147.72403,0 148.09276,0.36873 148.09276,0.82675 L148.09276,147.50782 C148.09276,147.96584 147.72403,148.33458 147.266,148.33458 L0.82675,148.33458 C0.36873,148.33458 0,147.96584 0,147.50782 L0,0.82675 C0,0.36873 0.36873,0 0.82675,0 Z" id="rect8528-63-2-4-3-6-0-4-3-6-3-7-4" fill="#3EB049"></path>
            <g id="text6065-3-2-9-6-6-5-5-2-9" transform="translate(47.412940, 13.033550)" fill="#FFFFFF" fill-rule="nonzero">
                <polygon id="path2528" points="5.488 12.50667 0.14933 12.50667 0.14933 0 1.94133 0 1.94133 10.71467 5.488 10.71467"></polygon>
                <polygon id="path2530" points="5.84257 12.50667 5.84257 0 7.6159 0 7.6159 12.50667"></polygon>
                <polygon id="path2532" points="8.75518 12.50667 8.75518 0 14.09384 0 14.09384 1.68 10.52851 1.68 10.52851 5.432 13.64584 5.432 13.64584 7.112 10.52851 7.112 10.52851 12.50667"></polygon>
                <polygon id="path2534" points="20.06311 10.71467 20.06311 12.50667 14.70577 12.50667 14.70577 0 20.06311 0 20.06311 1.64267 16.47911 1.64267 16.47911 5.33867 19.61511 5.33867 19.61511 7.03734 16.47911 7.03734 16.47911 10.71467"></polygon>
                <path d="M0.54133,18.42298 C0.82755,18.02476 1.18844,17.71365 1.624,17.48965 C2.072,17.2532033 2.53244333,17.13498 3.00533,17.13498 C3.46577667,17.13498 3.89511,17.2283133 4.29333,17.41498 C4.70399667,17.6016467 5.04622,17.8567567 5.32,18.18031 C5.59377333,18.50387 5.78044,18.83987 5.88,19.18831 C5.97955333,19.52431 6.02933,19.8914233 6.02933,20.28965 L6.02933,26.65498 C6.02933,27.0283133 5.99199667,27.35809 5.91733,27.64431 C5.85513,27.9305367 5.70579667,28.24787 5.46933,28.59631 C5.24533,28.9447567 4.91555333,29.2434233 4.48,29.49231 C4.05688667,29.7412033 3.58399667,29.86565 3.06133,29.86565 C2.76266333,29.86565 2.47644,29.8283167 2.20266,29.75365 C1.92888667,29.6665367 1.67377667,29.5545367 1.43733,29.41765 C1.20088333,29.2807567 0.989326667,29.1252 0.80266,28.95098 C0.62844,28.77676 0.491553333,28.5963167 0.392,28.40965 C0.205333333,28.02387 0.0933333333,27.7127567 0.056,27.47631 C0.0186666667,27.23987 0,26.9660933 0,26.65498 L0,20.28965 C0,19.9163167 0.0373333333,19.5865367 0.112,19.30031 C0.199106667,19.0016433 0.342216667,18.7092 0.54133,18.42298 L0.54133,18.42298 Z M4.01333,19.41231 C3.77688333,19.06387 3.45332667,18.88965 3.04266,18.88965 C2.83110667,18.88965 2.61955333,18.95187 2.408,19.07631 C2.20888667,19.18831 2.06577333,19.3189767 1.97866,19.46831 C1.90399333,19.6176433 1.85421667,19.7669767 1.82933,19.91631 C1.80446333,20.0656433 1.79203,20.19009 1.79203,20.28965 L1.79203,26.65498 C1.79203,26.71718 1.79203,26.7856233 1.79203,26.86031 C1.79203,26.92251 1.79826333,26.9909567 1.81073,27.06565 C1.82319667,27.19009 1.92275333,27.3954233 2.1094,27.68165 C2.29606667,27.9429833 2.60717667,28.07365 3.04273,28.07365 C3.26673,28.07365 3.46584333,28.02387 3.64007,27.92431 C3.82673667,27.81231 3.95740333,27.6878667 4.03207,27.55098 C4.11917667,27.4016467 4.17517667,27.2647567 4.20007,27.14031 C4.22493667,27.01587 4.23737,26.8540933 4.23737,26.65498 L4.23737,20.28965 C4.23737,20.0407567 4.22493667,19.8665333 4.20007,19.76698 C4.18760333,19.6674267 4.12538,19.5492033 4.0134,19.41231 L4.01333,19.41231 Z" id="path2536"></path>
                <polygon id="path2538" points="11.71476 29.75365 8.93343 22.15631 8.93343 29.75365 7.14143 29.75365 7.14143 17.24698 8.84009 17.24698 11.60276 24.82565 11.60276 17.24698 13.39476 17.24698 13.39476 29.75365"></polygon>
                <polygon id="path2540" points="23.86805 29.75365 18.52938 29.75365 18.52938 17.24698 20.32138 17.24698 20.32138 27.96165 23.86805 27.96165"></polygon>
                <path d="M23.96396,29.75365 L26.76396,17.24698 L28.3133,17.24698 L31.1133,29.75365 L29.19063,29.75365 L28.68663,27.06565 L26.37196,27.06565 L25.8493,29.75365 L23.96396,29.75365 Z M26.6893,25.40431 L28.3693,25.40431 L27.5293,20.84965 L26.6893,25.40431 Z" id="path2542"></path>
                <polygon id="path2544" points="36.21981 29.75365 33.43848 22.15631 33.43848 29.75365 31.64648 29.75365 31.64648 17.24698 33.34515 17.24698 36.10781 24.82565 36.10781 17.24698 37.89981 17.24698 37.89981 29.75365"></polygon>
                <path d="M41.92922,17.24698 C42.7381133,17.24698 43.42878,17.5332033 44.00122,18.10565 C44.5861133,18.66565 44.87856,19.3500933 44.87856,20.15898 L44.87856,26.65498 C44.87856,27.5758667 44.59856,28.3225333 44.03856,28.89498 C43.47856,29.4674267 42.75678,29.75365 41.87322,29.75365 L39.09189,29.75365 L39.09189,17.24698 L41.92922,17.24698 Z M43.10522,26.65498 L43.10522,20.15898 C43.10522,19.8105333 42.9745533,19.51809 42.71322,19.28165 C42.4643333,19.0452033 42.1594467,18.92698 41.79856,18.92698 L40.86522,18.92698 L40.86522,28.09231 L41.74256,28.09231 C42.651,28.09231 43.10522,27.6132 43.10522,26.65498 Z" id="path2546"></path>
            </g>
            <g id="text6075-0-6-9-2-5-9-1-4-7" transform="translate(10.511500, 13.016260)" fill="#FFFFFF" fill-rule="nonzero">
                <polygon id="path2549" points="4.288 29.92667 4.288 4.46667 0 7.68267 0 3.12667 4.288 1.13686838e-13 8.53134 1.13686838e-13 8.53134 29.92667"></polygon>
                <path d="M19.60824,10.67534 C20.3526867,10.67534 21.09713,10.8837833 21.84157,11.30067 C22.6157967,11.7175567 23.1815767,12.20889 23.53891,12.77467 C23.9260167,13.34045 24.1791267,13.9360067 24.29824,14.56134 C24.4471267,15.1568933 24.5216,15.7971133 24.5216,16.482 L24.5216,23.182 C24.5216,23.8371133 24.4918033,24.4028933 24.43227,24.87934 C24.40247,25.3260067 24.2386933,25.95134 23.94094,26.75534 C23.64316,27.55934 22.9136033,28.33356 21.75227,29.078 C20.65049,29.8224467 19.4296,30.19467 18.0896,30.19467 C17.07716,30.19467 16.1093833,29.9564467 15.18627,29.48 C14.2631567,28.97378 13.54849,28.3633367 13.04227,27.64867 C12.53605,26.9340033 12.1936067,26.2044467 12.01494,25.46 C11.8362733,24.71556 11.74694,23.9562267 11.74694,23.182 L11.74694,22.42267 L16.12427,22.42267 L16.12427,24.07534 C16.12427,24.2242267 16.1689367,24.4028933 16.25827,24.61134 C16.3476033,24.81978 16.4667133,25.0282233 16.6156,25.23667 C16.7644933,25.4153367 16.97294,25.5791133 17.24094,25.728 C17.50894,25.8471133 17.8216067,25.90667 18.17894,25.90667 C18.98294,25.90667 19.51894,25.6833367 19.78694,25.23667 C20.05494,24.7900033 20.2038267,24.44756 20.2336,24.20934 C20.2634,23.94134 20.2783,23.65845 20.2783,23.36067 L20.2783,17.06267 C20.2783,16.9137833 20.2783,16.7797833 20.2783,16.66067 C20.2783,16.5117833 20.2634,16.3628933 20.2336,16.214 C20.2336,16.0651133 20.1889333,15.8864467 20.0996,15.678 C20.0400667,15.46956 19.9209567,15.2760067 19.74227,15.09734 C19.5933833,14.8888933 19.38494,14.7251133 19.11694,14.606 C18.8787133,14.4571133 18.5809333,14.38267 18.2236,14.38267 C17.18138,14.38267 16.4816033,14.91867 16.12427,15.99067 L12.28294,15.99067 L12.28294,1.13686838e-13 L24.5216,1.13686838e-13 L24.5216,3.97534 L16.12427,3.97534 L16.12427,12.01534 C17.1367167,11.1220067 18.29805,10.67534 19.60827,10.67534 L19.60824,10.67534 Z" id="path2551"></path>
            </g>
            <path d="M48.94135,69.25493 C37.78569,70.02848 38.94748,80.86758 44.37587,83.95353 C39.78873,91.15663 44.34147,97.98402 49.83217,97.98402 L67.76001,97.98402 C77.62826,97.98402 84.56231,81.23298 69.15192,74.3215 C74.77462,54.83895 48.78036,56.1568 48.94135,69.25493 L48.94135,69.25493 Z" id="path8267" fill="#FFFFFF" fill-rule="nonzero"></path>
            <path d="M85.65168,90.13703 C90.65419,87.81675 96.75381,92.97162 96.75381,92.97162 C96.75381,92.97162 101.98306,88.1047 107.69846,90.21577 C109.16835,90.7587 109.05577,89.23007 108.56458,88.87721 C105.64773,86.78182 101.99431,84.76282 96.91128,88.79851 C90.76945,84.86866 87.36771,86.65122 84.94303,88.79851 C84.30704,89.36174 84.52936,90.65759 85.65168,90.13703 Z" id="path8269" fill="#FFFFFF" fill-rule="nonzero"></path>
            <path d="M78.05141,72.11346 C82.00589,69.83839 87.40672,73.64433 87.40672,73.64433 C87.40672,73.64433 91.36337,69.25402 96.22678,70.57931 C97.47756,70.92014 97.2739,69.6685 96.84349,69.41332 C94.28763,67.89798 91.13025,66.49903 87.23383,70.19368 C81.88706,67.4004 79.21283,69.11621 77.3703,71.06174 C76.887,71.57206 77.16422,72.62389 78.05141,72.11347 L78.05141,72.11346 Z" id="path8269-7" fill="#FFFFFF" fill-rule="nonzero"></path>
            <path d="M92.39262,61.26058 C96.02356,60.72435 98.94317,65.1662 98.94317,65.1662 C98.94317,65.1662 103.19972,63.04741 106.44886,65.47404 C107.28449,66.09814 107.5013,65.10123 107.25444,64.78328 C105.78846,62.89511 103.83797,60.91661 99.8317,62.53249 C96.65384,58.86452 94.1461,59.35985 92.19309,60.27247 C91.68081,60.51185 91.57801,61.38089 92.39262,61.26057 L92.39262,61.26058 Z" id="path8269-3" fill="#FFFFFF" fill-rule="nonzero"></path>
            <path d="M58.60501,100.78497 L62.32483,100.78497 C62.78285,100.78497 63.15158,101.1537 63.15158,101.61172 L63.15158,111.52404 C63.15158,111.98207 62.78285,112.3508 62.32483,112.3508 L58.60501,112.3508 C58.14699,112.3508 57.77826,111.98207 57.77826,111.52404 L57.77826,101.61172 C57.77826,101.1537 58.14699,100.78497 58.60501,100.78497 Z" id="rect8292" fill="#FFFFFF"></path>
            <path d="M39.00836,116.81012 L109.88186,116.81012 C110.33989,116.81012 110.70862,117.17885 110.70862,117.63687 L110.70862,121.16253 C110.70862,121.62055 110.33989,121.98928 109.88186,121.98928 L39.00836,121.98928 C38.55034,121.98928 38.18161,121.62055 38.18161,121.16253 L38.18161,117.63687 C38.18161,117.17885 38.55034,116.81012 39.00836,116.81012 Z" id="rect8292-7" fill="#FFFFFF"></path>
            <path d="M39.00836,125.3139 L109.88186,125.3139 C110.33989,125.3139 110.70862,125.68263 110.70862,126.14065 L110.70862,129.66631 C110.70862,130.12433 110.33989,130.49307 109.88186,130.49307 L39.00836,130.49307 C38.55034,130.49307 38.18161,130.12433 38.18161,129.66631 L38.18161,126.14065 C38.18161,125.68263 38.55034,125.3139 39.00836,125.3139 Z" id="rect8292-7-1" fill="#FFFFFF"></path>
        </g>
    </g>
</svg>