<?xml version="1.0" encoding="UTF-8"?>
<svg width="150px" height="149px" viewBox="0 0 150 149" version="1.1" xmlns="http://www.w3.org/2000/svg" xmlns:xlink="http://www.w3.org/1999/xlink">
    <title>16-peace-justice-and-strong-institutions</title>
    <g id="SDGs" stroke="none" stroke-width="1" fill="none" fill-rule="evenodd">
        <g id="16-peace-justice-and-strong-institutions" transform="translate(0.920903, 0.094900)">
            <path d="M0.82676,0 L147.26601,0 C147.72403,0 148.09276,0.36873 148.09276,0.82675 L148.09276,147.50782 C148.09276,147.96584 147.72403,148.33458 147.26601,148.33458 L0.82676,148.33458 C0.36873,148.33458 0,147.96584 0,147.50782 L0,0.82675 C0,0.36873 0.36873,0 0.82676,0 Z" id="rect8528-63-2-4-3-6-0-4-3-6-3-7-4-9" fill="#02558B"></path>
            <g id="text6065-3-2-9-6-6-5-5-2-9-7" transform="translate(46.366410, 12.921550)" fill="#FFFFFF" fill-rule="nonzero">
                <path d="M0.59358,12.61867 L0.59358,0.112 L3.52424,0.112 L3.56154,0.112 C3.93487333,0.112 4.28954,0.19289 4.62554,0.35467 C4.96154,0.504003333 5.26020667,0.703113333 5.52154,0.952 C5.78287333,1.20089333 5.98820667,1.48711667 6.13754,1.81067 C6.29931333,2.12178333 6.38642333,2.44534 6.39887,2.78134 L6.39887,4.592 L6.39887,4.77867 C6.39887,5.18933667 6.31798,5.57511333 6.1562,5.936 C6.00686667,6.28444667 5.80153333,6.58933667 5.5402,6.85067 C5.27886667,7.112 4.96775667,7.31733667 4.60687,7.46667 C4.25842333,7.61600333 3.88509,7.69067 3.48687,7.69067 L3.31887,7.69067 L2.38554,7.69067 L2.38554,12.61867 L0.59358,12.61867 Z M4.38291,5.63734 C4.49491,5.52534 4.56335333,5.40711667 4.58824,5.28267 C4.62557333,5.15822333 4.64424,5.00266667 4.64424,4.816 L4.64424,2.968 C4.64424,2.61956 4.53846333,2.33334 4.32691,2.10934 C4.11535667,1.87289333 3.82913333,1.75467 3.46824,1.75467 L2.38558,1.75467 L2.38558,5.992 L3.31891,5.992 C3.56779667,5.992 3.76690667,5.97333333 3.91624,5.936 C4.07802,5.8862 4.23357667,5.78664667 4.38291,5.63734 L4.38291,5.63734 Z" id="path2554"></path>
                <polygon id="path2556" points="13.02383 10.82667 13.02383 12.61867 7.66649 12.61867 7.66649 0.112 13.02383 0.112 13.02383 1.75467 9.43983 1.75467 9.43983 5.45067 12.57583 5.45067 12.57583 7.14934 9.43983 7.14934 9.43983 10.82667"></polygon>
                <path d="M13.53529,12.61867 L16.33529,0.112 L17.88462,0.112 L20.68462,12.61867 L18.76195,12.61867 L18.25795,9.93067 L15.94329,9.93067 L15.42062,12.61867 L13.53529,12.61867 Z M16.26062,8.26934 L17.94062,8.26934 L17.10062,3.71467 L16.26062,8.26934 Z" id="path2558"></path>
                <path d="M27.18172,9.464 C27.18172,9.86222667 27.15682,10.20445 27.10702,10.49067 C27.0696867,10.77689 26.9452433,11.088 26.73369,11.424 C26.62169,11.5982267 26.47858,11.7662267 26.30436,11.928 C26.14258,12.0773333 25.9559133,12.2142233 25.74436,12.33867 C25.5452467,12.45067 25.32747,12.5440033 25.09103,12.61867 C24.8545833,12.6933367 24.62436,12.73067 24.40036,12.73067 C23.84036,12.73067 23.3301367,12.6124467 22.86969,12.376 C22.42169,12.13956 22.0919133,11.8408933 21.88036,11.48 C21.6688067,11.1191133 21.5319167,10.7831133 21.46969,10.472 C21.41989,10.1608933 21.39499,9.82489333 21.39499,9.464 L21.39499,3.024 C21.39499,2.67556 21.42609,2.36445 21.48829,2.09067 C21.5629567,1.80445 21.71229,1.49956 21.93629,1.176 C22.16029,0.852446667 22.4776233,0.57867 22.88829,0.35467 C23.2989567,0.118223333 23.72829,0 24.17629,0 C25.0349567,0 25.75051,0.286223333 26.32295,0.85867 C26.8953967,1.41867 27.18162,2.14044667 27.18162,3.024 L27.18162,3.696 L25.40829,3.696 L25.40829,3.024 C25.40829,2.67556 25.3087333,2.38311667 25.10962,2.14667 C24.9229533,1.91022333 24.6429533,1.792 24.26962,1.792 C23.92118,1.792 23.6474033,1.91022333 23.44829,2.14667 C23.2616233,2.38311667 23.16829,2.67556 23.16829,3.024 L23.16829,9.94934 C23.1931567,10.1360067 23.2802667,10.34756 23.42962,10.584 C23.6038467,10.8328933 23.89007,10.95734 24.28829,10.95734 C24.7114033,10.95734 24.9914033,10.84534 25.12829,10.62134 C25.2651767,10.39734 25.3460667,10.23556 25.37096,10.136 C25.3958267,10.024 25.40826,9.87466667 25.40826,9.688 L25.40826,9.05334 L27.18159,9.05334 L27.18172,9.464 Z" id="path2560"></path>
                <polygon id="path2562" points="33.81432 10.82667 33.81432 12.61867 28.45699 12.61867 28.45699 0.112 33.81432 0.112 33.81432 1.75467 30.23032 1.75467 30.23032 5.45067 33.36632 5.45067 33.36632 7.14934 30.23032 7.14934 30.23032 10.82667"></polygon>
                <polygon id="path2564" points="34.68415 13.944 34.68415 10.84534 36.47615 10.84534 36.47615 12.61867"></polygon>
                <path d="M44.651,11.368 C44.3772267,11.7786667 44.02256,12.1084467 43.587,12.35734 C43.1514467,12.6062267 42.6910033,12.73067 42.20567,12.73067 C41.7327833,12.73067 41.2847833,12.6311133 40.86167,12.432 C40.4510033,12.2204467 40.0838933,11.9342267 39.76034,11.57334 L41.14167,10.45334 C41.4403367,10.7644467 41.78256,10.92 42.16834,10.92 C42.6910067,10.92 43.01456,10.7831133 43.139,10.50934 C43.2758933,10.2231133 43.35056,10.024 43.363,9.912 C43.3754667,9.8 43.3817,9.66933333 43.3817,9.52 L43.3817,0.112 L45.13637,0.112 L45.13637,9.352 C45.13637,9.93689333 45.0990367,10.34756 45.02437,10.584 C44.97457,10.808 44.8501233,11.0693333 44.65103,11.368 L44.651,11.368 Z" id="path2566"></path>
                <path d="M52.18346,11.312 C51.90968,11.7351133 51.5550133,12.0773367 51.11946,12.33867 C50.6963467,12.6000033 50.2234567,12.73067 49.70079,12.73067 C49.4394567,12.73067 49.1781233,12.6933367 48.91679,12.61867 C48.6679033,12.5440033 48.43146,12.45067 48.20746,12.33867 C47.98346,12.2142233 47.78435,12.0773333 47.61013,11.928 C47.4359033,11.7662267 47.3052367,11.5982267 47.21813,11.424 C47.0314633,11.07556 46.9070167,10.7706733 46.84479,10.50934 C46.79499,10.2480067 46.77009,9.96800667 46.77009,9.66934 L46.77009,0.112 L48.56209,0.112 L48.56209,9.66934 C48.56209,9.75644667 48.56209,9.83733333 48.56209,9.912 C48.5745567,9.9742 48.58699,10.0364233 48.59939,10.09867 C48.6118567,10.1982233 48.70519,10.3724467 48.87939,10.62134 C49.04117,10.84534 49.32117,10.95734 49.71939,10.95734 C50.0802767,10.95734 50.3478333,10.8266733 50.52206,10.56534 C50.7087267,10.29156 50.80206,9.99289333 50.80206,9.66934 L50.80206,0.112 L52.59406,0.112 L52.59406,9.66934 C52.59406,9.96800667 52.56296,10.2542267 52.50076,10.528 C52.43856,10.80178 52.3327833,11.0631133 52.18343,11.312 L52.18346,11.312 Z" id="path2568"></path>
                <path d="M55.55581,9.50134 C55.55581,9.62578 55.55581,9.73155667 55.55581,9.81867 C55.55581,9.90578333 55.5620433,9.98045 55.57451,10.04267 C55.5993767,10.1671167 55.69271,10.34756 55.85451,10.584 C56.02873,10.8328933 56.33984,10.95734 56.78784,10.95734 C57.0367333,10.95734 57.2669567,10.90756 57.47851,10.808 C57.6900633,10.696 57.84562,10.55289 57.94518,10.37867 C58.0198467,10.2417833 58.0634,10.1111167 58.07584,9.98667 C58.1007067,9.86222333 58.11314,9.75022333 58.11314,9.65067 L58.11314,9.48267 L58.11314,8.60534 L58.11314,8.43734 C58.11314,8.16356 58.06336,7.95200333 57.9638,7.80267 C57.8642467,7.64089 57.6402467,7.46044667 57.2918,7.26134 C57.05536,7.13689333 56.63225,6.96267 56.02247,6.73867 C55.41269,6.51467 54.9024667,6.16000333 54.4918,5.67467 C54.0811333,5.18933667 53.8758,4.52978 53.8758,3.696 L53.8758,3.136 C53.8758,2.27733333 54.1620233,1.54311333 54.73447,0.93334 C55.3193567,0.311113333 56.02869,1.13686838e-13 56.86247,1.13686838e-13 C57.7335833,1.13686838e-13 58.45536,0.30489 59.0278,0.91467 C59.6126933,1.52445 59.90514,2.26489333 59.90514,3.136 L59.90514,3.696 L58.11314,3.696 L58.11314,3.136 C58.11314,3.04889333 58.1069067,2.96800667 58.09444,2.89334 C58.09444,2.81867333 58.0882067,2.75022667 58.07574,2.688 C58.0632733,2.6258 58.0321733,2.55113333 57.98244,2.464 C57.93264,2.37689333 57.8641967,2.27111667 57.77711,2.14667 C57.6028833,1.89778333 57.3104367,1.77334 56.89977,1.77334 C56.5388833,1.77334 56.2402167,1.90400667 56.00377,2.16534 C55.77977,2.42667333 55.66777,2.75022667 55.66777,3.136 L55.66777,3.696 L55.66777,3.864 C55.66777,4.11289333 55.7051033,4.31200667 55.77977,4.46134 C55.8668833,4.59822667 56.0659967,4.75378 56.37711,4.928 C56.4766633,4.9778 56.6259967,5.04624667 56.82511,5.13334 C57.0366633,5.20800667 57.2917733,5.30134 57.59044,5.41334 C58.1877733,5.61244667 58.7228833,5.96711333 59.19577,6.47734 C59.6686633,6.98756 59.90514,7.65956 59.90514,8.49334 L59.90514,9.50134 C59.90514,9.93689333 59.8615533,10.3040033 59.77444,10.60267 C59.6997733,10.9013367 59.4446633,11.3368933 59.00911,11.90934 C58.57355,12.4568933 57.84555,12.73067 56.82511,12.73067 C55.7424433,12.73067 54.9584433,12.3822267 54.47311,11.68534 C53.9877767,10.9760067 53.74511,10.2480067 53.74511,9.50134 L53.74511,9.05334 L55.55577,9.05334 L55.55581,9.50134 Z" id="path2570"></path>
                <polygon id="path2572" points="62.20618 12.61867 62.20618 1.77334 60.09685 1.77334 60.09685 0.112 66.12618 0.112 66.12618 1.77334 63.97951 1.77334 63.97951 12.61867"></polygon>
                <polygon id="path2574" points="67.099 12.61867 67.099 0.112 68.87233 0.112 68.87233 12.61867"></polygon>
                <path d="M76.13399,9.464 C76.13399,9.86222667 76.10909,10.20445 76.05929,10.49067 C76.0219567,10.77689 75.8975133,11.088 75.68596,11.424 C75.57396,11.5982267 75.43085,11.7662267 75.25663,11.928 C75.09485,12.0773333 74.9081833,12.2142233 74.69663,12.33867 C74.4975167,12.45067 74.2797367,12.5440033 74.04329,12.61867 C73.80685,12.6933367 73.57663,12.73067 73.35263,12.73067 C72.79263,12.73067 72.2824067,12.6124467 71.82196,12.376 C71.37396,12.13956 71.0441833,11.8408933 70.83263,11.48 C70.62107,11.1191133 70.48418,10.7831133 70.42196,10.472 C70.37216,10.1608933 70.34726,9.82489333 70.34726,9.464 L70.34726,3.024 C70.34726,2.67556 70.37836,2.36445 70.44056,2.09067 C70.5152267,1.80445 70.66456,1.49956 70.88856,1.176 C71.11256,0.852446667 71.4298933,0.57867 71.84056,0.35467 C72.2512267,0.118223333 72.68056,0 73.12856,0 C73.9872267,0 74.70278,0.286223333 75.27522,0.85867 C75.8476667,1.41867 76.13389,2.14044667 76.13389,3.024 L76.13389,3.696 L74.36056,3.696 L74.36056,3.024 C74.36056,2.67556 74.2610033,2.38311667 74.06189,2.14667 C73.8752233,1.91022333 73.5952233,1.792 73.22189,1.792 C72.8734433,1.792 72.5996667,1.91022333 72.40056,2.14667 C72.2138933,2.38311667 72.12056,2.67556 72.12056,3.024 L72.12056,9.94934 C72.1454267,10.1360067 72.2325367,10.34756 72.38189,10.584 C72.55611,10.8328933 72.8423333,10.95734 73.24056,10.95734 C73.6636667,10.95734 73.9436667,10.84534 74.08056,10.62134 C74.2174467,10.39734 74.2983333,10.23556 74.32322,10.136 C74.3480867,10.024 74.36052,9.87466667 74.36052,9.688 L74.36052,9.05334 L76.13385,9.05334 L76.13399,9.464 Z" id="path2576"></path>
                <polygon id="path2578" points="82.8562 10.82667 82.8562 12.61867 77.49887 12.61867 77.49887 0.112 82.8562 0.112 82.8562 1.75467 79.2722 1.75467 79.2722 5.45067 82.4082 5.45067 82.4082 7.14934 79.2722 7.14934 79.2722 10.82667"></polygon>
                <path d="M1.13686838e-13,29.86565 L2.8,17.35898 L4.34933,17.35898 L7.14933,29.86565 L5.22666,29.86565 L4.72266,27.17765 L2.408,27.17765 L1.88533,29.86565 L1.13686838e-13,29.86565 Z M2.72533,25.51631 L4.40533,25.51631 L3.56533,20.96165 L2.72533,25.51631 Z" id="path2580"></path>
                <polygon id="path2582" points="12.6347 29.86565 9.85337 22.26831 9.85337 29.86565 8.06137 29.86565 8.06137 17.35898 9.76004 17.35898 12.5227 24.93765 12.5227 17.35898 14.3147 17.35898 14.3147 29.86565"></polygon>
                <path d="M18.4746,17.35898 C19.2834867,17.35898 19.9741533,17.6452033 20.5466,18.21765 C21.1314867,18.77765 21.42393,19.4620933 21.42393,20.27098 L21.42393,26.76698 C21.42393,27.6878667 21.14393,28.4345333 20.58393,29.00698 C20.02393,29.5794267 19.3021533,29.86565 18.4186,29.86565 L15.63726,29.86565 L15.63726,17.35898 L18.4746,17.35898 Z M19.6506,26.76698 L19.6506,20.27098 C19.6506,19.9225333 19.5199333,19.63009 19.2586,19.39365 C19.0097067,19.1572033 18.7048167,19.03898 18.34393,19.03898 L17.4106,19.03898 L17.4106,28.20431 L18.28793,28.20431 C19.1963767,28.20431 19.6506,27.7252 19.6506,26.76698 Z" id="path2584"></path>
                <path d="M26.34036,26.74831 C26.34036,26.8727567 26.34036,26.9785367 26.34036,27.06565 C26.34036,27.1527567 26.3465933,27.2274233 26.35906,27.28965 C26.3839267,27.41409 26.47726,27.5945333 26.63906,27.83098 C26.81328,28.0798667 27.12439,28.20431 27.57239,28.20431 C27.8212767,28.20431 28.0515,28.1545333 28.26306,28.05498 C28.4746133,27.94298 28.6301667,27.79987 28.72972,27.62565 C28.8043867,27.4887567 28.8479433,27.35809 28.86039,27.23365 C28.8852567,27.1092033 28.89769,26.9972033 28.89769,26.89765 L28.89769,26.72965 L28.89769,25.85231 L28.89769,25.68431 C28.89769,25.4105367 28.8479133,25.1989833 28.74836,25.04965 C28.6488067,24.88787 28.4248067,24.7074233 28.07636,24.50831 C27.8399133,24.38387 27.4168033,24.20965 26.80703,23.98565 C26.19725,23.76165 25.6870267,23.4069833 25.27636,22.92165 C24.8656933,22.4363167 24.66036,21.77676 24.66036,20.94298 L24.66036,20.38298 C24.66036,19.5243133 24.9465833,18.79009 25.51903,18.18031 C26.1039167,17.55809 26.81325,17.24698 27.64703,17.24698 C28.5181367,17.24698 29.2399133,17.55187 29.81236,18.16165 C30.3972467,18.7714233 30.68969,19.5118667 30.68969,20.38298 L30.68969,20.94298 L28.89769,20.94298 L28.89769,20.38298 C28.89769,20.2958667 28.8914567,20.2149767 28.87899,20.14031 C28.87899,20.0656433 28.8727567,19.9972 28.86029,19.93498 C28.8478233,19.87278 28.8167233,19.7981133 28.76699,19.71098 C28.71719,19.6238667 28.6487433,19.51809 28.56165,19.39365 C28.38743,19.1447567 28.0949867,19.02031 27.68432,19.02031 C27.3234333,19.02031 27.0247667,19.1509767 26.78832,19.41231 C26.56432,19.6736433 26.45232,19.9972 26.45232,20.38298 L26.45232,20.94298 L26.45232,21.11098 C26.45232,21.3598667 26.4896533,21.5589767 26.56432,21.70831 C26.6514333,21.8452033 26.8505433,22.00076 27.16165,22.17498 C27.26121,22.22478 27.4105433,22.2932233 27.60965,22.38031 C27.82121,22.4549767 28.0763233,22.54831 28.37499,22.66031 C28.9723233,22.8594233 29.5074333,23.21409 29.98032,23.72431 C30.4532067,24.2345367 30.68969,24.9065367 30.68969,25.74031 L30.68969,26.74831 C30.68969,27.18387 30.6460967,27.5509833 30.55899,27.84965 C30.4843233,28.1483167 30.22921,28.58387 29.79365,29.15631 C29.3580967,29.70387 28.6300967,29.97765 27.60965,29.97765 C26.5269833,29.97765 25.7429833,29.6292033 25.25765,28.93231 C24.7723167,28.2229767 24.52965,27.4949767 24.52965,26.74831 L24.52965,26.30031 L26.34032,26.30031 L26.34036,26.74831 Z" id="path2586"></path>
                <polygon id="path2588" points="33.25954 29.86565 33.25954 19.02031 31.15021 19.02031 31.15021 17.35898 37.17954 17.35898 37.17954 19.02031 35.03288 19.02031 35.03288 29.86565"></polygon>
                <path d="M37.95448,29.86565 L37.95448,17.35898 L41.09048,17.35898 C41.9118133,17.35898 42.60248,17.6452033 43.16248,18.21765 C43.73492,18.79009 44.02114,19.4932 44.02114,20.32698 L44.02114,21.48431 C44.02114,22.6416433 43.5295867,23.5252 42.54648,24.13498 L44.45048,29.86565 L42.54648,29.86565 L40.86648,24.50831 L39.74648,24.50831 L39.74648,29.86565 L37.95448,29.86565 Z M41.93048,22.52965 C42.04248,22.3927567 42.1171467,22.2372 42.15448,22.06298 C42.20428,21.88876 42.22918,21.69587 42.22918,21.48431 L42.22918,20.32698 C42.22918,19.9412 42.1234033,19.63009 41.91185,19.39365 C41.7002967,19.1447567 41.40163,19.02031 41.01585,19.02031 L39.74652,19.02031 L39.74652,22.92165 L40.99718,22.92165 C41.3705133,22.92165 41.6816267,22.7909833 41.93052,22.52965 L41.93048,22.52965 Z" id="path2590"></path>
                <path d="M45.57535,18.53498 C45.86157,18.13676 46.22246,17.82565 46.65802,17.60165 C47.10602,17.3652033 47.5664633,17.24698 48.03935,17.24698 C48.4997967,17.24698 48.92913,17.3403133 49.32735,17.52698 C49.7380167,17.7136467 50.08024,17.9687567 50.35402,18.29231 C50.6277933,18.61587 50.81446,18.95187 50.91402,19.30031 C51.0135733,19.63631 51.06335,20.0034233 51.06335,20.40165 L51.06335,26.76698 C51.06335,27.1403133 51.0260167,27.47009 50.95135,27.75631 C50.88915,28.0425367 50.7398167,28.35987 50.50335,28.70831 C50.27935,29.0567567 49.9495733,29.3554233 49.51402,29.60431 C49.0909067,29.8532033 48.6180167,29.97765 48.09535,29.97765 C47.7966833,29.97765 47.51046,29.9403167 47.23668,29.86565 C46.9629067,29.7785367 46.7077967,29.6665367 46.47135,29.52965 C46.2349033,29.3927567 46.0233467,29.2372 45.83668,29.06298 C45.66246,28.88876 45.5255733,28.7083167 45.42602,28.52165 C45.2393533,28.13587 45.1273533,27.8247567 45.09002,27.58831 C45.0526867,27.35187 45.03402,27.0780933 45.03402,26.76698 L45.03402,20.40165 C45.03402,20.0283167 45.0713533,19.6985367 45.14602,19.41231 C45.2331267,19.1136433 45.3762367,18.8212 45.57535,18.53498 L45.57535,18.53498 Z M49.04735,19.52431 C48.8109033,19.17587 48.4873467,19.00165 48.07668,19.00165 C47.8651267,19.00165 47.6535733,19.06387 47.44202,19.18831 C47.2429067,19.30031 47.0997933,19.4309767 47.01268,19.58031 C46.9380133,19.7296433 46.8882367,19.8789767 46.86335,20.02831 C46.8384833,20.1776433 46.82605,20.30209 46.82605,20.40165 L46.82605,26.76698 C46.82605,26.82918 46.82605,26.8976233 46.82605,26.97231 C46.82605,27.03451 46.8322833,27.1029567 46.84475,27.17765 C46.8572167,27.30209 46.9567733,27.5074233 47.14342,27.79365 C47.3300867,28.0549833 47.6411967,28.18565 48.07675,28.18565 C48.30075,28.18565 48.4998633,28.13587 48.67409,28.03631 C48.8607567,27.92431 48.9914233,27.7998667 49.06609,27.66298 C49.1531967,27.5136467 49.2091967,27.3767567 49.23409,27.25231 C49.2589567,27.12787 49.27139,26.9660933 49.27139,26.76698 L49.27139,20.40165 C49.27139,20.1527567 49.2589567,19.9785333 49.23409,19.87898 C49.2216233,19.7794267 49.1594,19.6612033 49.04742,19.52431 L49.04735,19.52431 Z" id="path2592"></path>
                <polygon id="path2594" points="57.16191 29.86565 54.38058 22.26831 54.38058 29.86565 52.58858 29.86565 52.58858 17.35898 54.28724 17.35898 57.04991 24.93765 57.04991 17.35898 58.84191 17.35898 58.84191 29.86565"></polygon>
                <path d="M65.52553,28.55898 C65.23931,29.00698 64.8722,29.3554233 64.4242,29.60431 C63.9762,29.8532033 63.4846433,29.97765 62.94953,29.97765 C62.4766433,29.97765 62.0162,29.86565 61.5682,29.64165 C61.13264,29.41765 60.7904167,29.14387 60.54153,28.82031 C60.3050833,28.48431 60.1433067,28.14831 60.0562,27.81231 C59.9815333,27.47631 59.9442,27.0967567 59.9442,26.67365 L59.9442,20.42031 C59.9442,20.1092033 59.9753,19.7980933 60.0375,19.48698 C60.1246133,19.1758667 60.3548367,18.73409 60.72817,18.16165 C61.1139433,17.55187 61.8730533,17.24698 63.0055,17.24698 C63.50328,17.24698 63.9699467,17.3652033 64.4055,17.60165 C64.8410533,17.83809 65.17083,18.1305333 65.39483,18.47898 C65.6312767,18.81498 65.78061,19.1385367 65.84283,19.44965 C65.9174967,19.7483167 65.95483,20.07187 65.95483,20.42031 L65.95483,20.94298 L64.1815,20.94298 L64.1815,20.42031 C64.1815,20.3207567 64.1752667,20.2336467 64.1628,20.15898 C64.1628,20.0718667 64.1565667,19.9972 64.1441,19.93498 C64.1316333,19.82298 64.0383,19.6425367 63.8641,19.39365 C63.6898733,19.1447567 63.3974267,19.02031 62.98676,19.02031 C62.5014267,19.02031 62.1778733,19.1509767 62.0161,19.41231 C61.8667667,19.6736433 61.7796533,19.8665333 61.75476,19.99098 C61.7298933,20.1154267 61.71746,20.2585367 61.71746,20.42031 L61.71746,26.67365 C61.71746,26.79809 61.71746,26.9038667 61.71746,26.99098 C61.71746,27.0780933 61.7236933,27.15276 61.73616,27.21498 C61.7486267,27.3145333 61.84196,27.5074233 62.01616,27.79365 C62.1779333,28.0549833 62.4952667,28.18565 62.96816,28.18565 C63.4534933,28.18565 63.7646033,28.0549833 63.90149,27.79365 C63.9761567,27.6567567 64.0321567,27.5447567 64.06949,27.45765 C64.1068233,27.35809 64.1317233,27.2709767 64.14419,27.19631 C64.1690567,27.1216433 64.18149,27.0469767 64.18149,26.97231 C64.18149,26.8852033 64.18149,26.78565 64.18149,26.67365 L64.18149,24.48965 L62.74416,24.48965 L62.74416,22.92165 L65.95483,22.92165 L65.95483,26.67365 C65.95483,26.9349833 65.9485867,27.1589833 65.93612,27.34565 C65.9236533,27.51987 65.8987533,27.6754233 65.86142,27.81231 C65.8240867,27.9492033 65.77431,28.07987 65.71209,28.20431 C65.66229,28.31631 65.6000667,28.4345333 65.52542,28.55898 L65.52553,28.55898 Z" id="path2596"></path>
                <polygon id="path2598" points="0.59358 47.11262 0.59358 34.60596 2.36691 34.60596 2.36691 47.11262"></polygon>
                <polygon id="path2600" points="8.43764 47.11262 5.6563 39.51529 5.6563 47.11262 3.8643 47.11262 3.8643 34.60596 5.56297 34.60596 8.32564 42.18462 8.32564 34.60596 10.11764 34.60596 10.11764 47.11262"></polygon>
                <path d="M12.67593,43.99529 C12.67593,44.11973 12.67593,44.2255067 12.67593,44.31262 C12.67593,44.3997333 12.6821633,44.4744 12.69463,44.53662 C12.7194967,44.6610667 12.81283,44.84151 12.97463,45.07795 C13.1488567,45.3268433 13.45997,45.45129 13.90797,45.45129 C14.1568567,45.45129 14.3870767,45.40151 14.59863,45.30195 C14.81019,45.18995 14.9657467,45.04684 15.0653,44.87262 C15.1399667,44.7357333 15.1835233,44.6050667 15.19597,44.48062 C15.2208367,44.3561733 15.23327,44.2441733 15.23327,44.14462 L15.23327,43.97662 L15.23327,43.09929 L15.23327,42.93129 C15.23327,42.65751 15.1834933,42.4459533 15.08394,42.29662 C14.98438,42.1348467 14.76038,41.9544033 14.41194,41.75529 C14.1754933,41.6308433 13.75238,41.45662 13.1426,41.23262 C12.5328267,41.00862 12.0226067,40.6539533 11.61194,40.16862 C11.2012733,39.6832867 10.99594,39.0237333 10.99594,38.18996 L10.99594,37.62996 C10.99594,36.7712933 11.28216,36.03707 11.8546,35.42729 C12.4394933,34.80507 13.1488267,34.49396 13.9826,34.49396 C14.8537133,34.49396 15.5754933,34.7988467 16.14794,35.40862 C16.7328267,36.0184 17.02527,36.7588467 17.02527,37.62996 L17.02527,38.18996 L15.23327,38.18996 L15.23327,37.62996 C15.23327,37.5428467 15.2270367,37.4619567 15.21457,37.38729 C15.21457,37.3126233 15.2083367,37.24418 15.19587,37.18196 C15.1834033,37.11976 15.1523033,37.0450933 15.10257,36.95796 C15.05277,36.8708467 14.9843267,36.7650667 14.89724,36.64062 C14.72302,36.3917333 14.4305767,36.26729 14.01991,36.26729 C13.6590167,36.26729 13.36035,36.3979567 13.12391,36.65929 C12.89991,36.9206233 12.78791,37.24418 12.78791,37.62996 L12.78791,38.18996 L12.78791,38.35796 C12.78791,38.6068467 12.8252433,38.8059567 12.89991,38.95529 C12.9870167,39.0921767 13.1861267,39.2477333 13.49724,39.42196 C13.5967933,39.47176 13.7461267,39.5402033 13.94524,39.62729 C14.1567933,39.7019567 14.4119033,39.79529 14.71057,39.90729 C15.3079033,40.1064033 15.8430167,40.46107 16.31591,40.97129 C16.7887967,41.48151 17.02527,42.15351 17.02527,42.98729 L17.02527,43.99529 C17.02527,44.4308433 16.9816833,44.7979533 16.89457,45.09662 C16.8199033,45.3952867 16.5647933,45.8308433 16.12924,46.40329 C15.6936867,46.9508433 14.9656867,47.22462 13.94524,47.22462 C12.8625733,47.22462 12.0785733,46.8761767 11.59324,46.17929 C11.1079067,45.4699567 10.86524,44.7419567 10.86524,43.99529 L10.86524,43.54729 L12.67591,43.54729 L12.67593,43.99529 Z" id="path2602"></path>
                <polygon id="path2604" points="19.50551 47.11262 19.50551 36.26729 17.39617 36.26729 17.39617 34.60596 23.42551 34.60596 23.42551 36.26729 21.27884 36.26729 21.27884 47.11262"></polygon>
                <polygon id="path2606" points="24.30871 47.11262 24.30871 34.60596 26.08205 34.60596 26.08205 47.11262"></polygon>
                <polygon id="path2608" points="29.10638 47.11262 29.10638 36.26729 26.99704 36.26729 26.99704 34.60596 33.02638 34.60596 33.02638 36.26729 30.87971 36.26729 30.87971 47.11262"></polygon>
                <path d="M39.41252,45.80595 C39.13874,46.2290633 38.7840733,46.5712867 38.34852,46.83262 C37.9254067,47.0939533 37.4525167,47.22462 36.92985,47.22462 C36.6685167,47.22462 36.4071833,47.1872867 36.14585,47.11262 C35.8969633,47.0379533 35.66052,46.94462 35.43652,46.83262 C35.21252,46.7081733 35.01341,46.5712833 34.83919,46.42195 C34.6649633,46.2601767 34.5342967,46.0921767 34.44719,45.91795 C34.2605233,45.56951 34.1360767,45.2646233 34.07385,45.00329 C34.02405,44.7419567 33.99915,44.4619567 33.99915,44.16329 L33.99915,34.60596 L35.79115,34.60596 L35.79115,44.16329 C35.79115,44.2503967 35.79115,44.3312833 35.79115,44.40595 C35.8036167,44.46815 35.81605,44.5303733 35.82845,44.59262 C35.8409167,44.6921733 35.93425,44.8663967 36.10845,45.11529 C36.27023,45.33929 36.55023,45.45129 36.94845,45.45129 C37.3093367,45.45129 37.5768933,45.3206233 37.75112,45.05929 C37.9377867,44.78551 38.03112,44.4868433 38.03112,44.16329 L38.03112,34.60596 L39.82312,34.60596 L39.82312,44.16329 C39.82312,44.4619567 39.79202,44.7481767 39.72982,45.02195 C39.66762,45.29573 39.5618433,45.5570633 39.41249,45.80595 L39.41252,45.80595 Z" id="path2610"></path>
                <polygon id="path2612" points="42.71766 47.11262 42.71766 36.26729 40.60833 36.26729 40.60833 34.60596 46.63766 34.60596 46.63766 36.26729 44.491 36.26729 44.491 47.11262"></polygon>
                <polygon id="path2614" points="47.52087 47.11262 47.52087 34.60596 49.2942 34.60596 49.2942 47.11262"></polygon>
                <path d="M51.38147,35.78196 C51.6676967,35.3837333 52.0285867,35.07262 52.46414,34.84862 C52.91214,34.61218 53.3725833,34.49396 53.84547,34.49396 C54.3059167,34.49396 54.73525,34.5872933 55.13347,34.77396 C55.5441367,34.9606267 55.88636,35.2157367 56.16014,35.53929 C56.43392,35.8628433 56.6205867,36.1988433 56.72014,36.54729 C56.8196933,36.88329 56.86947,37.2504 56.86947,37.64862 L56.86947,44.01395 C56.86947,44.3872833 56.8321367,44.7170633 56.75747,45.00329 C56.69527,45.28951 56.5459367,45.6068433 56.30947,45.95529 C56.08547,46.30373 55.7556933,46.6023967 55.32014,46.85129 C54.8970267,47.1001767 54.4241367,47.22462 53.90147,47.22462 C53.6028033,47.22462 53.3165833,47.1872867 53.04281,47.11262 C52.76903,47.0255067 52.5139167,46.9135067 52.27747,46.77662 C52.04103,46.6397333 51.8294767,46.4841767 51.64281,46.30995 C51.4685833,46.13573 51.3316933,45.9552867 51.23214,45.76862 C51.0454733,45.38284 50.9334733,45.07173 50.89614,44.83529 C50.8588067,44.5988433 50.84014,44.3250633 50.84014,44.01395 L50.84014,37.64862 C50.84014,37.2752867 50.8774733,36.94551 50.95214,36.65929 C51.0392533,36.3606233 51.1823633,36.06818 51.38147,35.78196 L51.38147,35.78196 Z M54.85347,36.77129 C54.61703,36.4228433 54.2934767,36.24862 53.88281,36.24862 C53.67125,36.24862 53.4596933,36.3108433 53.24814,36.43529 C53.0490267,36.54729 52.9059167,36.6779567 52.81881,36.82729 C52.7441433,36.9766233 52.6943633,37.1259567 52.66947,37.27529 C52.6446033,37.4246233 52.63217,37.5490667 52.63217,37.64862 L52.63217,44.01395 C52.63217,44.07615 52.63217,44.1445967 52.63217,44.21929 C52.63217,44.28149 52.6384033,44.3499333 52.65087,44.42462 C52.6633367,44.5490667 52.76289,44.7544 52.94953,45.04062 C53.1361967,45.3019533 53.44731,45.43262 53.88287,45.43262 C54.10687,45.43262 54.30598,45.3828433 54.4802,45.28329 C54.6668667,45.17129 54.7975333,45.0468433 54.8722,44.90995 C54.9593133,44.7606167 55.0153133,44.62373 55.0402,44.49929 C55.0650667,44.3748433 55.0775,44.2130633 55.0775,44.01395 L55.0775,37.64862 C55.0775,37.3997333 55.0650667,37.2255133 55.0402,37.12596 C55.0277333,37.0264 54.96551,36.9081767 54.85353,36.77129 L54.85347,36.77129 Z" id="path2616"></path>
                <polygon id="path2618" points="62.78882 47.11262 60.00749 39.51529 60.00749 47.11262 58.21549 47.11262 58.21549 34.60596 59.91415 34.60596 62.67682 42.18462 62.67682 34.60596 64.46882 34.60596 64.46882 47.11262"></polygon>
                <path d="M67.11671,43.99529 C67.11671,44.11973 67.11671,44.2255067 67.11671,44.31262 C67.11671,44.3997333 67.1229433,44.4744 67.13541,44.53662 C67.1602767,44.6610667 67.25361,44.84151 67.41541,45.07795 C67.58963,45.3268433 67.90074,45.45129 68.34874,45.45129 C68.5976267,45.45129 68.82785,45.40151 69.03941,45.30195 C69.2509633,45.18995 69.4065167,45.04684 69.50607,44.87262 C69.5807367,44.7357333 69.6242933,44.6050667 69.63674,44.48062 C69.6616067,44.3561733 69.67404,44.2441733 69.67404,44.14462 L69.67404,43.97662 L69.67404,43.09929 L69.67404,42.93129 C69.67404,42.65751 69.6242633,42.4459533 69.52471,42.29662 C69.4251567,42.1348467 69.2011567,41.9544033 68.85271,41.75529 C68.6162633,41.6308433 68.1931533,41.45662 67.58338,41.23262 C66.9736,41.00862 66.4633767,40.6539533 66.05271,40.16862 C65.6420433,39.6832867 65.43671,39.0237333 65.43671,38.18996 L65.43671,37.62996 C65.43671,36.7712933 65.7229333,36.03707 66.29538,35.42729 C66.8802667,34.80507 67.5896,34.49396 68.42338,34.49396 C69.2944867,34.49396 70.0162633,34.7988467 70.58871,35.40862 C71.1735967,36.0184 71.46604,36.7588467 71.46604,37.62996 L71.46604,38.18996 L69.67404,38.18996 L69.67404,37.62996 C69.67404,37.5428467 69.6678067,37.4619567 69.65534,37.38729 C69.65534,37.3126233 69.6491067,37.24418 69.63664,37.18196 C69.6241733,37.11976 69.5930733,37.0450933 69.54334,36.95796 C69.49354,36.8708467 69.4250933,36.7650667 69.338,36.64062 C69.16378,36.3917333 68.8713367,36.26729 68.46067,36.26729 C68.0997833,36.26729 67.8011167,36.3979567 67.56467,36.65929 C67.34067,36.9206233 67.22867,37.24418 67.22867,37.62996 L67.22867,38.18996 L67.22867,38.35796 C67.22867,38.6068467 67.2660033,38.8059567 67.34067,38.95529 C67.4277833,39.0921767 67.6268933,39.2477333 67.938,39.42196 C68.03756,39.47176 68.1868933,39.5402033 68.386,39.62729 C68.59756,39.7019567 68.8526733,39.79529 69.15134,39.90729 C69.7486733,40.1064033 70.2837833,40.46107 70.75667,40.97129 C71.2295567,41.48151 71.46604,42.15351 71.46604,42.98729 L71.46604,43.99529 C71.46604,44.4308433 71.4224467,44.7979533 71.33534,45.09662 C71.2606733,45.3952867 71.00556,45.8308433 70.57,46.40329 C70.1344467,46.9508433 69.4064467,47.22462 68.386,47.22462 C67.3033333,47.22462 66.5193333,46.8761767 66.034,46.17929 C65.5486667,45.4699567 65.306,44.7419567 65.306,43.99529 L65.306,43.54729 L67.11667,43.54729 L67.11671,43.99529 Z" id="path2620"></path>
            </g>
            <g id="text6075-0-6-9-2-5-9-1-4-7-6" transform="translate(11.720000, 13.016260)" fill="#FFFFFF" fill-rule="nonzero">
                <polygon id="path2623" points="4.288 29.92667 4.288 4.46667 0 7.68267 0 3.12667 4.288 1.13686838e-13 8.53134 1.13686838e-13 8.53134 29.92667"></polygon>
                <path d="M24.31375,14.606 C24.5519767,15.0228933 24.7008667,15.4546733 24.76042,15.90134 C24.8497533,16.3480067 24.89442,16.8988933 24.89442,17.554 L24.89442,23.27134 C24.89442,23.9562267 24.8199767,24.6411133 24.67109,25.326 C24.5221967,25.9811133 24.07553,26.9042267 23.33109,28.09534 C22.5568633,29.3162267 21.09775,30.0160033 18.95375,30.19467 C17.61375,30.19467 16.39286,29.91178 15.29108,29.346 C14.21908,28.7504467 13.4597467,28.05067 13.01308,27.24667 C12.5961933,26.41289 12.3281933,25.7131133 12.20908,25.14734 C12.1197467,24.58156 12.07508,23.9562267 12.07508,23.27134 L12.07508,18.58134 C12.07508,17.9262267 12.08998,17.46467 12.11978,17.19667 C12.14958,16.89889 12.2538033,16.51178 12.43245,16.03534 L18.37311,2.27373675e-13 L23.19712,2.27373675e-13 L18.37311,12.55134 C18.90911,12.3428933 19.5493333,12.23867 20.29378,12.23867 L20.69578,12.23867 C22.33356,12.47689 23.53956,13.266 24.31378,14.606 L24.31375,14.606 Z M20.24908,16.884 C19.8024133,16.2884467 19.20686,15.99067 18.46242,15.99067 C17.8073067,15.99067 17.3010833,16.2288933 16.94375,16.70534 C16.5864167,17.18178 16.40775,17.8071133 16.40775,18.58134 L16.40775,23.27134 C16.40775,23.8966733 16.55664,24.4922267 16.85442,25.058 C17.1819733,25.594 17.73286,25.862 18.50708,25.862 L18.77508,25.862 C19.5493067,25.862 20.05553,25.594 20.29375,25.058 C20.53197,24.522 20.65108,23.9264467 20.65108,23.27134 L20.65108,18.58134 C20.65108,18.1942267 20.6213133,17.88156 20.56178,17.64334 C20.53198,17.37534 20.4277567,17.1222267 20.24911,16.884 L20.24908,16.884 Z" id="path2625"></path>
            </g>
            <path d="M107.76764,66.45422 C104.37875,66.42322 103.86557,68.37656 103.79499,70.63586 C107.18388,70.66686 107.69706,68.71352 107.76764,66.45422 Z M98.65827,66.98742 C96.6951,69.74994 98.00527,71.28804 99.81842,72.63781 C101.78159,69.87529 100.47142,68.33719 98.65827,66.98742 Z M94.7071,71.12414 C92.75635,73.89544 94.07344,75.42706 95.89264,76.76867 C97.84339,73.99737 96.5263,72.46575 94.7071,71.12414 Z M102.53327,71.6670798 C102.416452,71.6657571 102.303686,71.7098832 102.21881,71.79016 C99.5685,74.22489 97.27474,76.79663 96.01569,79.73547 C95.71953,80.42675 95.48789,81.1406 95.31842,81.87414 C93.55468,80.11374 92.91336,78.23466 90.63678,78.27453 C85.18466,78.37003 82.34826,86.85021 74.7696,86.90344 C64.05934,86.97864 64.90827,73.98138 44.75983,73.8761 C56.82848,83.53487 44.58842,92.40987 62.46491,99.26477 C54.8787,100.6822 54.7112,107.17004 44.7071,103.95617 C49.3697,105.76552 54.39884,111.65431 63.78717,111.99524 L63.78717,119.03625 C53.1018,118.71801 42.73834,118.28625 42.73834,118.28625 L42.73834,122.75305 C42.73834,122.75305 67.67356,121.67492 80.19733,121.67492 C84.34098,121.67492 87.78608,122.51218 89.26764,122.93664 L89.26764,125.76281 C89.26764,126.79883 90.10272,127.63196 91.13874,127.63196 L101.68756,127.63196 C102.72358,127.63196 103.55866,126.79883 103.55866,125.76281 L103.55866,115.33117 C103.55866,114.29516 102.72358,113.46203 101.68756,113.46203 L91.13874,113.46203 C90.10272,113.46203 89.26764,114.29516 89.26764,115.33117 L89.26764,118.1007 C87.78608,118.52518 84.34098,119.36438 80.19733,119.36438 C77.38289,119.36438 73.90403,119.30622 70.25983,119.2218 L70.25983,111.69641 C88.54138,109.5862 87.91889,97.91997 87.85358,95.255 C87.63628,86.38863 91.76274,84.48562 95.03717,83.98547 C94.9535,85.78198 95.26053,87.69577 96.09381,89.74719 C96.1545166,89.896168 96.2900905,90.0014428 96.4494625,90.0233583 C96.6088345,90.0452739 96.7677922,89.9805007 96.8664576,89.8534383 C96.965123,89.7263759 96.9885066,89.556328 96.9278,89.40735 C96.11467,87.40559 95.83131,85.58753 95.93366,83.88781 C96.73082,83.81506 97.46589,83.78428 97.98639,83.73156 C97.23228,83.39268 96.61759,82.99578 96.09186,82.57727 C96.25056,81.72218 96.49742,80.89294 96.84186,80.08899 C98.01924,77.3408 100.22036,74.84993 102.82819,72.45422 C102.967836,72.3306829 103.016848,72.1338307 102.95143,71.9592373 C102.886012,71.784644 102.719712,71.6684664 102.53327,71.6670798 Z M105.09967,73.46985 C104.01815,73.52735 103.08614,74.26366 102.19147,75.16711 C104.65164,77.49801 106.35876,76.41777 107.94928,74.81164 C106.87296,73.79187 105.94086,73.42512 105.09967,73.46985 Z M101.51569,77.7725799 C100.56559,77.77281 99.62808,78.27686 98.69538,78.91516 C100.6707,81.66901 102.55068,80.93003 104.41608,79.65344 C103.42842,78.27651 102.46579,77.77235 101.51569,77.7725799 Z M89.88483,108.32141 C88.84881,108.32141 88.01374,109.15648 88.01374,110.1925 L88.01374,110.57336 C88.01374,111.60938 88.84881,112.4425 89.88483,112.4425 L102.85553,112.4425 C103.89155,112.4425 104.72467,111.60938 104.72467,110.57336 L104.72467,110.1925 C104.72467,109.15648 103.89155,108.32141 102.85553,108.32141 L89.88483,108.32141 Z M68.19733,111.88586 L68.19733,119.17102 C67.40968,119.15084 66.64429,119.12099 65.84967,119.09875 L65.84967,111.99914 C66.66116,111.97683 67.4444,111.93918 68.19733,111.88586 Z M39.01764,116.96008 C37.98162,116.96008 37.14655,117.7932 37.14655,118.82922 L37.14655,121.99524 C37.14655,123.03125 37.98162,123.86438 39.01764,123.86438 L39.54499,123.86438 C40.581,123.86438 41.41413,123.03125 41.41413,121.99524 L41.41413,118.82922 C41.41413,117.7932 40.581,116.96008 39.54499,116.96008 L39.01764,116.96008 Z M89.88483,128.36438 C88.84881,128.36438 88.01374,129.19945 88.01374,130.23547 L88.01374,130.61633 C88.01374,131.65235 88.84881,132.48742 89.88483,132.48742 L102.85553,132.48742 C103.89155,132.48742 104.72467,131.65235 104.72467,130.61633 L104.72467,130.23547 C104.72467,129.19945 103.89155,128.36438 102.85553,128.36438 L89.88483,128.36438 Z" id="rect8292-7-8" fill="#FFFFFF"></path>
        </g>
    </g>
</svg>