<?xml version="1.0" encoding="UTF-8"?>
<svg width="149px" height="149px" viewBox="0 0 149 149" version="1.1" xmlns="http://www.w3.org/2000/svg" xmlns:xlink="http://www.w3.org/1999/xlink">
    <title>17-partnerships-for-the-goals</title>
    <g id="SDGs" stroke="none" stroke-width="1" fill="none" fill-rule="evenodd">
        <g id="17-partnerships-for-the-goals" transform="translate(0.894543, 0.094900)">
            <path d="M0.82675,0 L147.266,0 C147.72402,0 148.09275,0.36873 148.09275,0.82675 L148.09275,147.50782 C148.09275,147.96584 147.72402,148.33458 147.266,148.33458 L0.82675,148.33458 C0.36873,148.33458 0,147.96584 0,147.50782 L0,0.82675 C0,0.36873 0.36873,0 0.82675,0 Z" id="rect8528-63-2-4-3-6-0-4-3-6-3-7-4-9-4" fill="#183668"></path>
            <g id="text6065-3-2-9-6-6-5-5-2-9-7-0" transform="translate(48.217370, 12.921550)" fill="#FFFFFF" fill-rule="nonzero">
                <path d="M0,12.61867 L0,0.112 L2.93066,0.112 L2.96796,0.112 C3.34129333,0.112 3.69596,0.19289 4.03196,0.35467 C4.36796,0.504003333 4.66662667,0.703113333 4.92796,0.952 C5.18929333,1.20089333 5.39462667,1.48711667 5.54396,1.81067 C5.70573333,2.12178333 5.79284333,2.44534 5.80529,2.78134 L5.80529,4.592 L5.80529,4.77867 C5.80529,5.18933667 5.7244,5.57511333 5.56262,5.936 C5.41328667,6.28444667 5.20795333,6.58933667 4.94662,6.85067 C4.68528667,7.112 4.37417667,7.31733667 4.01329,7.46667 C3.66484333,7.61600333 3.29151,7.69067 2.89329,7.69067 L2.72529,7.69067 L1.79196,7.69067 L1.79196,12.61867 L0,12.61867 Z M3.78933,5.63734 C3.90133,5.52534 3.96977333,5.40711667 3.99466,5.28267 C4.03199333,5.15822333 4.05066,5.00266667 4.05066,4.816 L4.05066,2.968 C4.05066,2.61956 3.94488333,2.33334 3.73333,2.10934 C3.52177667,1.87289333 3.23555333,1.75467 2.87466,1.75467 L1.792,1.75467 L1.792,5.992 L2.72533,5.992 C2.97421667,5.992 3.17332667,5.97333333 3.32266,5.936 C3.48444,5.8862 3.63999667,5.78664667 3.78933,5.63734 L3.78933,5.63734 Z" id="path2628"></path>
                <path d="M5.9417,12.61867 L8.7417,0.112 L10.29104,0.112 L13.09104,12.61867 L11.16837,12.61867 L10.66437,9.93067 L8.3497,9.93067 L7.82704,12.61867 L5.9417,12.61867 Z M8.66704,8.26934 L10.34704,8.26934 L9.50704,3.71467 L8.66704,8.26934 Z" id="path2630"></path>
                <path d="M13.98441,12.61867 L13.98441,0.112 L17.12041,0.112 C17.9417433,0.112 18.63241,0.398223333 19.19241,0.97067 C19.7648567,1.54311667 20.05108,2.24622667 20.05108,3.08 L20.05108,4.23734 C20.05108,5.39467333 19.5595233,6.27822667 18.57641,6.888 L20.48041,12.61867 L18.57641,12.61867 L16.89641,7.26134 L15.77641,7.26134 L15.77641,12.61867 L13.98441,12.61867 Z M17.96041,5.28267 C18.07241,5.14578333 18.1470767,4.99022667 18.18441,4.816 C18.23421,4.64178 18.25911,4.44889333 18.25911,4.23734 L18.25911,3.08 C18.25911,2.69422667 18.15333,2.38311667 17.94177,2.14667 C17.7302167,1.89778333 17.43155,1.77334 17.04577,1.77334 L15.77644,1.77334 L15.77644,5.67467 L17.02711,5.67467 C17.4004433,5.67467 17.7115533,5.54400333 17.96044,5.28267 L17.96041,5.28267 Z" id="path2632"></path>
                <polygon id="path2634" points="22.54234 12.61867 22.54234 1.77334 20.43301 1.77334 20.43301 0.112 26.46234 0.112 26.46234 1.77334 24.31568 1.77334 24.31568 12.61867"></polygon>
                <polygon id="path2636" points="31.73968 12.61867 28.95834 5.02134 28.95834 12.61867 27.16634 12.61867 27.16634 0.112 28.86501 0.112 31.62768 7.69067 31.62768 0.112 33.41967 0.112 33.41967 12.61867"></polygon>
                <polygon id="path2638" points="39.83075 10.82667 39.83075 12.61867 34.47342 12.61867 34.47342 0.112 39.83075 0.112 39.83075 1.75467 36.24675 1.75467 36.24675 5.45067 39.38275 5.45067 39.38275 7.14934 36.24675 7.14934 36.24675 10.82667"></polygon>
                <path d="M40.64831,12.61867 L40.64831,0.112 L43.78431,0.112 C44.6056433,0.112 45.29631,0.398223333 45.85631,0.97067 C46.4287567,1.54311667 46.71498,2.24622667 46.71498,3.08 L46.71498,4.23734 C46.71498,5.39467333 46.2234233,6.27822667 45.24031,6.888 L47.14431,12.61867 L45.24031,12.61867 L43.56031,7.26134 L42.44031,7.26134 L42.44031,12.61867 L40.64831,12.61867 Z M44.62431,5.28267 C44.73631,5.14578333 44.8109767,4.99022667 44.84831,4.816 C44.89811,4.64178 44.92301,4.44889333 44.92301,4.23734 L44.92301,3.08 C44.92301,2.69422667 44.81723,2.38311667 44.60567,2.14667 C44.3941167,1.89778333 44.09545,1.77334 43.70967,1.77334 L42.44034,1.77334 L42.44034,5.67467 L43.69101,5.67467 C44.0643433,5.67467 44.3754533,5.54400333 44.62434,5.28267 L44.62431,5.28267 Z" id="path2640"></path>
                <path d="M49.18385,9.50134 C49.18385,9.62578 49.18385,9.73155667 49.18385,9.81867 C49.18385,9.90578333 49.1900833,9.98045 49.20255,10.04267 C49.2274167,10.1671167 49.32075,10.34756 49.48255,10.584 C49.65677,10.8328933 49.96788,10.95734 50.41588,10.95734 C50.6647667,10.95734 50.89499,10.90756 51.10655,10.808 C51.3181033,10.696 51.4736567,10.55289 51.57321,10.37867 C51.6478767,10.2417833 51.6914333,10.1111167 51.70388,9.98667 C51.7287467,9.86222333 51.74118,9.75022333 51.74118,9.65067 L51.74118,9.48267 L51.74118,8.60534 L51.74118,8.43734 C51.74118,8.16356 51.6914033,7.95200333 51.59185,7.80267 C51.4922967,7.64089 51.2682967,7.46044667 50.91985,7.26134 C50.6834033,7.13689333 50.2602933,6.96267 49.65052,6.73867 C49.04074,6.51467 48.5305167,6.16000333 48.11985,5.67467 C47.7091833,5.18933667 47.50385,4.52978 47.50385,3.696 L47.50385,3.136 C47.50385,2.27733333 47.7900733,1.54311333 48.36252,0.93334 C48.9474067,0.311113333 49.65674,0 50.49052,0 C51.3616267,0 52.0834033,0.30489 52.65585,0.91467 C53.2407367,1.52445 53.53318,2.26489333 53.53318,3.136 L53.53318,3.696 L51.74118,3.696 L51.74118,3.136 C51.74118,3.04889333 51.7349467,2.96800667 51.72248,2.89334 C51.72248,2.81867333 51.7162467,2.75022667 51.70378,2.688 C51.6913133,2.6258 51.6602133,2.55113333 51.61048,2.464 C51.56068,2.37689333 51.4922333,2.27111667 51.40514,2.14667 C51.23092,1.89778333 50.9384767,1.77334 50.52781,1.77334 C50.1669233,1.77334 49.8682567,1.90400667 49.63181,2.16534 C49.40781,2.42667333 49.29581,2.75022667 49.29581,3.136 L49.29581,3.696 L49.29581,3.864 C49.29581,4.11289333 49.3331433,4.31200667 49.40781,4.46134 C49.4949233,4.59822667 49.6940333,4.75378 50.00514,4.928 C50.1047,4.9778 50.2540333,5.04624667 50.45314,5.13334 C50.6647,5.20800667 50.9198133,5.30134 51.21848,5.41334 C51.8158133,5.61244667 52.3509233,5.96711333 52.82381,6.47734 C53.2966967,6.98756 53.53318,7.65956 53.53318,8.49334 L53.53318,9.50134 C53.53318,9.93689333 53.4895867,10.3040033 53.40248,10.60267 C53.3278133,10.9013367 53.0727,11.3368933 52.63714,11.90934 C52.2015867,12.4568933 51.4735867,12.73067 50.45314,12.73067 C49.3704733,12.73067 48.5864733,12.3822267 48.10114,11.68534 C47.6158067,10.9760067 47.37314,10.2480067 47.37314,9.50134 L47.37314,9.05334 L49.18381,9.05334 L49.18385,9.50134 Z" id="path2642"></path>
                <polygon id="path2644" points="54.5761 12.61867 54.5761 0.112 56.34943 0.112 56.34943 5.45067 58.62676 5.45067 58.62676 0.112 60.4001 0.112 60.4001 12.61867 58.62676 12.61867 58.62676 7.03734 56.34943 7.03734 56.34943 12.61867"></polygon>
                <polygon id="path2646" points="62.16251 12.61867 62.16251 0.112 63.93584 0.112 63.93584 12.61867"></polygon>
                <path d="M65.43324,12.61867 L65.43324,0.112 L68.36391,0.112 L68.40121,0.112 C68.7745433,0.112 69.12921,0.19289 69.46521,0.35467 C69.80121,0.504003333 70.0998767,0.703113333 70.36121,0.952 C70.6225433,1.20089333 70.8278767,1.48711667 70.97721,1.81067 C71.13899,2.12178333 71.2261,2.44534 71.23854,2.78134 L71.23854,4.592 L71.23854,4.77867 C71.23854,5.18933667 71.1576533,5.57511333 70.99588,5.936 C70.8465467,6.28444667 70.6412133,6.58933667 70.37988,6.85067 C70.1185467,7.112 69.8074333,7.31733667 69.44654,7.46667 C69.0981,7.61600333 68.7247667,7.69067 68.32654,7.69067 L68.15854,7.69067 L67.22521,7.69067 L67.22521,12.61867 L65.43324,12.61867 Z M69.22257,5.63734 C69.33457,5.52534 69.4030167,5.40711667 69.42791,5.28267 C69.4652433,5.15822333 69.48391,5.00266667 69.48391,4.816 L69.48391,2.968 C69.48391,2.61956 69.37813,2.33334 69.16657,2.10934 C68.9550167,1.87289333 68.6687967,1.75467 68.30791,1.75467 L67.22524,1.75467 L67.22524,5.992 L68.15857,5.992 C68.4074633,5.992 68.6065767,5.97333333 68.75591,5.936 C68.9176833,5.8862 69.0732367,5.78664667 69.22257,5.63734 L69.22257,5.63734 Z" id="path2648"></path>
                <path d="M73.92109,9.50134 C73.92109,9.62578 73.92109,9.73155667 73.92109,9.81867 C73.92109,9.90578333 73.9273233,9.98045 73.93979,10.04267 C73.9646567,10.1671167 74.05799,10.34756 74.21979,10.584 C74.39401,10.8328933 74.70512,10.95734 75.15312,10.95734 C75.4020133,10.95734 75.6322367,10.90756 75.84379,10.808 C76.0553433,10.696 76.2109,10.55289 76.31046,10.37867 C76.3851267,10.2417833 76.42868,10.1111167 76.44112,9.98667 C76.4659867,9.86222333 76.47842,9.75022333 76.47842,9.65067 L76.47842,9.48267 L76.47842,8.60534 L76.47842,8.43734 C76.47842,8.16356 76.42864,7.95200333 76.32908,7.80267 C76.2295267,7.64089 76.0055267,7.46044667 75.65708,7.26134 C75.42064,7.13689333 74.99753,6.96267 74.38775,6.73867 C73.77797,6.51467 73.2677467,6.16000333 72.85708,5.67467 C72.4464133,5.18933667 72.24108,4.52978 72.24108,3.696 L72.24108,3.136 C72.24108,2.27733333 72.5273033,1.54311333 73.09975,0.93334 C73.6846367,0.311113333 74.39397,0 75.22775,0 C76.0988633,0 76.82064,0.30489 77.39308,0.91467 C77.9779733,1.52445 78.27042,2.26489333 78.27042,3.136 L78.27042,3.696 L76.47842,3.696 L76.47842,3.136 C76.47842,3.04889333 76.4721867,2.96800667 76.45972,2.89334 C76.45972,2.81867333 76.4534867,2.75022667 76.44102,2.688 C76.4285533,2.6258 76.3974533,2.55113333 76.34772,2.464 C76.29792,2.37689333 76.2294767,2.27111667 76.14239,2.14667 C75.9681633,1.89778333 75.6757167,1.77334 75.26505,1.77334 C74.9041633,1.77334 74.6054967,1.90400667 74.36905,2.16534 C74.14505,2.42667333 74.03305,2.75022667 74.03305,3.136 L74.03305,3.696 L74.03305,3.864 C74.03305,4.11289333 74.0703833,4.31200667 74.14505,4.46134 C74.2321633,4.59822667 74.4312767,4.75378 74.74239,4.928 C74.8419433,4.9778 74.9912767,5.04624667 75.19039,5.13334 C75.4019433,5.20800667 75.6570533,5.30134 75.95572,5.41334 C76.5530533,5.61244667 77.0881633,5.96711333 77.56105,6.47734 C78.0339433,6.98756 78.27042,7.65956 78.27042,8.49334 L78.27042,9.50134 C78.27042,9.93689333 78.2268333,10.3040033 78.13972,10.60267 C78.0650533,10.9013367 77.8099433,11.3368933 77.37439,11.90934 C76.93883,12.4568933 76.21083,12.73067 75.19039,12.73067 C74.1077233,12.73067 73.3237233,12.3822267 72.83839,11.68534 C72.3530567,10.9760067 72.11039,10.2480067 72.11039,9.50134 L72.11039,9.05334 L73.92105,9.05334 L73.92109,9.50134 Z" id="path2650"></path>
                <polygon id="path2652" points="0 29.86565 0 17.35898 5.33866 17.35898 5.33866 19.03898 1.77333 19.03898 1.77333 22.79098 4.89066 22.79098 4.89066 24.47098 1.77333 24.47098 1.77333 29.86565"></polygon>
                <path d="M6.22603,18.53498 C6.51225,18.13676 6.87314,17.82565 7.3087,17.60165 C7.7567,17.3652033 8.21714333,17.24698 8.69003,17.24698 C9.15047667,17.24698 9.57981,17.3403133 9.97803,17.52698 C10.3886967,17.7136467 10.73092,17.9687567 11.0047,18.29231 C11.2784733,18.61587 11.46514,18.95187 11.5647,19.30031 C11.6642533,19.63631 11.71403,20.0034233 11.71403,20.40165 L11.71403,26.76698 C11.71403,27.1403133 11.6766967,27.47009 11.60203,27.75631 C11.53983,28.0425367 11.3904967,28.35987 11.15403,28.70831 C10.93003,29.0567567 10.6002533,29.3554233 10.1647,29.60431 C9.74158667,29.8532033 9.26869667,29.97765 8.74603,29.97765 C8.44736333,29.97765 8.16114,29.9403167 7.88736,29.86565 C7.61358667,29.7785367 7.35847667,29.6665367 7.12203,29.52965 C6.88558333,29.3927567 6.67402667,29.2372 6.48736,29.06298 C6.31314,28.88876 6.17625333,28.7083167 6.0767,28.52165 C5.89003333,28.13587 5.77803333,27.8247567 5.7407,27.58831 C5.70336667,27.35187 5.6847,27.0780933 5.6847,26.76698 L5.6847,20.40165 C5.6847,20.0283167 5.72203333,19.6985367 5.7967,19.41231 C5.88380667,19.1136433 6.02691667,18.8212 6.22603,18.53498 L6.22603,18.53498 Z M9.69803,19.52431 C9.46158333,19.17587 9.13802667,19.00165 8.72736,19.00165 C8.51580667,19.00165 8.30425333,19.06387 8.0927,19.18831 C7.89358667,19.30031 7.75047333,19.4309767 7.66336,19.58031 C7.58869333,19.7296433 7.53891667,19.8789767 7.51403,20.02831 C7.48916333,20.1776433 7.47673,20.30209 7.47673,20.40165 L7.47673,26.76698 C7.47673,26.82918 7.47673,26.8976233 7.47673,26.97231 C7.47673,27.03451 7.48296333,27.1029567 7.49543,27.17765 C7.50789667,27.30209 7.60745333,27.5074233 7.7941,27.79365 C7.98076667,28.0549833 8.29187667,28.18565 8.72743,28.18565 C8.95143,28.18565 9.15054333,28.13587 9.32477,28.03631 C9.51143667,27.92431 9.64210333,27.7998667 9.71677,27.66298 C9.80387667,27.5136467 9.85987667,27.3767567 9.88477,27.25231 C9.90963667,27.12787 9.92207,26.9660933 9.92207,26.76698 L9.92207,20.40165 C9.92207,20.1527567 9.90963667,19.9785333 9.88477,19.87898 C9.87230333,19.7794267 9.81008,19.6612033 9.6981,19.52431 L9.69803,19.52431 Z" id="path2654"></path>
                <path d="M13.22059,29.86565 L13.22059,17.35898 L16.35659,17.35898 C17.1779233,17.35898 17.86859,17.6452033 18.42859,18.21765 C19.0010367,18.79009 19.28726,19.4932 19.28726,20.32698 L19.28726,21.48431 C19.28726,22.6416433 18.7957033,23.5252 17.81259,24.13498 L19.71659,29.86565 L17.81259,29.86565 L16.13259,24.50831 L15.01259,24.50831 L15.01259,29.86565 L13.22059,29.86565 Z M17.19659,22.52965 C17.30859,22.3927567 17.3832567,22.2372 17.42059,22.06298 C17.47039,21.88876 17.49529,21.69587 17.49529,21.48431 L17.49529,20.32698 C17.49529,19.9412 17.3895133,19.63009 17.17796,19.39365 C16.9664,19.1447567 16.6677333,19.02031 16.28196,19.02031 L15.01262,19.02031 L15.01262,22.92165 L16.26329,22.92165 C16.6366233,22.92165 16.9477333,22.7909833 17.19662,22.52965 L17.19659,22.52965 Z" id="path2656"></path>
                <polygon id="path2658" points="23.84177 29.86565 23.84177 19.02031 21.73243 19.02031 21.73243 17.35898 27.76177 17.35898 27.76177 19.02031 25.6151 19.02031 25.6151 29.86565"></polygon>
                <polygon id="path2660" points="28.46577 29.86565 28.46577 17.35898 30.2391 17.35898 30.2391 22.69765 32.51643 22.69765 32.51643 17.35898 34.28976 17.35898 34.28976 29.86565 32.51643 29.86565 32.51643 24.28431 30.2391 24.28431 30.2391 29.86565"></polygon>
                <polygon id="path2662" points="41.31991 28.07365 41.31991 29.86565 35.96257 29.86565 35.96257 17.35898 41.31991 17.35898 41.31991 19.00165 37.73591 19.00165 37.73591 22.69765 40.87191 22.69765 40.87191 24.39631 37.73591 24.39631 37.73591 28.07365"></polygon>
                <path d="M49.58044,28.55898 C49.29422,29.00698 48.92711,29.3554233 48.47911,29.60431 C48.03111,29.8532033 47.5395533,29.97765 47.00444,29.97765 C46.5315533,29.97765 46.07111,29.86565 45.62311,29.64165 C45.18755,29.41765 44.8453267,29.14387 44.59644,28.82031 C44.3599933,28.48431 44.1982167,28.14831 44.11111,27.81231 C44.0364433,27.47631 43.99911,27.0967567 43.99911,26.67365 L43.99911,20.42031 C43.99911,20.1092033 44.03021,19.7980933 44.09241,19.48698 C44.1795233,19.1758667 44.4097467,18.73409 44.78308,18.16165 C45.1688533,17.55187 45.9279633,17.24698 47.06041,17.24698 C47.55819,17.24698 48.0248567,17.3652033 48.46041,17.60165 C48.8959633,17.83809 49.22574,18.1305333 49.44974,18.47898 C49.6861867,18.81498 49.83552,19.1385367 49.89774,19.44965 C49.9724067,19.7483167 50.00974,20.07187 50.00974,20.42031 L50.00974,20.94298 L48.23641,20.94298 L48.23641,20.42031 C48.23641,20.3207567 48.2301767,20.2336467 48.21771,20.15898 C48.21771,20.0718667 48.2114767,19.9972 48.19901,19.93498 C48.1865433,19.82298 48.09321,19.6425367 47.91901,19.39365 C47.7447833,19.1447567 47.4523367,19.02031 47.04167,19.02031 C46.5563367,19.02031 46.2327833,19.1509767 46.07101,19.41231 C45.9216767,19.6736433 45.8345633,19.8665333 45.80967,19.99098 C45.7848033,20.1154267 45.77237,20.2585367 45.77237,20.42031 L45.77237,26.67365 C45.77237,26.79809 45.77237,26.9038667 45.77237,26.99098 C45.77237,27.0780933 45.7786033,27.15276 45.79107,27.21498 C45.8035367,27.3145333 45.89687,27.5074233 46.07107,27.79365 C46.2328433,28.0549833 46.5501767,28.18565 47.02307,28.18565 C47.5084033,28.18565 47.8195133,28.0549833 47.9564,27.79365 C48.0310667,27.6567567 48.0870667,27.5447567 48.1244,27.45765 C48.1617333,27.35809 48.1866333,27.2709767 48.1991,27.19631 C48.2239667,27.1216433 48.2364,27.0469767 48.2364,26.97231 C48.2364,26.8852033 48.2364,26.78565 48.2364,26.67365 L48.2364,24.48965 L46.79907,24.48965 L46.79907,22.92165 L50.00974,22.92165 L50.00974,26.67365 C50.00974,26.9349833 50.0034967,27.1589833 49.99103,27.34565 C49.9785633,27.51987 49.9536633,27.6754233 49.91633,27.81231 C49.8789967,27.9492033 49.82922,28.07987 49.767,28.20431 C49.7172,28.31631 49.6549767,28.4345333 49.58033,28.55898 L49.58044,28.55898 Z" id="path2664"></path>
                <path d="M52.01748,18.53498 C52.3037,18.13676 52.6645867,17.82565 53.10014,17.60165 C53.54814,17.3652033 54.0085867,17.24698 54.48148,17.24698 C54.94192,17.24698 55.3712533,17.3403133 55.76948,17.52698 C56.1801467,17.7136467 56.5223667,17.9687567 56.79614,18.29231 C57.06992,18.61587 57.2565867,18.95187 57.35614,19.30031 C57.4557,19.63631 57.50548,20.0034233 57.50548,20.40165 L57.50548,26.76698 C57.50548,27.1403133 57.4681467,27.47009 57.39348,27.75631 C57.33128,28.0425367 57.1819467,28.35987 56.94548,28.70831 C56.72148,29.0567567 56.3917,29.3554233 55.95614,29.60431 C55.5330333,29.8532033 55.0601467,29.97765 54.53748,29.97765 C54.2388133,29.97765 53.95259,29.9403167 53.67881,29.86565 C53.40503,29.7785367 53.14992,29.6665367 52.91348,29.52965 C52.6770333,29.3927567 52.4654767,29.2372 52.27881,29.06298 C52.10459,28.88876 51.9677,28.7083167 51.86814,28.52165 C51.6814733,28.13587 51.5694733,27.8247567 51.53214,27.58831 C51.4948067,27.35187 51.47614,27.0780933 51.47614,26.76698 L51.47614,20.40165 C51.47614,20.0283167 51.5134733,19.6985367 51.58814,19.41231 C51.6752533,19.1136433 51.8183667,18.8212 52.01748,18.53498 L52.01748,18.53498 Z M55.48948,19.52431 C55.2530333,19.17587 54.9294767,19.00165 54.51881,19.00165 C54.3072567,19.00165 54.0957,19.06387 53.88414,19.18831 C53.6850333,19.30031 53.5419233,19.4309767 53.45481,19.58031 C53.3801433,19.7296433 53.3303667,19.8789767 53.30548,20.02831 C53.2806133,20.1776433 53.26818,20.30209 53.26818,20.40165 L53.26818,26.76698 C53.26818,26.82918 53.26818,26.8976233 53.26818,26.97231 C53.26818,27.03451 53.2744133,27.1029567 53.28688,27.17765 C53.2993467,27.30209 53.3989033,27.5074233 53.58555,27.79365 C53.7722167,28.0549833 54.0833267,28.18565 54.51888,28.18565 C54.74288,28.18565 54.94199,28.13587 55.11621,28.03631 C55.3028767,27.92431 55.4335433,27.7998667 55.50821,27.66298 C55.5953233,27.5136467 55.6513233,27.3767567 55.67621,27.25231 C55.7010767,27.12787 55.71351,26.9660933 55.71351,26.76698 L55.71351,20.40165 C55.71351,20.1527567 55.7010767,19.9785333 55.67621,19.87898 C55.6637433,19.7794267 55.6015233,19.6612033 55.48955,19.52431 L55.48948,19.52431 Z" id="path2666"></path>
                <path d="M58.25792,29.86565 L61.05792,17.35898 L62.60725,17.35898 L65.40725,29.86565 L63.48458,29.86565 L62.98058,27.17765 L60.66592,27.17765 L60.14325,29.86565 L58.25792,29.86565 Z M60.98325,25.51631 L62.66325,25.51631 L61.82325,20.96165 L60.98325,25.51631 Z" id="path2668"></path>
                <polygon id="path2670" points="71.58702 29.86565 66.24835 29.86565 66.24835 17.35898 68.04035 17.35898 68.04035 28.07365 71.58702 28.07365"></polygon>
                <path d="M73.45691,26.74831 C73.45691,26.8727567 73.45691,26.9785367 73.45691,27.06565 C73.45691,27.1527567 73.4631433,27.2274233 73.47561,27.28965 C73.5004767,27.41409 73.59381,27.5945333 73.75561,27.83098 C73.9298367,28.0798667 74.24095,28.20431 74.68895,28.20431 C74.9378367,28.20431 75.1680567,28.1545333 75.37961,28.05498 C75.59117,27.94298 75.7467267,27.79987 75.84628,27.62565 C75.9209467,27.4887567 75.9645033,27.35809 75.97695,27.23365 C76.0018167,27.1092033 76.01425,26.9972033 76.01425,26.89765 L76.01425,26.72965 L76.01425,25.85231 L76.01425,25.68431 C76.01425,25.4105367 75.9644733,25.1989833 75.86492,25.04965 C75.76536,24.88787 75.54136,24.7074233 75.19292,24.50831 C74.9564733,24.38387 74.53336,24.20965 73.92358,23.98565 C73.3138067,23.76165 72.8035867,23.4069833 72.39292,22.92165 C71.9822533,22.4363167 71.77692,21.77676 71.77692,20.94298 L71.77692,20.38298 C71.77692,19.5243133 72.06314,18.79009 72.63558,18.18031 C73.2204733,17.55809 73.9298067,17.24698 74.76358,17.24698 C75.6346933,17.24698 76.3564733,17.55187 76.92892,18.16165 C77.5138067,18.7714233 77.80625,19.5118667 77.80625,20.38298 L77.80625,20.94298 L76.01425,20.94298 L76.01425,20.38298 C76.01425,20.2958667 76.0080167,20.2149767 75.99555,20.14031 C75.99555,20.0656433 75.9893167,19.9972 75.97685,19.93498 C75.9643833,19.87278 75.9332833,19.7981133 75.88355,19.71098 C75.83375,19.6238667 75.7653067,19.51809 75.67822,19.39365 C75.504,19.1447567 75.2115567,19.02031 74.80089,19.02031 C74.4399967,19.02031 74.14133,19.1509767 73.90489,19.41231 C73.68089,19.6736433 73.56889,19.9972 73.56889,20.38298 L73.56889,20.94298 L73.56889,21.11098 C73.56889,21.3598667 73.6062233,21.5589767 73.68089,21.70831 C73.7679967,21.8452033 73.9671067,22.00076 74.27822,22.17498 C74.3777733,22.22478 74.5271067,22.2932233 74.72622,22.38031 C74.9377733,22.4549767 75.1928833,22.54831 75.49155,22.66031 C76.0888833,22.8594233 76.6239967,23.21409 77.09689,23.72431 C77.5697767,24.2345367 77.80625,24.9065367 77.80625,25.74031 L77.80625,26.74831 C77.80625,27.18387 77.7626633,27.5509833 77.67555,27.84965 C77.6008833,28.1483167 77.3457733,28.58387 76.91022,29.15631 C76.4746667,29.70387 75.7466667,29.97765 74.72622,29.97765 C73.6435533,29.97765 72.8595533,29.6292033 72.37422,28.93231 C71.8888867,28.2229767 71.64622,27.4949767 71.64622,26.74831 L71.64622,26.30031 L73.45689,26.30031 L73.45691,26.74831 Z" id="path2672"></path>
            </g>
            <g id="text6075-0-6-9-2-5-9-1-4-7-6-6" transform="translate(13.357570, 13.016260)" fill="#FFFFFF" fill-rule="nonzero">
                <polygon id="path2675" points="4.288 29.92667 4.288 4.46667 0 7.68267 0 3.12667 4.288 0 8.53133 0 8.53133 29.92667"></polygon>
                <polygon id="path2677" points="14.97415 7.504 11.17748 7.504 11.17748 0 23.95215 0 23.95215 3.886 16.98415 29.92667 12.42815 29.92667 19.70881 3.97534 14.97415 3.97534"></polygon>
            </g>
            <path d="M74.86305,90.45202 C74.86305,95.0462249 73.03801,99.4522632 69.7894166,102.700857 C66.5408232,105.94945 62.1347849,107.77449 57.54058,107.77449 C47.9736474,107.77449 40.21812,100.018953 40.21812,90.45202 C40.21812,80.8850913 47.9736513,73.12956 57.54058,73.12956 C67.1075126,73.12956 74.86305,80.8850874 74.86305,90.45202 Z" id="path8491" stroke="#FFFFFF" stroke-width="4" stroke-linecap="round" stroke-linejoin="round"></path>
            <path d="M92.4192,77.66211 C92.4192,87.2290387 84.6636687,94.98457 75.09674,94.98457 C65.5298074,94.98457 57.77427,87.2290426 57.77427,77.66211 C57.77427,73.0679051 59.59931,68.6618668 62.8479034,65.4132734 C66.0964968,62.16468 70.5025351,60.33964 75.09674,60.33964 C84.6636726,60.33964 92.4192,68.0951774 92.4192,77.66211 L92.4192,77.66211 Z" id="path8491-5" stroke="#FFFFFF" stroke-width="4" stroke-linecap="round" stroke-linejoin="round"></path>
            <path d="M103.10908,110.84533 C103.10908,120.412263 95.3535526,128.1678 85.78662,128.1678 C81.1924151,128.1678 76.7863768,126.34276 73.5377834,123.094167 C70.28919,119.845573 68.46415,115.439535 68.46415,110.84533 C68.46415,101.278397 76.2196874,93.52287 85.78662,93.52287 C95.3535487,93.52287 103.10908,101.278401 103.10908,110.84533 L103.10908,110.84533 Z" id="path8491-6" stroke="#FFFFFF" stroke-width="4" stroke-linecap="round" stroke-linejoin="round"></path>
            <path d="M109.7903,90.24493 C109.7903,94.8391349 107.96526,99.2451732 104.716667,102.493767 C101.468073,105.74236 97.0620349,107.5674 92.46783,107.5674 C87.8736251,107.5674 83.4675868,105.74236 80.2189934,102.493767 C76.9704,99.2451732 75.14536,94.8391349 75.14536,90.24493 C75.14536,85.6507251 76.9704,81.2446868 80.2189934,77.9960934 C83.4675868,74.7475 87.8736251,72.92246 92.46783,72.92246 C97.0620349,72.92246 101.468073,74.7475 104.716667,77.9960934 C107.96526,81.2446868 109.7903,85.6507251 109.7903,90.24493 L109.7903,90.24493 Z" id="path8491-0" stroke="#FFFFFF" stroke-width="4" stroke-linecap="round" stroke-linejoin="round"></path>
            <path d="M81.50661,110.95666 C81.50661,115.550865 79.68157,119.956903 76.4329766,123.205497 C73.1843832,126.45409 68.7783449,128.27913 64.18414,128.27913 C59.5899351,128.27913 55.1838968,126.45409 51.9353034,123.205497 C48.68671,119.956903 46.86167,115.550865 46.86167,110.95666 C46.86167,106.362455 48.68671,101.956417 51.9353034,98.7078234 C55.1838968,95.45923 59.5899351,93.63419 64.18414,93.63419 C68.7783449,93.63419 73.1843832,95.45923 76.4329766,98.7078234 C79.68157,101.956417 81.50661,106.362455 81.50661,110.95666 L81.50661,110.95666 Z" id="path8491-52" stroke="#FFFFFF" stroke-width="4" stroke-linecap="round" stroke-linejoin="round"></path>
        </g>
    </g>
</svg>