<?xml version="1.0" encoding="UTF-8"?>
<svg width="150px" height="150px" viewBox="0 0 150 150" version="1.1" xmlns="http://www.w3.org/2000/svg" xmlns:xlink="http://www.w3.org/1999/xlink">
    <title>2-zero-hunger</title>
    <g id="SDGs" stroke="none" stroke-width="1" fill="none" fill-rule="evenodd">
        <g id="2-zero-hunger" transform="translate(0.973653, 0.989540)">
            <path d="M0.82676,0 L147.26601,0 C147.72403,0 148.09276,0.36873 148.09276,0.82675 L148.09276,147.50782 C148.09276,147.96584 147.72403,148.33457 147.26601,148.33457 L0.82676,148.33457 C0.36873,148.33457 0,147.96584 0,147.50782 L0,0.82675 C0,0.36873 0.36873,0 0.82676,0 Z" id="rect8528" fill="#D3A029"></path>
            <g id="text6065-3" transform="translate(42.768650, 13.133330)" fill="#FFFFFF" fill-rule="nonzero">
                <polygon id="path1897" points="0 12.61866 0 11.01333 3.36 1.77333 0.24266 1.77333 0.24266 0.112 5.35733 0.112 5.35733 1.54933 2.016 10.82666 5.35733 10.82666 5.35733 12.61866"></polygon>
                <polygon id="path1899" points="12.22025 10.82666 12.22025 12.61866 6.86291 12.61866 6.86291 0.112 12.22025 0.112 12.22025 1.75466 8.63625 1.75466 8.63625 5.45066 11.77225 5.45066 11.77225 7.14933 8.63625 7.14933 8.63625 10.82666"></polygon>
                <path d="M13.13752,12.61866 L13.13752,0.112 L16.27352,0.112 C17.0948533,0.112 17.78552,0.39822 18.34552,0.97066 C18.9179667,1.54310667 19.20419,2.24622 19.20419,3.08 L19.20419,4.23733 C19.20419,5.39466333 18.7126333,6.27822 17.72952,6.888 L19.63352,12.61866 L17.72952,12.61866 L16.04952,7.26133 L14.92952,7.26133 L14.92952,12.61866 L13.13752,12.61866 Z M17.11352,5.28266 C17.22552,5.14577333 17.3001867,4.99022 17.33752,4.816 C17.38732,4.64177333 17.41222,4.44888333 17.41222,4.23733 L17.41222,3.08 C17.41222,2.69422 17.30644,2.38310667 17.09488,2.14666 C16.8833267,1.89777333 16.58466,1.77333 16.19888,1.77333 L14.92955,1.77333 L14.92955,5.67466 L16.18022,5.67466 C16.5535533,5.67466 16.8646633,5.54399333 17.11355,5.28266 L17.11352,5.28266 Z" id="path1901"></path>
                <path d="M20.80131,1.288 C21.08753,0.889773333 21.44842,0.57866 21.88398,0.35466 C22.33198,0.11822 22.7924233,2.84217094e-14 23.26531,2.84217094e-14 C23.7257567,2.84217094e-14 24.15509,0.0933333333 24.55331,0.28 C24.9639767,0.466666667 25.3062,0.721776667 25.57998,1.04533 C25.8537533,1.36888333 26.04042,1.70488333 26.13998,2.05333 C26.2395333,2.38933 26.28931,2.75644 26.28931,3.15466 L26.28931,9.52 C26.28931,9.89333333 26.2519767,10.22311 26.17731,10.50933 C26.11511,10.79555 25.9657767,11.1128833 25.72931,11.46133 C25.50531,11.8097767 25.1755333,12.1084433 24.73998,12.35733 C24.3168667,12.6062167 23.8439767,12.73066 23.32131,12.73066 C23.0226433,12.73066 22.73642,12.6933267 22.46264,12.61866 C22.1888667,12.5315533 21.9337567,12.4195533 21.69731,12.28266 C21.4608633,12.1457733 21.2493067,11.99022 21.06264,11.816 C20.88842,11.6417733 20.7515333,11.4613267 20.65198,11.27466 C20.4653133,10.8888867 20.3533133,10.5777767 20.31598,10.34133 C20.2786467,10.1048833 20.25998,9.83110667 20.25998,9.52 L20.25998,3.15466 C20.25998,2.78132667 20.2973133,2.45155 20.37198,2.16533 C20.4590867,1.86666333 20.6021967,1.57422 20.80131,1.288 L20.80131,1.288 Z M24.27331,2.27733 C24.0368633,1.92888333 23.7133067,1.75466 23.30264,1.75466 C23.0910867,1.75466 22.8795333,1.81688333 22.66798,1.94133 C22.4688667,2.05333 22.3257533,2.18399667 22.23864,2.33333 C22.1639733,2.48266333 22.1141967,2.63199667 22.08931,2.78133 C22.0644433,2.93066333 22.05201,3.05510667 22.05201,3.15466 L22.05201,9.52 C22.05201,9.5822 22.05201,9.65064333 22.05201,9.72533 C22.05201,9.78753 22.0582433,9.85597333 22.07071,9.93066 C22.0831767,10.0551067 22.1827333,10.26044 22.36938,10.54666 C22.5560467,10.8079933 22.8671567,10.93866 23.30271,10.93866 C23.52671,10.93866 23.7258233,10.8888833 23.90005,10.78933 C24.0867167,10.67733 24.2173833,10.5528867 24.29205,10.416 C24.3791567,10.2666667 24.4351567,10.1297767 24.46005,10.00533 C24.4849167,9.88088333 24.49735,9.71910667 24.49735,9.52 L24.49735,3.15466 C24.49735,2.90577333 24.4849167,2.73155333 24.46005,2.632 C24.4475833,2.53244 24.38536,2.41421667 24.27338,2.27733 L24.27331,2.27733 Z" id="path1903"></path>
                <polygon id="path1905" points="0.37333 29.86564 0.37333 17.35897 2.14666 17.35897 2.14666 22.69764 4.424 22.69764 4.424 17.35897 6.19733 17.35897 6.19733 29.86564 4.424 29.86564 4.424 24.28431 2.14666 24.28431 2.14666 29.86564"></polygon>
                <path d="M13.55229,28.55897 C13.27851,28.9820833 12.9238433,29.3243067 12.48829,29.58564 C12.0651767,29.8469733 11.5922867,29.97764 11.06962,29.97764 C10.8082867,29.97764 10.5469533,29.9403067 10.28562,29.86564 C10.0367333,29.7909733 9.80029,29.69764 9.57629,29.58564 C9.35229,29.4611933 9.15317667,29.3243033 8.97895,29.17497 C8.80473,29.0131967 8.67406333,28.8451967 8.58695,28.67097 C8.40028333,28.32253 8.27584,28.0176433 8.21362,27.75631 C8.16382,27.4949767 8.13892,27.2149767 8.13892,26.91631 L8.13892,17.35897 L9.93092,17.35897 L9.93092,26.91631 C9.93092,27.0034167 9.93092,27.0843033 9.93092,27.15897 C9.94338667,27.22117 9.95582,27.2833933 9.96822,27.34564 C9.98068667,27.4451933 10.07402,27.6194167 10.24822,27.86831 C10.4099933,28.09231 10.6899933,28.20431 11.08822,28.20431 C11.4491067,28.20431 11.71666,28.0736433 11.89088,27.81231 C12.0775467,27.53853 12.17088,27.2398633 12.17088,26.91631 L12.17088,17.35897 L13.96288,17.35897 L13.96288,26.91631 C13.96288,27.2149767 13.93178,27.5011967 13.86958,27.77497 C13.80738,28.04875 13.7016033,28.3100833 13.55225,28.55897 L13.55229,28.55897 Z" id="path1907"></path>
                <polygon id="path1909" points="19.66405 29.86564 16.88272 22.26831 16.88272 29.86564 15.09072 29.86564 15.09072 17.35897 16.78939 17.35897 19.55205 24.93764 19.55205 17.35897 21.34405 17.35897 21.34405 29.86564"></polygon>
                <path d="M28.2498,28.55897 C27.96358,29.00697 27.59647,29.3554167 27.14847,29.60431 C26.70047,29.8531967 26.2089133,29.97764 25.6738,29.97764 C25.2009133,29.97764 24.74047,29.86564 24.29247,29.64164 C23.8569167,29.41764 23.5146933,29.1438633 23.2658,28.82031 C23.02936,28.48431 22.8675833,28.14831 22.78047,27.81231 C22.7058033,27.47631 22.66847,27.0967533 22.66847,26.67364 L22.66847,20.42031 C22.66847,20.1091967 22.69957,19.7980833 22.76177,19.48697 C22.8488833,19.1758633 23.0791067,18.7340867 23.45244,18.16164 C23.83822,17.55186 24.59733,17.24697 25.72977,17.24697 C26.22755,17.24697 26.6942167,17.3651933 27.12977,17.60164 C27.56533,17.8380867 27.89511,18.13053 28.11911,18.47897 C28.35555,18.81497 28.5048833,19.1385267 28.56711,19.44964 C28.6417767,19.7483067 28.67911,20.0718633 28.67911,20.42031 L28.67911,20.94297 L26.90577,20.94297 L26.90577,20.42031 C26.90577,20.32075 26.8995367,20.2336367 26.88707,20.15897 C26.88707,20.0718633 26.8808367,19.9971967 26.86837,19.93497 C26.8559033,19.82297 26.76257,19.6425267 26.58837,19.39364 C26.41415,19.1447533 26.1217067,19.02031 25.71104,19.02031 C25.2257067,19.02031 24.90215,19.1509767 24.74037,19.41231 C24.5910367,19.6736433 24.5039267,19.86653 24.47904,19.99097 C24.4541733,20.1154167 24.44174,20.25853 24.44174,20.42031 L24.44174,26.67364 C24.44174,26.7980867 24.44174,26.9038633 24.44174,26.99097 C24.44174,27.0780833 24.4479733,27.15275 24.46044,27.21497 C24.4729067,27.31453 24.56624,27.50742 24.74044,27.79364 C24.90222,28.0549733 25.2195533,28.18564 25.69244,28.18564 C26.1777733,28.18564 26.4888833,28.0549733 26.62577,27.79364 C26.7004367,27.6567533 26.7564367,27.5447533 26.79377,27.45764 C26.8311033,27.3580867 26.8560033,27.2709767 26.86847,27.19631 C26.8933367,27.1216433 26.90577,27.0469767 26.90577,26.97231 C26.90577,26.8851967 26.90577,26.78564 26.90577,26.67364 L26.90577,24.48964 L25.46844,24.48964 L25.46844,22.92164 L28.67911,22.92164 L28.67911,26.67364 C28.67911,26.9349733 28.6728767,27.1589733 28.66041,27.34564 C28.6479433,27.51986 28.6230433,27.6754167 28.58571,27.81231 C28.5483767,27.9491967 28.4986,28.0798633 28.43638,28.20431 C28.38658,28.31631 28.3243567,28.43453 28.24971,28.55897 L28.2498,28.55897 Z" id="path1911"></path>
                <polygon id="path1913" points="35.38868 28.07364 35.38868 29.86564 30.03135 29.86564 30.03135 17.35897 35.38868 17.35897 35.38868 19.00164 31.80468 19.00164 31.80468 22.69764 34.94068 22.69764 34.94068 24.39631 31.80468 24.39631 31.80468 28.07364"></polygon>
                <path d="M36.16461,29.86564 L36.16461,17.35897 L39.30061,17.35897 C40.1219433,17.35897 40.81261,17.6451933 41.37261,18.21764 C41.9450567,18.7900867 42.23128,19.4931967 42.23128,20.32697 L42.23128,21.48431 C42.23128,22.6416433 41.7397233,23.5251967 40.75661,24.13497 L42.66061,29.86564 L40.75661,29.86564 L39.07661,24.50831 L37.95661,24.50831 L37.95661,29.86564 L36.16461,29.86564 Z M40.14061,22.52964 C40.25261,22.3927533 40.3272767,22.2371967 40.36461,22.06297 C40.41441,21.88875 40.43931,21.6958633 40.43931,21.48431 L40.43931,20.32697 C40.43931,19.9411967 40.33353,19.6300867 40.12197,19.39364 C39.9104167,19.1447533 39.61175,19.02031 39.22597,19.02031 L37.95664,19.02031 L37.95664,22.92164 L39.20731,22.92164 C39.5806433,22.92164 39.8917533,22.7909733 40.14064,22.52964 L40.14061,22.52964 Z" id="path1915"></path>
            </g>
            <g id="text6075-0" transform="translate(15.705540, 12.234940)" fill="#FFFFFF" fill-rule="nonzero">
                <path d="M12.81933,30.19467 L0.08933,30.19467 L0.08933,26.264 L8.04,10.80933 C8.39733333,10.0946633 8.576,9.36511 8.576,8.62067 L8.576,6.38733 C8.576,5.79177667 8.36755333,5.28555667 7.95066,4.86867 C7.53377333,4.42200333 7.02755333,4.19867 6.432,4.19867 C5.896,4.19867 5.40466667,4.39222333 4.958,4.77933 C4.54110667,5.16644333 4.33266,5.64289 4.33266,6.20867 L4.33266,8.844 L0,8.844 L0,6.7 C0,5.53866667 0.431776667,4.12422333 1.29533,2.45667 C2.18866333,0.81889 3.97533,0 6.65533,0 C8.35266333,0 9.79688667,0.640223333 10.988,1.92067 C12.2088867,3.23089 12.81933,4.71977667 12.81933,6.38733 L12.81933,9.112 C12.81933,10.3328867 12.4917733,11.5537767 11.83666,12.77467 L5.13666,25.95133 L12.81933,25.95133 L12.81933,30.19467 Z" id="path1918"></path>
            </g>
            <path d="M83.54574,129.20612 C84.71981,129.20612 84.92921,127.92788 84.87151,127.10048 C84.80131,126.09491 85.76844,125.93538 86.27527,125.77471 C91.99096,123.96278 97.98667,120.48642 102.73045,115.48048 C107.27813,110.68147 110.8669,105.70137 112.16683,97.38759 C112.32429,96.38052 111.75673,95.5939 110.76307,95.5939 L33.42566,95.5939 C32.432,95.5939 31.86444,96.38052 32.0219,97.38759 C33.32183,105.70137 36.9106,110.68147 41.45828,115.48048 C46.20205,120.48642 52.19776,123.96278 57.91345,125.77471 C58.42028,125.93538 59.3874,126.09491 59.31721,127.10048 C59.25951,127.92788 59.46891,129.20612 60.64298,129.20612 L83.54574,129.20612 Z M57.17399,92.19553 L62.30246,92.19553 C62.30246,92.19553 64.65298,85.62694 59.04892,80.00852 C57.25599,78.211 56.11976,75.51662 56.11976,72.97778 C56.11976,68.14885 58.28679,65.35255 58.92727,64.32127 C60.57829,61.66286 56.64344,59.79294 54.94996,61.8257 C52.33423,64.96548 50.81667,69.28113 50.81667,73.36772 C50.81667,77.97314 53.05271,80.31176 55.33989,83.03805 C59.58748,88.10112 57.17399,92.19553 57.17399,92.19553 L57.17399,92.19553 Z M88.05668,92.19553 L93.18515,92.19553 C93.18515,92.19553 95.53567,85.62694 89.93161,80.00852 C88.13868,78.211 87.00245,75.51662 87.00245,72.97778 C87.00245,68.14885 89.16948,65.35255 89.80996,64.32127 C91.46098,61.66286 87.52613,59.79294 85.83265,61.8257 C83.21692,64.96548 81.69936,69.28113 81.69936,73.36772 C81.69936,77.97314 83.9354,80.31176 86.22258,83.03805 C90.47017,88.10112 88.05668,92.19553 88.05668,92.19553 L88.05668,92.19553 Z M72.69332,92.19553 L77.82179,92.19553 C77.82179,92.19553 80.17231,85.62694 74.56825,80.00852 C72.77532,78.211 71.63909,75.51662 71.63909,72.97778 C71.63909,68.14885 73.80612,65.35255 74.4466,64.32127 C76.09762,61.66286 72.16277,59.79294 70.46929,61.8257 C67.85356,64.96548 66.336,69.28113 66.336,73.36772 C66.336,77.97314 68.57204,80.31176 70.85922,83.03805 C75.10681,88.10112 72.69332,92.19553 72.69332,92.19553 L72.69332,92.19553 Z" id="path6925" fill="#FFFFFF"></path>
        </g>
    </g>
</svg>