<?xml version="1.0" encoding="UTF-8"?>
<svg width="150px" height="150px" viewBox="0 0 150 150" version="1.1" xmlns="http://www.w3.org/2000/svg" xmlns:xlink="http://www.w3.org/1999/xlink">
    <title>3-good-health-and-well-being</title>
    <g id="SDGs" stroke="none" stroke-width="1" fill="none" fill-rule="evenodd">
        <g id="3-good-health-and-well-being" transform="translate(0.947273, 0.989540)">
            <path d="M0.82675,0 L147.266,0 C147.72403,0 148.09276,0.36873 148.09276,0.82675 L148.09276,147.50782 C148.09276,147.96584 147.72403,148.33457 147.266,148.33457 L0.82675,148.33457 C0.36873,148.33457 0,147.96584 0,147.50782 L0,0.82675 C0,0.36873 0.36873,0 0.82675,0 Z" id="rect8528-6" fill="#279B48"></path>
            <g id="text6065-3-2" transform="translate(42.927880, 13.133330)" fill="#FFFFFF" fill-rule="nonzero">
                <path d="M6.40266,11.312 C6.11644,11.76 5.74933,12.1084433 5.30133,12.35733 C4.85333,12.6062167 4.36177333,12.73066 3.82666,12.73066 C3.35377333,12.73066 2.89333,12.61866 2.44533,12.39466 C2.00977667,12.17066 1.66755333,11.8968833 1.41866,11.57333 C1.18222,11.23733 1.02044333,10.90133 0.93333,10.56533 C0.858663333,10.22933 0.82133,9.84977333 0.82133,9.42666 L0.82133,3.17333 C0.82133,2.86221667 0.85243,2.55110667 0.91463,2.24 C1.00174333,1.92888667 1.23196667,1.48710667 1.6053,0.91466 C1.99108,0.304886667 2.75019,0 3.88263,0 C4.38041,0 4.84707667,0.11822 5.28263,0.35466 C5.71819,0.591106667 6.04797,0.883553333 6.27197,1.232 C6.50841,1.568 6.65774333,1.89155333 6.71997,2.20266 C6.79463667,2.50132667 6.83197,2.82488333 6.83197,3.17333 L6.83197,3.696 L5.05863,3.696 L5.05863,3.17333 C5.05863,3.07377667 5.05239667,2.98666667 5.03993,2.912 C5.03993,2.82488667 5.03369667,2.75022 5.02123,2.688 C5.00876333,2.576 4.91543,2.39555333 4.74123,2.14666 C4.56701,1.89777333 4.27456667,1.77333 3.8639,1.77333 C3.37856667,1.77333 3.05501,1.90399667 2.89323,2.16533 C2.74389667,2.42666333 2.65678667,2.61955333 2.6319,2.744 C2.60703333,2.86844 2.5946,3.01155 2.5946,3.17333 L2.5946,9.42666 C2.5946,9.55110667 2.5946,9.65688667 2.5946,9.744 C2.5946,9.83110667 2.60083333,9.90577333 2.6133,9.968 C2.62576667,10.0675533 2.7191,10.26044 2.8933,10.54666 C3.05508,10.8079933 3.37241333,10.93866 3.8453,10.93866 C4.33063333,10.93866 4.64174333,10.8079933 4.77863,10.54666 C4.85329667,10.4097733 4.90929667,10.2977733 4.94663,10.21066 C4.98396333,10.1111067 5.00886333,10.0239967 5.02133,9.94933 C5.04619667,9.87466333 5.05863,9.79999667 5.05863,9.72533 C5.05863,9.63821667 5.05863,9.53866 5.05863,9.42666 L5.05863,7.24266 L3.6213,7.24266 L3.6213,5.67466 L6.83197,5.67466 L6.83197,9.42666 C6.83197,9.68799333 6.82573667,9.91199333 6.81327,10.09866 C6.80080333,10.2728867 6.77590333,10.4284433 6.73857,10.56533 C6.70123667,10.7022167 6.65146,10.8328833 6.58924,10.95733 C6.53944,11.06933 6.47721667,11.1875533 6.40257,11.312 L6.40266,11.312 Z" id="path1921"></path>
                <path d="M8.80689,1.288 C9.09311667,0.889773333 9.45400667,0.57866 9.88956,0.35466 C10.33756,0.11822 10.7980033,2.84217094e-14 11.27089,2.84217094e-14 C11.7313367,2.84217094e-14 12.16067,0.0933333333 12.55889,0.28 C12.9695567,0.466666667 13.31178,0.721776667 13.58556,1.04533 C13.85934,1.36888333 14.0460067,1.70488333 14.14556,2.05333 C14.2451133,2.38933 14.29489,2.75644 14.29489,3.15466 L14.29489,9.52 C14.29489,9.89333333 14.2575567,10.22311 14.18289,10.50933 C14.12069,10.79555 13.9713567,11.1128833 13.73489,11.46133 C13.51089,11.8097767 13.1811133,12.1084433 12.74556,12.35733 C12.3224467,12.6062167 11.8495567,12.73066 11.32689,12.73066 C11.0282233,12.73066 10.7420033,12.6933267 10.46823,12.61866 C10.19445,12.5315533 9.93933667,12.4195533 9.70289,12.28266 C9.46645,12.1457733 9.25489667,11.99022 9.06823,11.816 C8.89400333,11.6417733 8.75711333,11.4613267 8.65756,11.27466 C8.47089333,10.8888867 8.35889333,10.5777767 8.32156,10.34133 C8.28422667,10.1048833 8.26556,9.83110667 8.26556,9.52 L8.26556,3.15466 C8.26556,2.78132667 8.30289333,2.45155 8.37756,2.16533 C8.46467333,1.86666333 8.60778333,1.57422 8.80689,1.288 L8.80689,1.288 Z M12.27889,2.27733 C12.04245,1.92888333 11.7188967,1.75466 11.30823,1.75466 C11.09667,1.75466 10.8851133,1.81688333 10.67356,1.94133 C10.4744467,2.05333 10.3313367,2.18399667 10.24423,2.33333 C10.1695633,2.48266333 10.1197833,2.63199667 10.09489,2.78133 C10.0700233,2.93066333 10.05759,3.05510667 10.05759,3.15466 L10.05759,9.52 C10.05759,9.5822 10.05759,9.65064333 10.05759,9.72533 C10.05759,9.78753 10.0638233,9.85597333 10.07629,9.93066 C10.0887567,10.0551067 10.18831,10.26044 10.37495,10.54666 C10.5616167,10.8079933 10.87273,10.93866 11.30829,10.93866 C11.53229,10.93866 11.7314,10.8888833 11.90562,10.78933 C12.0922867,10.67733 12.2229533,10.5528867 12.29762,10.416 C12.3847333,10.2666667 12.4407333,10.1297767 12.46562,10.00533 C12.4904867,9.88088333 12.50292,9.71910667 12.50292,9.52 L12.50292,3.15466 C12.50292,2.90577333 12.4904867,2.73155333 12.46562,2.632 C12.4531533,2.53244 12.39093,2.41421667 12.27895,2.27733 L12.27889,2.27733 Z" id="path1923"></path>
                <path d="M16.35826,1.288 C16.64448,0.889773333 17.0053667,0.57866 17.44092,0.35466 C17.88892,0.11822 18.3493667,2.84217094e-14 18.82226,2.84217094e-14 C19.2827,2.84217094e-14 19.7120333,0.0933333333 20.11026,0.28 C20.5209267,0.466666667 20.8631467,0.721776667 21.13692,1.04533 C21.4107,1.36888333 21.5973667,1.70488333 21.69692,2.05333 C21.79648,2.38933 21.84626,2.75644 21.84626,3.15466 L21.84626,9.52 C21.84626,9.89333333 21.8089267,10.22311 21.73426,10.50933 C21.67206,10.79555 21.5227267,11.1128833 21.28626,11.46133 C21.06226,11.8097767 20.73248,12.1084433 20.29692,12.35733 C19.8738133,12.6062167 19.4009267,12.73066 18.87826,12.73066 C18.5795933,12.73066 18.29337,12.6933267 18.01959,12.61866 C17.74581,12.5315533 17.4907,12.4195533 17.25426,12.28266 C17.0178133,12.1457733 16.8062567,11.99022 16.61959,11.816 C16.44537,11.6417733 16.30848,11.4613267 16.20892,11.27466 C16.0222533,10.8888867 15.9102533,10.5777767 15.87292,10.34133 C15.8355867,10.1048833 15.81692,9.83110667 15.81692,9.52 L15.81692,3.15466 C15.81692,2.78132667 15.8542533,2.45155 15.92892,2.16533 C16.0160333,1.86666333 16.1591467,1.57422 16.35826,1.288 L16.35826,1.288 Z M19.83026,2.27733 C19.5938133,1.92888333 19.2702567,1.75466 18.85959,1.75466 C18.6480367,1.75466 18.43648,1.81688333 18.22492,1.94133 C18.0258133,2.05333 17.8827033,2.18399667 17.79559,2.33333 C17.7209233,2.48266333 17.6711467,2.63199667 17.64626,2.78133 C17.6213933,2.93066333 17.60896,3.05510667 17.60896,3.15466 L17.60896,9.52 C17.60896,9.5822 17.60896,9.65064333 17.60896,9.72533 C17.60896,9.78753 17.6151933,9.85597333 17.62766,9.93066 C17.6401267,10.0551067 17.7396833,10.26044 17.92633,10.54666 C18.1129967,10.8079933 18.4241067,10.93866 18.85966,10.93866 C19.08366,10.93866 19.28277,10.8888833 19.45699,10.78933 C19.6436567,10.67733 19.7743233,10.5528867 19.84899,10.416 C19.9361033,10.2666667 19.9921033,10.1297767 20.01699,10.00533 C20.0418567,9.88088333 20.05429,9.71910667 20.05429,9.52 L20.05429,3.15466 C20.05429,2.90577333 20.0418567,2.73155333 20.01699,2.632 C20.0045233,2.53244 19.9423033,2.41421667 19.83033,2.27733 L19.83026,2.27733 Z" id="path1925"></path>
                <path d="M26.33629,0.112 C27.1451767,0.112 27.8358433,0.39822 28.40829,0.97066 C28.9931767,1.53066 29.28562,2.21510667 29.28562,3.024 L29.28562,9.52 C29.28562,10.4408867 29.00562,11.1875533 28.44562,11.76 C27.88562,12.33244 27.1638433,12.61866 26.28029,12.61866 L23.49895,12.61866 L23.49895,0.112 L26.33629,0.112 Z M27.51229,9.52 L27.51229,3.024 C27.51229,2.67555333 27.3816233,2.38310667 27.12029,2.14666 C26.8713967,1.91022 26.5665067,1.792 26.20562,1.792 L25.27229,1.792 L25.27229,10.95733 L26.14962,10.95733 C27.0580667,10.95733 27.51229,10.47822 27.51229,9.52 L27.51229,9.52 Z" id="path1927"></path>
                <polygon id="path1929" points="32.70385 12.61866 32.70385 0.112 34.47718 0.112 34.47718 5.45066 36.75452 5.45066 36.75452 0.112 38.52785 0.112 38.52785 12.61866 36.75452 12.61866 36.75452 7.03733 34.47718 7.03733 34.47718 12.61866"></polygon>
                <polygon id="path1931" points="45.54412 10.82666 45.54412 12.61866 40.18678 12.61866 40.18678 0.112 45.54412 0.112 45.54412 1.75466 41.96012 1.75466 41.96012 5.45066 45.09612 5.45066 45.09612 7.14933 41.96012 7.14933 41.96012 10.82666"></polygon>
                <path d="M45.81075,12.61866 L48.61075,0.112 L50.16008,0.112 L52.96008,12.61866 L51.03741,12.61866 L50.53341,9.93066 L48.21875,9.93066 L47.69608,12.61866 L45.81075,12.61866 Z M48.53608,8.26933 L50.21608,8.26933 L49.37608,3.71466 L48.53608,8.26933 Z" id="path1933"></path>
                <polygon id="path1935" points="59.22945 12.61866 53.89079 12.61866 53.89079 0.112 55.68279 0.112 55.68279 10.82666 59.22945 10.82666"></polygon>
                <polygon id="path1937" points="60.03895 12.61866 60.03895 1.77333 57.92962 1.77333 57.92962 0.112 63.95895 0.112 63.95895 1.77333 61.81229 1.77333 61.81229 12.61866"></polygon>
                <polygon id="path1939" points="64.91789 12.61866 64.91789 0.112 66.69122 0.112 66.69122 5.45066 68.96855 5.45066 68.96855 0.112 70.74189 0.112 70.74189 12.61866 68.96855 12.61866 68.96855 7.03733 66.69122 7.03733 66.69122 12.61866"></polygon>
                <path d="M0,29.86564 L2.8,17.35897 L4.34933,17.35897 L7.14933,29.86564 L5.22666,29.86564 L4.72266,27.17764 L2.408,27.17764 L1.88533,29.86564 L0,29.86564 Z M2.72533,25.51631 L4.40533,25.51631 L3.56533,20.96164 L2.72533,25.51631 Z" id="path1941"></path>
                <polygon id="path1943" points="12.6347 29.86564 9.85337 22.26831 9.85337 29.86564 8.06137 29.86564 8.06137 17.35897 9.76004 17.35897 12.5227 24.93764 12.5227 17.35897 14.3147 17.35897 14.3147 29.86564"></polygon>
                <path d="M19.10183,17.35897 C19.9107167,17.35897 20.6013833,17.6451933 21.17383,18.21764 C21.7587167,18.77764 22.05116,19.4620833 22.05116,20.27097 L22.05116,26.76697 C22.05116,27.6878633 21.77116,28.43453 21.21116,29.00697 C20.65116,29.5794167 19.9293833,29.86564 19.04583,29.86564 L16.2645,29.86564 L16.2645,17.35897 L19.10183,17.35897 Z M20.27783,26.76697 L20.27783,20.27097 C20.27783,19.92253 20.1471633,19.6300867 19.88583,19.39364 C19.6369433,19.1571933 19.3320533,19.03897 18.97116,19.03897 L18.03783,19.03897 L18.03783,28.20431 L18.91516,28.20431 C19.8236067,28.20431 20.27783,27.7251967 20.27783,26.76697 L20.27783,26.76697 Z" id="path1945"></path>
                <polygon id="path1947" points="31.27742 29.86564 29.80275 22.24964 28.36542 29.86564 26.70408 29.86564 24.89342 17.35897 26.79742 17.35897 27.69342 24.91897 29.13075 17.35897 30.45608 17.35897 31.93075 24.91897 32.82675 17.35897 34.71208 17.35897 32.95742 29.86564"></polygon>
                <polygon id="path1949" points="40.99411 28.07364 40.99411 29.86564 35.63678 29.86564 35.63678 17.35897 40.99411 17.35897 40.99411 19.00164 37.41011 19.00164 37.41011 22.69764 40.54611 22.69764 40.54611 24.39631 37.41011 24.39631 37.41011 28.07364"></polygon>
                <polygon id="path1951" points="47.0047 29.86564 41.66603 29.86564 41.66603 17.35897 43.45803 17.35897 43.45803 28.07364 47.0047 28.07364"></polygon>
                <polygon id="path1953" points="52.86496 29.86564 47.52629 29.86564 47.52629 17.35897 49.31829 17.35897 49.31829 28.07364 52.86496 28.07364"></polygon>
                <path d="M58.72009,17.35897 C59.1058633,17.35897 59.46675,17.43986 59.80275,17.60164 C60.1760833,17.77586 60.55564,18.05586 60.94142,18.44164 C61.3520867,18.83986 61.55742,19.4620833 61.55742,20.30831 L61.55742,21.26031 C61.55742,22.21853 61.1778633,22.89053 60.41875,23.27631 C61.1778633,23.72431 61.55742,24.4211967 61.55742,25.36697 L61.55742,26.82297 C61.55742,27.70653 61.2711967,28.43453 60.69875,29.00697 C60.13875,29.5794167 59.4169733,29.86564 58.53342,29.86564 L55.77075,29.86564 L55.77075,17.35897 L58.72009,17.35897 Z M59.78409,21.07364 L59.78409,20.30831 C59.78409,19.92253 59.67209,19.61764 59.44809,19.39364 C59.22409,19.1571933 58.9254233,19.03897 58.55209,19.03897 L57.54409,19.03897 L57.54409,22.49231 L58.60809,22.49231 C59.0187567,22.49231 59.3174233,22.3678633 59.50409,22.11897 C59.6907567,21.8576367 59.78409,21.5091933 59.78409,21.07364 L59.78409,21.07364 Z M59.78409,26.82297 L59.78409,25.36697 C59.78409,24.96875 59.67209,24.65764 59.44809,24.43364 C59.23653,24.1971933 58.9378633,24.07897 58.55209,24.07897 L57.54409,24.07897 L57.54409,28.09231 L58.57075,28.09231 C58.9316433,28.09231 59.22409,27.9740867 59.44809,27.73764 C59.67209,27.4887533 59.78409,27.1838633 59.78409,26.82297 Z" id="path1955"></path>
                <polygon id="path1957" points="68.25093 28.07364 68.25093 29.86564 62.89359 29.86564 62.89359 17.35897 68.25093 17.35897 68.25093 19.00164 64.66693 19.00164 64.66693 22.69764 67.80293 22.69764 67.80293 24.39631 64.66693 24.39631 64.66693 28.07364"></polygon>
                <polygon id="path1959" points="69.04552 29.86564 69.04552 17.35897 70.81885 17.35897 70.81885 29.86564"></polygon>
                <polygon id="path1961" points="76.91357 29.86564 74.13223 22.26831 74.13223 29.86564 72.34023 29.86564 72.34023 17.35897 74.0389 17.35897 76.80157 24.93764 76.80157 17.35897 78.59357 17.35897 78.59357 29.86564"></polygon>
                <path d="M85.14595,28.55897 C84.85973,29.00697 84.49262,29.3554167 84.04462,29.60431 C83.59662,29.8531967 83.1050633,29.97764 82.56995,29.97764 C82.0970633,29.97764 81.63662,29.86564 81.18862,29.64164 C80.75306,29.41764 80.4108367,29.1438633 80.16195,28.82031 C79.9255033,28.48431 79.7637267,28.14831 79.67662,27.81231 C79.6019533,27.47631 79.56462,27.0967533 79.56462,26.67364 L79.56462,20.42031 C79.56462,20.1091967 79.59572,19.7980833 79.65792,19.48697 C79.7450333,19.1758633 79.9752567,18.7340867 80.34859,18.16164 C80.7343633,17.55186 81.4934733,17.24697 82.62592,17.24697 C83.1237,17.24697 83.5903667,17.3651933 84.02592,17.60164 C84.4614733,17.8380867 84.79125,18.13053 85.01525,18.47897 C85.2516967,18.81497 85.40103,19.1385267 85.46325,19.44964 C85.5379167,19.7483067 85.57525,20.0718633 85.57525,20.42031 L85.57525,20.94297 L83.80192,20.94297 L83.80192,20.42031 C83.80192,20.32075 83.7956867,20.2336367 83.78322,20.15897 C83.78322,20.0718633 83.7769867,19.9971967 83.76452,19.93497 C83.7520533,19.82297 83.65872,19.6425267 83.48452,19.39364 C83.3102933,19.1447533 83.0178467,19.02031 82.60718,19.02031 C82.1218467,19.02031 81.7982933,19.1509767 81.63652,19.41231 C81.4871867,19.6736433 81.4000733,19.86653 81.37518,19.99097 C81.3503133,20.1154167 81.33788,20.25853 81.33788,20.42031 L81.33788,26.67364 C81.33788,26.7980867 81.33788,26.9038633 81.33788,26.99097 C81.33788,27.0780833 81.3441133,27.15275 81.35658,27.21497 C81.3690467,27.31453 81.46238,27.50742 81.63658,27.79364 C81.7983533,28.0549733 82.1156867,28.18564 82.58858,28.18564 C83.0739133,28.18564 83.3850233,28.0549733 83.52191,27.79364 C83.5965767,27.6567533 83.6525767,27.5447533 83.68991,27.45764 C83.7272433,27.3580867 83.7521433,27.2709767 83.76461,27.19631 C83.7894767,27.1216433 83.80191,27.0469767 83.80191,26.97231 C83.80191,26.8851967 83.80191,26.78564 83.80191,26.67364 L83.80191,24.48964 L82.36458,24.48964 L82.36458,22.92164 L85.57525,22.92164 L85.57525,26.67364 C85.57525,26.9349733 85.5690067,27.1589733 85.55654,27.34564 C85.5440733,27.51986 85.5191733,27.6754167 85.48184,27.81231 C85.4445067,27.9491967 85.39473,28.0798633 85.33251,28.20431 C85.28271,28.31631 85.2204867,28.43453 85.14584,28.55897 L85.14595,28.55897 Z" id="path1963"></path>
            </g>
            <g id="text6075-0-6" transform="translate(16.532750, 12.234900)" fill="#FFFFFF" fill-rule="nonzero">
                <path d="M12.77471,23.31604 L12.77471,23.85204 C12.77471,24.0604867 12.7598,24.29871 12.73,24.56671 C12.73,24.80493 12.6853333,25.1622633 12.596,25.63871 C12.1791133,27.0680433 11.3900033,28.2293767 10.22867,29.12271 C9.09711667,30.0160433 7.77200667,30.46271 6.25334,30.46271 C5.06222667,30.46271 3.93067,30.1053767 2.85867,29.39071 C1.78667,28.6462633 1.10178,27.9167067 0.804,27.20204 C0.625333333,26.8149267 0.476446667,26.4724833 0.35734,26.17471 C0.268006667,25.87693 0.19356,25.59404 0.134,25.32604 C0.0744666667,25.05804 0.0298,24.77515 0,24.47737 C0,24.1498167 0,23.7627067 0,23.31604 L0,21.57404 L4.288,21.57404 L4.288,24.03071 C4.34753333,24.4178167 4.51131333,24.8495933 4.77934,25.32604 C5.07711333,25.86204 5.61311333,26.13004 6.38734,26.13004 C7.16156,26.13004 7.71244667,25.86204 8.04,25.32604 C8.36756,24.79004 8.53134,24.12004 8.53134,23.31604 L8.53134,18.71537 C8.50154,18.1495967 8.38242667,17.71782 8.174,17.42004 C7.99533333,17.12226 7.772,16.9138167 7.504,16.79471 C7.236,16.6458167 6.95311333,16.57137 6.65534,16.57137 C6.35756,16.54157 6.08956,16.52667 5.85134,16.52667 L5.092,16.52667 L5.092,12.73 L5.85134,12.73 C7.63800667,12.73 8.53134,11.8962233 8.53134,10.22867 L8.53134,6.65533 C8.53134,6.29799667 8.50157333,6.00022 8.44204,5.762 C8.44204,5.67266667 8.39737333,5.53866667 8.30804,5.36 C8.21870667,5.18133333 8.08470667,5.00266667 7.90604,4.824 C7.75715333,4.64533333 7.5636,4.49644333 7.32538,4.37733 C7.08715333,4.25822333 6.80426333,4.19867 6.47671,4.19867 C5.73226333,4.19867 5.18137333,4.43689 4.82404,4.91333 C4.46670667,5.35999667 4.28804,5.94066333 4.28804,6.65533 L4.28804,8.844 L0,8.844 L0,6.65533 C0,4.77933 0.610486667,3.20111 1.83138,1.92067 C3.02248667,0.640223333 4.57093,2.84217094e-14 6.47671,2.84217094e-14 C7.51893,2.84217094e-14 8.51648667,0.268 9.46938,0.804 C10.4520467,1.34 11.1667133,1.96533333 11.61338,2.68 C12.08982,3.39466667 12.4024867,4.06466667 12.55138,4.69 C12.7002667,5.31533333 12.77471,5.97044333 12.77471,6.65533 L12.77471,10.13933 C12.77471,12.07489 11.9260433,13.54889 10.22871,14.56133 C11.1815967,15.2462233 11.8367067,15.9311133 12.19404,16.616 C12.5811533,17.2711133 12.77471,18.1644467 12.77471,19.296 L12.77471,23.31604 Z" id="path1966"></path>
            </g>
            <polyline id="path6921" stroke="#FFFFFF" stroke-width="3.4000001" stroke-linecap="round" stroke-linejoin="round" points="26.92664 97.26886 51.41095 97.26886 60.01355 78.40933 64.31485 107.19494 74.57179 88.77655 80.74801 123.73838 100.60016 58.2263 109.75421 77.08585"></polyline>
            <path d="M112.88771,107.95477 C112.88771,107.95477 119.627,101.09851 123.02597,97.69954 C124.07085,96.65466 124.89764,95.05361 124.89764,93.13732 C124.89764,89.75673 123.4395,85.26067 118.42476,85.26067 C115.56997,85.26067 113.18619,88.01087 112.9267,88.30215 C112.5366,88.74005 112.08446,88.71855 111.7564,88.30215 C111.51498,87.99573 109.11313,85.26067 106.25834,85.26067 C101.2436,85.26067 99.78546,89.75673 99.78546,93.13732 C99.78546,95.05361 100.61225,96.65466 101.65713,97.69954 C105.0561,101.09851 111.79539,107.95477 111.79539,107.95477 C112.16602,108.34837 112.45863,108.35562 112.88771,107.95477 Z" id="path6945" fill="#FFFFFF"></path>
        </g>
    </g>
</svg>