<?xml version="1.0" encoding="UTF-8"?>
<svg width="150px" height="150px" viewBox="0 0 150 150" version="1.1" xmlns="http://www.w3.org/2000/svg" xmlns:xlink="http://www.w3.org/1999/xlink">
    <title>4-quality-education</title>
    <g id="SDGs" stroke="none" stroke-width="1" fill="none" fill-rule="evenodd">
        <g id="4-quality-education" transform="translate(0.920903, 0.989540)">
            <path d="M0.82676,0 L147.26601,0 C147.72403,0 148.09276,0.36873 148.09276,0.82675 L148.09276,147.50782 C148.09276,147.96584 147.72403,148.33457 147.26601,148.33457 L0.82676,148.33457 C0.36873,148.33457 0,147.96584 0,147.50782 L0,0.82675 C0,0.36873 0.36873,0 0.82676,0 Z" id="rect8528-63" fill="#C31F33"></path>
            <g id="text6065-3-2-9" transform="translate(43.453590, 13.133330)" fill="#FFFFFF" fill-rule="nonzero">
                <path d="M0.70933,11.648 C0.42311,11.3368867 0.230223333,11.0071067 0.13067,10.65866 C0.0435566667,10.31022 0,9.89955333 0,9.42666 L0,3.21066 C0,2.30222 0.286223333,1.54311 0.85867,0.93333 C1.44355667,0.31111 2.17777667,0 3.06133,0 C3.85777667,0 4.56089,0.292443333 5.17067,0.87733 C5.76800333,1.46221667 6.06667,2.15910667 6.06667,2.968 L6.06667,9.42666 C6.06667,9.78755333 6.04800333,10.05511 6.01067,10.22933 C5.98580333,10.40355 5.93602333,10.5777733 5.86133,10.752 L7.03733,11.74133 L6.048,12.936 L4.928,12.04 C4.38044667,12.488 3.72089,12.712 2.94933,12.712 C2.53866333,12.712 2.12799667,12.6124433 1.71733,12.41333 C1.31911,12.2142167 0.98311,11.9591067 0.70933,11.648 L0.70933,11.648 Z M3.67733,8.96 L4.27467,9.42666 L4.27467,3.21066 C4.27467,2.81244 4.16267,2.47644 3.93867,2.20266 C3.71467,1.91644 3.40355667,1.77333 3.00533,1.77333 C2.75644333,1.77333 2.53866667,1.83555333 2.352,1.96 C2.16533333,2.08444 2.02844333,2.23377333 1.94133,2.408 C1.86666333,2.58222 1.82311,2.71910667 1.81067,2.81866 C1.79820333,2.90577333 1.79197,3.03644 1.79197,3.21066 L1.79197,9.42666 L1.79197,9.55733 C1.79197,9.91821667 1.89152667,10.2417733 2.09064,10.528 C2.30219333,10.8017733 2.62574667,10.9448833 3.0613,10.95733 C3.18574667,10.95733 3.33508,10.9199967 3.5093,10.84533 L2.68797,10.15466 L3.67733,8.96 Z" id="path1969"></path>
                <path d="M13.20025,11.312 C12.92647,11.7351067 12.5718033,12.0773267 12.13625,12.33866 C11.7131367,12.5999933 11.2402467,12.73066 10.71758,12.73066 C10.4562467,12.73066 10.1949133,12.6933267 9.93358,12.61866 C9.68469333,12.5439933 9.44825,12.45066 9.22425,12.33866 C9.00025,12.21422 8.80114,12.0773333 8.62692,11.928 C8.45269333,11.76622 8.32202667,11.59822 8.23492,11.424 C8.04825333,11.0755533 7.92380667,10.7706633 7.86158,10.50933 C7.81178,10.2479967 7.78688,9.96799667 7.78688,9.66933 L7.78688,0.112 L9.57888,0.112 L9.57888,9.66933 C9.57888,9.75644333 9.57888,9.83733333 9.57888,9.912 C9.59134667,9.9742 9.60378,10.03642 9.61618,10.09866 C9.62864667,10.19822 9.72198,10.3724433 9.89618,10.62133 C10.05796,10.84533 10.33796,10.95733 10.73618,10.95733 C11.0970667,10.95733 11.3646233,10.8266633 11.53885,10.56533 C11.7255167,10.29155 11.81885,9.99288333 11.81885,9.66933 L11.81885,0.112 L13.61085,0.112 L13.61085,9.66933 C13.61085,9.96799667 13.57975,10.25422 13.51755,10.528 C13.45535,10.8017733 13.3495733,11.0631067 13.20022,11.312 L13.20025,11.312 Z" id="path1971"></path>
                <path d="M14.56408,12.61866 L17.36408,0.112 L18.91342,0.112 L21.71341,12.61866 L19.79075,12.61866 L19.28675,9.93066 L16.97208,9.93066 L16.44942,12.61866 L14.56408,12.61866 Z M17.28942,8.26933 L18.96942,8.26933 L18.12942,3.71466 L17.28942,8.26933 Z" id="path1973"></path>
                <polygon id="path1975" points="27.98279 12.61866 22.64412 12.61866 22.64412 0.112 24.43612 0.112 24.43612 10.82666 27.98279 10.82666"></polygon>
                <polygon id="path1977" points="28.48572 12.61866 28.48572 0.112 30.25905 0.112 30.25905 12.61866"></polygon>
                <polygon id="path1979" points="33.35911 12.61866 33.35911 1.77333 31.24977 1.77333 31.24977 0.112 37.27911 0.112 37.27911 1.77333 35.13244 1.77333 35.13244 12.61866"></polygon>
                <polygon id="path1981" points="39.90207 12.61866 39.90207 7.24266 37.4754 0.112 39.34207 0.112 40.79807 5.00266 42.27273 0.112 44.15807 0.112 41.6754 7.24266 41.6754 12.61866"></polygon>
                <polygon id="path1983" points="5.488 28.07364 5.488 29.86564 0.13067 29.86564 0.13067 17.35897 5.488 17.35897 5.488 19.00164 1.904 19.00164 1.904 22.69764 5.04 22.69764 5.04 24.39631 1.904 24.39631 1.904 28.07364"></polygon>
                <path d="M9.68531,17.35897 C10.4941967,17.35897 11.1848633,17.6451933 11.75731,18.21764 C12.3421967,18.77764 12.63464,19.4620833 12.63464,20.27097 L12.63464,26.76697 C12.63464,27.6878633 12.35464,28.43453 11.79464,29.00697 C11.23464,29.5794167 10.5128633,29.86564 9.62931,29.86564 L6.84797,29.86564 L6.84797,17.35897 L9.68531,17.35897 Z M10.86131,26.76697 L10.86131,20.27097 C10.86131,19.92253 10.7306433,19.6300867 10.46931,19.39364 C10.2204167,19.1571933 9.91552667,19.03897 9.55464,19.03897 L8.62131,19.03897 L8.62131,28.20431 L9.49864,28.20431 C10.4070867,28.20431 10.86131,27.7251967 10.86131,26.76697 L10.86131,26.76697 Z" id="path1985"></path>
                <path d="M19.56195,28.55897 C19.28817,28.9820833 18.9335033,29.3243067 18.49795,29.58564 C18.0748367,29.8469733 17.6019467,29.97764 17.07928,29.97764 C16.8179467,29.97764 16.5566133,29.9403067 16.29528,29.86564 C16.0463933,29.7909733 15.80995,29.69764 15.58595,29.58564 C15.36195,29.4611933 15.16284,29.3243033 14.98862,29.17497 C14.8143933,29.0131967 14.6837267,28.8451967 14.59662,28.67097 C14.4099533,28.32253 14.2855067,28.0176433 14.22328,27.75631 C14.17348,27.4949767 14.14858,27.2149767 14.14858,26.91631 L14.14858,17.35897 L15.94058,17.35897 L15.94058,26.91631 C15.94058,27.0034167 15.94058,27.0843033 15.94058,27.15897 C15.9530467,27.22117 15.96548,27.2833933 15.97788,27.34564 C15.9903467,27.4451933 16.08368,27.6194167 16.25788,27.86831 C16.41966,28.09231 16.69966,28.20431 17.09788,28.20431 C17.4587667,28.20431 17.7263233,28.0736433 17.90055,27.81231 C18.0872167,27.53853 18.18055,27.2398633 18.18055,26.91631 L18.18055,17.35897 L19.97255,17.35897 L19.97255,26.91631 C19.97255,27.2149767 19.94145,27.5011967 19.87925,27.77497 C19.81705,28.04875 19.7112733,28.3100833 19.56192,28.55897 L19.56195,28.55897 Z" id="path1987"></path>
                <path d="M27.26976,26.71097 C27.26976,27.1091967 27.24486,27.45142 27.19506,27.73764 C27.1577267,28.02386 27.0332833,28.33497 26.82173,28.67097 C26.70973,28.8451967 26.5666167,29.0131967 26.39239,29.17497 C26.2306167,29.3243033 26.0439533,29.4611933 25.8324,29.58564 C25.6332867,29.69764 25.4155067,29.7909733 25.17906,29.86564 C24.94262,29.9403067 24.7124,29.97764 24.4884,29.97764 C23.9284,29.97764 23.4181767,29.8594167 22.95773,29.62297 C22.50973,29.38653 22.1799533,29.0878633 21.9684,28.72697 C21.75684,28.3660833 21.61995,28.0300833 21.55773,27.71897 C21.50793,27.4078633 21.48303,27.0718633 21.48303,26.71097 L21.48303,20.27097 C21.48303,19.92253 21.51413,19.61142 21.57633,19.33764 C21.6509967,19.05142 21.80033,18.74653 22.02433,18.42297 C22.24833,18.0994167 22.5656633,17.82564 22.97633,17.60164 C23.3869967,17.3651933 23.81633,17.24697 24.26433,17.24697 C25.1229967,17.24697 25.83855,17.5331933 26.41099,18.10564 C26.9834367,18.66564 27.26966,19.3874167 27.26966,20.27097 L27.26966,20.94297 L25.49633,20.94297 L25.49633,20.27097 C25.49633,19.92253 25.3967733,19.6300867 25.19766,19.39364 C25.0109933,19.1571933 24.7309933,19.03897 24.35766,19.03897 C24.0092133,19.03897 23.7354367,19.1571933 23.53633,19.39364 C23.3496633,19.6300867 23.25633,19.92253 23.25633,20.27097 L23.25633,27.19631 C23.2811967,27.3829767 23.3683067,27.59453 23.51766,27.83097 C23.69188,28.0798633 23.9781033,28.20431 24.37633,28.20431 C24.7994367,28.20431 25.0794367,28.09231 25.21633,27.86831 C25.3532167,27.64431 25.4341033,27.48253 25.45899,27.38297 C25.4838567,27.27097 25.49629,27.1216367 25.49629,26.93497 L25.49629,26.30031 L27.26962,26.30031 L27.26976,26.71097 Z" id="path1989"></path>
                <path d="M27.86184,29.86564 L30.66184,17.35897 L32.21118,17.35897 L35.01117,29.86564 L33.08851,29.86564 L32.58451,27.17764 L30.26984,27.17764 L29.74718,29.86564 L27.86184,29.86564 Z M30.58718,25.51631 L32.26718,25.51631 L31.42718,20.96164 L30.58718,25.51631 Z" id="path1991"></path>
                <polygon id="path1993" points="36.51248 29.86564 36.51248 19.02031 34.40314 19.02031 34.40314 17.35897 40.43248 17.35897 40.43248 19.02031 38.28581 19.02031 38.28581 29.86564"></polygon>
                <polygon id="path1995" points="41.39141 29.86564 41.39141 17.35897 43.16475 17.35897 43.16475 29.86564"></polygon>
                <path d="M45.32093,18.53497 C45.6071567,18.13675 45.9680467,17.82564 46.4036,17.60164 C46.8516,17.3651933 47.3120433,17.24697 47.78493,17.24697 C48.2453767,17.24697 48.67471,17.3403033 49.07293,17.52697 C49.4835967,17.7136367 49.82582,17.96875 50.0996,18.29231 C50.37338,18.6158633 50.5600467,18.9518633 50.6596,19.30031 C50.7591533,19.63631 50.80893,20.00342 50.80893,20.40164 L50.80893,26.76697 C50.80893,27.1403033 50.7715967,27.4700833 50.69693,27.75631 C50.63473,28.04253 50.4853967,28.3598633 50.24893,28.70831 C50.02493,29.05675 49.6951533,29.3554167 49.2596,29.60431 C48.8364867,29.8531967 48.3635967,29.97764 47.84093,29.97764 C47.5422633,29.97764 47.2560433,29.9403067 46.98227,29.86564 C46.70849,29.7785267 46.4533767,29.6665267 46.21693,29.52964 C45.98049,29.3927533 45.7689367,29.2371967 45.58227,29.06297 C45.4080433,28.88875 45.2711533,28.7083067 45.1716,28.52164 C44.9849333,28.13586 44.8729333,27.82475 44.8356,27.58831 C44.7982667,27.3518633 44.7796,27.0780833 44.7796,26.76697 L44.7796,20.40164 C44.7796,20.0283067 44.8169333,19.69853 44.8916,19.41231 C44.9787133,19.1136433 45.1218233,18.8211967 45.32093,18.53497 L45.32093,18.53497 Z M48.79293,19.52431 C48.55649,19.1758633 48.2329367,19.00164 47.82227,19.00164 C47.61071,19.00164 47.3991533,19.0638633 47.1876,19.18831 C46.9884867,19.30031 46.8453767,19.4309767 46.75827,19.58031 C46.6836033,19.7296433 46.6338233,19.8789767 46.60893,20.02831 C46.5840633,20.1776433 46.57163,20.3020867 46.57163,20.40164 L46.57163,26.76697 C46.57163,26.82917 46.57163,26.8976167 46.57163,26.97231 C46.57163,27.03451 46.5778633,27.1029533 46.59033,27.17764 C46.6027967,27.3020867 46.70235,27.50742 46.88899,27.79364 C47.0756567,28.0549733 47.38677,28.18564 47.82233,28.18564 C48.04633,28.18564 48.24544,28.1358633 48.41966,28.03631 C48.6063267,27.92431 48.7369933,27.7998633 48.81166,27.66297 C48.8987733,27.5136367 48.9547733,27.37675 48.97966,27.25231 C49.0045267,27.1278633 49.01696,26.9660833 49.01696,26.76697 L49.01696,20.40164 C49.01696,20.1527533 49.0045267,19.97853 48.97966,19.87897 C48.9671933,19.7794167 48.90497,19.6611967 48.79299,19.52431 L48.79293,19.52431 Z" id="path1997"></path>
                <polygon id="path1999" points="56.69373 29.86564 53.91239 22.26831 53.91239 29.86564 52.12039 29.86564 52.12039 17.35897 53.81906 17.35897 56.58173 24.93764 56.58173 17.35897 58.37373 17.35897 58.37373 29.86564"></polygon>
            </g>
            <g id="text6075-0-6-9" transform="translate(15.388530, 12.502940)" fill="#FFFFFF" fill-rule="nonzero">
                <polygon id="path2002" points="8.53133 29.92667 8.53133 25.37067 0 25.37067 0 21.35067 6.20866 0 10.72 0 4.33266 21.35067 8.53133 21.35067 8.53133 12.81933 12.81933 12.81933 12.81933 21.35067 14.91866 21.35067 14.91866 25.37067 12.81933 25.37067 12.81933 29.92667"></polygon>
            </g>
            <path d="M112.95905,59.8954658 C111.43831,59.90352 109.91608,60.73726 109.91608,62.37208 L109.91608,66.82911 L116.00006,66.82911 L116.00006,62.37208 C116.00006,60.70634 114.47978,59.88779 112.95905,59.8954658 Z M109.91608,68.74513 L109.91608,113.29591 L112.95905,123.27833 L116.00006,113.29591 L116.00006,68.74513 L109.91608,68.74513 Z M39.33903,64.43825 L39.33903,113.70203 L65.44491,121.75317 L65.44491,79.62251 L39.33903,64.43825 Z M65.22433,127.37795 L33.62633,118.44448 L33.62633,66.49803 L36.37554,64.39926 L36.37554,116.41632 L65.86083,125.0185 L68.25798,125.0185 L97.74327,116.41632 L97.74327,64.39926 L100.49248,66.49803 L100.49248,118.44448 L68.89448,127.37795 L65.22433,127.37795 Z M94.77978,64.43825 L94.77978,113.70203 L68.6739,121.75317 L68.6739,79.62251 L94.77978,64.43825 Z" id="path7004" fill="#FFFFFF"></path>
        </g>
    </g>
</svg>