<?xml version="1.0" encoding="UTF-8"?>
<svg width="149px" height="150px" viewBox="0 0 149 150" version="1.1" xmlns="http://www.w3.org/2000/svg" xmlns:xlink="http://www.w3.org/1999/xlink">
    <title>5-gender-equality</title>
    <g id="SDGs" stroke="none" stroke-width="1" fill="none" fill-rule="evenodd">
        <g id="5-gender-equality" transform="translate(0.894543, 0.989540)">
            <path d="M0.82675,0 L147.266,0 C147.72402,0 148.09275,0.36873 148.09275,0.82675 L148.09275,147.50782 C148.09275,147.96584 147.72402,148.33457 147.266,148.33457 L0.82675,148.33457 C0.36873,148.33457 0,147.96584 0,147.50782 L0,0.82675 C0,0.36873 0.36873,0 0.82675,0 Z" id="rect8528-63-2" fill="#EF402B"></path>
            <g id="text6065-3-2-9-6" transform="translate(44.006070, 13.133330)" fill="#FFFFFF" fill-rule="nonzero">
                <path d="M5.58134,11.312 C5.29511333,11.76 4.928,12.1084433 4.48,12.35733 C4.032,12.6062167 3.54044667,12.73066 3.00534,12.73066 C2.53244667,12.73066 2.072,12.61866 1.624,12.39466 C1.18844667,12.17066 0.846226667,11.8968833 0.59734,11.57333 C0.360893333,11.23733 0.199113333,10.90133 0.112,10.56533 C0.0373333333,10.22933 0,9.84977333 0,9.42666 L0,3.17333 C0,2.86221667 0.0311,2.55110667 0.0933,2.24 C0.180406667,1.92888667 0.410626667,1.48710667 0.78396,0.91466 C1.16974,0.304886667 1.92885333,0 3.0613,0 C3.55907333,0 4.02574,0.11822 4.4613,0.35466 C4.89685333,0.591106667 5.22663,0.883553333 5.45063,1.232 C5.68707667,1.568 5.83641,1.89155333 5.89863,2.20266 C5.97329667,2.50132667 6.01064,2.82488333 6.01064,3.17333 L6.01064,3.696 L4.2373,3.696 L4.2373,3.17333 C4.2373,3.07377667 4.23106667,2.98666667 4.2186,2.912 C4.2186,2.82488667 4.21236667,2.75022 4.1999,2.688 C4.18743333,2.576 4.0941,2.39555333 3.9199,2.14666 C3.74568,1.89777333 3.45323667,1.77333 3.04257,1.77333 C2.55723667,1.77333 2.23368,1.90399667 2.0719,2.16533 C1.92256667,2.42666333 1.83545667,2.61955333 1.81057,2.744 C1.78570333,2.86844 1.77327,3.01155 1.77327,3.17333 L1.77327,9.42666 C1.77327,9.55110667 1.77327,9.65688667 1.77327,9.744 C1.77327,9.83110667 1.77950333,9.90577333 1.79197,9.968 C1.80443667,10.0675533 1.89777,10.26044 2.07197,10.54666 C2.23375,10.8079933 2.55108333,10.93866 3.02397,10.93866 C3.50930333,10.93866 3.82041667,10.8079933 3.95731,10.54666 C4.03197667,10.4097733 4.08797667,10.2977733 4.12531,10.21066 C4.16264333,10.1111067 4.18754333,10.0239967 4.20001,9.94933 C4.22487667,9.87466333 4.23731,9.79999667 4.23731,9.72533 C4.23731,9.63821667 4.23731,9.53866 4.23731,9.42666 L4.23731,7.24266 L2.79997,7.24266 L2.79997,5.67466 L6.01064,5.67466 L6.01064,9.42666 C6.01064,9.68799333 6.00440667,9.91199333 5.99194,10.09866 C5.97947333,10.2728867 5.95457333,10.4284433 5.91724,10.56533 C5.87990667,10.7022167 5.83012667,10.8328833 5.7679,10.95733 C5.7181,11.06933 5.65588,11.1875533 5.58124,11.312 L5.58134,11.312 Z" id="path2005"></path>
                <polygon id="path2007" points="13.14425 10.82666 13.14425 12.61866 7.78692 12.61866 7.78692 0.112 13.14425 0.112 13.14425 1.75466 9.56025 1.75466 9.56025 5.45066 12.69625 5.45066 12.69625 7.14933 9.56025 7.14933 9.56025 10.82666"></polygon>
                <polygon id="path2009" points="18.37083 12.61866 15.5895 5.02133 15.5895 12.61866 13.7975 12.61866 13.7975 0.112 15.49617 0.112 18.25883 7.69066 18.25883 0.112 20.05083 0.112 20.05083 12.61866"></polygon>
                <path d="M24.13123,0.112 C24.9401167,0.112 25.6307833,0.39822 26.20323,0.97066 C26.7881167,1.53066 27.08056,2.21510667 27.08056,3.024 L27.08056,9.52 C27.08056,10.4408867 26.80056,11.1875533 26.24056,11.76 C25.68056,12.33244 24.9587833,12.61866 24.07523,12.61866 L21.2939,12.61866 L21.2939,0.112 L24.13123,0.112 Z M25.30723,9.52 L25.30723,3.024 C25.30723,2.67555333 25.1765633,2.38310667 24.91523,2.14666 C24.6663433,1.91022 24.3614533,1.792 24.00056,1.792 L23.06723,1.792 L23.06723,10.95733 L23.94456,10.95733 C24.8530067,10.95733 25.30723,10.47822 25.30723,9.52 Z" id="path2011"></path>
                <polygon id="path2013" points="33.66918 10.82666 33.66918 12.61866 28.31185 12.61866 28.31185 0.112 33.66918 0.112 33.66918 1.75466 30.08518 1.75466 30.08518 5.45066 33.22118 5.45066 33.22118 7.14933 30.08518 7.14933 30.08518 10.82666"></polygon>
                <path d="M34.58646,12.61866 L34.58646,0.112 L37.72246,0.112 C38.5437867,0.112 39.23445,0.39822 39.79445,0.97066 C40.3668967,1.54310667 40.65312,2.24622 40.65312,3.08 L40.65312,4.23733 C40.65312,5.39466333 40.1615633,6.27822 39.17845,6.888 L41.08245,12.61866 L39.17845,12.61866 L37.49846,7.26133 L36.37846,7.26133 L36.37846,12.61866 L34.58646,12.61866 Z M38.56245,5.28266 C38.67445,5.14577333 38.7491167,4.99022 38.78645,4.816 C38.83625,4.64177333 38.86115,4.44888333 38.86115,4.23733 L38.86115,3.08 C38.86115,2.69422 38.7553733,2.38310667 38.54382,2.14666 C38.3322667,1.89777333 38.0336,1.77333 37.64782,1.77333 L36.37849,1.77333 L36.37849,5.67466 L37.62915,5.67466 C38.0024833,5.67466 38.3135933,5.54399333 38.56248,5.28266 L38.56245,5.28266 Z" id="path2015"></path>
                <polygon id="path2017" points="5.488 28.07364 5.488 29.86564 0.13067 29.86564 0.13067 17.35897 5.488 17.35897 5.488 19.00164 1.904 19.00164 1.904 22.69764 5.04 22.69764 5.04 24.39631 1.904 24.39631 1.904 28.07364"></polygon>
                <path d="M6.86126,28.89497 C6.57504,28.5838633 6.38215333,28.2540867 6.2826,27.90564 C6.19548667,27.5571933 6.15193,27.1465267 6.15193,26.67364 L6.15193,20.45764 C6.15193,19.5491933 6.43815333,18.7900833 7.0106,18.18031 C7.59548667,17.5580833 8.32970667,17.24697 9.21326,17.24697 C10.0097067,17.24697 10.71282,17.5394167 11.3226,18.12431 C11.9199333,18.7091967 12.2186,19.4060833 12.2186,20.21497 L12.2186,26.67364 C12.2186,27.0345267 12.1999333,27.3020833 12.1626,27.47631 C12.1377333,27.65053 12.0879533,27.82475 12.01326,27.99897 L13.18926,28.98831 L12.19993,30.18297 L11.07993,29.28697 C10.5323767,29.73497 9.87282,29.95897 9.10126,29.95897 C8.69059333,29.95897 8.27992667,29.8594167 7.86926,29.66031 C7.47104,29.4611967 7.13504,29.2060833 6.86126,28.89497 L6.86126,28.89497 Z M9.82926,26.20697 L10.4266,26.67364 L10.4266,20.45764 C10.4266,20.05942 10.3146,19.72342 10.0906,19.44964 C9.8666,19.16342 9.55548667,19.02031 9.15726,19.02031 C8.90837333,19.02031 8.69059667,19.08253 8.50393,19.20697 C8.31726333,19.3314167 8.18037333,19.48075 8.09326,19.65497 C8.01859333,19.8291967 7.97504,19.9660867 7.9626,20.06564 C7.95013333,20.1527533 7.9439,20.28342 7.9439,20.45764 L7.9439,26.67364 L7.9439,26.80431 C7.9439,27.1651967 8.04345667,27.48875 8.24257,27.77497 C8.45412333,28.04875 8.77767667,28.1918633 9.21323,28.20431 C9.33767667,28.20431 9.48701,28.1669767 9.66123,28.09231 L8.8399,27.40164 L9.82926,26.20697 Z" id="path2019"></path>
                <path d="M19.35218,28.55897 C19.0784,28.9820833 18.7237333,29.3243067 18.28818,29.58564 C17.8650667,29.8469733 17.3921767,29.97764 16.86951,29.97764 C16.6081767,29.97764 16.3468433,29.9403067 16.08551,29.86564 C15.8366233,29.7909733 15.60018,29.69764 15.37618,29.58564 C15.15218,29.4611933 14.95307,29.3243033 14.77885,29.17497 C14.6046233,29.0131967 14.4739567,28.8451967 14.38685,28.67097 C14.2001833,28.32253 14.0757367,28.0176433 14.01351,27.75631 C13.96371,27.4949767 13.93881,27.2149767 13.93881,26.91631 L13.93881,17.35897 L15.73081,17.35897 L15.73081,26.91631 C15.73081,27.0034167 15.73081,27.0843033 15.73081,27.15897 C15.7432767,27.22117 15.75571,27.2833933 15.76811,27.34564 C15.7805767,27.4451933 15.87391,27.6194167 16.04811,27.86831 C16.20989,28.09231 16.48989,28.20431 16.88811,28.20431 C17.2489967,28.20431 17.5165533,28.0736433 17.69078,27.81231 C17.8774467,27.53853 17.97078,27.2398633 17.97078,26.91631 L17.97078,17.35897 L19.76278,17.35897 L19.76278,26.91631 C19.76278,27.2149767 19.73168,27.5011967 19.66948,27.77497 C19.60728,28.04875 19.5015033,28.3100833 19.35215,28.55897 L19.35218,28.55897 Z" id="path2021"></path>
                <path d="M20.15063,29.86564 L22.95063,17.35897 L24.49996,17.35897 L27.29996,29.86564 L25.3773,29.86564 L24.8733,27.17764 L22.55863,27.17764 L22.03596,29.86564 L20.15063,29.86564 Z M22.87596,25.51631 L24.55596,25.51631 L23.71596,20.96164 L22.87596,25.51631 Z" id="path2023"></path>
                <polygon id="path2025" points="33.56934 29.86564 28.23067 29.86564 28.23067 17.35897 30.02267 17.35897 30.02267 28.07364 33.56934 28.07364"></polygon>
                <polygon id="path2027" points="34.07227 29.86564 34.07227 17.35897 35.8456 17.35897 35.8456 29.86564"></polygon>
                <polygon id="path2029" points="38.94566 29.86564 38.94566 19.02031 36.83632 19.02031 36.83632 17.35897 42.86566 17.35897 42.86566 19.02031 40.71899 19.02031 40.71899 29.86564"></polygon>
                <polygon id="path2031" points="45.48861 29.86564 45.48861 24.48964 43.06195 17.35897 44.92861 17.35897 46.38461 22.24964 47.85928 17.35897 49.74461 17.35897 47.26195 24.48964 47.26195 29.86564"></polygon>
            </g>
            <g id="text6075-0-6-9-2" transform="translate(16.298370, 12.502940)" fill="#FFFFFF" fill-rule="nonzero">
                <path d="M7.86131,10.67533 C8.60575,10.67533 9.35019333,10.8837767 10.09464,11.30067 C10.86886,11.7175567 11.4346367,12.20889 11.79197,12.77467 C12.1790833,13.3404433 12.4321967,13.9359967 12.55131,14.56133 C12.7001967,15.15689 12.77467,15.7971133 12.77467,16.482 L12.77467,23.182 C12.77467,23.8371133 12.7448733,24.40289 12.68534,24.87933 C12.65554,25.3259967 12.49176,25.95133 12.194,26.75533 C11.8962267,27.55933 11.1666733,28.3335533 10.00534,29.078 C8.90356,29.8224467 7.68267,30.19467 6.34267,30.19467 C5.33022333,30.19467 4.36244667,29.9564467 3.43934,29.48 C2.51622667,28.97378 1.80156,28.3633367 1.29534,27.64867 C0.789113333,26.9340033 0.446666667,26.2044467 0.268,25.46 C0.0893333333,24.7155533 0,23.95622 0,23.182 L0,22.42267 L4.37734,22.42267 L4.37734,24.07533 C4.37734,24.2242233 4.42200667,24.40289 4.51134,24.61133 C4.60067333,24.8197767 4.71978333,25.0282233 4.86867,25.23667 C5.01755667,25.4153367 5.226,25.5791133 5.494,25.728 C5.762,25.8471133 6.07466667,25.90667 6.432,25.90667 C7.236,25.90667 7.772,25.6833367 8.04,25.23667 C8.308,24.7900033 8.45689,24.4475567 8.48667,24.20933 C8.51647,23.94133 8.53137,23.6584433 8.53137,23.36067 L8.53137,17.06267 C8.53137,16.9137767 8.53137,16.7797767 8.53137,16.66067 C8.53137,16.5117767 8.51647,16.3628867 8.48667,16.214 C8.48667,16.0651133 8.44200333,15.8864467 8.35267,15.678 C8.29313667,15.4695533 8.17402667,15.2759967 7.99534,15.09733 C7.84644667,14.88889 7.638,14.7251133 7.37,14.606 C7.13178,14.4571133 6.83400333,14.38267 6.47667,14.38267 C5.43445,14.38267 4.73467333,14.91867 4.37734,15.99067 L0.536,15.99067 L0.536,0 L12.77467,0 L12.77467,3.97533 L4.37734,3.97533 L4.37734,12.01533 C5.38978,11.1219967 6.55111333,10.67533 7.86134,10.67533 L7.86131,10.67533 Z" id="path2034"></path>
            </g>
            <path d="M62.76666,82.64747 L62.76666,88.53028 L85.14947,88.53028 L85.14947,82.64747 L62.76666,82.64747 Z M62.76666,91.77247 L62.76666,97.93263 L85.14947,97.93263 L85.14947,91.77247 L62.76666,91.77247 Z M89.23931,56.51661 L89.23931,62.9131 L96.84869,62.9131 L88.74322,71.02052 C84.4989108,67.6788097 79.2565016,65.8570665 73.85455,65.84669 C60.5210419,65.8468607 49.71197,76.6557619 49.71197,89.98927 C49.7265091,102.096361 58.7060724,112.320415 70.71002,113.89747 L70.71002,120.98146 L63.10064,120.98146 L63.10064,128.09474 L70.71002,128.09474 L70.71002,135.04396 L77.76861,135.04396 L77.76861,128.09474 L85.3233,128.09474 L85.3233,120.98146 L77.76861,120.98146 L77.76861,113.78419 C89.4244945,111.869051 97.9831697,101.801434 97.99713,89.98927 C97.9864125,85.0193832 96.4421849,80.1738973 93.57525,76.11427 L101.59283,68.09669 L101.59283,75.1006 L108.15338,75.1006 L108.15338,56.51661 L89.23931,56.51661 Z M73.85455,72.43458 C83.5495129,72.4351223 91.4086977,80.2943071 91.40924,89.98927 C91.4097746,99.6849945 83.5502745,107.545368 73.85455,107.54591 C69.1981609,107.54591 64.7324116,105.696537 61.4398473,102.403973 C58.1472829,99.1114084 56.29791,94.6456591 56.29791,89.98927 C56.2984523,80.2935455 64.1588255,72.4340454 73.85455,72.43458 L73.85455,72.43458 Z" id="rect7038" fill="#FFFFFF"></path>
        </g>
    </g>
</svg>