<?xml version="1.0" encoding="UTF-8"?>
<svg width="149px" height="150px" viewBox="0 0 149 150" version="1.1" xmlns="http://www.w3.org/2000/svg" xmlns:xlink="http://www.w3.org/1999/xlink">
    <title>6-clean-water-and-sanitation</title>
    <g id="SDGs" stroke="none" stroke-width="1" fill="none" fill-rule="evenodd">
        <g id="6-clean-water-and-sanitation" transform="translate(0.868173, 0.989540)">
            <path d="M0.82675,0 L147.26605,0 C147.72405,0 148.09275,0.36873 148.09275,0.82675 L148.09275,147.50782 C148.09275,147.96584 147.72405,148.33457 147.26605,148.33457 L0.82675,148.33457 C0.36873,148.33457 0,147.96584 0,147.50782 L0,0.82675 C0,0.36873 0.36873,0 0.82675,0 Z" id="rect8528-63-2-4" fill="#00AED9"></path>
            <g id="text6065-3-2-9-6-6" transform="translate(42.834160, 13.133330)" fill="#FFFFFF" fill-rule="nonzero">
                <path d="M6.20263,9.464 C6.20263,9.86222 6.17773,10.20444 6.12793,10.49066 C6.09059667,10.7768867 5.96615333,11.088 5.7546,11.424 C5.6426,11.59822 5.49948667,11.76622 5.32526,11.928 C5.16348667,12.0773333 4.97682,12.21422 4.76526,12.33866 C4.56615333,12.45066 4.34837667,12.5439933 4.11193,12.61866 C3.87548333,12.6933267 3.64526,12.73066 3.42126,12.73066 C2.86126,12.73066 2.35104,12.61244 1.8906,12.376 C1.4426,12.1395533 1.11282,11.8408867 0.90126,11.48 C0.689706667,11.1191067 0.55282,10.7831067 0.4906,10.472 C0.4408,10.1608867 0.4159,9.82488667 0.4159,9.464 L0.4159,3.024 C0.4159,2.67555333 0.447,2.36444 0.5092,2.09066 C0.583866667,1.80444 0.7332,1.49955333 0.9572,1.176 C1.1812,0.85244 1.49853333,0.57866 1.9092,0.35466 C2.31986667,0.11822 2.7492,-5.68434189e-14 3.1972,-5.68434189e-14 C4.05586667,-5.68434189e-14 4.77142333,0.28622 5.34387,0.85866 C5.91631667,1.41866 6.20254,2.14044 6.20254,3.024 L6.20254,3.696 L4.4292,3.696 L4.4292,3.024 C4.4292,2.67555333 4.32964667,2.38310667 4.13054,2.14666 C3.94387333,1.91022 3.66387333,1.792 3.29054,1.792 C2.94209333,1.792 2.66831333,1.91022 2.4692,2.14666 C2.28253333,2.38310667 2.1892,2.67555333 2.1892,3.024 L2.1892,9.94933 C2.21406667,10.1359967 2.30118,10.3475533 2.45054,10.584 C2.62476,10.8328867 2.91098,10.95733 3.3092,10.95733 C3.73231333,10.95733 4.01231333,10.84533 4.1492,10.62133 C4.28609333,10.39733 4.36698333,10.2355533 4.39187,10.136 C4.41673667,10.024 4.42917,9.87466667 4.42917,9.688 L4.42917,9.05333 L6.20251,9.05333 L6.20263,9.464 Z" id="path2037"></path>
                <polygon id="path2039" points="12.82135 12.61866 7.48268 12.61866 7.48268 0.112 9.27468 0.112 9.27468 10.82666 12.82135 10.82666"></polygon>
                <polygon id="path2041" points="18.75228 10.82666 18.75228 12.61866 13.39495 12.61866 13.39495 0.112 18.75228 0.112 18.75228 1.75466 15.16828 1.75466 15.16828 5.45066 18.30428 5.45066 18.30428 7.14933 15.16828 7.14933 15.16828 10.82666"></polygon>
                <path d="M19.08959,12.61866 L21.88959,0.112 L23.43892,0.112 L26.23892,12.61866 L24.31625,12.61866 L23.81225,9.93066 L21.49759,9.93066 L20.97492,12.61866 L19.08959,12.61866 Z M21.81492,8.26933 L23.49492,8.26933 L22.65492,3.71466 L21.81492,8.26933 Z" id="path2043"></path>
                <polygon id="path2045" points="31.58295 12.61866 28.80162 5.02133 28.80162 12.61866 27.00962 12.61866 27.00962 0.112 28.70828 0.112 31.47095 7.69066 31.47095 0.112 33.26295 0.112 33.26295 12.61866"></polygon>
                <polygon id="path2047" points="42.28897 12.61866 40.8143 5.00266 39.37697 12.61866 37.71563 12.61866 35.90497 0.112 37.80897 0.112 38.70497 7.672 40.1423 0.112 41.46763 0.112 42.9423 7.672 43.8383 0.112 45.72363 0.112 43.96897 12.61866"></polygon>
                <path d="M45.27229,12.61866 L48.07229,0.112 L49.62163,0.112 L52.42163,12.61866 L50.49896,12.61866 L49.99496,9.93066 L47.68029,9.93066 L47.15763,12.61866 L45.27229,12.61866 Z M47.99763,8.26933 L49.67763,8.26933 L48.83763,3.71466 L47.99763,8.26933 Z" id="path2049"></path>
                <polygon id="path2051" points="53.78158 12.61866 53.78158 1.77333 51.67225 1.77333 51.67225 0.112 57.70158 0.112 57.70158 1.77333 55.55492 1.77333 55.55492 12.61866"></polygon>
                <polygon id="path2053" points="64.08852 10.82666 64.08852 12.61866 58.73119 12.61866 58.73119 0.112 64.08852 0.112 64.08852 1.75466 60.50452 1.75466 60.50452 5.45066 63.64052 5.45066 63.64052 7.14933 60.50452 7.14933 60.50452 10.82666"></polygon>
                <path d="M65.00579,12.61866 L65.00579,0.112 L68.14179,0.112 C68.9631233,0.112 69.65379,0.39822 70.21379,0.97066 C70.7862367,1.54310667 71.07246,2.24622 71.07246,3.08 L71.07246,4.23733 C71.07246,5.39466333 70.5809033,6.27822 69.59779,6.888 L71.50179,12.61866 L69.59779,12.61866 L67.91779,7.26133 L66.79779,7.26133 L66.79779,12.61866 L65.00579,12.61866 Z M68.98179,5.28266 C69.09379,5.14577333 69.1684567,4.99022 69.20579,4.816 C69.25559,4.64177333 69.28049,4.44888333 69.28049,4.23733 L69.28049,3.08 C69.28049,2.69422 69.1747133,2.38310667 68.96316,2.14666 C68.7516,1.89777333 68.4529333,1.77333 68.06716,1.77333 L66.79779,1.77333 L66.79779,5.67466 L68.04846,5.67466 C68.4217933,5.67466 68.7329033,5.54399333 68.98179,5.28266 L68.98179,5.28266 Z" id="path2055"></path>
                <path d="M0,29.86564 L2.8,17.35897 L4.34933,17.35897 L7.14933,29.86564 L5.22666,29.86564 L4.72266,27.17764 L2.408,27.17764 L1.88533,29.86564 L0,29.86564 Z M2.72533,25.51631 L4.40533,25.51631 L3.56533,20.96164 L2.72533,25.51631 Z" id="path2057"></path>
                <polygon id="path2059" points="12.49336 29.86564 9.71202 22.26831 9.71202 29.86564 7.92002 29.86564 7.92002 17.35897 9.61869 17.35897 12.38136 24.93764 12.38136 17.35897 14.17336 17.35897 14.17336 29.86564"></polygon>
                <path d="M18.11241,17.35897 C18.9212967,17.35897 19.6119633,17.6451933 20.18441,18.21764 C20.7692967,18.77764 21.06174,19.4620833 21.06174,20.27097 L21.06174,26.76697 C21.06174,27.6878633 20.78174,28.43453 20.22174,29.00697 C19.66174,29.5794167 18.9399633,29.86564 18.05641,29.86564 L15.27508,29.86564 L15.27508,17.35897 L18.11241,17.35897 Z M19.28841,26.76697 L19.28841,20.27097 C19.28841,19.92253 19.1577433,19.6300867 18.89641,19.39364 C18.6475233,19.1571933 18.3426333,19.03897 17.98174,19.03897 L17.04841,19.03897 L17.04841,28.20431 L17.92574,28.20431 C18.8341867,28.20431 19.28841,27.7251967 19.28841,26.76697 L19.28841,26.76697 Z" id="path2061"></path>
                <path d="M26.30001,26.74831 C26.30001,26.87275 26.30001,26.9785267 26.30001,27.06564 C26.30001,27.1527533 26.3062433,27.22742 26.31871,27.28964 C26.3435767,27.4140867 26.43691,27.59453 26.59871,27.83097 C26.77293,28.0798633 27.08404,28.20431 27.53204,28.20431 C27.7809333,28.20431 28.0111567,28.15453 28.22271,28.05497 C28.4342633,27.94297 28.58982,27.79986 28.68938,27.62564 C28.7640467,27.4887533 28.8076,27.3580867 28.82004,27.23364 C28.8449067,27.1091933 28.85734,26.9971933 28.85734,26.89764 L28.85734,26.72964 L28.85734,25.85231 L28.85734,25.68431 C28.85734,25.41053 28.80756,25.1989733 28.708,25.04964 C28.6084467,24.88786 28.3844467,24.7074167 28.036,24.50831 C27.79956,24.3838633 27.37645,24.20964 26.76667,23.98564 C26.1568967,23.76164 25.6466767,23.4069733 25.23601,22.92164 C24.8253433,22.4363067 24.62001,21.77675 24.62001,20.94297 L24.62001,20.38297 C24.62001,19.5243033 24.90623,18.7900833 25.47867,18.18031 C26.0635567,17.5580833 26.77289,17.24697 27.60667,17.24697 C28.4777833,17.24697 29.19956,17.55186 29.772,18.16164 C30.3568933,18.77142 30.64934,19.5118633 30.64934,20.38297 L30.64934,20.94297 L28.85734,20.94297 L28.85734,20.38297 C28.85734,20.2958633 28.8511067,20.2149767 28.83864,20.14031 C28.83864,20.0656433 28.8324067,19.9971967 28.81994,19.93497 C28.8074733,19.87277 28.7763733,19.7981033 28.72664,19.71097 C28.67684,19.6238633 28.6083967,19.5180867 28.52131,19.39364 C28.3470833,19.1447533 28.0546367,19.02031 27.64397,19.02031 C27.2830833,19.02031 26.9844167,19.1509767 26.74797,19.41231 C26.52397,19.6736433 26.41197,19.9971967 26.41197,20.38297 L26.41197,20.94297 L26.41197,21.11097 C26.41197,21.3598633 26.4493033,21.5589767 26.52397,21.70831 C26.6110833,21.8451967 26.8101967,22.00075 27.12131,22.17497 C27.2208633,22.22477 27.3701967,22.2932167 27.56931,22.38031 C27.7808633,22.4549767 28.0359733,22.54831 28.33464,22.66031 C28.9319733,22.8594167 29.4670833,23.2140833 29.93997,23.72431 C30.4128633,24.23453 30.64934,24.90653 30.64934,25.74031 L30.64934,26.74831 C30.64934,27.1838633 30.6057533,27.5509733 30.51864,27.84964 C30.4439733,28.1483067 30.1888633,28.5838633 29.75331,29.15631 C29.31775,29.7038633 28.58975,29.97764 27.56931,29.97764 C26.4866433,29.97764 25.7026433,29.6291967 25.21731,28.93231 C24.7319767,28.2229767 24.48931,27.4949767 24.48931,26.74831 L24.48931,26.30031 L26.29997,26.30031 L26.30001,26.74831 Z" id="path2063"></path>
                <path d="M30.9952,29.86564 L33.7952,17.35897 L35.34453,17.35897 L38.14453,29.86564 L36.22187,29.86564 L35.71787,27.17764 L33.4032,27.17764 L32.88053,29.86564 L30.9952,29.86564 Z M33.72053,25.51631 L35.40053,25.51631 L34.56053,20.96164 L33.72053,25.51631 Z" id="path2065"></path>
                <polygon id="path2067" points="43.62991 29.86564 40.84858 22.26831 40.84858 29.86564 39.05658 29.86564 39.05658 17.35897 40.75524 17.35897 43.51791 24.93764 43.51791 17.35897 45.30991 17.35897 45.30991 29.86564"></polygon>
                <polygon id="path2069" points="46.4823 29.86564 46.4823 17.35897 48.25563 17.35897 48.25563 29.86564"></polygon>
                <polygon id="path2071" points="51.35569 29.86564 51.35569 19.02031 49.24636 19.02031 49.24636 17.35897 55.27569 17.35897 55.27569 19.02031 53.12902 19.02031 53.12902 29.86564"></polygon>
                <path d="M54.64657,29.86564 L57.44657,17.35897 L58.9959,17.35897 L61.7959,29.86564 L59.87324,29.86564 L59.36924,27.17764 L57.05457,27.17764 L56.5319,29.86564 L54.64657,29.86564 Z M57.3719,25.51631 L59.0519,25.51631 L58.2119,20.96164 L57.3719,25.51631 Z" id="path2073"></path>
                <polygon id="path2075" points="63.36788 29.86564 63.36788 19.02031 61.25855 19.02031 61.25855 17.35897 67.28788 17.35897 67.28788 19.02031 65.14121 19.02031 65.14121 29.86564"></polygon>
                <polygon id="path2077" points="68.24681 29.86564 68.24681 17.35897 70.02014 17.35897 70.02014 29.86564"></polygon>
                <path d="M72.02286,18.53497 C72.3090867,18.13675 72.6699767,17.82564 73.10553,17.60164 C73.55353,17.3651933 74.0139733,17.24697 74.48686,17.24697 C74.9473067,17.24697 75.37664,17.3403033 75.77486,17.52697 C76.1855267,17.7136367 76.52775,17.96875 76.80153,18.29231 C77.07531,18.6158633 77.2619767,18.9518633 77.36153,19.30031 C77.4610833,19.63631 77.51086,20.00342 77.51086,20.40164 L77.51086,26.76697 C77.51086,27.1403033 77.4735267,27.4700833 77.39886,27.75631 C77.33666,28.04253 77.1873267,28.3598633 76.95086,28.70831 C76.72686,29.05675 76.3970833,29.3554167 75.96153,29.60431 C75.5384167,29.8531967 75.0655267,29.97764 74.54286,29.97764 C74.2441933,29.97764 73.9579733,29.9403067 73.6842,29.86564 C73.41042,29.7785267 73.1553067,29.6665267 72.91886,29.52964 C72.68242,29.3927533 72.4708667,29.2371967 72.2842,29.06297 C72.1099733,28.88875 71.9730833,28.7083067 71.87353,28.52164 C71.6868633,28.13586 71.5748633,27.82475 71.53753,27.58831 C71.5001967,27.3518633 71.48153,27.0780833 71.48153,26.76697 L71.48153,20.40164 C71.48153,20.0283067 71.5188633,19.69853 71.59353,19.41231 C71.6806433,19.1136433 71.8237533,18.8211967 72.02286,18.53497 L72.02286,18.53497 Z M75.49486,19.52431 C75.25842,19.1758633 74.9348667,19.00164 74.5242,19.00164 C74.31264,19.00164 74.1010833,19.0638633 73.88953,19.18831 C73.6904167,19.30031 73.5473067,19.4309767 73.4602,19.58031 C73.3855333,19.7296433 73.3357533,19.8789767 73.31086,20.02831 C73.2859933,20.1776433 73.27356,20.3020867 73.27356,20.40164 L73.27356,26.76697 C73.27356,26.82917 73.27356,26.8976167 73.27356,26.97231 C73.27356,27.03451 73.2797933,27.1029533 73.29226,27.17764 C73.3047267,27.3020867 73.40428,27.50742 73.59092,27.79364 C73.7775867,28.0549733 74.0887,28.18564 74.52426,28.18564 C74.74826,28.18564 74.94737,28.1358633 75.12159,28.03631 C75.3082567,27.92431 75.4389233,27.7998633 75.51359,27.66297 C75.6007033,27.5136367 75.6567033,27.37675 75.68159,27.25231 C75.7064567,27.1278633 75.71889,26.9660833 75.71889,26.76697 L75.71889,20.40164 C75.71889,20.1527533 75.7064567,19.97853 75.68159,19.87897 C75.6691233,19.7794167 75.6069,19.6611967 75.49492,19.52431 L75.49486,19.52431 Z" id="path2079"></path>
                <polygon id="path2081" points="83.59555 29.86564 80.81422 22.26831 80.81422 29.86564 79.02222 29.86564 79.02222 17.35897 80.72088 17.35897 83.48355 24.93764 83.48355 17.35897 85.27555 17.35897 85.27555 29.86564"></polygon>
            </g>
            <g id="text6075-0-6-9-2-5" transform="translate(16.152440, 12.502940)" fill="#FFFFFF" fill-rule="nonzero">
                <path d="M12.23866,14.606 C12.4768867,15.0228867 12.6257767,15.4546633 12.68533,15.90133 C12.7746633,16.3479967 12.81933,16.8988867 12.81933,17.554 L12.81933,23.27133 C12.81933,23.9562233 12.7448867,24.6411133 12.596,25.326 C12.4471067,25.9811133 12.00044,26.9042233 11.256,28.09533 C10.4817733,29.3162233 9.02266,30.0160033 6.87866,30.19467 C5.53866,30.19467 4.31777333,29.91178 3.216,29.346 C2.144,28.7504467 1.38466667,28.05067 0.938,27.24667 C0.521106667,26.41289 0.253106667,25.71311 0.134,25.14733 C0.0446666667,24.5815567 0,23.9562233 0,23.27133 L0,18.58133 C0,17.9262233 0.0149,17.46467 0.0447,17.19667 C0.0745,16.89889 0.178723333,16.5117767 0.35737,16.03533 L6.29804,0 L11.12204,0 L6.29804,12.55133 C6.83404,12.34289 7.47426,12.23867 8.2187,12.23867 L8.6207,12.23867 C10.25848,12.47689 11.46448,13.266 12.2387,14.606 L12.23866,14.606 Z M8.174,16.884 C7.72733333,16.2884467 7.13177667,15.99067 6.38733,15.99067 C5.73221667,15.99067 5.22599333,16.22889 4.86866,16.70533 C4.51132667,17.1817767 4.33266,17.80711 4.33266,18.58133 L4.33266,23.27133 C4.33266,23.8966633 4.48155,24.49222 4.77933,25.058 C5.10688333,25.594 5.65777333,25.862 6.432,25.862 L6.7,25.862 C7.47422,25.862 7.98044,25.594 8.21866,25.058 C8.45688667,24.522 8.576,23.9264433 8.576,23.27133 L8.576,18.58133 C8.576,18.1942233 8.54623333,17.8815567 8.4867,17.64333 C8.4569,17.37533 8.35268,17.12222 8.17404,16.884 L8.174,16.884 Z" id="path2084"></path>
            </g>
            <path d="M47.82623,59.79786 C47.11703,59.79786 46.42393,60.42049 46.57818,61.35841 L55.31256,114.46583 C55.42562,115.15328 55.86171,115.792 56.56061,115.792 L67.16607,115.792 L67.94733,124.44825 L63.42389,124.44825 L74.14654,135.17286 L84.8692,124.44825 L80.34576,124.44825 L81.12701,115.792 L91.73248,115.792 C92.43138,115.792 92.86747,115.15328 92.98053,114.46583 L101.7149,61.35841 C101.86915,60.42049 101.17606,59.79786 100.46686,59.79786 L47.82623,59.79786 Z M49.43951,62.44435 L98.85357,62.44435 L97.39459,71.31739 C91.66718,70.6545 83.07983,77.99126 73.4317,73.14356 C61.55681,67.17705 61.29953,73.60882 51.18561,73.06544 L49.43951,62.44435 Z M74.10748,81.01075 C78.76995,89.08637 82.75006,92.19703 82.75006,97.66114 C82.75006,101.31306 80.44527,106.04396 74.10748,106.04396 C67.76969,106.04396 65.4649,101.31306 65.4649,97.66114 C65.4649,92.19703 69.44502,89.08637 74.10748,81.01075 Z" id="path7044-1" fill="#FFFFFF" fill-rule="nonzero"></path>
        </g>
    </g>
</svg>