<?xml version="1.0" encoding="UTF-8"?>
<svg width="149px" height="150px" viewBox="0 0 149 150" version="1.1" xmlns="http://www.w3.org/2000/svg" xmlns:xlink="http://www.w3.org/1999/xlink">
    <title>7-affordable-and-clean-energy</title>
    <g id="SDGs" stroke="none" stroke-width="1" fill="none" fill-rule="evenodd">
        <g id="7-affordable-and-clean-energy" transform="translate(0.000000, 0.783310)">
            <path d="M0.826754,0 L147.266003,0 C147.724023,0 148.092753,0.36873 148.092753,0.82676 L148.092753,147.50783 C148.092753,147.96585 147.724023,148.33458 147.266003,148.33458 L0.826754,148.33458 C0.368732,148.33458 0,147.96585 0,147.50783 L0,0.82676 C0,0.36873 0.368732,0 0.826754,0 Z" id="rect8528-63-2-4-3-6-0-4-3-6" fill="#FDB713"></path>
            <g id="text6065-3-2-9-6-6-5" transform="translate(41.976148, 12.957290)" fill="#FFFFFF" fill-rule="nonzero">
                <path d="M0,12.61867 L2.8,0.112 L4.349333,0.112 L7.149333,12.61867 L5.226666,12.61867 L4.722666,9.93067 L2.408,9.93067 L1.885333,12.61867 L0,12.61867 Z M2.725333,8.26934 L4.405333,8.26934 L3.565333,3.71467 L2.725333,8.26934 Z" id="path2087"></path>
                <polygon id="path2089" points="7.946391 12.61867 7.946391 0.112 13.285055 0.112 13.285055 1.792 9.719724 1.792 9.719724 5.544 12.837055 5.544 12.837055 7.224 9.719724 7.224 9.719724 12.61867"></polygon>
                <polygon id="path2091" points="14.147115 12.61867 14.147115 0.112 19.485785 0.112 19.485785 1.792 15.920455 1.792 15.920455 5.544 19.037785 5.544 19.037785 7.224 15.920455 7.224 15.920455 12.61867"></polygon>
                <path d="M20.298585,1.288 C20.584805,0.88978 20.9456917,0.57867 21.381245,0.35467 C21.829245,0.118223333 22.2896917,0 22.762585,0 C23.223025,0 23.6523583,0.0933333333 24.050585,0.28 C24.4612517,0.466666667 24.8034717,0.72178 25.077245,1.04534 C25.351025,1.36889333 25.5376917,1.70489333 25.637245,2.05334 C25.736805,2.38934 25.786585,2.75645 25.786585,3.15467 L25.786585,9.52 C25.786585,9.89333333 25.7492517,10.2231133 25.674585,10.50934 C25.612385,10.79556 25.4630517,11.1128933 25.226585,11.46134 C25.002585,11.80978 24.672805,12.1084467 24.237245,12.35734 C23.8141383,12.6062267 23.3412517,12.73067 22.818585,12.73067 C22.5199183,12.73067 22.233695,12.6933367 21.959915,12.61867 C21.686135,12.5315567 21.431025,12.4195567 21.194585,12.28267 C20.9581383,12.1457833 20.7465817,11.9902267 20.559915,11.816 C20.385695,11.64178 20.248805,11.4613367 20.149245,11.27467 C19.9625783,10.88889 19.8505783,10.57778 19.813245,10.34134 C19.7759117,10.1048933 19.757245,9.83111333 19.757245,9.52 L19.757245,3.15467 C19.757245,2.78133667 19.7945783,2.45156 19.869245,2.16534 C19.9563583,1.86667333 20.0994717,1.57422667 20.298585,1.288 L20.298585,1.288 Z M23.770585,2.27734 C23.5341383,1.92889333 23.2105817,1.75467 22.799915,1.75467 C22.5883617,1.75467 22.376805,1.81689333 22.165245,1.94134 C21.9661383,2.05334 21.8230283,2.18400667 21.735915,2.33334 C21.6612483,2.48267333 21.6114717,2.63200667 21.586585,2.78134 C21.5617183,2.93067333 21.549285,3.05511667 21.549285,3.15467 L21.549285,9.52 C21.549285,9.5822 21.549285,9.65064667 21.549285,9.72534 C21.549285,9.78754 21.5555183,9.85598333 21.567985,9.93067 C21.5804517,10.0551167 21.6800083,10.26045 21.866655,10.54667 C22.0533217,10.8080033 22.3644317,10.93867 22.799985,10.93867 C23.023985,10.93867 23.223095,10.8888933 23.397315,10.78934 C23.5839817,10.67734 23.7146483,10.5528933 23.789315,10.416 C23.8764283,10.2666667 23.9324283,10.12978 23.957315,10.00534 C23.9821817,9.88089333 23.994615,9.71911333 23.994615,9.52 L23.994615,3.15467 C23.994615,2.90578333 23.9821817,2.73156 23.957315,2.632 C23.9448483,2.53244667 23.8826283,2.41422667 23.770655,2.27734 L23.770585,2.27734 Z" id="path2093"></path>
                <path d="M27.331985,12.61867 L27.331985,0.112 L30.467985,0.112 C31.2893183,0.112 31.979985,0.398223333 32.539985,0.97067 C33.1124317,1.54311667 33.398655,2.24622667 33.398655,3.08 L33.398655,4.23734 C33.398655,5.39467333 32.9070983,6.27822667 31.923985,6.888 L33.827985,12.61867 L31.923985,12.61867 L30.243985,7.26134 L29.123985,7.26134 L29.123985,12.61867 L27.331985,12.61867 Z M31.307985,5.28267 C31.419985,5.14578333 31.4946517,4.99022667 31.531985,4.816 C31.581785,4.64178 31.606685,4.44889333 31.606685,4.23734 L31.606685,3.08 C31.606685,2.69422667 31.5009083,2.38311667 31.289355,2.14667 C31.077795,1.89778333 30.7791283,1.77334 30.393355,1.77334 L29.124015,1.77334 L29.124015,5.67467 L30.374685,5.67467 C30.7480183,5.67467 31.0591283,5.54400333 31.308015,5.28267 L31.307985,5.28267 Z" id="path2095"></path>
                <path d="M37.342245,0.112 C38.1511317,0.112 38.8417983,0.398223333 39.414245,0.97067 C39.9991317,1.53067 40.291575,2.21511333 40.291575,3.024 L40.291575,9.52 C40.291575,10.4408933 40.011575,11.18756 39.451575,11.76 C38.891575,12.3324467 38.1697983,12.61867 37.286245,12.61867 L34.504905,12.61867 L34.504905,0.112 L37.342245,0.112 Z M38.518245,9.52 L38.518245,3.024 C38.518245,2.67556 38.3875783,2.38311667 38.126245,2.14667 C37.8773517,1.91022333 37.5724617,1.792 37.211575,1.792 L36.278245,1.792 L36.278245,10.95734 L37.155575,10.95734 C38.0640217,10.95734 38.518245,10.4782267 38.518245,9.52 L38.518245,9.52 Z" id="path2097"></path>
                <path d="M41.136245,12.61867 L43.936245,0.112 L45.485575,0.112 L48.285575,12.61867 L46.362905,12.61867 L45.858905,9.93067 L43.544245,9.93067 L43.021575,12.61867 L41.136245,12.61867 Z M43.861575,8.26934 L45.541575,8.26934 L44.701575,3.71467 L43.861575,8.26934 Z" id="path2099"></path>
                <path d="M52.146945,0.112 C52.532725,0.112 52.893615,0.19289 53.229615,0.35467 C53.6029483,0.52889 53.982505,0.80889 54.368285,1.19467 C54.7789517,1.59289 54.984285,2.21511333 54.984285,3.06134 L54.984285,4.01334 C54.984285,4.97156 54.6047283,5.64356 53.845615,6.02934 C54.6047283,6.47734 54.984285,7.17422667 54.984285,8.12 L54.984285,9.576 C54.984285,10.45956 54.6980617,11.18756 54.125615,11.76 C53.565615,12.3324467 52.8438383,12.61867 51.960285,12.61867 L49.197615,12.61867 L49.197615,0.112 L52.146945,0.112 Z M53.210945,3.82667 L53.210945,3.06134 C53.210945,2.67556 53.098945,2.37067 52.874945,2.14667 C52.650945,1.91022333 52.3522783,1.792 51.978945,1.792 L50.970945,1.792 L50.970945,5.24534 L52.034945,5.24534 C52.4456117,5.24534 52.7442783,5.12089333 52.930945,4.872 C53.1176117,4.61066667 53.210945,4.26222333 53.210945,3.82667 L53.210945,3.82667 Z M53.210945,9.576 L53.210945,8.12 C53.210945,7.72178 53.098945,7.41067 52.874945,7.18667 C52.6633917,6.95022333 52.364725,6.832 51.978945,6.832 L50.970945,6.832 L50.970945,10.84534 L51.997615,10.84534 C52.3585017,10.84534 52.650945,10.7271167 52.874945,10.49067 C53.098945,10.2417833 53.210945,9.93689333 53.210945,9.576 Z" id="path2101"></path>
                <polygon id="path2103" points="61.756875 12.61867 56.418205 12.61867 56.418205 0.112 58.210205 0.112 58.210205 10.82667 61.756875 10.82667"></polygon>
                <polygon id="path2105" points="67.660325 10.82667 67.660325 12.61867 62.302995 12.61867 62.302995 0.112 67.660325 0.112 67.660325 1.75467 64.076325 1.75467 64.076325 5.45067 67.212325 5.45067 67.212325 7.14934 64.076325 7.14934 64.076325 10.82667"></polygon>
                <path d="M69.599005,12.61867 L72.399005,0.112 L73.948335,0.112 L76.748335,12.61867 L74.825675,12.61867 L74.321675,9.93067 L72.007005,9.93067 L71.484335,12.61867 L69.599005,12.61867 Z M72.324335,8.26934 L74.004335,8.26934 L73.164335,3.71467 L72.324335,8.26934 Z" id="path2107"></path>
                <polygon id="path2109" points="82.233715 12.61867 79.452385 5.02134 79.452385 12.61867 77.660385 12.61867 77.660385 0.112 79.359045 0.112 82.121715 7.69067 82.121715 0.112 83.913715 0.112 83.913715 12.61867"></polygon>
                <path d="M88.010945,0.112 C88.8198317,0.112 89.5104983,0.398223333 90.082945,0.97067 C90.6678317,1.53067 90.960275,2.21511333 90.960275,3.024 L90.960275,9.52 C90.960275,10.4408933 90.680275,11.18756 90.120275,11.76 C89.560275,12.3324467 88.8384983,12.61867 87.954945,12.61867 L85.173615,12.61867 L85.173615,0.112 L88.010945,0.112 Z M89.186945,9.52 L89.186945,3.024 C89.186945,2.67556 89.0562783,2.38311667 88.794945,2.14667 C88.5460583,1.91022333 88.2411683,1.792 87.880275,1.792 L86.946945,1.792 L86.946945,10.95734 L87.824275,10.95734 C88.7327217,10.95734 89.186945,10.4782267 89.186945,9.52 L89.186945,9.52 Z" id="path2111"></path>
                <path d="M6.511683,26.71098 C6.511683,27.1092 6.486793,27.4514233 6.437013,27.73765 C6.39967967,28.02387 6.275235,28.33498 6.063679,28.67098 C5.951679,28.8452 5.808568,29.0132 5.634346,29.17498 C5.472568,29.3243133 5.28590133,29.4612033 5.074346,29.58565 C4.87523467,29.69765 4.657457,29.7909833 4.421013,29.86565 C4.18456833,29.9403167 3.954346,29.97765 3.730346,29.97765 C3.170346,29.97765 2.66012367,29.8594267 2.199679,29.62298 C1.751679,29.3865333 1.42190133,29.0878667 1.210346,28.72698 C0.998790667,28.3660933 0.861901667,28.0300933 0.799679,27.71898 C0.749899,27.4078667 0.725009,27.0718667 0.725009,26.71098 L0.725009,20.27098 C0.725009,19.9225333 0.756119,19.6114233 0.818339,19.33765 C0.893005667,19.0514233 1.042339,18.7465333 1.266339,18.42298 C1.490339,18.0994267 1.80767233,17.82565 2.218339,17.60165 C2.62900567,17.3652033 3.058339,17.24698 3.506339,17.24698 C4.36500567,17.24698 5.08056133,17.5332033 5.653006,18.10565 C6.22545,18.66565 6.511683,19.3874267 6.511683,20.27098 L6.511683,20.94298 L4.738339,20.94298 L4.738339,20.27098 C4.738339,19.9225333 4.63878333,19.63009 4.439672,19.39365 C4.25300533,19.1572033 3.97300533,19.03898 3.599672,19.03898 C3.251228,19.03898 2.97745033,19.1572033 2.778339,19.39365 C2.59167233,19.63009 2.498339,19.9225333 2.498339,20.27098 L2.498339,27.19631 C2.52322567,27.3829767 2.61033667,27.5945333 2.759672,27.83098 C2.93389467,28.0798667 3.220117,28.20431 3.618339,28.20431 C4.04145033,28.20431 4.32145033,28.09231 4.458339,27.86831 C4.59522767,27.64431 4.67611667,27.4825333 4.701006,27.38298 C4.72589267,27.27098 4.738336,27.1216467 4.738336,26.93498 L4.738336,26.30031 L6.511683,26.30031 L6.511683,26.71098 Z" id="path2113"></path>
                <polygon id="path2115" points="13.068155 29.86565 7.729484 29.86565 7.729484 17.35898 9.521484 17.35898 9.521484 28.07365 13.068155 28.07365"></polygon>
                <polygon id="path2117" points="18.856615 28.07365 18.856615 29.86565 13.499285 29.86565 13.499285 17.35898 18.856615 17.35898 18.856615 19.00165 15.272615 19.00165 15.272615 22.69765 18.408615 22.69765 18.408615 24.39631 15.272615 24.39631 15.272615 28.07365"></polygon>
                <path d="M19.087355,29.86565 L21.887355,17.35898 L23.436685,17.35898 L26.236685,29.86565 L24.314025,29.86565 L23.810025,27.17765 L21.495355,27.17765 L20.972685,29.86565 L19.087355,29.86565 Z M21.812685,25.51631 L23.492685,25.51631 L22.652685,20.96165 L21.812685,25.51631 Z" id="path2119"></path>
                <polygon id="path2121" points="31.722065 29.86565 28.940725 22.26831 28.940725 29.86565 27.148725 29.86565 27.148725 17.35898 28.847395 17.35898 31.610065 24.93765 31.610065 17.35898 33.402065 17.35898 33.402065 29.86565"></polygon>
                <polygon id="path2123" points="41.842215 28.07365 41.842215 29.86565 36.484885 29.86565 36.484885 17.35898 41.842215 17.35898 41.842215 19.00165 38.258215 19.00165 38.258215 22.69765 41.394215 22.69765 41.394215 24.39631 38.258215 24.39631 38.258215 28.07365"></polygon>
                <polygon id="path2125" points="47.138355 29.86565 44.357025 22.26831 44.357025 29.86565 42.565025 29.86565 42.565025 17.35898 44.263695 17.35898 47.026355 24.93765 47.026355 17.35898 48.818355 17.35898 48.818355 29.86565"></polygon>
                <polygon id="path2127" points="55.090635 28.07365 55.090635 29.86565 49.733305 29.86565 49.733305 17.35898 55.090635 17.35898 55.090635 19.00165 51.506635 19.00165 51.506635 22.69765 54.642635 22.69765 54.642635 24.39631 51.506635 24.39631 51.506635 28.07365"></polygon>
                <path d="M56.024735,29.86565 L56.024735,17.35898 L59.160735,17.35898 C59.9820683,17.35898 60.672735,17.6452033 61.232735,18.21765 C61.8051817,18.79009 62.091405,19.4932 62.091405,20.32698 L62.091405,21.48431 C62.091405,22.6416433 61.5998483,23.5252 60.616735,24.13498 L62.520735,29.86565 L60.616735,29.86565 L58.936735,24.50831 L57.816735,24.50831 L57.816735,29.86565 L56.024735,29.86565 Z M60.000735,22.52965 C60.112735,22.3927567 60.1874017,22.2372 60.224735,22.06298 C60.274535,21.88876 60.299435,21.69587 60.299435,21.48431 L60.299435,20.32698 C60.299435,19.9412 60.1936583,19.63009 59.982105,19.39365 C59.770545,19.1447567 59.4718783,19.02031 59.086105,19.02031 L57.816765,19.02031 L57.816765,22.92165 L59.067435,22.92165 C59.4407683,22.92165 59.7518783,22.7909833 60.000765,22.52965 L60.000735,22.52965 Z" id="path2129"></path>
                <path d="M68.763305,28.55898 C68.477085,29.00698 68.109975,29.3554233 67.661975,29.60431 C67.213975,29.8532033 66.7224183,29.97765 66.187305,29.97765 C65.7144183,29.97765 65.253975,29.86565 64.805975,29.64165 C64.3704217,29.41765 64.0281983,29.14387 63.779305,28.82031 C63.542865,28.48431 63.3810883,28.14831 63.293975,27.81231 C63.2193083,27.47631 63.181975,27.0967567 63.181975,26.67365 L63.181975,20.42031 C63.181975,20.1092033 63.213075,19.7980933 63.275275,19.48698 C63.3623883,19.1758667 63.5926117,18.73409 63.965945,18.16165 C64.351725,17.55187 65.110835,17.24698 66.243275,17.24698 C66.741055,17.24698 67.2077217,17.3652033 67.643275,17.60165 C68.078835,17.83809 68.408615,18.1305333 68.632615,18.47898 C68.869055,18.81498 69.0183883,19.1385367 69.080615,19.44965 C69.1552817,19.7483167 69.192645,20.07187 69.192645,20.42031 L69.192645,20.94298 L67.419275,20.94298 L67.419275,20.42031 C67.419275,20.3207567 67.4130417,20.2336467 67.400575,20.15898 C67.400575,20.0718667 67.3943417,19.9972 67.381875,19.93498 C67.3694083,19.82298 67.276075,19.6425367 67.101875,19.39365 C66.927655,19.1447567 66.6352117,19.02031 66.224545,19.02031 C65.7392117,19.02031 65.415655,19.1509767 65.253875,19.41231 C65.1045417,19.6736433 65.0174317,19.8665333 64.992545,19.99098 C64.9676783,20.1154267 64.955245,20.2585367 64.955245,20.42031 L64.955245,26.67365 C64.955245,26.79809 64.955245,26.9038667 64.955245,26.99098 C64.955245,27.0780933 64.9614783,27.15276 64.973945,27.21498 C64.9864117,27.3145333 65.079745,27.5074233 65.253945,27.79365 C65.415725,28.0549833 65.7330583,28.18565 66.205945,28.18565 C66.6912783,28.18565 67.0023883,28.0549833 67.139275,27.79365 C67.2139417,27.6567567 67.2699417,27.5447567 67.307275,27.45765 C67.3446083,27.35809 67.3695083,27.2709767 67.381975,27.19631 C67.4068417,27.1216433 67.419275,27.0469767 67.419275,26.97231 C67.419275,26.8852033 67.419275,26.78565 67.419275,26.67365 L67.419275,24.48965 L65.981975,24.48965 L65.981975,22.92165 L69.192645,22.92165 L69.192645,26.67365 C69.192645,26.9349833 69.1864117,27.1589833 69.173945,27.34565 C69.1614783,27.51987 69.1365783,27.6754233 69.099245,27.81231 C69.0619117,27.9492033 69.012135,28.07987 68.949915,28.20431 C68.900115,28.31631 68.8378917,28.4345333 68.763245,28.55898 L68.763305,28.55898 Z" id="path2131"></path>
                <polygon id="path2133" points="71.890295 29.86565 71.890295 24.48965 69.463625 17.35898 71.330295 17.35898 72.786295 22.24965 74.260965 17.35898 76.146295 17.35898 73.663625 24.48965 73.663625 29.86565"></polygon>
            </g>
            <g id="text6075-0-6-9-2-5-9" transform="translate(15.262144, 12.326910)" fill="#FFFFFF" fill-rule="nonzero">
                <polygon id="path2136" points="3.796667 7.504 1.42108547e-14 7.504 1.42108547e-14 5.68434189e-14 12.774667 5.68434189e-14 12.774667 3.886 5.806667 29.92666 1.250667 29.92666 8.531334 3.97533 3.796667 3.97533"></polygon>
            </g>
            <path d="M38.4180426,91.4331198 L47.6975526,91.4331198 C48.7555526,91.4331198 49.6073026,92.2848698 49.6073026,93.3428698 C49.6073026,94.4008698 48.7555526,95.2526098 47.6975526,95.2526098 L38.4180426,95.2526098 C37.3600426,95.2526098 36.5082926,94.4008698 36.5082926,93.3428698 C36.5082926,92.2848698 37.3600426,91.4331198 38.4180426,91.4331198 Z M44.2817526,73.6586798 L52.3180526,78.2984298 C53.2343026,78.8274298 53.5460626,79.9909498 53.0170626,80.9071998 C52.4880626,81.8234598 51.3245526,82.1352198 50.4083026,81.6062198 L42.3720026,76.9664598 C41.4557526,76.4374598 41.1439926,75.2739498 41.6729926,74.3576998 C42.2019926,73.4414398 43.3655026,73.1296798 44.2817526,73.6586798 L44.2817526,73.6586798 Z M58.2471226,61.1974198 L62.8868726,69.2337098 C63.4158726,70.1499698 63.1041126,71.3134698 62.1878526,71.8424698 C61.2716026,72.3714698 60.1080926,72.0597198 59.5790926,71.1434598 L54.9393426,63.1071698 C54.4103426,62.1909198 54.7221026,61.0273998 55.6383526,60.4983998 C56.5546126,59.9693998 57.7181226,60.2811698 58.2471226,61.1974198 L58.2471226,61.1974198 Z M76.5721026,57.3883398 L76.5721026,66.6678498 C76.5721026,67.7258498 75.7203626,68.5775998 74.6623626,68.5775998 C73.6043626,68.5775998 72.7526126,67.7258498 72.7526126,66.6678498 L72.7526126,57.3883398 C72.7526126,56.3303398 73.6043626,55.4785898 74.6623626,55.4785898 C75.7203626,55.4785898 76.5721026,56.3303398 76.5721026,57.3883398 Z M94.3465426,63.2520498 L89.7067826,71.2883398 C89.1777826,72.2045898 88.0142926,72.5163498 87.0980326,71.9873498 C86.1817826,71.4583498 85.8700126,70.2948498 86.3990126,69.3785898 L91.0387626,61.3422998 C91.5677626,60.4260498 92.7312826,60.1142898 93.6475326,60.6432898 C94.5637926,61.1722898 94.8755426,62.3357898 94.3465426,63.2520498 L94.3465426,63.2520498 Z M106.807813,77.2174098 L98.7715226,81.8571598 C97.8552626,82.3861598 96.6917626,82.0743898 96.1627626,81.1581398 C95.6337626,80.2418798 95.9455226,79.0783898 96.8617726,78.5493898 L104.898073,73.9096298 C105.814323,73.3806298 106.977833,73.6923798 107.506833,74.6086398 C108.035833,75.5248898 107.724073,76.6884098 106.807813,77.2174098 L106.807813,77.2174098 Z M110.616923,95.5423998 L101.337403,95.5423998 C100.279403,95.5423998 99.4276626,94.6906598 99.4276626,93.6326598 C99.4276626,92.5746598 100.279403,91.7229098 101.337403,91.7229098 L110.616923,91.7229098 C111.674923,91.7229098 112.526663,92.5746598 112.526663,93.6326598 C112.526663,94.6906598 111.674923,95.5423998 110.616923,95.5423998 Z M104.753193,113.31683 L96.7169026,108.67708 C95.8006526,108.14808 95.4888826,106.98458 96.0178826,106.06832 C96.5468826,105.15207 97.7103926,104.8403 98.6266526,105.3693 L106.662943,110.00906 C107.579193,110.53806 107.890953,111.70157 107.361953,112.61782 C106.832953,113.53408 105.669453,113.84583 104.753193,113.31683 L104.753193,113.31683 Z M90.7878426,125.7781 L86.1480826,117.74181 C85.6190826,116.82556 85.9308426,115.66206 86.8471026,115.13306 C87.7633526,114.60406 88.9268626,114.91581 89.4558626,115.83207 L94.0956126,123.86836 C94.6246126,124.78461 94.3128526,125.94812 93.3966026,126.47712 C92.4803426,127.00612 91.3168426,126.69436 90.7878426,125.7781 Z M72.4628526,129.58722 L72.4628526,120.30771 C72.4628526,119.24971 73.3146026,118.39796 74.3726026,118.39796 C75.4306026,118.39796 76.2823426,119.24971 76.2823426,120.30771 L76.2823426,129.58722 C76.2823426,130.64522 75.4306026,131.49696 74.3726026,131.49696 C73.3146026,131.49696 72.4628526,130.64522 72.4628526,129.58722 Z M54.6883926,123.72348 L59.3281426,115.68719 C59.8571426,114.77093 61.0206626,114.45917 61.9369126,114.98817 C62.8531726,115.51717 63.1649326,116.68068 62.6359326,117.59694 L57.9961726,125.63323 C57.4671726,126.54948 56.3036726,126.86124 55.3874126,126.33224 C54.4711626,125.80324 54.1593926,124.63973 54.6883926,123.72348 L54.6883926,123.72348 Z M42.2271326,109.75812 L50.2634326,105.11837 C51.1796826,104.58937 52.3431926,104.90113 52.8721926,105.81739 C53.4011926,106.73364 53.0894326,107.89714 52.1731726,108.42614 L44.1368826,113.0659 C43.2206226,113.5949 42.0571226,113.28314 41.5281226,112.36689 C40.9991226,111.45063 41.3108826,110.28712 42.2271326,109.75812 L42.2271326,109.75812 Z M63.5630226,74.5157098 C53.0854086,80.5658364 49.4960009,93.9640793 55.5457526,104.44191 C61.5954998,114.918856 74.9925469,118.508581 85.4702526,112.46015 C95.9483939,106.410955 99.5389911,93.0130442 93.4901826,82.5346798 C90.5850846,77.5025934 85.7999236,73.8307077 80.1874473,72.3268471 C74.5749709,70.8229864 68.5949565,71.6103478 63.5630226,74.5157098 L63.5630226,74.5157098 Z M67.2136626,81.0028698 C67.8336426,80.6449198 68.6202426,80.8571198 68.9781926,81.4771098 L72.6696026,87.8708098 C73.0275526,88.4907998 72.8180126,89.2781098 72.1980426,89.6360598 C71.5780526,89.9940098 70.7897626,89.7827898 70.4318126,89.1627998 L66.7404026,82.7690998 C66.3824526,82.1491098 66.5936726,81.3608198 67.2136626,81.0028698 L67.2136626,81.0028698 Z M66.1877626,85.9681498 L68.0979226,89.2766398 C66.5069598,91.7015276 66.4180231,94.8159226 67.8680126,97.3276498 C69.9884054,100.999535 74.6837383,102.257643 78.3559926,100.13789 C80.1198604,99.1199109 81.4070658,97.4429005 81.9344113,95.475817 C82.4617569,93.5087336 82.1860405,91.4127273 81.1679226,89.6489398 C79.7244905,87.1547652 77.0060409,85.6787909 74.1281026,85.8266898 L72.2150126,82.5131298 C76.9609957,81.5151303 81.8113192,83.6774328 84.2413026,87.8745198 C85.7301102,90.453399 86.1334026,93.5181071 85.3624482,96.3943539 C84.5914939,99.2706007 82.7094547,101.722744 80.1304126,103.21127 C74.7607991,106.311191 67.8948938,104.471477 64.7946326,99.1020598 C62.3623744,94.8850713 62.9249777,89.5810581 66.1877626,85.9681498 L66.1877626,85.9681498 Z" id="rect7141-6-0-9-8-6-8-6-9-7" fill="#FFFFFF" transform="translate(74.517478, 93.487775) rotate(30.000000) translate(-74.517478, -93.487775) "></path>
        </g>
    </g>
</svg>