<?xml version="1.0" encoding="UTF-8"?>
<svg width="150px" height="150px" viewBox="0 0 150 150" version="1.1" xmlns="http://www.w3.org/2000/svg" xmlns:xlink="http://www.w3.org/1999/xlink">
    <title>8-decent-work-and-economic-growth</title>
    <g id="SDGs" stroke="none" stroke-width="1" fill="none" fill-rule="evenodd" opacity="0.800000012">
        <g id="8-decent-work-and-economic-growth" transform="translate(0.973653, 0.783310)">
            <path d="M0.82676,0 L147.26601,0 C147.72403,0 148.09276,0.36873 148.09276,0.82676 L148.09276,147.50783 C148.09276,147.96585 147.72403,148.33458 147.26601,148.33458 L0.82676,148.33458 C0.36873,148.33458 0,147.96585 0,147.50783 L0,0.82676 C0,0.36873 0.36873,0 0.82676,0 Z" id="rect8528-63-2-4-3-6-0-4-3" fill="#8F1838"></path>
            <g id="text6065-3-2-9-6-6-5-0" transform="translate(39.967970, 12.957290)" fill="#FFFFFF" fill-rule="nonzero">
                <path d="M2.83733,0.112 C3.64621667,0.112 4.33688333,0.398223333 4.90933,0.97067 C5.49421667,1.53067 5.78666,2.21511333 5.78666,3.024 L5.78666,9.52 C5.78666,10.4408933 5.50666,11.18756 4.94666,11.76 C4.38666,12.3324467 3.66488333,12.61867 2.78133,12.61867 L2.84217094e-14,12.61867 L2.84217094e-14,0.112 L2.83733,0.112 Z M4.01333,9.52 L4.01333,3.024 C4.01333,2.67556 3.88266333,2.38311667 3.62133,2.14667 C3.37244333,1.91022333 3.06755333,1.792 2.70666,1.792 L1.77333,1.792 L1.77333,10.95734 L2.65066,10.95734 C3.55910667,10.95734 4.01333,10.4782267 4.01333,9.52 L4.01333,9.52 Z" id="path2139"></path>
                <polygon id="path2141" points="12.68429 10.82667 12.68429 12.61867 7.32696 12.61867 7.32696 0.112 12.68429 0.112 12.68429 1.75467 9.10029 1.75467 9.10029 5.45067 12.23629 5.45067 12.23629 7.14934 9.10029 7.14934 9.10029 10.82667"></polygon>
                <path d="M19.23251,9.464 C19.23251,9.86222667 19.20761,10.20445 19.15781,10.49067 C19.1204767,10.77689 18.99603,11.088 18.78447,11.424 C18.67247,11.5982267 18.52936,11.7662267 18.35514,11.928 C18.19336,12.0773333 18.0066933,12.2142233 17.79514,12.33867 C17.5960267,12.45067 17.37825,12.5440033 17.14181,12.61867 C16.9053633,12.6933367 16.67514,12.73067 16.45114,12.73067 C15.89114,12.73067 15.3809167,12.6124467 14.92047,12.376 C14.47247,12.13956 14.1426933,11.8408933 13.93114,11.48 C13.7195867,11.1191133 13.5826967,10.7831133 13.52047,10.472 C13.47067,10.1608933 13.44577,9.82489333 13.44577,9.464 L13.44577,3.024 C13.44577,2.67556 13.47687,2.36445 13.53907,2.09067 C13.6137367,1.80445 13.76307,1.49956 13.98707,1.176 C14.21107,0.852446667 14.5284033,0.57867 14.93907,0.35467 C15.3497367,0.118223333 15.77907,1.13686838e-13 16.22707,1.13686838e-13 C17.0857367,1.13686838e-13 17.8012933,0.286223333 18.37374,0.85867 C18.94618,1.41867 19.2324,2.14044667 19.2324,3.024 L19.2324,3.696 L17.45907,3.696 L17.45907,3.024 C17.45907,2.67556 17.3595133,2.38311667 17.1604,2.14667 C16.9737333,1.91022333 16.6937333,1.792 16.3204,1.792 C15.97196,1.792 15.6981833,1.91022333 15.49907,2.14667 C15.3124033,2.38311667 15.21907,2.67556 15.21907,3.024 L15.21907,9.94934 C15.2439367,10.1360067 15.3310467,10.34756 15.4804,10.584 C15.6546267,10.8328933 15.94085,10.95734 16.33907,10.95734 C16.7621833,10.95734 17.0421833,10.84534 17.17907,10.62134 C17.3159567,10.39734 17.3968467,10.23556 17.42174,10.136 C17.4466067,10.024 17.45904,9.87466667 17.45904,9.688 L17.45904,9.05334 L19.23237,9.05334 L19.23251,9.464 Z" id="path2143"></path>
                <polygon id="path2145" points="25.7921 10.82667 25.7921 12.61867 20.43477 12.61867 20.43477 0.112 25.7921 0.112 25.7921 1.75467 22.2081 1.75467 22.2081 5.45067 25.3441 5.45067 25.3441 7.14934 22.2081 7.14934 22.2081 10.82667"></polygon>
                <polygon id="path2147" points="31.4099 12.61867 28.62857 5.02134 28.62857 12.61867 26.83657 12.61867 26.83657 0.112 28.53524 0.112 31.2979 7.69067 31.2979 0.112 33.0899 0.112 33.0899 12.61867"></polygon>
                <polygon id="path2149" points="35.62246 12.61867 35.62246 1.77334 33.51313 1.77334 33.51313 0.112 39.54246 0.112 39.54246 1.77334 37.39579 1.77334 37.39579 12.61867"></polygon>
                <polygon id="path2151" points="48.25981 12.61867 46.78515 5.00267 45.34781 12.61867 43.68648 12.61867 41.87581 0.112 43.77981 0.112 44.67581 7.672 46.11315 0.112 47.43848 0.112 48.91315 7.672 49.80915 0.112 51.69448 0.112 49.93981 12.61867"></polygon>
                <path d="M52.82936,1.288 C53.11558,0.88978 53.47647,0.57867 53.91203,0.35467 C54.3600233,0.118223333 54.8204667,0 55.29336,0 C55.7538,0 56.1831333,0.0933333333 56.58136,0.28 C56.9920267,0.466666667 57.3342467,0.72178 57.60802,1.04534 C57.8818,1.36889333 58.0684667,1.70489333 58.16802,2.05334 C58.26758,2.38934 58.31736,2.75645 58.31736,3.15467 L58.31736,9.52 C58.31736,9.89333333 58.2800267,10.2231133 58.20536,10.50934 C58.14316,10.79556 57.9938267,11.1128933 57.75736,11.46134 C57.53336,11.80978 57.20358,12.1084467 56.76802,12.35734 C56.3449133,12.6062267 55.8720267,12.73067 55.34936,12.73067 C55.0506933,12.73067 54.76447,12.6933367 54.49069,12.61867 C54.21691,12.5315567 53.9618,12.4195567 53.72536,12.28267 C53.4889133,12.1457833 53.2773567,11.9902267 53.09069,11.816 C52.91647,11.64178 52.7795833,11.4613367 52.68003,11.27467 C52.4933633,10.88889 52.3813633,10.57778 52.34403,10.34134 C52.3066967,10.1048933 52.28803,9.83111333 52.28803,9.52 L52.28803,3.15467 C52.28803,2.78133667 52.3253633,2.45156 52.40003,2.16534 C52.4871367,1.86667333 52.6302467,1.57422667 52.82936,1.288 L52.82936,1.288 Z M56.30136,2.27734 C56.0649133,1.92889333 55.7413567,1.75467 55.33069,1.75467 C55.1191367,1.75467 54.90758,1.81689333 54.69602,1.94134 C54.4969133,2.05334 54.3538033,2.18400667 54.26669,2.33334 C54.1920233,2.48267333 54.1422467,2.63200667 54.11736,2.78134 C54.0924933,2.93067333 54.08006,3.05511667 54.08006,3.15467 L54.08006,9.52 C54.08006,9.5822 54.08006,9.65064667 54.08006,9.72534 C54.08006,9.78754 54.0862933,9.85598333 54.09876,9.93067 C54.1112267,10.0551167 54.2107833,10.26045 54.39743,10.54667 C54.5840967,10.8080033 54.8952067,10.93867 55.33076,10.93867 C55.55476,10.93867 55.75387,10.8888933 55.92809,10.78934 C56.1147567,10.67734 56.2454233,10.5528933 56.32009,10.416 C56.4072033,10.2666667 56.4632033,10.12978 56.48809,10.00534 C56.5129567,9.88089333 56.52539,9.71911333 56.52539,9.52 L56.52539,3.15467 C56.52539,2.90578333 56.5129567,2.73156 56.48809,2.632 C56.4756233,2.53244667 56.4134033,2.41422667 56.30143,2.27734 L56.30136,2.27734 Z" id="path2153"></path>
                <path d="M59.83636,12.61867 L59.83636,0.112 L62.97236,0.112 C63.7936933,0.112 64.48436,0.398223333 65.04436,0.97067 C65.6168067,1.54311667 65.90303,2.24622667 65.90303,3.08 L65.90303,4.23734 C65.90303,5.39467333 65.4114733,6.27822667 64.42836,6.888 L66.33236,12.61867 L64.42836,12.61867 L62.74836,7.26134 L61.62836,7.26134 L61.62836,12.61867 L59.83636,12.61867 Z M63.81236,5.28267 C63.92436,5.14578333 63.9990267,4.99022667 64.03636,4.816 C64.08616,4.64178 64.11106,4.44889333 64.11106,4.23734 L64.11106,3.08 C64.11106,2.69422667 64.00528,2.38311667 63.79372,2.14667 C63.5821667,1.89778333 63.2835,1.77334 62.89772,1.77334 L61.62839,1.77334 L61.62839,5.67467 L62.87906,5.67467 C63.2523933,5.67467 63.5635033,5.54400333 63.81239,5.28267 L63.81236,5.28267 Z" id="path2155"></path>
                <polygon id="path2157" points="71.69787 12.61867 69.70054 7.03734 68.71121 8.88534 68.71121 12.61867 66.93787 12.61867 66.93787 0.112 68.72987 0.112 68.72987 5.86134 71.39921 0.112 73.17254 0.112 70.72721 5.096 73.60187 12.61867"></polygon>
                <path d="M75.40084,12.61867 L78.20084,0.112 L79.75018,0.112 L82.55018,12.61867 L80.62751,12.61867 L80.12351,9.93067 L77.80884,9.93067 L77.28618,12.61867 L75.40084,12.61867 Z M78.12618,8.26934 L79.80618,8.26934 L78.96618,3.71467 L78.12618,8.26934 Z" id="path2159"></path>
                <polygon id="path2161" points="88.03555 12.61867 85.25422 5.02134 85.25422 12.61867 83.46222 12.61867 83.46222 0.112 85.16088 0.112 87.92355 7.69067 87.92355 0.112 89.71555 0.112 89.71555 12.61867"></polygon>
                <path d="M93.81278,0.112 C94.6216667,0.112 95.3123333,0.398223333 95.88478,0.97067 C96.4696667,1.53067 96.76211,2.21511333 96.76211,3.024 L96.76211,9.52 C96.76211,10.4408933 96.48211,11.18756 95.92211,11.76 C95.36211,12.3324467 94.6403333,12.61867 93.75678,12.61867 L90.97545,12.61867 L90.97545,0.112 L93.81278,0.112 Z M94.98878,9.52 L94.98878,3.024 C94.98878,2.67556 94.8581133,2.38311667 94.59678,2.14667 C94.3478933,1.91022333 94.0430033,1.792 93.68211,1.792 L92.74878,1.792 L92.74878,10.95734 L93.62611,10.95734 C94.5345567,10.95734 94.98878,10.4782267 94.98878,9.52 L94.98878,9.52 Z" id="path2163"></path>
                <polygon id="path2165" points="5.35733 28.07365 5.35733 29.86565 2.84217094e-14 29.86565 2.84217094e-14 17.35898 5.35733 17.35898 5.35733 19.00165 1.77333 19.00165 1.77333 22.69765 4.90933 22.69765 4.90933 24.39631 1.77333 24.39631 1.77333 28.07365"></polygon>
                <path d="M11.82868,26.71098 C11.82868,27.1092 11.80378,27.4514233 11.75398,27.73765 C11.7166467,28.02387 11.5922,28.33498 11.38064,28.67098 C11.26864,28.8452 11.12553,29.0132 10.95131,29.17498 C10.78953,29.3243133 10.6028633,29.4612033 10.39131,29.58565 C10.1921967,29.69765 9.97442,29.7909833 9.73798,29.86565 C9.50153333,29.9403167 9.27131,29.97765 9.04731,29.97765 C8.48731,29.97765 7.97708667,29.8594267 7.51664,29.62298 C7.06864,29.3865333 6.73886333,29.0878667 6.52731,28.72698 C6.31575667,28.3660933 6.17886667,28.0300933 6.11664,27.71898 C6.06684,27.4078667 6.04194,27.0718667 6.04194,26.71098 L6.04194,20.27098 C6.04194,19.9225333 6.07304,19.6114233 6.13524,19.33765 C6.20990667,19.0514233 6.35924,18.7465333 6.58324,18.42298 C6.80724,18.0994267 7.12457333,17.82565 7.53524,17.60165 C7.94590667,17.3652033 8.37524,17.24698 8.82324,17.24698 C9.68190667,17.24698 10.3974633,17.5332033 10.96991,18.10565 C11.54235,18.66565 11.82857,19.3874267 11.82857,20.27098 L11.82857,20.94298 L10.05524,20.94298 L10.05524,20.27098 C10.05524,19.9225333 9.95568333,19.63009 9.75657,19.39365 C9.56990333,19.1572033 9.28990333,19.03898 8.91657,19.03898 C8.56813,19.03898 8.29435333,19.1572033 8.09524,19.39365 C7.90857333,19.63009 7.81524,19.9225333 7.81524,20.27098 L7.81524,27.19631 C7.84010667,27.3829767 7.92721667,27.5945333 8.07657,27.83098 C8.25079667,28.0798667 8.53702,28.20431 8.93524,28.20431 C9.35835333,28.20431 9.63835333,28.09231 9.77524,27.86831 C9.91212667,27.64431 9.99301667,27.4825333 10.01791,27.38298 C10.0427767,27.27098 10.05521,27.1216467 10.05521,26.93498 L10.05521,26.30031 L11.82854,26.30031 L11.82868,26.71098 Z" id="path2167"></path>
                <path d="M13.66258,18.53498 C13.9488,18.13676 14.30969,17.82565 14.74525,17.60165 C15.19325,17.3652033 15.6536933,17.24698 16.12658,17.24698 C16.5870267,17.24698 17.01636,17.3403133 17.41458,17.52698 C17.8252467,17.7136467 18.16747,17.9687567 18.44125,18.29231 C18.7150233,18.61587 18.90169,18.95187 19.00125,19.30031 C19.1008033,19.63631 19.15058,20.0034233 19.15058,20.40165 L19.15058,26.76698 C19.15058,27.1403133 19.1132467,27.47009 19.03858,27.75631 C18.97638,28.0425367 18.8270467,28.35987 18.59058,28.70831 C18.36658,29.0567567 18.0368033,29.3554233 17.60125,29.60431 C17.1781367,29.8532033 16.7052467,29.97765 16.18258,29.97765 C15.8839133,29.97765 15.59769,29.9403167 15.32391,29.86565 C15.0501367,29.7785367 14.7950267,29.6665367 14.55858,29.52965 C14.3221333,29.3927567 14.1105767,29.2372 13.92391,29.06298 C13.74969,28.88876 13.6128033,28.7083167 13.51325,28.52165 C13.3265833,28.13587 13.2145833,27.8247567 13.17725,27.58831 C13.1399167,27.35187 13.12125,27.0780933 13.12125,26.76698 L13.12125,20.40165 C13.12125,20.0283167 13.1585833,19.6985367 13.23325,19.41231 C13.3203567,19.1136433 13.4634667,18.8212 13.66258,18.53498 L13.66258,18.53498 Z M17.13458,19.52431 C16.8981333,19.17587 16.5745767,19.00165 16.16391,19.00165 C15.9523567,19.00165 15.7408033,19.06387 15.52925,19.18831 C15.3301367,19.30031 15.1870233,19.4309767 15.09991,19.58031 C15.0252433,19.7296433 14.9754667,19.8789767 14.95058,20.02831 C14.9257133,20.1776433 14.91328,20.30209 14.91328,20.40165 L14.91328,26.76698 C14.91328,26.82918 14.91328,26.8976233 14.91328,26.97231 C14.91328,27.03451 14.9195133,27.1029567 14.93198,27.17765 C14.9444467,27.30209 15.0440033,27.5074233 15.23065,27.79365 C15.4173167,28.0549833 15.7284267,28.18565 16.16398,28.18565 C16.38798,28.18565 16.5870933,28.13587 16.76132,28.03631 C16.9479867,27.92431 17.0786533,27.7998667 17.15332,27.66298 C17.2404267,27.5136467 17.2964267,27.3767567 17.32132,27.25231 C17.3461867,27.12787 17.35862,26.9660933 17.35862,26.76698 L17.35862,20.40165 C17.35862,20.1527567 17.3461867,19.9785333 17.32132,19.87898 C17.3088533,19.7794267 17.24663,19.6612033 17.13465,19.52431 L17.13458,19.52431 Z" id="path2169"></path>
                <polygon id="path2171" points="25.15539 29.86565 22.37406 22.26831 22.37406 29.86565 20.58206 29.86565 20.58206 17.35898 22.28072 17.35898 25.04339 24.93765 25.04339 17.35898 26.83539 17.35898 26.83539 29.86565"></polygon>
                <path d="M28.47072,18.53498 C28.75694,18.13676 29.11783,17.82565 29.55339,17.60165 C30.00139,17.3652033 30.4618333,17.24698 30.93472,17.24698 C31.3951667,17.24698 31.8245,17.3403133 32.22272,17.52698 C32.6333867,17.7136467 32.97561,17.9687567 33.24939,18.29231 C33.5231633,18.61587 33.70983,18.95187 33.80939,19.30031 C33.9089433,19.63631 33.95872,20.0034233 33.95872,20.40165 L33.95872,26.76698 C33.95872,27.1403133 33.9213867,27.47009 33.84672,27.75631 C33.78452,28.0425367 33.6351867,28.35987 33.39872,28.70831 C33.17472,29.0567567 32.8449433,29.3554233 32.40939,29.60431 C31.9862767,29.8532033 31.5133867,29.97765 30.99072,29.97765 C30.6920533,29.97765 30.40583,29.9403167 30.13205,29.86565 C29.8582767,29.7785367 29.6031667,29.6665367 29.36672,29.52965 C29.1302733,29.3927567 28.9187167,29.2372 28.73205,29.06298 C28.55783,28.88876 28.4209433,28.7083167 28.32139,28.52165 C28.1347233,28.13587 28.0227233,27.8247567 27.98539,27.58831 C27.9480567,27.35187 27.92939,27.0780933 27.92939,26.76698 L27.92939,20.40165 C27.92939,20.0283167 27.9667233,19.6985367 28.04139,19.41231 C28.1284967,19.1136433 28.2716067,18.8212 28.47072,18.53498 L28.47072,18.53498 Z M31.94272,19.52431 C31.7062733,19.17587 31.3827167,19.00165 30.97205,19.00165 C30.7604967,19.00165 30.5489433,19.06387 30.33739,19.18831 C30.1382767,19.30031 29.9951633,19.4309767 29.90805,19.58031 C29.8333833,19.7296433 29.7836067,19.8789767 29.75872,20.02831 C29.7338533,20.1776433 29.72142,20.30209 29.72142,20.40165 L29.72142,26.76698 C29.72142,26.82918 29.72142,26.8976233 29.72142,26.97231 C29.72142,27.03451 29.7276533,27.1029567 29.74012,27.17765 C29.7525867,27.30209 29.8521433,27.5074233 30.03879,27.79365 C30.2254567,28.0549833 30.5365667,28.18565 30.97212,28.18565 C31.19612,28.18565 31.3952333,28.13587 31.56946,28.03631 C31.7561267,27.92431 31.8867933,27.7998667 31.96146,27.66298 C32.0485667,27.5136467 32.1045667,27.3767567 32.12946,27.25231 C32.1543267,27.12787 32.16676,26.9660933 32.16676,26.76698 L32.16676,20.40165 C32.16676,20.1527567 32.1543267,19.9785333 32.12946,19.87898 C32.1169933,19.7794267 32.05477,19.6612033 31.94279,19.52431 L31.94272,19.52431 Z" id="path2173"></path>
                <polygon id="path2175" points="41.52268 29.86565 41.52268 22.24965 39.73068 27.58831 38.83468 27.58831 37.06135 22.24965 37.06135 29.86565 35.26935 29.86565 35.26935 17.35898 36.94935 17.35898 39.32001 24.02298 41.65335 17.35898 43.29601 17.35898 43.29601 29.86565"></polygon>
                <polygon id="path2177" points="44.37649 29.86565 44.37649 17.35898 46.14982 17.35898 46.14982 29.86565"></polygon>
                <path d="M53.5282,26.71098 C53.5282,27.1092 53.5033,27.4514233 53.4535,27.73765 C53.4161667,28.02387 53.2917233,28.33498 53.08017,28.67098 C52.96817,28.8452 52.8250567,29.0132 52.65083,29.17498 C52.4890567,29.3243133 52.30239,29.4612033 52.09083,29.58565 C51.8917233,29.69765 51.6739467,29.7909833 51.4375,29.86565 C51.2010533,29.9403167 50.97083,29.97765 50.74683,29.97765 C50.18683,29.97765 49.67661,29.8594267 49.21617,29.62298 C48.76817,29.3865333 48.43839,29.0878667 48.22683,28.72698 C48.0152767,28.3660933 47.87839,28.0300933 47.81617,27.71898 C47.76637,27.4078667 47.74147,27.0718667 47.74147,26.71098 L47.74147,20.27098 C47.74147,19.9225333 47.77257,19.6114233 47.83477,19.33765 C47.9094367,19.0514233 48.05877,18.7465333 48.28277,18.42298 C48.50677,18.0994267 48.8241033,17.82565 49.23477,17.60165 C49.6454367,17.3652033 50.07477,17.24698 50.52277,17.24698 C51.3814367,17.24698 52.0969933,17.5332033 52.66944,18.10565 C53.2418867,18.66565 53.52811,19.3874267 53.52811,20.27098 L53.52811,20.94298 L51.75477,20.94298 L51.75477,20.27098 C51.75477,19.9225333 51.6552167,19.63009 51.45611,19.39365 C51.2694433,19.1572033 50.9894433,19.03898 50.61611,19.03898 C50.2676633,19.03898 49.9938833,19.1572033 49.79477,19.39365 C49.6081033,19.63009 49.51477,19.9225333 49.51477,20.27098 L49.51477,27.19631 C49.5396367,27.3829767 49.62675,27.5945333 49.77611,27.83098 C49.95033,28.0798667 50.23655,28.20431 50.63477,28.20431 C51.0578833,28.20431 51.3378833,28.09231 51.47477,27.86831 C51.6116633,27.64431 51.6925533,27.4825333 51.71744,27.38298 C51.7423067,27.27098 51.75474,27.1216467 51.75474,26.93498 L51.75474,26.30031 L53.52808,26.30031 L53.5282,26.71098 Z" id="path2179"></path>
                <path d="M62.3904,28.55898 C62.10418,29.00698 61.73707,29.3554233 61.28907,29.60431 C60.84107,29.8532033 60.3495133,29.97765 59.8144,29.97765 C59.3415133,29.97765 58.88107,29.86565 58.43307,29.64165 C57.99751,29.41765 57.6552867,29.14387 57.4064,28.82031 C57.1699533,28.48431 57.0081767,28.14831 56.92107,27.81231 C56.8464033,27.47631 56.80907,27.0967567 56.80907,26.67365 L56.80907,20.42031 C56.80907,20.1092033 56.84017,19.7980933 56.90237,19.48698 C56.9894833,19.1758667 57.2197067,18.73409 57.59304,18.16165 C57.9788133,17.55187 58.7379233,17.24698 59.87037,17.24698 C60.36815,17.24698 60.8348167,17.3652033 61.27037,17.60165 C61.7059233,17.83809 62.0357,18.1305333 62.2597,18.47898 C62.4961467,18.81498 62.64548,19.1385367 62.7077,19.44965 C62.7823667,19.7483167 62.8197,20.07187 62.8197,20.42031 L62.8197,20.94298 L61.04637,20.94298 L61.04637,20.42031 C61.04637,20.3207567 61.0401367,20.2336467 61.02767,20.15898 C61.02767,20.0718667 61.0214367,19.9972 61.00897,19.93498 C60.9965033,19.82298 60.90317,19.6425367 60.72897,19.39365 C60.5547433,19.1447567 60.2622967,19.02031 59.85163,19.02031 C59.3662967,19.02031 59.0427433,19.1509767 58.88097,19.41231 C58.7316367,19.6736433 58.6445233,19.8665333 58.61963,19.99098 C58.5947633,20.1154267 58.58233,20.2585367 58.58233,20.42031 L58.58233,26.67365 C58.58233,26.79809 58.58233,26.9038667 58.58233,26.99098 C58.58233,27.0780933 58.5885633,27.15276 58.60103,27.21498 C58.6134967,27.3145333 58.70683,27.5074233 58.88103,27.79365 C59.0428033,28.0549833 59.3601367,28.18565 59.83303,28.18565 C60.3183633,28.18565 60.6294733,28.0549833 60.76636,27.79365 C60.8410267,27.6567567 60.8970267,27.5447567 60.93436,27.45765 C60.9716933,27.35809 60.9965933,27.2709767 61.00906,27.19631 C61.0339267,27.1216433 61.04636,27.0469767 61.04636,26.97231 C61.04636,26.8852033 61.04636,26.78565 61.04636,26.67365 L61.04636,24.48965 L59.60903,24.48965 L59.60903,22.92165 L62.8197,22.92165 L62.8197,26.67365 C62.8197,26.9349833 62.8134567,27.1589833 62.80099,27.34565 C62.7885233,27.51987 62.7636233,27.6754233 62.72629,27.81231 C62.6889567,27.9492033 62.63918,28.07987 62.57696,28.20431 C62.52716,28.31631 62.4649367,28.4345333 62.39029,28.55898 L62.3904,28.55898 Z" id="path2181"></path>
                <path d="M64.0939,29.86565 L64.0939,17.35898 L67.2299,17.35898 C68.0512333,17.35898 68.7419,17.6452033 69.3019,18.21765 C69.8743467,18.79009 70.16057,19.4932 70.16057,20.32698 L70.16057,21.48431 C70.16057,22.6416433 69.6690133,23.5252 68.6859,24.13498 L70.5899,29.86565 L68.6859,29.86565 L67.0059,24.50831 L65.8859,24.50831 L65.8859,29.86565 L64.0939,29.86565 Z M68.0699,22.52965 C68.1819,22.3927567 68.2565667,22.2372 68.2939,22.06298 C68.3437,21.88876 68.3686,21.69587 68.3686,21.48431 L68.3686,20.32698 C68.3686,19.9412 68.2628233,19.63009 68.05127,19.39365 C67.83971,19.1447567 67.5410433,19.02031 67.15527,19.02031 L65.88593,19.02031 L65.88593,22.92165 L67.1366,22.92165 C67.5099333,22.92165 67.8210433,22.7909833 68.06993,22.52965 L68.0699,22.52965 Z" id="path2183"></path>
                <path d="M71.64813,18.53498 C71.93435,18.13676 72.29524,17.82565 72.7308,17.60165 C73.1788,17.3652033 73.6392433,17.24698 74.11213,17.24698 C74.5725767,17.24698 75.00191,17.3403133 75.40013,17.52698 C75.8107967,17.7136467 76.15302,17.9687567 76.4268,18.29231 C76.7005733,18.61587 76.88724,18.95187 76.9868,19.30031 C77.0863533,19.63631 77.13613,20.0034233 77.13613,20.40165 L77.13613,26.76698 C77.13613,27.1403133 77.0987967,27.47009 77.02413,27.75631 C76.96193,28.0425367 76.8125967,28.35987 76.57613,28.70831 C76.35213,29.0567567 76.0223533,29.3554233 75.5868,29.60431 C75.1636867,29.8532033 74.6907967,29.97765 74.16813,29.97765 C73.8694633,29.97765 73.58324,29.9403167 73.30946,29.86565 C73.0356867,29.7785367 72.7805767,29.6665367 72.54413,29.52965 C72.3076833,29.3927567 72.0961267,29.2372 71.90946,29.06298 C71.73524,28.88876 71.5983533,28.7083167 71.4988,28.52165 C71.3121333,28.13587 71.2001333,27.8247567 71.1628,27.58831 C71.1254667,27.35187 71.1068,27.0780933 71.1068,26.76698 L71.1068,20.40165 C71.1068,20.0283167 71.1441333,19.6985367 71.2188,19.41231 C71.3059067,19.1136433 71.4490167,18.8212 71.64813,18.53498 L71.64813,18.53498 Z M75.12013,19.52431 C74.8836833,19.17587 74.5601267,19.00165 74.14946,19.00165 C73.9379067,19.00165 73.7263533,19.06387 73.5148,19.18831 C73.3156867,19.30031 73.1725733,19.4309767 73.08546,19.58031 C73.0107933,19.7296433 72.9610167,19.8789767 72.93613,20.02831 C72.9112633,20.1776433 72.89883,20.30209 72.89883,20.40165 L72.89883,26.76698 C72.89883,26.82918 72.89883,26.8976233 72.89883,26.97231 C72.89883,27.03451 72.9050633,27.1029567 72.91753,27.17765 C72.9299967,27.30209 73.0295533,27.5074233 73.2162,27.79365 C73.4028667,28.0549833 73.7139767,28.18565 74.14953,28.18565 C74.37353,28.18565 74.5726433,28.13587 74.74687,28.03631 C74.9335367,27.92431 75.0642033,27.7998667 75.13887,27.66298 C75.2259767,27.5136467 75.2819767,27.3767567 75.30687,27.25231 C75.3317367,27.12787 75.34417,26.9660933 75.34417,26.76698 L75.34417,20.40165 C75.34417,20.1527567 75.3317367,19.9785333 75.30687,19.87898 C75.2944033,19.7794267 75.23218,19.6612033 75.1202,19.52431 L75.12013,19.52431 Z" id="path2185"></path>
                <polygon id="path2187" points="84.4555 29.86565 82.98083 22.24965 81.5435 29.86565 79.88217 29.86565 78.0715 17.35898 79.9755 17.35898 80.8715 24.91898 82.30883 17.35898 83.63417 17.35898 85.10883 24.91898 86.00483 17.35898 87.89017 17.35898 86.1355 29.86565"></polygon>
                <polygon id="path2189" points="90.39355 29.86565 90.39355 19.02031 88.28421 19.02031 88.28421 17.35898 94.31355 17.35898 94.31355 19.02031 92.16688 19.02031 92.16688 29.86565"></polygon>
                <polygon id="path2191" points="95.1926 29.86565 95.1926 17.35898 96.96594 17.35898 96.96594 22.69765 99.24327 22.69765 99.24327 17.35898 101.0166 17.35898 101.0166 29.86565 99.24327 29.86565 99.24327 24.28431 96.96594 24.28431 96.96594 29.86565"></polygon>
            </g>
            <g id="text6075-0-6-9-2-5-9-0" transform="translate(15.366800, 12.058910)" fill="#FFFFFF" fill-rule="nonzero">
                <path d="M12.77467,24.03066 L12.77467,24.34333 C12.77467,24.9984433 12.62578,25.6833333 12.328,26.398 C12.03022,27.1126667 11.61333,27.7826667 11.07733,28.408 C10.54133,29.0035533 9.90111,29.4948867 9.15667,29.882 C8.41222333,30.2691067 7.60822333,30.46266 6.74467,30.46266 L6.61067,30.46266 C5.98533667,30.46266 5.36000333,30.3733267 4.73467,30.19466 C4.13911,30.0159933 3.57333,29.7777733 3.03733,29.48 C2.53111,29.18222 2.08444333,28.8546633 1.69733,28.49733 C1.31022333,28.1102167 1.02733667,27.7082167 0.84867,27.29133 C0.461556667,26.45755 0.223333333,25.77266 0.134,25.23666 C0.0446666667,24.6708867 0,24.10511 0,23.53933 L0,18.31333 C0,16.7648833 0.714666667,15.45466 2.144,14.38266 C0.714666667,13.31066 0,11.83666 0,9.96066 L0,5.94066 C0,5.31532667 0.104223333,4.73466 0.31267,4.19866 C0.52111,3.63288667 1.05711,2.78422 1.92067,1.65266 C2.75444333,0.550886667 4.28799667,0 6.52133,0 C7.32533,0 8.11444333,0.178666667 8.88867,0.536 C9.63311,0.893333333 10.4668867,1.54844333 11.39,2.50133 C12.3131133,3.42444333 12.77467,4.73466667 12.77467,6.432 L12.77467,10.27333 C12.77467,12.0004433 12.0600033,13.37022 10.63067,14.38266 C12.0600033,15.4248867 12.77467,16.8393333 12.77467,18.626 L12.77467,24.03066 Z M6.432,4.24333 C5.80666667,4.24333 5.28555667,4.46666333 4.86867,4.91333 C4.45177667,5.33021667 4.24333,5.83644 4.24333,6.432 L4.24333,10.27333 C4.24333,10.9582167 4.42199667,11.5537733 4.77933,12.06 C5.16644333,12.53644 5.70244333,12.77466 6.38733,12.77466 C7.13177667,12.77466 7.66777667,12.5513267 7.99533,12.10466 C8.35266333,11.62822 8.53133,11.0177767 8.53133,10.27333 L8.53133,6.432 C8.53133,5.86622 8.32288667,5.35999667 7.906,4.91333 C7.51888667,4.46666333 7.02755333,4.24333 6.432,4.24333 L6.432,4.24333 Z M6.432,16.03533 C5.77688667,16.03533 5.24088667,16.2586633 4.824,16.70533 C4.43688667,17.1222167 4.24333,17.6582167 4.24333,18.31333 L4.24333,23.53933 C4.24333,24.31355 4.42199667,24.9537733 4.77933,25.46 C5.13666333,25.93644 5.71733,26.17466 6.52133,26.17466 C7.29555667,26.17466 7.81667,25.92155 8.08467,25.41533 C8.38244333,24.87933 8.53133,24.2539967 8.53133,23.53933 L8.53133,18.31333 C8.53133,17.6582167 8.33777667,17.1222167 7.95067,16.70533 C7.59333667,16.2586633 7.08711333,16.03533 6.432,16.03533 L6.432,16.03533 Z" id="path2194"></path>
            </g>
            <path d="M109.28911,54.3321793 C109.22761,54.33159 109.16356,54.33822 109.09966,54.35562 L96.88091,57.62906 C96.36944,57.76614 96.19889,58.40598 96.57427,58.77945 L99.21489,61.42008 L73.12505,87.5275 L62.74028,77.14469 C61.76396,76.16877 60.18145,76.16877 59.20513,77.14469 L38.23833,98.11148 L41.77544,101.64664 L60.9727,82.44742 L71.35552,92.83219 C72.33207,93.80941 73.91608,93.80941 74.89263,92.83219 L102.75005,64.95523 L105.51763,67.72281 C105.64898,67.8542 105.82796,67.92677 106.01372,67.92398 C106.32082,67.91998 106.58798,67.71268 106.66802,67.41617 L109.94145,55.19742 C110.06186,54.75008 109.71933,54.3366 109.28911,54.3321793 L109.28911,54.3321793 Z M102.75005,72.02753 L86.28911,88.50019 L86.28911,128.73847 C86.28911,129.79647 87.14126,130.64667 88.19927,130.64667 L102.19927,130.64667 C103.25727,130.64667 104.10942,129.79647 104.10942,128.73847 L104.10942,73.3869 L102.75005,72.02753 Z M60.48247,90.00995 L42.66411,107.83026 L42.66411,128.73847 C42.66411,129.79647 43.51627,130.64667 44.57427,130.64667 L58.57427,130.64667 C59.63227,130.64667 60.48247,129.79647 60.48247,128.73847 L60.48247,90.00995 Z M82.29497,92.49628 L74.89263,99.90448 C73.91608,100.8817 72.33207,100.8817 71.35552,99.90448 L64.47661,93.02362 L64.47661,128.73847 C64.47661,129.79647 65.32877,130.64667 66.38677,130.64667 L80.38677,130.64667 C81.44477,130.64667 82.29497,129.79647 82.29497,128.73847 L82.29497,92.49628 Z" id="path7328" fill="#FFFFFF" fill-rule="nonzero"></path>
            <path d="M109.28911,54.3321793 C109.22761,54.33159 109.16356,54.33822 109.09966,54.35562 L96.88091,57.62906 C96.36944,57.76614 96.19889,58.40598 96.57427,58.77945 L99.21489,61.42008 L73.12505,87.5275 L62.74028,77.14469 C61.76396,76.16877 60.18145,76.16877 59.20513,77.14469 L38.23833,98.11148 L41.77544,101.64664 L60.9727,82.44742 L71.35552,92.83219 C72.33207,93.80941 73.91608,93.80941 74.89263,92.83219 L102.75005,64.95523 L105.51763,67.72281 C105.64898,67.8542 105.82796,67.92677 106.01372,67.92398 C106.32082,67.91998 106.58798,67.71268 106.66802,67.41617 L109.94145,55.19742 C110.06186,54.75008 109.71933,54.3366 109.28911,54.3321793 L109.28911,54.3321793 Z" id="path7328-8" fill="#FFFFFF" fill-rule="nonzero"></path>
        </g>
    </g>
</svg>