<?xml version="1.0" encoding="UTF-8"?>
<svg width="150px" height="150px" viewBox="0 0 150 150" version="1.1" xmlns="http://www.w3.org/2000/svg" xmlns:xlink="http://www.w3.org/1999/xlink">
    <title>9-industry-innovation-and-infrastructure</title>
    <g id="SDGs" stroke="none" stroke-width="1" fill="none" fill-rule="evenodd">
        <g id="9-industry-innovation-and-infrastructure" transform="translate(0.947273, 0.783310)">
            <path d="M0.82675,0 L147.266,0 C147.72403,0 148.09276,0.36873 148.09276,0.82676 L148.09276,147.50783 C148.09276,147.96585 147.72403,148.33458 147.266,148.33458 L0.82675,148.33458 C0.36873,148.33458 0,147.96585 0,147.50783 L0,0.82676 C0,0.36873 0.36873,0 0.82675,0 Z" id="rect8528-63-2-4-3-6-0-4" fill="#F36D25"></path>
            <g id="text6065-3-2-9-6-6-5-0-0" transform="translate(35.082710, 12.615470)" fill="#FFFFFF" fill-rule="nonzero">
                <polygon id="path2197" points="0.58943 12.61866 0.58943 0.112 2.36277 0.112 2.36277 12.61866"></polygon>
                <polygon id="path2199" points="7.64239 12.61866 4.86106 5.02133 4.86106 12.61866 3.06906 12.61866 3.06906 0.112 4.76772 0.112 7.53039 7.69066 7.53039 0.112 9.32239 0.112 9.32239 12.61866"></polygon>
                <path d="M13.0413,0.112 C13.8501933,0.112 14.54086,0.39822 15.1133,0.97066 C15.6981933,1.53066 15.99064,2.21510667 15.99064,3.024 L15.99064,9.52 C15.99064,10.4408867 15.71064,11.1875533 15.15064,11.76 C14.59064,12.33244 13.86886,12.61866 12.9853,12.61866 L10.20397,12.61866 L10.20397,0.112 L13.0413,0.112 Z M14.2173,9.52 L14.2173,3.024 C14.2173,2.67555333 14.0866333,2.38310667 13.8253,2.14666 C13.5764133,1.91022 13.2715267,1.792 12.91064,1.792 L11.9773,1.792 L11.9773,10.95733 L12.85464,10.95733 C13.76308,10.95733 14.2173,10.47822 14.2173,9.52 Z" id="path2201"></path>
                <path d="M22.43152,11.312 C22.1577467,11.7351067 21.80308,12.0773267 21.36752,12.33866 C20.9444133,12.5999933 20.4715267,12.73066 19.94886,12.73066 C19.6875267,12.73066 19.4261933,12.6933267 19.16486,12.61866 C18.9159667,12.5439933 18.67952,12.45066 18.45552,12.33866 C18.23152,12.21422 18.03241,12.0773333 17.85819,11.928 C17.68397,11.76622 17.5533033,11.59822 17.46619,11.424 C17.2795233,11.0755533 17.15508,10.7706633 17.09286,10.50933 C17.04306,10.2479967 17.01816,9.96799667 17.01816,9.66933 L17.01816,0.112 L18.81016,0.112 L18.81016,9.66933 C18.81016,9.75644333 18.81016,9.83733333 18.81016,9.912 C18.8226267,9.9742 18.83506,10.03642 18.84746,10.09866 C18.8599267,10.19822 18.95326,10.3724433 19.12746,10.62133 C19.28924,10.84533 19.56924,10.95733 19.96746,10.95733 C20.3283533,10.95733 20.59591,10.8266633 20.77013,10.56533 C20.9567967,10.29155 21.05013,9.99288333 21.05013,9.66933 L21.05013,0.112 L22.84213,0.112 L22.84213,9.66933 C22.84213,9.96799667 22.81103,10.25422 22.74883,10.528 C22.68663,10.8017733 22.58085,11.0631067 22.43149,11.312 L22.43152,11.312 Z" id="path2203"></path>
                <path d="M25.3463,9.50133 C25.3463,9.62577667 25.3463,9.73155333 25.3463,9.81866 C25.3463,9.90577333 25.3525333,9.98044 25.365,10.04266 C25.3898667,10.1671067 25.4832,10.3475533 25.645,10.584 C25.81922,10.8328867 26.13033,10.95733 26.57833,10.95733 C26.8272233,10.95733 27.0574467,10.9075533 27.269,10.808 C27.4805533,10.696 27.63611,10.5528867 27.73567,10.37866 C27.8103367,10.2417733 27.85389,10.1111067 27.86633,9.98666 C27.8911967,9.86222 27.90363,9.75022 27.90363,9.65066 L27.90363,9.48266 L27.90363,8.60533 L27.90363,8.43733 C27.90363,8.16355 27.85385,7.95199333 27.75429,7.80266 C27.6547367,7.64088667 27.4307367,7.46044333 27.08229,7.26133 C26.84585,7.13688333 26.42274,6.96266 25.81296,6.73866 C25.20318,6.51466 24.6929567,6.15999333 24.28229,5.67466 C23.8716233,5.18932667 23.66629,4.52977333 23.66629,3.696 L23.66629,3.136 C23.66629,2.27733333 23.9525133,1.54311 24.52496,0.93333 C25.1098467,0.31111 25.81918,0 26.65296,0 C27.5240733,0 28.24585,0.304886667 28.81829,0.91466 C29.4031833,1.52444 29.69563,2.26488667 29.69563,3.136 L29.69563,3.696 L27.90363,3.696 L27.90363,3.136 C27.90363,3.04888667 27.8973967,2.96799667 27.88493,2.89333 C27.88493,2.81866333 27.8786967,2.75022 27.86623,2.688 C27.8537633,2.6258 27.8226633,2.55113333 27.77293,2.464 C27.72313,2.37688667 27.6546867,2.27110667 27.5676,2.14666 C27.3933733,1.89777333 27.1009267,1.77333 26.69026,1.77333 C26.3293733,1.77333 26.0307067,1.90399667 25.79426,2.16533 C25.57026,2.42666333 25.45826,2.75022 25.45826,3.136 L25.45826,3.696 L25.45826,3.864 C25.45826,4.11288667 25.4955933,4.31199667 25.57026,4.46133 C25.6573733,4.59821667 25.8564867,4.75377333 26.1676,4.928 C26.2671533,4.9778 26.4164867,5.04624333 26.6156,5.13333 C26.8271533,5.20799667 27.0822633,5.30133 27.38093,5.41333 C27.9782633,5.61244333 28.5133733,5.96711 28.98626,6.47733 C29.4591533,6.98755 29.69563,7.65955 29.69563,8.49333 L29.69563,9.50133 C29.69563,9.93688333 29.6520433,10.3039933 29.56493,10.60266 C29.4902633,10.9013267 29.2351533,11.3368833 28.7996,11.90933 C28.36404,12.4568833 27.63604,12.73066 26.6156,12.73066 C25.5329333,12.73066 24.7489333,12.3822167 24.2636,11.68533 C23.7782667,10.9759967 23.5356,10.2479967 23.5356,9.50133 L23.5356,9.05333 L25.34626,9.05333 L25.3463,9.50133 Z" id="path2205"></path>
                <polygon id="path2207" points="31.55984 12.61866 31.55984 1.77333 29.45051 1.77333 29.45051 0.112 35.47984 0.112 35.47984 1.77333 33.33318 1.77333 33.33318 12.61866"></polygon>
                <path d="M35.84823,12.61866 L35.84823,0.112 L38.98423,0.112 C39.8055633,0.112 40.49623,0.39822 41.05623,0.97066 C41.6286767,1.54310667 41.9149,2.24622 41.9149,3.08 L41.9149,4.23733 C41.9149,5.39466333 41.4233433,6.27822 40.44023,6.888 L42.34423,12.61866 L40.44023,12.61866 L38.76023,7.26133 L37.64023,7.26133 L37.64023,12.61866 L35.84823,12.61866 Z M39.82423,5.28266 C39.93623,5.14577333 40.0108967,4.99022 40.04823,4.816 C40.09803,4.64177333 40.12293,4.44888333 40.12293,4.23733 L40.12293,3.08 C40.12293,2.69422 40.0171533,2.38310667 39.8056,2.14666 C39.59404,1.89777333 39.2953733,1.77333 38.9096,1.77333 L37.64026,1.77333 L37.64026,5.67466 L38.89093,5.67466 C39.2642633,5.67466 39.5753733,5.54399333 39.82426,5.28266 L39.82423,5.28266 Z" id="path2209"></path>
                <polygon id="path2211" points="44.0801 12.61866 44.0801 7.24266 41.65343 0.112 43.5201 0.112 44.9761 5.00266 46.45077 0.112 48.3361 0.112 45.85343 7.24266 45.85343 12.61866"></polygon>
                <polygon id="path2213" points="47.24603 13.944 47.24603 10.84533 49.03803 10.84533 49.03803 12.61866"></polygon>
                <polygon id="path2215" points="51.75713 12.61866 51.75713 0.112 53.53046 0.112 53.53046 12.61866"></polygon>
                <polygon id="path2217" points="59.02195 12.61866 56.24061 5.02133 56.24061 12.61866 54.44861 12.61866 54.44861 0.112 56.14728 0.112 58.90995 7.69066 58.90995 0.112 60.70195 0.112 60.70195 12.61866"></polygon>
                <polygon id="path2219" points="65.77482 12.61866 62.99349 5.02133 62.99349 12.61866 61.20149 12.61866 61.20149 0.112 62.90015 0.112 65.66282 7.69066 65.66282 0.112 67.45482 0.112 67.45482 12.61866"></polygon>
                <path d="M68.5463,1.288 C68.8325267,0.889773333 69.1934167,0.57866 69.62897,0.35466 C70.07697,0.11822 70.5374133,1.13686838e-13 71.0103,1.13686838e-13 C71.4707467,1.13686838e-13 71.90008,0.0933333333 72.2983,0.28 C72.7089667,0.466666667 73.05119,0.721776667 73.32497,1.04533 C73.59875,1.36888333 73.7854167,1.70488333 73.88497,2.05333 C73.9845233,2.38933 74.0343,2.75644 74.0343,3.15466 L74.0343,9.52 C74.0343,9.89333333 73.9969667,10.22311 73.9223,10.50933 C73.8601,10.79555 73.7107667,11.1128833 73.4743,11.46133 C73.2503,11.8097767 72.9205233,12.1084433 72.48497,12.35733 C72.0618567,12.6062167 71.5889667,12.73066 71.0663,12.73066 C70.7676333,12.73066 70.4814133,12.6933267 70.20764,12.61866 C69.93386,12.5315533 69.6787467,12.4195533 69.4423,12.28266 C69.20586,12.1457733 68.9943067,11.99022 68.80764,11.816 C68.6334133,11.6417733 68.4965233,11.4613267 68.39697,11.27466 C68.2103033,10.8888867 68.0983033,10.5777767 68.06097,10.34133 C68.0236367,10.1048833 68.00497,9.83110667 68.00497,9.52 L68.00497,3.15466 C68.00497,2.78132667 68.0423033,2.45155 68.11697,2.16533 C68.2040833,1.86666333 68.3471933,1.57422 68.5463,1.288 L68.5463,1.288 Z M72.0183,2.27733 C71.78186,1.92888333 71.4583067,1.75466 71.04764,1.75466 C70.83608,1.75466 70.6245233,1.81688333 70.41297,1.94133 C70.2138567,2.05333 70.0707467,2.18399667 69.98364,2.33333 C69.9089733,2.48266333 69.8591933,2.63199667 69.8343,2.78133 C69.8094333,2.93066333 69.797,3.05510667 69.797,3.15466 L69.797,9.52 C69.797,9.5822 69.797,9.65064333 69.797,9.72533 C69.797,9.78753 69.8032333,9.85597333 69.8157,9.93066 C69.8281667,10.0551067 69.92772,10.26044 70.11436,10.54666 C70.3010267,10.8079933 70.61214,10.93866 71.0477,10.93866 C71.2717,10.93866 71.47081,10.8888833 71.64503,10.78933 C71.8316967,10.67733 71.9623633,10.5528867 72.03703,10.416 C72.1241433,10.2666667 72.1801433,10.1297767 72.20503,10.00533 C72.2298967,9.88088333 72.24233,9.71910667 72.24233,9.52 L72.24233,3.15466 C72.24233,2.90577333 72.2298967,2.73155333 72.20503,2.632 C72.1925633,2.53244 72.13034,2.41421667 72.01836,2.27733 L72.0183,2.27733 Z" id="path2221"></path>
                <polygon id="path2223" points="76.80189 12.61866 74.24455 0.112 76.11122 0.112 77.56722 8.792 79.04189 0.112 80.94589 0.112 78.33255 12.61866"></polygon>
                <path d="M80.1719,12.61866 L82.9719,0.112 L84.52123,0.112 L87.32123,12.61866 L85.39856,12.61866 L84.89456,9.93066 L82.5799,9.93066 L82.05723,12.61866 L80.1719,12.61866 Z M82.89723,8.26933 L84.57723,8.26933 L83.73723,3.71466 L82.89723,8.26933 Z" id="path2225"></path>
                <polygon id="path2227" points="88.52249 12.61866 88.52249 1.77333 86.41315 1.77333 86.41315 0.112 92.44249 0.112 92.44249 1.77333 90.29582 1.77333 90.29582 12.61866"></polygon>
                <polygon id="path2229" points="92.7777 12.61866 92.7777 0.112 94.55104 0.112 94.55104 12.61866"></polygon>
                <path d="M95.87986,1.288 C96.16608,0.889773333 96.52697,0.57866 96.96253,0.35466 C97.41053,0.11822 97.8709733,1.13686838e-13 98.34386,1.13686838e-13 C98.8043067,1.13686838e-13 99.23364,0.0933333333 99.63186,0.28 C100.042527,0.466666667 100.38475,0.721776667 100.65853,1.04533 C100.932303,1.36888333 101.11897,1.70488333 101.21853,2.05333 C101.318083,2.38933 101.36786,2.75644 101.36786,3.15466 L101.36786,9.52 C101.36786,9.89333333 101.330527,10.22311 101.25586,10.50933 C101.19366,10.79555 101.044327,11.1128833 100.80786,11.46133 C100.58386,11.8097767 100.254083,12.1084433 99.81853,12.35733 C99.3954167,12.6062167 98.9225267,12.73066 98.39986,12.73066 C98.1011933,12.73066 97.81497,12.6933267 97.54119,12.61866 C97.2674167,12.5315533 97.0123067,12.4195533 96.77586,12.28266 C96.5394133,12.1457733 96.3278567,11.99022 96.14119,11.816 C95.96697,11.6417733 95.8300833,11.4613267 95.73053,11.27466 C95.5438633,10.8888867 95.4318633,10.5777767 95.39453,10.34133 C95.3571967,10.1048833 95.33853,9.83110667 95.33853,9.52 L95.33853,3.15466 C95.33853,2.78132667 95.3758633,2.45155 95.45053,2.16533 C95.5376367,1.86666333 95.6807467,1.57422 95.87986,1.288 Z M99.35186,2.27733 C99.1154133,1.92888333 98.7918567,1.75466 98.38119,1.75466 C98.1696367,1.75466 97.9580833,1.81688333 97.74653,1.94133 C97.5474167,2.05333 97.4043033,2.18399667 97.31719,2.33333 C97.2425233,2.48266333 97.1927467,2.63199667 97.16786,2.78133 C97.1429933,2.93066333 97.13056,3.05510667 97.13056,3.15466 L97.13056,9.52 C97.13056,9.5822 97.13056,9.65064333 97.13056,9.72533 C97.13056,9.78753 97.1367933,9.85597333 97.14926,9.93066 C97.1617267,10.0551067 97.2612833,10.26044 97.44793,10.54666 C97.6345967,10.8079933 97.9457067,10.93866 98.38126,10.93866 C98.60526,10.93866 98.8043733,10.8888833 98.9786,10.78933 C99.1652667,10.67733 99.2959333,10.5528867 99.3706,10.416 C99.4577067,10.2666667 99.5137067,10.1297767 99.5386,10.00533 C99.5634667,9.88088333 99.5759,9.71910667 99.5759,9.52 L99.5759,3.15466 C99.5759,2.90577333 99.5634667,2.73155333 99.5386,2.632 C99.5261333,2.53244 99.46391,2.41421667 99.35193,2.27733 L99.35186,2.27733 Z" id="path2231"></path>
                <polygon id="path2233" points="107.0101 12.61866 104.22877 5.02133 104.22877 12.61866 102.43677 12.61866 102.43677 0.112 104.13544 0.112 106.8981 7.69066 106.8981 0.112 108.6901 0.112 108.6901 12.61866"></polygon>
                <path d="M-5.68434189e-14,29.86564 L2.8,17.35897 L4.34933,17.35897 L7.14933,29.86564 L5.22666,29.86564 L4.72266,27.17764 L2.408,27.17764 L1.88533,29.86564 L-5.68434189e-14,29.86564 Z M2.72533,25.51631 L4.40533,25.51631 L3.56533,20.96164 L2.72533,25.51631 Z" id="path2235"></path>
                <polygon id="path2237" points="11.84915 29.86564 9.06782 22.26831 9.06782 29.86564 7.27582 29.86564 7.27582 17.35897 8.97448 17.35897 11.73715 24.93764 11.73715 17.35897 13.52915 17.35897 13.52915 29.86564"></polygon>
                <path d="M17.28901,17.35897 C18.0979033,17.35897 18.78857,17.6451933 19.36101,18.21764 C19.9459033,18.77764 20.23835,19.4620833 20.23835,20.27097 L20.23835,26.76697 C20.23835,27.6878633 19.95835,28.43453 19.39835,29.00697 C18.83835,29.5794167 18.11657,29.86564 17.23301,29.86564 L14.45168,29.86564 L14.45168,17.35897 L17.28901,17.35897 Z M18.46501,26.76697 L18.46501,20.27097 C18.46501,19.92253 18.3343433,19.6300867 18.07301,19.39364 C17.8241233,19.1571933 17.5192367,19.03897 17.15835,19.03897 L16.22501,19.03897 L16.22501,28.20431 L17.10235,28.20431 C18.01079,28.20431 18.46501,27.7251967 18.46501,26.76697 L18.46501,26.76697 Z" id="path2239"></path>
                <polygon id="path2241" points="22.81478 29.86564 22.81478 17.35897 24.58811 17.35897 24.58811 29.86564"></polygon>
                <polygon id="path2243" points="30.01917 29.86564 27.23784 22.26831 27.23784 29.86564 25.44584 29.86564 25.44584 17.35897 27.14451 17.35897 29.90717 24.93764 29.90717 17.35897 31.69917 17.35897 31.69917 29.86564"></polygon>
                <polygon id="path2245" points="32.25914 29.86564 32.25914 17.35897 37.5978 17.35897 37.5978 19.03897 34.03247 19.03897 34.03247 22.79097 37.1498 22.79097 37.1498 24.47097 34.03247 24.47097 34.03247 29.86564"></polygon>
                <path d="M37.86213,29.86564 L37.86213,17.35897 L40.99813,17.35897 C41.8194633,17.35897 42.51013,17.6451933 43.07013,18.21764 C43.64257,18.7900867 43.92879,19.4931967 43.92879,20.32697 L43.92879,21.48431 C43.92879,22.6416433 43.4372367,23.5251967 42.45413,24.13497 L44.35813,29.86564 L42.45413,29.86564 L40.77413,24.50831 L39.65413,24.50831 L39.65413,29.86564 L37.86213,29.86564 Z M41.83813,22.52964 C41.95013,22.3927533 42.0247967,22.2371967 42.06213,22.06297 C42.11193,21.88875 42.13683,21.6958633 42.13683,21.48431 L42.13683,20.32697 C42.13683,19.9411967 42.0310533,19.6300867 41.8195,19.39364 C41.6079467,19.1447533 41.30928,19.02031 40.9235,19.02031 L39.65417,19.02031 L39.65417,22.92164 L40.90483,22.92164 C41.2781633,22.92164 41.5892767,22.7909733 41.83817,22.52964 L41.83813,22.52964 Z" id="path2247"></path>
                <path d="M44.11411,29.86564 L46.91411,17.35897 L48.46345,17.35897 L51.26345,29.86564 L49.34078,29.86564 L48.83678,27.17764 L46.52211,27.17764 L45.99945,29.86564 L44.11411,29.86564 Z M46.83945,25.51631 L48.51945,25.51631 L47.67945,20.96164 L46.83945,25.51631 Z" id="path2249"></path>
                <path d="M52.71527,26.74831 C52.71527,26.87275 52.71527,26.9785267 52.71527,27.06564 C52.71527,27.1527533 52.7215033,27.22742 52.73397,27.28964 C52.7588367,27.4140867 52.85217,27.59453 53.01397,27.83097 C53.18819,28.0798633 53.4993,28.20431 53.9473,28.20431 C54.1961867,28.20431 54.42641,28.15453 54.63797,28.05497 C54.8495233,27.94297 55.0050767,27.79986 55.10463,27.62564 C55.1792967,27.4887533 55.2228533,27.3580867 55.2353,27.23364 C55.2601667,27.1091933 55.2726,26.9971933 55.2726,26.89764 L55.2726,26.72964 L55.2726,25.85231 L55.2726,25.68431 C55.2726,25.41053 55.2228233,25.1989733 55.12327,25.04964 C55.0237167,24.88786 54.7997167,24.7074167 54.45127,24.50831 C54.2148233,24.3838633 53.7917133,24.20964 53.18194,23.98564 C52.57216,23.76164 52.0619367,23.4069733 51.65127,22.92164 C51.2406033,22.4363067 51.03527,21.77675 51.03527,20.94297 L51.03527,20.38297 C51.03527,19.5243033 51.3214933,18.7900833 51.89394,18.18031 C52.4788267,17.5580833 53.18816,17.24697 54.02194,17.24697 C54.8930467,17.24697 55.6148233,17.55186 56.18727,18.16164 C56.7721567,18.77142 57.0646,19.5118633 57.0646,20.38297 L57.0646,20.94297 L55.2726,20.94297 L55.2726,20.38297 C55.2726,20.2958633 55.2663667,20.2149767 55.2539,20.14031 C55.2539,20.0656433 55.2476667,19.9971967 55.2352,19.93497 C55.2227333,19.87277 55.1916333,19.7981033 55.1419,19.71097 C55.0921,19.6238633 55.0236533,19.5180867 54.93656,19.39364 C54.76234,19.1447533 54.4698967,19.02031 54.05923,19.02031 C53.6983433,19.02031 53.3996767,19.1509767 53.16323,19.41231 C52.93923,19.6736433 52.82723,19.9971967 52.82723,20.38297 L52.82723,20.94297 L52.82723,21.11097 C52.82723,21.3598633 52.8645633,21.5589767 52.93923,21.70831 C53.0263433,21.8451967 53.2254533,22.00075 53.53656,22.17497 C53.63612,22.22477 53.7854533,22.2932167 53.98456,22.38031 C54.19612,22.4549767 54.4512333,22.54831 54.7499,22.66031 C55.3472333,22.8594167 55.8823433,23.2140833 56.35523,23.72431 C56.8281167,24.23453 57.0646,24.90653 57.0646,25.74031 L57.0646,26.74831 C57.0646,27.1838633 57.0210067,27.5509733 56.9339,27.84964 C56.8592333,28.1483067 56.60412,28.5838633 56.16856,29.15631 C55.7330067,29.7038633 55.0050067,29.97764 53.98456,29.97764 C52.9018933,29.97764 52.1178933,29.6291967 51.63256,28.93231 C51.1472267,28.2229767 50.90456,27.4949767 50.90456,26.74831 L50.90456,26.30031 L52.71523,26.30031 L52.71527,26.74831 Z" id="path2251"></path>
                <polygon id="path2253" points="58.87393 29.86564 58.87393 19.02031 56.7646 19.02031 56.7646 17.35897 62.79393 17.35897 62.79393 19.02031 60.64726 19.02031 60.64726 29.86564"></polygon>
                <path d="M63.11048,29.86564 L63.11048,17.35897 L66.24648,17.35897 C67.0678133,17.35897 67.75848,17.6451933 68.31848,18.21764 C68.8909267,18.7900867 69.17715,19.4931967 69.17715,20.32697 L69.17715,21.48431 C69.17715,22.6416433 68.6855933,23.5251967 67.70248,24.13497 L69.60648,29.86564 L67.70248,29.86564 L66.02248,24.50831 L64.90248,24.50831 L64.90248,29.86564 L63.11048,29.86564 Z M67.08648,22.52964 C67.19848,22.3927533 67.2731467,22.2371967 67.31048,22.06297 C67.36028,21.88875 67.38518,21.6958633 67.38518,21.48431 L67.38518,20.32697 C67.38518,19.9411967 67.2794,19.6300867 67.06784,19.39364 C66.8562867,19.1447533 66.55762,19.02031 66.17184,19.02031 L64.90251,19.02031 L64.90251,22.92164 L66.15318,22.92164 C66.5265133,22.92164 66.8376233,22.7909733 67.08651,22.52964 L67.08648,22.52964 Z" id="path2255"></path>
                <path d="M75.00268,28.55897 C74.7289,28.9820833 74.3742333,29.3243067 73.93868,29.58564 C73.5155667,29.8469733 73.0426767,29.97764 72.52001,29.97764 C72.2586767,29.97764 71.9973433,29.9403067 71.73601,29.86564 C71.4871233,29.7909733 71.25068,29.69764 71.02668,29.58564 C70.80268,29.4611933 70.6035667,29.3243033 70.42934,29.17497 C70.25512,29.0131967 70.1244533,28.8451967 70.03734,28.67097 C69.8506733,28.32253 69.72623,28.0176433 69.66401,27.75631 C69.61421,27.4949767 69.58931,27.2149767 69.58931,26.91631 L69.58931,17.35897 L71.38131,17.35897 L71.38131,26.91631 C71.38131,27.0034167 71.38131,27.0843033 71.38131,27.15897 C71.3937767,27.22117 71.40621,27.2833933 71.41861,27.34564 C71.4310767,27.4451933 71.52441,27.6194167 71.69861,27.86831 C71.8603833,28.09231 72.1403833,28.20431 72.53861,28.20431 C72.8994967,28.20431 73.16705,28.0736433 73.34127,27.81231 C73.5279367,27.53853 73.62127,27.2398633 73.62127,26.91631 L73.62127,17.35897 L75.41327,17.35897 L75.41327,26.91631 C75.41327,27.2149767 75.38217,27.5011967 75.31997,27.77497 C75.25777,28.04875 75.1519933,28.3100833 75.00264,28.55897 L75.00268,28.55897 Z" id="path2257"></path>
                <path d="M82.20763,26.71097 C82.20763,27.1091967 82.18273,27.45142 82.13293,27.73764 C82.0955967,28.02386 81.9711533,28.33497 81.7596,28.67097 C81.6476,28.8451967 81.5044867,29.0131967 81.33026,29.17497 C81.1684867,29.3243033 80.98182,29.4611933 80.77026,29.58564 C80.5711533,29.69764 80.3533767,29.7909733 80.11693,29.86564 C79.8804833,29.9403067 79.65026,29.97764 79.42626,29.97764 C78.86626,29.97764 78.35604,29.8594167 77.8956,29.62297 C77.4476,29.38653 77.11782,29.0878633 76.90626,28.72697 C76.6947067,28.3660833 76.55782,28.0300833 76.4956,27.71897 C76.4458,27.4078633 76.4209,27.0718633 76.4209,26.71097 L76.4209,20.27097 C76.4209,19.92253 76.452,19.61142 76.5142,19.33764 C76.5888667,19.05142 76.7382,18.74653 76.9622,18.42297 C77.1862,18.0994167 77.5035333,17.82564 77.9142,17.60164 C78.3248667,17.3651933 78.7542,17.24697 79.2022,17.24697 C80.0608667,17.24697 80.7764233,17.5331933 81.34887,18.10564 C81.9213167,18.66564 82.20754,19.3874167 82.20754,20.27097 L82.20754,20.94297 L80.4342,20.94297 L80.4342,20.27097 C80.4342,19.92253 80.3346467,19.6300867 80.13554,19.39364 C79.9488733,19.1571933 79.6688733,19.03897 79.29554,19.03897 C78.9470933,19.03897 78.6733133,19.1571933 78.4742,19.39364 C78.2875333,19.6300867 78.1942,19.92253 78.1942,20.27097 L78.1942,27.19631 C78.2190667,27.3829767 78.30618,27.59453 78.45554,27.83097 C78.62976,28.0798633 78.91598,28.20431 79.3142,28.20431 C79.7373133,28.20431 80.0173133,28.09231 80.1542,27.86831 C80.2910933,27.64431 80.3719833,27.48253 80.39687,27.38297 C80.4217367,27.27097 80.43417,27.1216367 80.43417,26.93497 L80.43417,26.30031 L82.20751,26.30031 L82.20763,26.71097 Z" id="path2259"></path>
                <polygon id="path2261" points="84.46392 29.86564 84.46392 19.02031 82.35458 19.02031 82.35458 17.35897 88.38392 17.35897 88.38392 19.02031 86.23725 19.02031 86.23725 29.86564"></polygon>
                <path d="M94.07203,28.55897 C93.7982567,28.9820833 93.44359,29.3243067 93.00803,29.58564 C92.5849233,29.8469733 92.1120367,29.97764 91.58937,29.97764 C91.3280367,29.97764 91.0667033,29.9403067 90.80537,29.86564 C90.5564767,29.7909733 90.32003,29.69764 90.09603,29.58564 C89.87203,29.4611933 89.67292,29.3243033 89.4987,29.17497 C89.32448,29.0131967 89.1938133,28.8451967 89.1067,28.67097 C88.9200333,28.32253 88.79559,28.0176433 88.73337,27.75631 C88.68357,27.4949767 88.65867,27.2149767 88.65867,26.91631 L88.65867,17.35897 L90.45067,17.35897 L90.45067,26.91631 C90.45067,27.0034167 90.45067,27.0843033 90.45067,27.15897 C90.4631367,27.22117 90.47557,27.2833933 90.48797,27.34564 C90.5004367,27.4451933 90.59377,27.6194167 90.76797,27.86831 C90.92975,28.09231 91.20975,28.20431 91.60797,28.20431 C91.9688633,28.20431 92.23642,28.0736433 92.41064,27.81231 C92.5973067,27.53853 92.69064,27.2398633 92.69064,26.91631 L92.69064,17.35897 L94.48264,17.35897 L94.48264,26.91631 C94.48264,27.2149767 94.45154,27.5011967 94.38934,27.77497 C94.32714,28.04875 94.22136,28.3100833 94.072,28.55897 L94.07203,28.55897 Z" id="path2263"></path>
                <path d="M95.34194,29.86564 L95.34194,17.35897 L98.47794,17.35897 C99.2992733,17.35897 99.98994,17.6451933 100.54994,18.21764 C101.12238,18.7900867 101.4086,19.4931967 101.4086,20.32697 L101.4086,21.48431 C101.4086,22.6416433 100.917047,23.5251967 99.93394,24.13497 L101.83794,29.86564 L99.93394,29.86564 L98.25394,24.50831 L97.13394,24.50831 L97.13394,29.86564 L95.34194,29.86564 Z M99.31794,22.52964 C99.42994,22.3927533 99.5046067,22.2371967 99.54194,22.06297 C99.59174,21.88875 99.61664,21.6958633 99.61664,21.48431 L99.61664,20.32697 C99.61664,19.9411967 99.51086,19.6300867 99.2993,19.39364 C99.0877467,19.1447533 98.78908,19.02031 98.4033,19.02031 L97.13397,19.02031 L97.13397,22.92164 L98.38464,22.92164 C98.7579733,22.92164 99.0690833,22.7909733 99.31797,22.52964 L99.31794,22.52964 Z" id="path2265"></path>
                <polygon id="path2267" points="107.29899 28.07364 107.29899 29.86564 101.94166 29.86564 101.94166 17.35897 107.29899 17.35897 107.29899 19.00164 103.71499 19.00164 103.71499 22.69764 106.85099 22.69764 106.85099 24.39631 103.71499 24.39631 103.71499 28.07364"></polygon>
            </g>
            <g id="text6075-0-6-9-2-5-9-0-9" transform="translate(14.788320, 12.058910)" fill="#FFFFFF" fill-rule="nonzero">
                <path d="M0.4467,15.05266 C0.238253333,14.6357733 0.104253333,14.2486633 0.0447,13.89133 C0.0149,13.5042167 0,12.93844 0,12.194 L0,6.11933 C0,5.46421667 0.104223333,4.86866 0.31267,4.33266 C0.431783333,4.03488667 0.61045,3.67755333 0.84867,3.26066 C1.11667,2.84377333 1.45911333,2.33755333 1.876,1.742 C2.70978,0.580666667 4.19867,0 6.34267,0 C8.36755667,0 9.93089,0.684886667 11.03267,2.05466 C12.1940033,3.39466 12.77467,4.94310667 12.77467,6.7 L12.77467,11.56866 C12.77467,12.7299933 12.5364467,13.8913267 12.06,15.05266 L6.432,30.19466 L1.56334,30.19466 L6.566,17.59866 C5.79178,17.7773267 5.19622667,17.86666 4.77934,17.86666 C3.82644667,17.86666 2.948,17.61355 2.144,17.10733 C1.36978,16.57133 0.804003333,15.88644 0.44667,15.05266 L0.4467,15.05266 Z M6.4767,4.19866 C5.76203333,4.19866 5.22603333,4.45177333 4.8687,4.958 C4.51136667,5.43444 4.3327,6.01510667 4.3327,6.7 L4.3327,11.56866 C4.3327,12.3131067 4.52625667,12.9235533 4.91337,13.4 C5.30047667,13.87644 5.86625333,14.11466 6.6107,14.11466 C7.26581333,14.11466 7.74225667,13.8913267 8.04003,13.44466 C8.36759,12.96822 8.53137,12.3428867 8.53137,11.56866 L8.53137,6.7 C8.53137,5.95555333 8.36759,5.35999667 8.04003,4.91333 C7.74225667,4.43688333 7.22114667,4.19866 6.4767,4.19866 Z" id="path2270"></path>
            </g>
            <polygon id="path7454" stroke="#FFFFFF" stroke-width="2.5999999" stroke-linejoin="round" points="94.40499 66.6161 94.40499 87.59771 76.23439 98.0885 58.06379 87.59771 58.06379 66.61611 76.23439 56.1253"></polygon>
            <polygon id="path7452" stroke="#FFFFFF" stroke-width="2.5999999" stroke-linejoin="round" points="112.71644 98.16981 112.71644 119.15142 94.54584 129.64221 76.37524 119.15142 76.37524 98.16982 94.54584 87.67901"></polygon>
            <polygon id="path7450" stroke="#FFFFFF" stroke-width="2.5999999" stroke-linejoin="round" points="76.23439 98.08851 76.23439 119.07012 58.06379 129.56091 39.89319 119.07012 39.89319 98.08852 58.06379 87.59771"></polygon>
            <polyline id="path7448" stroke="#FFFFFF" stroke-width="2.5999999" stroke-linejoin="round" points="58.00247 129.75894 58.00247 87.39965 76.03222 76.99017 112.71644 98.16981 76.37524 119.15141 58.06379 108.57929 58.00249 129.75894"></polyline>
            <line x1="76.37524" y1="76.79213" x2="76.37524" y2="98.00718" id="path7446" stroke="#FFFFFF" stroke-width="2.5999999" stroke-linejoin="round"></line>
            <polygon id="path7414-8" stroke="#FFFFFF" stroke-width="2.5999999" fill="#FFFFFF" fill-rule="nonzero" stroke-linejoin="round" points="76.08304 76.96083 94.45581 66.35331 76.37524 55.91449 58.00247 66.52201"></polygon>
            <polygon id="path7414-8-8" stroke="#FFFFFF" stroke-width="2.5999999" fill="#FFFFFF" fill-rule="nonzero" stroke-linejoin="round" points="58.00247 108.6147 76.37524 98.00718 58.29467 87.56835 39.9219 98.17588"></polygon>
            <polygon id="path7414-8-1" stroke="#FFFFFF" stroke-width="2.5999999" fill="#FFFFFF" fill-rule="nonzero" stroke-linejoin="round" points="76.17308 119.03469 94.54584 129.64221 94.54584 108.76457 76.17308 98.15705"></polygon>
        </g>
    </g>
</svg>